<svg xmlns="http://www.w3.org/2000/svg" viewBox="0 -970 543 1200">
  <path transform="scale(1,-1)" d="M 376,360 C 466,384 532,464 532,552 C 532,639 465,704 355,704 C 213,704 114,610 114,494 C 114,428 155,378 211,361 C 102,336 21,257 21,148 C 21,40 112,-15 221,-15 C 356,-15 491,61 491,211 C 491,282 450,340 376,360 Z M 156,498 C 156,599 239,671 350,671 C 440,671 491,622 491,547 C 491,433 394,375 297,375 C 206,375 156,419 156,498 Z M 229,18 C 140,18 63,62 63,153 C 63,258 146,342 288,342 C 397,342 449,285 449,206 C 449,79 334,18 229,18 Z "/>
</svg>
