<svg xmlns="http://www.w3.org/2000/svg" viewBox="0 -970 562 1200">
  <path transform="scale(1,-1)" d="M 346,608 C 364,608 380,622 380,642 C 380,655 370,666 355,666 C 337,666 322,652 322,633 C 322,619 332,608 346,608 Z M 538,530 L 500,530 L 480,416 L 461,472 C 430,520 386,541 317,541 C 128,541 25,367 25,200 C 25,77 94,-14 214,-14 C 286,-14 334,4 385,52 L 426,109 L 423,94 C 416,53 412,29 405,-4 C 382,-119 307,-185 188,-185 C 100,-185 36,-149 37,-55 L 38,-42 L -1,-42 L -1,-55 C -3,-167 75,-218 180,-218 C 329,-218 416,-135 443,-7 C 450,26 457,67 469,138 L 538,530 Z M 224,18 C 121,18 66,96 66,202 C 66,355 157,509 312,509 C 433,509 475,422 461,312 L 446,224 C 412,72 320,18 224,18 Z "/>
</svg>
