<svg xmlns="http://www.w3.org/2000/svg" viewBox="0 -970 543 1200">
  <path transform="scale(1,-1)" d="M 449,316 C 449,353 440,387 423,413 L 493,474 L 475,496 L 405,436 C 379,464 342,481 299,481 C 252,481 213,467 183,446 L 138,500 L 112,478 L 156,424 C 117,384 98,331 98,286 C 98,250 107,217 124,190 L 55,131 L 73,109 L 142,167 C 168,138 204,121 247,121 C 295,121 334,134 365,156 L 408,104 L 434,126 L 391,177 C 430,216 449,268 449,316 Z M 130,289 C 130,359 185,451 293,451 C 367,451 416,398 416,313 C 416,244 362,151 253,151 C 179,151 130,209 130,289 Z "/>
</svg>
