<svg xmlns="http://www.w3.org/2000/svg" viewBox="0 -970 597 1200">
  <path transform="scale(1,-1)" d="M 405,364 C 501,384 565,452 565,550 C 565,630 510,680 418,688 C 384,690 366,690 337,690 L 156,690 L 34,0 L 234,0 C 260,0 280,0 308,3 C 421,12 532,84 532,215 C 532,293 490,347 405,364 Z M 139,377 L 189,657 L 333,657 C 357,657 374,657 395,656 C 466,652 523,623 523,542 C 523,431 434,386 350,379 C 327,378 311,377 294,377 L 139,377 Z M 297,35 C 284,34 267,33 251,33 L 78,33 L 133,344 L 304,344 C 320,344 333,344 356,342 C 454,337 491,281 491,214 C 491,93 388,42 297,35 Z "/>
</svg>
