<svg xmlns="http://www.w3.org/2000/svg" viewBox="0 -970 521 1200">
  <path transform="scale(1,-1)" d="M 313,510 C 411,510 460,453 461,360 L 500,360 C 502,468 438,541 321,541 C 129,541 26,372 26,206 C 26,72 96,-6 199,-13 L 157,-71 C 217,-67 245,-86 245,-122 C 245,-159 215,-184 161,-184 C 142,-184 126,-183 110,-177 L 105,-203 C 120,-208 137,-210 156,-210 C 224,-210 277,-181 277,-120 C 277,-78 249,-53 204,-48 L 228,-14 C 336,-10 422,49 467,160 L 428,160 C 388,68 313,18 223,18 C 136,18 66,77 66,208 C 66,367 163,510 313,510 Z "/>
</svg>
