<svg xmlns="http://www.w3.org/2000/svg" viewBox="0 -970 547 1200">
  <path transform="scale(1,-1)" d="M 288,643 C 297,643 310,640 332,632 C 358,623 374,619 391,619 C 417,619 433,634 436,667 L 412,667 C 410,652 403,647 393,647 C 384,647 371,650 348,658 C 323,667 306,671 289,671 C 263,671 247,656 244,623 L 268,623 C 271,638 278,643 288,643 Z M 341,541 C 279,541 221,522 171,472 L 136,414 L 156,527 L 118,527 L 26,0 L 64,0 L 115,292 C 141,441 234,508 331,508 C 420,509 457,459 457,391 C 457,362 453,330 445,285 L 395,0 L 433,0 L 485,294 C 494,345 497,367 497,399 C 497,487 443,541 341,541 Z "/>
</svg>
