<svg xmlns="http://www.w3.org/2000/svg" viewBox="0 -970 615 1200">
  <path transform="scale(1,-1)" d="M 619,518 L 602,539 L 507,458 C 472,509 414,541 333,541 C 129,541 41,352 41,216 C 41,168 51,124 71,87 L -18,12 L -1,-9 L 85,64 C 120,16 177,-14 255,-14 C 460,-14 548,175 548,312 C 548,357 539,399 521,435 L 619,518 Z M 82,216 C 82,344 163,509 328,509 C 393,509 445,481 476,432 L 102,114 C 89,143 82,177 82,216 Z M 507,311 C 507,183 425,18 261,18 C 198,18 147,44 116,90 L 489,407 C 501,380 507,348 507,311 Z "/>
</svg>
