<svg xmlns="http://www.w3.org/2000/svg" viewBox="0 -970 621 1200">
  <path transform="scale(1,-1)" d="M 425,852 C 384,852 343,822 343,774 C 343,741 368,721 403,721 C 445,721 485,750 485,798 C 485,831 460,852 425,852 Z M 421,827 C 443,827 455,813 455,795 C 455,767 435,745 407,745 C 385,745 374,760 374,777 C 374,805 394,827 421,827 Z M 629,690 L 591,690 L 513,246 C 508,220 505,204 500,184 C 475,86 409,19 283,19 C 166,19 117,80 117,157 C 117,185 120,211 126,244 L 204,690 L 166,690 L 87,245 C 82,212 79,186 79,155 C 79,54 147,-14 277,-14 C 429,-14 508,65 536,177 C 541,198 546,221 550,243 L 629,690 Z "/>
</svg>
