<svg xmlns="http://www.w3.org/2000/svg" viewBox="0 -970 921 1200">
  <path transform="scale(1,-1)" d="M 879,253 C 885,275 890,313 890,343 C 890,453 835,544 706,544 C 617,544 527,496 477,410 C 473,475 439,544 314,544 C 204,544 111,475 88,381 L 127,381 C 154,473 234,512 309,512 C 399,512 438,464 438,379 C 438,359 436,336 427,286 L 393,286 C 149,286 23,224 23,103 C 23,24 92,-14 174,-14 C 259,-14 325,15 387,84 L 421,143 C 431,58 485,-14 602,-14 C 704,-14 806,45 856,164 L 817,164 C 774,64 689,18 610,18 C 523,18 455,68 455,193 C 455,211 456,232 460,253 L 879,253 Z M 698,512 C 832,512 863,398 845,286 L 465,286 C 498,438 596,512 698,512 Z M 188,18 C 112,18 66,54 66,111 C 66,209 183,254 369,254 C 386,254 404,254 421,253 L 416,224 C 394,101 298,18 188,18 Z "/>
</svg>
