<svg xmlns="http://www.w3.org/2000/svg" viewBox="0 -970 436 1200">
  <path transform="scale(1,-1)" d="M 315,55 C 315,65 316,76 326,128 L 432,735 C 412,747 364,754 326,754 C 225,754 164,697 141,615 C 135,595 132,576 129,560 L 122,523 L 76,523 L 70,491 L 117,491 L 30,0 L 68,0 L 155,491 L 262,491 L 268,523 L 161,523 L 168,562 C 170,577 173,593 179,613 C 194,670 236,722 320,722 C 344,722 374,719 390,711 L 288,127 C 277,67 275,53 275,41 C 275,5 295,-5 325,-5 C 337,-5 349,-5 362,-2 L 367,28 C 329,23 315,31 315,55 Z "/>
</svg>
