<svg xmlns="http://www.w3.org/2000/svg" viewBox="0 -970 846 1200">
  <path transform="scale(1,-1)" d="M 603,465 L 564,465 L 547,398 L 529,450 C 515,469 489,483 451,483 C 329,483 238,359 238,221 C 238,100 309,67 366,67 C 409,67 447,86 481,128 L 499,167 C 502,97 551,75 601,75 C 696,75 790,161 790,336 C 790,530 658,664 465,664 C 267,664 54,507 54,244 C 54,9 222,-104 390,-104 C 485,-104 566,-88 674,-15 L 659,12 C 568,-52 489,-74 391,-74 C 232,-74 88,35 88,246 C 88,490 288,634 459,634 C 632,634 757,524 757,332 C 757,191 688,105 607,105 C 563,105 539,129 539,168 C 539,185 540,202 549,242 L 603,465 Z M 518,272 C 491,152 433,99 374,99 C 318,99 280,138 280,225 C 280,349 357,451 450,451 C 512,451 546,394 527,312 L 518,272 Z "/>
</svg>
