<svg xmlns="http://www.w3.org/2000/svg" viewBox="0 -970 543 1200">
  <path transform="scale(1,-1)" d="M 365,359 C 459,380 538,459 538,552 C 538,638 481,704 372,704 C 248,704 144,633 119,507 L 117,497 L 155,497 L 157,507 C 178,614 265,671 363,671 C 445,671 496,627 496,545 C 496,436 379,369 281,369 L 264,369 L 257,336 L 274,336 C 395,336 448,291 448,209 C 448,91 349,19 229,19 C 120,19 65,89 73,194 L 73,204 L 35,204 L 35,194 C 25,55 102,-14 221,-14 C 368,-14 490,74 490,217 C 490,296 443,343 365,359 Z "/>
</svg>
