<svg xmlns="http://www.w3.org/2000/svg" viewBox="0 -970 542 1200">
  <path transform="scale(1,-1)" d="M 272,606 C 288,606 304,620 304,637 C 304,649 295,659 282,659 C 266,659 250,644 250,627 C 250,615 259,606 272,606 Z M 368,606 C 384,606 400,620 400,637 C 400,649 392,659 378,659 C 363,659 347,644 347,627 C 347,615 355,606 368,606 Z M 517,527 L 479,527 L 429,235 C 402,86 309,19 212,19 C 123,18 86,68 86,136 C 86,166 90,198 98,242 L 149,527 L 111,527 L 58,234 C 49,182 47,161 47,128 C 47,41 100,-14 202,-14 C 264,-14 322,6 372,56 L 407,113 L 387,0 L 425,0 L 517,527 Z "/>
</svg>
