<svg xmlns="http://www.w3.org/2000/svg" viewBox="0 -970 744 1200">
  <path transform="scale(1,-1)" d="M 411,781 C 420,781 433,778 455,770 C 481,761 497,757 514,757 C 540,757 556,772 559,806 L 535,806 C 533,791 526,786 516,786 C 507,786 494,789 471,797 C 446,806 429,810 412,810 C 386,810 370,795 367,761 L 391,761 C 394,776 401,781 411,781 Z M 445,704 C 197,704 66,486 66,287 C 66,106 175,-14 338,-14 C 585,-14 717,204 717,404 C 717,584 608,704 445,704 Z M 345,19 C 209,19 107,120 107,287 C 107,470 226,671 438,671 C 573,671 676,570 676,404 C 676,220 557,19 345,19 Z "/>
</svg>
