<svg xmlns="http://www.w3.org/2000/svg" viewBox="0 -970 643 1200">
  <path transform="scale(1,-1)" d="M 635,363 L 528,363 L 553,505 L 515,505 L 490,363 L 393,363 C 371,363 351,363 331,364 C 262,368 185,390 185,486 C 185,604 282,671 400,671 C 449,671 482,668 521,660 L 527,694 C 490,701 458,704 409,704 C 259,704 143,613 143,485 C 143,401 194,358 265,346 C 140,330 45,254 45,132 C 45,18 141,-14 283,-14 C 333,-14 406,-8 465,3 L 522,329 L 628,329 L 635,363 Z M 484,329 L 431,30 C 389,22 333,19 291,19 C 166,19 88,46 88,138 C 88,267 195,316 325,327 C 345,329 364,329 386,329 L 484,329 Z "/>
</svg>
