<svg xmlns="http://www.w3.org/2000/svg" viewBox="0 -970 621 1200">
  <path transform="scale(1,-1)" d="M 375,810 C 360,810 344,795 344,778 C 344,766 352,757 365,757 C 381,757 397,771 397,788 C 397,800 389,810 375,810 Z M 463,810 C 447,810 431,795 431,778 C 431,766 440,757 453,757 C 469,757 485,771 485,788 C 485,800 476,810 463,810 Z M 629,690 L 591,690 L 513,246 C 508,220 505,204 500,184 C 475,86 409,19 283,19 C 166,19 117,80 117,157 C 117,185 120,211 126,244 L 204,690 L 166,690 L 87,245 C 82,212 79,186 79,155 C 79,54 147,-14 277,-14 C 429,-14 508,65 536,177 C 541,198 546,221 550,243 L 629,690 Z "/>
</svg>
