<svg xmlns="http://www.w3.org/2000/svg" viewBox="0 -970 538 1200">
  <path transform="scale(1,-1)" d="M 190,440 C 140,440 99,418 61,369 L 80,351 C 115,393 141,409 183,409 C 215,409 234,400 275,376 C 321,349 343,338 379,338 C 429,338 471,361 508,410 L 489,428 C 454,385 429,369 386,369 C 355,369 336,378 294,402 C 249,429 227,440 190,440 Z M 159,265 C 109,265 68,243 31,194 L 50,176 C 84,218 110,234 152,234 C 184,234 203,225 244,201 C 290,174 312,163 348,163 C 398,163 439,186 478,235 L 458,253 C 423,210 398,194 355,194 C 324,194 305,203 264,227 C 218,254 196,265 159,265 Z "/>
</svg>
