<svg xmlns="http://www.w3.org/2000/svg" viewBox="0 -970 455 1200">
  <path transform="scale(1,-1)" d="M 231,283 C 162,302 115,331 115,392 C 115,451 164,509 254,509 C 329,509 380,473 387,382 L 426,382 C 421,483 363,541 258,541 C 144,541 75,472 75,389 C 75,305 141,270 210,251 C 309,224 349,195 349,132 C 349,64 291,17 205,17 C 112,17 53,53 49,150 L 10,150 C 11,52 69,-3 162,-14 L 121,-71 C 181,-67 209,-86 209,-122 C 209,-159 179,-184 125,-184 C 106,-184 90,-183 74,-177 L 69,-203 C 84,-208 101,-210 120,-210 C 188,-210 241,-181 241,-120 C 241,-78 213,-53 168,-48 L 190,-16 L 199,-16 C 305,-16 389,38 389,136 C 389,217 334,254 231,283 Z "/>
</svg>
