<svg xmlns="http://www.w3.org/2000/svg" viewBox="0 -970 527 1200">
  <path transform="scale(1,-1)" d="M 274,606 C 290,606 306,620 306,637 C 306,649 297,659 284,659 C 268,659 252,644 252,627 C 252,615 261,606 274,606 Z M 370,606 C 386,606 402,620 402,637 C 402,649 394,659 380,659 C 365,659 349,644 349,627 C 349,615 357,606 370,606 Z M 485,253 C 492,275 497,312 497,342 C 497,453 442,541 313,541 C 119,541 24,347 24,202 C 24,59 104,-14 212,-14 C 314,-14 410,39 463,164 L 424,164 C 380,64 300,18 220,18 C 139,18 65,69 65,203 C 65,219 66,235 69,253 L 485,253 Z M 308,509 C 392,509 458,464 458,341 C 458,323 457,305 454,286 L 75,286 C 100,392 173,509 308,509 Z "/>
</svg>
