<svg xmlns="http://www.w3.org/2000/svg" viewBox="0 -970 567 1200">
  <path transform="scale(1,-1)" d="M 366,736 L 448,830 L 407,830 L 338,736 L 366,736 Z M 575,544 C 575,624 524,674 435,685 C 403,689 373,690 338,690 L 156,690 L 34,0 L 72,0 L 130,328 L 284,328 C 300,328 323,328 343,327 C 415,323 434,265 436,197 C 439,68 444,32 450,0 L 491,0 C 482,30 476,70 474,175 C 473,279 453,330 398,344 C 499,361 575,435 575,544 Z M 363,363 C 334,361 317,361 290,361 L 136,361 L 188,657 L 332,657 C 367,657 391,656 420,652 C 492,643 533,605 533,537 C 533,439 463,371 363,363 Z "/>
</svg>
