<svg xmlns="http://www.w3.org/2000/svg" viewBox="0 -970 345 1200">
  <path transform="scale(1,-1)" d="M 161,666 C 143,666 128,652 128,633 C 128,619 138,608 152,608 C 170,608 186,622 186,642 C 186,655 176,666 161,666 Z M 342,666 C 324,666 308,652 308,633 C 308,619 318,608 333,608 C 351,608 366,622 366,642 C 366,655 356,666 342,666 Z M 63,0 L 156,527 L 118,527 L 25,0 L 63,0 Z M 340,527 L 302,527 L 197,-73 C 194,-92 191,-102 187,-116 C 173,-168 141,-185 87,-175 L 81,-207 C 94,-209 105,-210 117,-210 C 169,-210 207,-185 224,-121 C 229,-103 232,-86 236,-66 L 340,527 Z "/>
</svg>
