<svg xmlns="http://www.w3.org/2000/svg" viewBox="0 -970 291 1200">
  <path transform="scale(1,-1)" d="M 179,433 C 179,460 184,495 208,562 C 235,636 243,662 243,692 C 243,755 197,780 128,780 L 113,780 L 107,750 L 124,750 C 178,750 211,735 211,691 C 211,663 206,643 180,572 C 153,493 146,461 146,430 C 146,392 164,359 211,350 C 113,333 105,234 102,125 C 100,10 86,-50 -17,-50 L -34,-50 L -39,-80 L -24,-80 C 110,-80 132,-5 134,135 C 135,248 146,326 240,335 L 246,365 C 196,370 179,399 179,433 Z "/>
</svg>
