<svg xmlns="http://www.w3.org/2000/svg" viewBox="0 -970 498 1200">
  <path transform="scale(1,-1)" d="M 284,643 C 293,643 306,640 328,632 C 354,623 370,619 387,619 C 413,619 429,634 432,667 L 408,667 C 406,652 399,647 389,647 C 380,647 367,650 344,658 C 319,667 302,671 285,671 C 259,671 243,656 240,623 L 264,623 C 267,638 274,643 284,643 Z M 310,541 C 197,541 112,472 90,378 L 129,378 C 156,470 227,509 307,509 C 390,509 420,468 420,406 C 420,389 418,368 411,334 L 406,307 C 209,322 26,272 26,114 C 26,27 91,-14 166,-14 C 234,-14 296,12 341,65 L 374,116 L 361,0 L 400,0 C 405,67 410,106 419,161 L 450,336 C 457,371 459,395 459,413 C 459,488 412,541 310,541 Z M 389,207 C 372,108 283,18 181,18 C 112,18 66,53 66,117 C 66,233 200,294 401,276 L 389,207 Z "/>
</svg>
