<svg xmlns="http://www.w3.org/2000/svg" viewBox="0 -970 543 1200">
  <path transform="scale(1,-1)" d="M 524,513 C 522,611 478,694 364,703 L 378,780 L 347,780 L 334,704 C 177,700 112,597 112,506 C 112,411 184,358 267,331 L 212,20 C 125,27 75,78 69,182 L 29,182 C 29,93 73,-4 207,-13 L 193,-90 L 224,-90 L 237,-14 C 398,-10 471,82 471,178 C 471,272 411,329 304,363 L 359,670 C 436,663 484,613 485,513 L 524,513 Z M 153,510 C 153,585 206,666 328,671 L 275,371 C 205,394 153,440 153,510 Z M 431,176 C 431,96 374,23 243,19 L 297,324 C 383,297 431,258 431,176 Z "/>
</svg>
