<svg xmlns="http://www.w3.org/2000/svg" viewBox="0 -970 621 1200">
  <path transform="scale(1,-1)" d="M 629,690 L 591,690 L 513,246 C 508,220 505,204 500,184 C 475,86 409,19 283,19 C 166,19 117,80 117,157 C 117,185 120,211 126,244 L 204,690 L 166,690 L 87,245 C 82,212 79,186 79,155 C 79,54 147,-14 277,-14 L 297,-14 C 227,-56 192,-109 192,-161 C 192,-207 221,-223 253,-223 C 283,-223 309,-214 332,-195 L 337,-166 C 312,-186 292,-195 270,-195 C 246,-195 231,-183 231,-153 C 231,-97 279,-44 363,-4 C 460,21 514,89 536,177 C 541,198 546,221 550,243 L 629,690 Z "/>
</svg>
