<svg xmlns="http://www.w3.org/2000/svg" viewBox="0 -970 478 1200">
  <path transform="scale(1,-1)" d="M 242,606 C 258,606 274,620 274,637 C 274,649 265,659 252,659 C 236,659 220,644 220,627 C 220,615 229,606 242,606 Z M 338,606 C 354,606 370,620 370,637 C 370,649 362,659 348,659 C 333,659 317,644 317,627 C 317,615 325,606 338,606 Z M 513,527 L 469,527 L 193,31 L 93,527 L 51,527 L 165,-11 L 152,-34 C 87,-146 46,-177 -5,-177 C -14,-177 -23,-177 -35,-174 L -41,-206 C -30,-209 -18,-210 -7,-210 C 63,-210 112,-179 213,0 L 513,527 Z "/>
</svg>
