<svg xmlns="http://www.w3.org/2000/svg" viewBox="0 -970 709 1200">
  <path transform="scale(1,-1)" d="M 222,386 C 329,386 381,491 381,575 C 381,650 338,704 267,704 C 160,704 108,599 108,515 C 108,440 151,386 222,386 Z M 673,690 L 629,690 L 62,0 L 106,0 L 673,690 Z M 263,673 C 314,673 343,636 343,576 C 343,504 305,417 226,417 C 175,417 147,454 147,514 C 147,587 184,673 263,673 Z M 515,304 C 408,304 356,199 356,115 C 356,40 400,-14 471,-14 C 577,-14 629,91 629,175 C 629,250 586,304 515,304 Z M 475,17 C 423,17 395,54 395,114 C 395,187 432,273 511,273 C 562,273 591,236 591,176 C 591,104 553,17 475,17 Z "/>
</svg>
