<svg xmlns="http://www.w3.org/2000/svg" viewBox="0 -970 838 1200">
  <path transform="scale(1,-1)" d="M 776,690 L 754,712 L 672,630 C 605,692 516,730 419,730 C 217,730 50,567 50,355 C 50,257 86,169 145,103 L 62,20 L 84,-2 L 166,80 C 233,18 322,-20 419,-20 C 621,-20 788,143 788,355 C 788,453 752,541 693,607 L 776,690 Z M 84,355 C 84,550 235,700 419,700 C 508,700 589,665 649,607 L 168,126 C 116,186 84,266 84,355 Z M 419,11 C 330,11 249,46 189,103 L 670,584 C 722,524 754,444 754,355 C 754,160 603,11 419,11 Z "/>
</svg>
