<svg xmlns="http://www.w3.org/2000/svg" viewBox="0 -970 543 1200">
  <path transform="scale(1,-1)" d="M 401,704 C 232,704 145,564 110,415 L 63,415 L 48,385 L 103,385 C 98,358 94,331 92,305 L 20,305 L 5,275 L 90,275 C 89,262 89,249 89,237 C 89,56 175,-14 309,-14 C 358,-14 408,-5 462,23 L 468,60 C 419,33 371,19 319,19 C 198,19 130,82 130,239 L 131,275 L 420,275 L 434,305 L 133,305 C 135,331 139,358 144,385 L 461,385 L 477,415 L 151,415 C 183,550 258,671 395,671 C 456,671 496,657 530,619 L 555,643 C 519,685 475,704 401,704 Z "/>
</svg>
