<svg xmlns="http://www.w3.org/2000/svg" viewBox="0 -970 821 1200">
  <path transform="scale(1,-1)" d="M 640,541 C 587,541 538,522 497,482 L 450,414 C 447,492 404,541 318,541 C 265,541 216,522 175,482 L 138,423 L 156,527 L 118,527 L 26,0 L 64,0 L 115,294 C 141,438 221,509 304,509 C 379,509 410,470 410,392 C 410,361 407,336 398,283 L 348,0 L 386,0 L 437,292 C 462,437 543,509 625,509 C 699,509 732,469 732,392 C 732,356 728,331 719,283 L 669,0 L 707,0 L 760,300 C 769,352 772,365 772,405 C 772,488 728,541 640,541 Z "/>
</svg>
