<svg xmlns="http://www.w3.org/2000/svg" viewBox="0 -970 538 1200">
  <path transform="scale(1,-1)" d="M 507,255 C 507,347 440,397 329,426 C 253,446 189,478 189,551 C 189,615 233,672 321,672 C 398,672 445,632 460,546 L 499,546 C 486,640 433,704 324,704 C 210,704 148,627 148,551 C 148,497 171,461 209,436 C 106,417 46,354 46,276 C 46,180 126,134 205,112 C 326,82 365,42 365,-25 C 365,-98 302,-142 218,-142 C 136,-142 78,-100 63,-7 L 24,-7 C 38,-123 115,-174 214,-174 C 323,-174 406,-112 406,-22 C 406,30 384,70 338,100 C 446,116 507,179 507,255 Z M 290,125 C 271,132 250,139 226,145 C 152,165 87,198 87,280 C 87,360 160,405 257,411 C 272,405 288,400 306,395 C 415,363 466,326 466,253 C 466,174 393,130 290,125 Z "/>
</svg>
