<svg xmlns="http://www.w3.org/2000/svg" viewBox="0 -970 258 1200">
  <path transform="scale(1,-1)" d="M 160,493 L 260,493 L 265,523 L 165,523 L 185,635 L 147,635 L 127,523 L 62,523 L 56,493 L 122,493 L 59,137 C 51,98 49,76 49,57 C 49,23 64,4 92,-3 L 43,-71 C 103,-67 131,-86 131,-122 C 131,-159 101,-184 47,-184 C 28,-184 12,-183 -5,-177 L -10,-203 C 6,-208 23,-210 42,-210 C 110,-210 163,-181 163,-120 C 163,-78 135,-53 90,-48 L 119,-7 L 125,-7 C 145,-7 160,-6 175,-3 L 180,26 C 117,17 88,27 88,68 C 88,82 90,99 97,135 L 160,493 Z "/>
</svg>
