<svg xmlns="http://www.w3.org/2000/svg" viewBox="0 -970 555 1200">
  <path transform="scale(1,-1)" d="M 534,688 L 524,714 L 441,682 C 416,712 384,731 344,745 L 315,722 C 354,711 384,693 406,668 L 251,609 L 260,583 L 423,645 C 452,599 463,534 467,447 L 436,503 C 402,532 362,544 313,544 C 109,544 24,336 24,202 C 24,84 93,-14 210,-14 C 411,-14 505,176 505,393 C 505,523 489,605 457,659 L 534,688 Z M 216,18 C 129,18 65,85 65,203 C 65,332 141,512 311,512 C 400,512 462,453 462,354 C 462,218 396,18 216,18 Z "/>
</svg>
