<svg xmlns="http://www.w3.org/2000/svg" viewBox="0 -970 519 1200">
  <path transform="scale(1,-1)" d="M 286,764 C 127,764 45,638 45,528 C 45,424 115,344 234,344 C 392,344 475,471 475,580 C 475,684 405,764 286,764 Z M 239,371 C 134,371 74,441 74,528 C 74,624 144,737 281,737 C 385,737 445,667 445,580 C 445,484 375,371 239,371 Z M 292,659 C 283,660 276,660 268,660 L 216,660 L 180,456 L 208,456 L 222,534 L 258,534 C 280,534 286,526 286,500 C 286,482 289,468 292,456 L 324,456 C 317,475 315,489 315,512 C 316,530 307,542 293,547 C 325,554 345,574 345,604 C 345,633 325,655 292,659 Z M 272,559 C 264,558 258,558 251,558 L 226,558 L 239,635 L 263,635 C 271,635 278,635 284,634 C 303,631 314,621 314,601 C 314,577 299,562 272,559 Z "/>
</svg>
