<svg xmlns="http://www.w3.org/2000/svg" viewBox="0 -970 525 1200">
  <path transform="scale(1,-1)" d="M 366,754 C 195,754 135,618 112,488 L 26,0 L 64,0 L 151,491 C 170,600 220,721 362,721 C 439,721 486,679 486,613 C 486,574 477,543 450,508 C 369,469 333,433 333,373 C 333,338 347,311 387,267 C 432,218 447,186 447,153 C 447,98 400,28 287,28 C 257,28 224,31 185,41 L 179,8 C 217,-1 249,-4 282,-4 C 427,-4 488,82 488,155 C 488,203 463,242 417,291 C 385,325 373,345 373,375 C 373,423 405,451 477,484 C 516,529 526,572 526,614 C 526,699 462,754 366,754 Z "/>
</svg>
