<svg xmlns="http://www.w3.org/2000/svg" viewBox="0 -970 738 1200">
  <path transform="scale(1,-1)" d="M 762,643 L 743,666 L 660,596 C 613,664 537,704 443,704 C 196,704 64,486 64,287 C 64,224 77,168 102,122 L 14,47 L 33,24 L 118,96 C 165,26 241,-14 336,-14 C 584,-14 715,204 715,404 C 715,468 701,524 676,570 L 762,643 Z M 105,287 C 105,470 224,671 436,671 C 517,671 587,635 629,569 L 134,149 C 115,187 105,234 105,287 Z M 674,404 C 674,220 555,19 343,19 C 262,19 192,56 149,122 L 645,543 C 664,504 674,458 674,404 Z "/>
</svg>
