<svg xmlns="http://www.w3.org/2000/svg" viewBox="0 -970 549 1200">
  <path transform="scale(1,-1)" d="M 350,704 C 209,704 106,622 106,496 C 106,410 170,370 288,336 C 401,303 452,263 452,181 C 452,82 362,19 246,19 C 130,19 53,77 57,184 L 18,184 C 8,56 104,-10 224,-14 L 183,-71 C 243,-67 271,-86 271,-122 C 271,-159 241,-184 187,-184 C 168,-184 152,-183 136,-177 L 131,-203 C 146,-208 163,-210 182,-210 C 250,-210 303,-181 303,-120 C 303,-78 274,-53 229,-48 L 254,-14 C 396,-8 495,73 495,187 C 495,285 432,337 310,371 C 202,403 149,433 149,507 C 149,618 245,671 341,671 C 436,671 503,612 501,510 L 541,510 C 546,617 482,704 350,704 Z "/>
</svg>
