<svg xmlns="http://www.w3.org/2000/svg" viewBox="0 -970 542 1200">
  <path transform="scale(1,-1)" d="M 314,570 C 357,570 397,603 397,652 C 397,684 372,705 338,705 C 295,705 256,673 256,624 C 256,592 280,570 314,570 Z M 333,681 C 355,681 367,667 367,648 C 367,619 347,595 319,595 C 297,595 286,609 286,628 C 286,657 306,681 333,681 Z M 517,527 L 479,527 L 429,235 C 402,86 309,19 212,19 C 123,18 86,68 86,136 C 86,166 90,198 98,242 L 149,527 L 111,527 L 58,234 C 49,182 47,161 47,128 C 47,41 100,-14 202,-14 C 264,-14 322,6 372,56 L 407,113 L 387,0 L 425,0 L 517,527 Z "/>
</svg>
