<svg xmlns="http://www.w3.org/2000/svg" viewBox="0 -970 560 1200">
  <path transform="scale(1,-1)" d="M 292,606 C 308,606 324,620 324,637 C 324,649 315,659 302,659 C 286,659 270,644 270,627 C 270,615 279,606 292,606 Z M 388,606 C 404,606 420,620 420,637 C 420,649 412,659 398,659 C 383,659 367,644 367,627 C 367,615 375,606 388,606 Z M 319,541 C 114,541 27,352 27,216 C 27,88 96,-14 241,-14 C 446,-14 533,175 533,312 C 533,439 463,541 319,541 Z M 247,18 C 140,18 67,93 67,216 C 67,344 149,509 313,509 C 420,509 492,434 492,311 C 492,183 411,18 247,18 Z "/>
</svg>
