<svg xmlns="http://www.w3.org/2000/svg" viewBox="0 -970 992 1200">
  <path transform="scale(1,-1)" d="M 951,253 C 958,282 962,312 962,342 C 962,453 907,544 780,544 C 679,544 586,484 533,373 C 520,482 444,544 332,544 C 115,544 26,348 26,215 C 26,80 100,-14 234,-14 C 350,-14 440,46 493,155 C 506,41 585,-14 674,-14 C 776,-14 875,39 928,164 L 889,164 C 846,64 761,18 682,18 C 601,18 528,69 528,196 C 528,213 529,233 533,253 L 951,253 Z M 240,18 C 143,18 67,91 67,217 C 67,342 148,512 327,512 C 466,512 511,397 494,279 C 471,121 367,18 240,18 Z M 773,512 C 854,512 923,465 923,340 C 923,323 922,306 918,286 L 539,286 C 571,438 676,512 773,512 Z "/>
</svg>
