<svg xmlns="http://www.w3.org/2000/svg" viewBox="0 -970 995 1200">
  <path transform="scale(1,-1)" d="M 775,544 C 661,544 569,474 510,340 C 494,477 424,544 313,544 C 113,544 26,347 26,210 C 26,80 96,-14 220,-14 C 334,-14 424,54 486,191 C 501,54 570,-14 682,-14 C 882,-14 969,182 969,319 C 969,449 899,544 775,544 Z M 475,265 C 428,88 314,18 226,18 C 138,18 67,86 67,212 C 67,341 151,512 307,512 C 401,512 481,449 475,265 Z M 688,18 C 595,18 514,81 520,265 C 567,442 681,512 770,512 C 858,512 928,443 928,317 C 928,188 845,18 688,18 Z "/>
</svg>
