<svg xmlns="http://www.w3.org/2000/svg" viewBox="0 -970 838 1200">
  <path transform="scale(1,-1)" d="M 419,731 C 213,731 51,565 51,355 C 51,145 213,-21 419,-21 C 625,-21 787,145 787,355 C 787,565 625,731 419,731 Z M 419,700 C 607,700 755,547 755,355 C 755,163 607,11 419,11 C 231,11 83,163 83,355 C 83,547 231,700 419,700 Z M 423,570 C 317,570 235,488 235,355 C 235,224 316,143 415,143 C 511,143 574,193 594,286 L 554,286 C 539,215 491,176 420,176 C 334,176 275,252 275,356 C 275,454 330,537 423,537 C 500,537 542,492 555,426 L 595,426 C 581,519 513,570 423,570 Z "/>
</svg>
