<svg xmlns="http://www.w3.org/2000/svg" viewBox="0 -970 744 1200">
  <path transform="scale(1,-1)" d="M 414,757 C 430,757 446,771 446,788 C 446,800 438,810 424,810 C 409,810 393,795 393,778 C 393,766 401,757 414,757 Z M 502,757 C 518,757 534,771 534,788 C 534,800 525,810 512,810 C 496,810 480,795 480,778 C 480,766 489,757 502,757 Z M 445,704 C 197,704 66,486 66,287 C 66,106 175,-14 338,-14 C 585,-14 717,204 717,404 C 717,584 608,704 445,704 Z M 345,19 C 209,19 107,120 107,287 C 107,470 226,671 438,671 C 573,671 676,570 676,404 C 676,220 557,19 345,19 Z "/>
</svg>
