<svg xmlns="http://www.w3.org/2000/svg" viewBox="0 -970 560 1200">
  <path transform="scale(1,-1)" d="M 295,643 C 304,643 317,640 339,632 C 365,623 381,619 398,619 C 424,619 440,634 443,667 L 419,667 C 417,652 410,647 400,647 C 391,647 378,650 355,658 C 330,667 313,671 296,671 C 270,671 254,656 251,623 L 275,623 C 278,638 285,643 295,643 Z M 319,541 C 114,541 27,352 27,216 C 27,88 96,-14 241,-14 C 446,-14 533,175 533,312 C 533,439 463,541 319,541 Z M 247,18 C 140,18 67,93 67,216 C 67,344 149,509 313,509 C 420,509 492,434 492,311 C 492,183 411,18 247,18 Z "/>
</svg>
