<svg xmlns="http://www.w3.org/2000/svg" viewBox="0 -970 700 1200">
  <path transform="scale(1,-1)" d="M 446,704 C 239,704 64,532 65,270 C 64,118 136,17 254,-8 L 208,-71 C 268,-67 296,-86 296,-122 C 296,-159 266,-184 212,-184 C 193,-184 177,-183 161,-177 L 156,-203 C 171,-208 188,-210 207,-210 C 275,-210 328,-181 328,-120 C 328,-78 300,-53 255,-48 L 280,-12 C 291,-13 302,-14 314,-14 C 484,-14 584,89 632,218 L 636,228 L 598,228 L 594,218 C 549,106 462,19 322,19 C 199,19 107,102 107,273 C 107,523 272,671 437,671 C 568,671 643,604 643,481 L 643,471 L 681,471 L 681,481 C 684,607 603,704 446,704 Z "/>
</svg>
