<svg xmlns="http://www.w3.org/2000/svg" viewBox="0 -970 580 1200">
  <path transform="scale(1,-1)" d="M 421,364 C 498,390 565,454 565,547 C 565,643 493,704 373,704 C 221,704 115,618 115,493 C 115,432 148,386 198,365 C 110,339 27,263 27,156 C 27,33 123,-15 240,-15 C 375,-15 525,53 525,218 C 525,288 482,343 421,364 Z M 361,636 C 437,636 471,591 471,536 C 471,458 416,392 317,392 C 243,392 208,435 208,493 C 208,568 261,636 361,636 Z M 254,53 C 166,53 123,100 123,165 C 123,244 178,324 301,324 C 393,324 429,272 429,213 C 429,125 371,53 254,53 Z "/>
</svg>
