<svg xmlns="http://www.w3.org/2000/svg" viewBox="0 -970 590 1200">
  <path transform="scale(1,-1)" d="M 277,583 C 304,583 332,608 332,636 C 332,658 316,675 293,675 C 266,675 238,650 238,622 C 238,600 254,583 277,583 Z M 423,583 C 450,583 478,608 478,636 C 478,658 462,675 439,675 C 412,675 384,650 384,622 C 384,600 400,583 423,583 Z M 563,530 L 477,530 L 436,297 C 404,116 324,56 240,54 C 165,52 137,92 137,146 C 137,167 140,193 148,238 L 201,530 L 115,530 L 61,232 C 49,168 48,150 48,122 C 48,39 102,-14 210,-14 C 264,-14 305,-5 356,30 L 400,91 L 384,0 L 470,0 L 563,530 Z "/>
</svg>
