<svg xmlns="http://www.w3.org/2000/svg" viewBox="0 -970 588 1200">
  <path transform="scale(1,-1)" d="M 305,620 C 314,620 324,617 347,609 C 372,600 387,596 406,596 C 438,596 461,611 471,667 L 433,667 C 430,652 423,647 413,647 C 404,647 394,650 371,658 C 346,667 331,671 312,671 C 280,671 257,656 247,600 L 285,600 C 288,615 295,620 305,620 Z M 333,544 C 117,544 28,363 28,220 C 28,99 91,-14 255,-14 C 471,-14 560,167 560,310 C 560,431 497,544 333,544 Z M 266,52 C 166,52 122,129 122,222 C 122,343 190,478 322,478 C 422,478 466,401 466,308 C 466,187 398,52 266,52 Z "/>
</svg>
