<svg xmlns="http://www.w3.org/2000/svg" viewBox="0 -970 588 1200">
  <path transform="scale(1,-1)" d="M 277,583 C 304,583 332,608 332,636 C 332,658 316,675 293,675 C 266,675 238,650 238,622 C 238,600 254,583 277,583 Z M 423,583 C 450,583 478,608 478,636 C 478,658 462,675 439,675 C 412,675 384,650 384,622 C 384,600 400,583 423,583 Z M 333,544 C 117,544 28,363 28,220 C 28,99 91,-14 255,-14 C 471,-14 560,167 560,310 C 560,431 497,544 333,544 Z M 266,52 C 166,52 122,129 122,222 C 122,343 190,478 322,478 C 422,478 466,401 466,308 C 466,187 398,52 266,52 Z "/>
</svg>
