<svg xmlns="http://www.w3.org/2000/svg" viewBox="0 -970 852 1200">
  <path transform="scale(1,-1)" d="M 634,465 L 553,465 L 536,404 L 527,452 C 508,473 475,483 439,483 C 312,483 223,359 223,228 C 223,106 300,67 364,67 C 400,67 432,79 464,106 L 485,147 C 493,96 533,75 585,75 C 681,75 790,150 790,331 C 790,530 658,664 469,664 C 264,664 54,507 54,243 C 54,9 219,-104 396,-104 C 476,-104 577,-81 674,-15 L 650,34 C 577,-20 480,-46 399,-46 C 244,-46 116,50 116,244 C 116,475 298,606 466,606 C 608,606 728,513 728,329 C 728,195 665,133 605,133 C 572,133 567,151 567,169 C 567,177 568,188 571,201 L 634,465 Z M 498,251 C 484,191 440,133 385,133 C 347,133 317,160 317,234 C 317,326 364,417 445,417 C 493,417 529,386 507,290 L 498,251 Z "/>
</svg>
