<svg xmlns="http://www.w3.org/2000/svg" viewBox="0 -970 747 1200">
  <path transform="scale(1,-1)" d="M 409,770 C 418,770 428,767 451,759 C 476,750 491,746 510,746 C 542,746 565,761 575,817 L 537,817 C 534,802 527,797 517,797 C 508,797 498,800 475,808 C 450,817 435,821 416,821 C 384,821 361,806 351,750 L 389,750 C 392,765 399,770 409,770 Z M 447,704 C 177,704 59,491 59,285 C 59,122 154,-14 337,-14 C 607,-14 725,199 725,405 C 725,568 630,704 447,704 Z M 355,54 C 228,54 153,147 153,285 C 153,442 239,636 429,636 C 555,636 631,543 631,405 C 631,248 545,54 355,54 Z "/>
</svg>
