<svg xmlns="http://www.w3.org/2000/svg" viewBox="0 -970 647 1200">
  <path transform="scale(1,-1)" d="M 460,366 C 551,392 610,445 610,547 C 610,626 559,673 466,686 C 434,690 410,690 377,690 L 174,690 L 52,0 L 274,0 C 306,0 328,0 363,5 C 469,21 580,80 580,214 C 580,297 537,345 460,366 Z M 247,620 L 372,620 C 388,620 408,620 426,618 C 479,612 515,585 515,530 C 515,468 488,411 396,397 C 375,394 358,393 340,393 L 207,393 L 247,620 Z M 342,72 C 329,71 310,70 294,70 L 150,70 L 195,323 L 338,323 C 354,323 370,322 392,319 C 447,311 486,285 486,221 C 486,129 419,79 342,72 Z "/>
</svg>
