<svg xmlns="http://www.w3.org/2000/svg" viewBox="0 -970 508 1200">
  <path transform="scale(1,-1)" d="M 278,764 C 127,764 37,651 37,531 C 37,426 110,344 232,344 C 383,344 473,457 473,577 C 473,682 400,764 278,764 Z M 240,390 C 143,390 85,449 85,531 C 85,631 154,718 270,718 C 367,718 425,659 425,577 C 425,477 356,390 240,390 Z M 294,658 C 286,659 278,659 268,659 L 198,659 L 162,455 L 212,455 L 224,523 L 247,523 C 261,523 271,519 271,504 C 271,483 272,472 275,455 L 331,455 C 325,470 323,494 324,509 C 325,528 318,542 301,548 C 335,557 349,579 349,604 C 349,635 329,654 294,658 Z M 231,565 L 240,618 L 260,618 C 266,618 270,618 276,617 C 288,615 296,607 296,594 C 296,577 285,568 268,566 C 262,565 258,565 251,565 L 231,565 Z "/>
</svg>
