<svg xmlns="http://www.w3.org/2000/svg" viewBox="0 -970 506 1200">
  <path transform="scale(1,-1)" d="M 274,620 C 283,620 293,617 316,609 C 341,600 356,596 375,596 C 407,596 430,611 440,667 L 402,667 C 399,652 392,647 382,647 C 373,647 363,650 340,658 C 315,667 300,671 281,671 C 249,671 226,656 216,600 L 254,600 C 257,615 264,620 274,620 Z M 304,544 C 180,544 92,479 69,366 L 159,366 C 175,439 213,478 303,478 C 365,478 388,445 388,404 C 388,389 386,372 379,333 L 377,319 C 171,335 12,276 12,123 C 12,29 83,-14 157,-14 C 217,-14 264,-3 296,28 L 334,76 L 330,0 L 416,0 C 419,59 423,95 430,135 L 465,334 C 470,363 474,391 474,413 C 474,491 423,544 304,544 Z M 197,52 C 143,52 106,80 106,132 C 106,234 228,271 366,256 L 356,201 C 340,115 264,52 197,52 Z "/>
</svg>
