<svg xmlns="http://www.w3.org/2000/svg" viewBox="0 -970 303 1200">
  <path transform="scale(1,-1)" d="M 203,460 L 294,460 L 306,526 L 215,526 L 237,649 L 151,649 L 129,526 L 60,526 L 48,460 L 118,460 L 63,151 C 55,108 52,83 52,69 C 52,33 67,11 97,0 L 41,-78 C 99,-71 130,-90 130,-120 C 130,-148 107,-168 59,-168 C 38,-168 21,-166 8,-161 L 0,-201 C 13,-207 30,-210 54,-210 C 128,-210 188,-182 188,-115 C 188,-78 165,-48 120,-40 L 144,-8 L 151,-8 C 173,-8 197,-5 215,0 L 227,63 C 169,53 142,62 142,100 C 142,109 143,121 149,155 L 203,460 Z "/>
</svg>
