<svg xmlns="http://www.w3.org/2000/svg" viewBox="0 -970 451 1200">
  <path transform="scale(1,-1)" d="M 253,544 C 120,544 52,471 52,384 C 52,292 117,258 199,233 C 274,210 305,183 305,136 C 305,80 259,46 199,46 C 135,46 87,73 80,150 L -10,150 C -6,69 43,-20 192,-20 C 324,-20 399,51 399,143 C 399,230 344,272 242,303 C 185,320 146,344 146,393 C 146,437 175,478 249,478 C 309,478 337,441 340,379 L 430,379 C 428,476 376,544 253,544 Z M 207,-58 L 207,-51 L 138,-51 L 78,-195 L 126,-195 L 207,-58 Z "/>
</svg>
