<svg xmlns="http://www.w3.org/2000/svg" viewBox="0 -970 659 1200">
  <path transform="scale(1,-1)" d="M 633,385 L 537,385 L 556,497 L 470,497 L 451,385 L 391,385 C 369,385 347,385 329,386 C 265,390 218,412 218,484 C 218,585 285,636 388,636 C 437,636 469,633 509,625 L 521,694 C 484,701 452,704 403,704 C 245,704 121,620 121,492 C 121,417 163,370 226,353 C 111,331 33,251 33,149 C 33,21 142,-14 277,-14 C 344,-14 411,-6 470,7 L 524,315 L 620,315 L 633,385 Z M 438,315 L 393,63 C 358,56 331,54 291,54 C 182,54 132,83 132,158 C 132,238 184,301 317,313 C 337,315 356,315 378,315 L 438,315 Z "/>
</svg>
