<svg xmlns="http://www.w3.org/2000/svg" viewBox="0 -970 969 1200">
  <path transform="scale(1,-1)" d="M 934,239 C 944,271 950,312 950,347 C 950,466 887,544 763,544 C 676,544 597,506 537,416 C 509,502 445,544 342,544 C 108,544 24,330 24,201 C 24,81 90,-14 244,-14 C 345,-14 422,27 479,112 C 506,22 571,-14 654,-14 C 763,-14 874,43 917,171 L 827,171 C 802,95 738,52 669,52 C 599,52 550,96 550,199 C 550,211 550,225 552,239 L 934,239 Z M 255,52 C 165,52 119,114 119,207 C 119,312 179,478 331,478 C 421,478 467,416 467,323 C 467,218 407,52 255,52 Z M 750,478 C 826,478 864,431 864,344 C 864,333 863,319 861,305 L 565,305 C 595,418 665,478 750,478 Z "/>
</svg>
