<svg xmlns="http://www.w3.org/2000/svg" viewBox="0 -970 560 1200">
  <path transform="scale(1,-1)" d="M 203,438 C 150,438 112,416 70,365 L 108,328 C 134,362 157,377 187,377 C 216,377 241,363 276,342 C 323,314 346,301 385,301 C 439,301 478,327 520,378 L 481,411 C 455,377 433,362 402,362 C 373,362 348,376 313,397 C 266,425 243,438 203,438 Z M 175,278 C 122,278 84,256 42,205 L 80,168 C 106,202 129,217 159,217 C 188,217 213,203 248,182 C 295,154 318,141 357,141 C 411,141 449,167 491,218 L 453,251 C 427,217 405,202 374,202 C 345,202 320,216 285,237 C 238,265 215,278 175,278 Z "/>
</svg>
