<svg xmlns="http://www.w3.org/2000/svg" viewBox="0 -970 855 1200">
  <path transform="scale(1,-1)" d="M 668,544 C 621,544 581,535 550,513 L 492,445 C 481,503 437,544 356,544 C 309,544 269,535 238,513 L 193,452 L 207,530 L 121,530 L 28,0 L 114,0 L 160,262 C 183,393 247,476 314,476 C 371,476 404,449 404,394 C 404,365 399,335 390,284 L 340,0 L 426,0 L 472,262 L 472,264 C 496,394 559,476 626,476 C 683,476 716,449 716,394 C 716,365 711,335 702,284 L 652,0 L 738,0 L 795,324 C 803,368 806,389 806,417 C 806,489 762,544 668,544 Z "/>
</svg>
