<svg xmlns="http://www.w3.org/2000/svg" viewBox="0 -970 303 1200">
  <path transform="scale(1,-1)" d="M 189,436 C 189,461 195,496 221,565 C 252,647 257,666 257,692 C 257,762 210,780 135,780 L 124,780 L 114,724 L 126,724 C 177,724 197,710 197,687 C 197,667 192,646 166,575 C 136,493 129,459 129,428 C 129,383 156,356 203,351 C 107,338 83,242 86,125 C 89,-5 67,-24 -6,-24 L -18,-24 L -28,-80 L -17,-80 C 111,-80 148,-36 145,135 C 142,291 174,315 249,322 L 259,378 C 209,383 189,403 189,436 Z "/>
</svg>
