<svg xmlns="http://www.w3.org/2000/svg" viewBox="0 -970 587 1200">
  <path transform="scale(1,-1)" d="M 382,754 C 195,754 139,628 113,480 L 28,0 L 114,0 L 200,488 C 217,584 256,686 373,686 C 449,686 484,650 484,600 C 484,576 479,547 457,514 C 375,473 349,428 349,381 C 349,330 366,306 409,261 C 445,224 457,189 457,160 C 457,117 430,62 341,62 C 319,62 291,64 249,75 L 237,6 C 275,-2 300,-4 333,-4 C 478,-4 551,78 551,162 C 551,221 524,264 484,302 C 451,335 441,355 441,383 C 441,415 458,440 533,476 C 565,518 578,564 578,600 C 578,688 514,754 382,754 Z "/>
</svg>
