<svg xmlns="http://www.w3.org/2000/svg" viewBox="0 -970 992 1200">
  <path transform="scale(1,-1)" d="M 755,544 C 650,544 584,492 517,383 C 487,492 411,544 315,544 C 110,544 28,356 28,224 C 28,86 95,-14 237,-14 C 342,-14 408,38 475,147 C 505,38 581,-14 677,-14 C 882,-14 964,174 964,306 C 964,444 897,544 755,544 Z M 248,52 C 166,52 122,113 122,226 C 122,327 185,478 304,478 C 390,478 440,419 442,265 C 396,111 314,52 248,52 Z M 688,52 C 602,52 552,111 550,265 C 596,419 678,478 744,478 C 826,478 870,417 870,304 C 870,203 807,52 688,52 Z "/>
</svg>
