<svg xmlns="http://www.w3.org/2000/svg" viewBox="0 -970 630 1200">
  <path transform="scale(1,-1)" d="M 638,508 L 604,549 L 516,474 C 480,517 424,544 343,544 C 127,544 38,363 38,220 C 38,174 47,130 67,92 L -16,22 L 18,-19 L 98,49 C 134,10 189,-14 265,-14 C 481,-14 570,167 570,310 C 570,352 562,393 545,429 L 638,508 Z M 132,222 C 132,343 200,478 332,478 C 388,478 426,454 449,417 L 141,155 C 135,176 132,198 132,222 Z M 476,308 C 476,187 408,52 276,52 C 224,52 187,73 164,105 L 470,365 C 474,347 476,328 476,308 Z "/>
</svg>
