<svg xmlns="http://www.w3.org/2000/svg" viewBox="0 -970 539 1200">
  <path transform="scale(1,-1)" d="M 504,239 C 514,271 520,312 520,347 C 520,466 444,544 320,544 C 108,544 25,348 25,194 C 25,75 88,4 185,-11 C 124,-46 92,-98 92,-150 C 92,-203 130,-223 172,-223 C 209,-223 241,-212 265,-195 L 274,-149 C 254,-163 235,-169 215,-169 C 191,-169 178,-157 178,-127 C 178,-90 210,-37 259,-12 C 356,-1 449,57 487,171 L 397,171 C 372,95 308,52 239,52 C 170,52 119,96 119,197 C 119,210 120,225 121,239 L 504,239 Z M 307,478 C 384,478 433,429 433,342 C 433,330 432,318 431,305 L 131,305 C 152,395 204,478 307,478 Z "/>
</svg>
