<svg xmlns="http://www.w3.org/2000/svg" viewBox="0 -970 580 1200">
  <path transform="scale(1,-1)" d="M 509,464 L 475,505 L 403,444 C 377,467 344,481 307,481 C 265,481 229,471 200,454 L 154,507 L 108,468 L 152,414 C 119,376 103,327 103,282 C 103,252 110,224 124,200 L 52,140 L 86,99 L 156,158 C 182,135 214,121 251,121 C 294,121 331,132 361,150 L 407,96 L 453,135 L 409,190 C 441,228 457,276 457,320 C 457,349 449,378 436,402 L 509,464 Z M 164,288 C 164,354 213,423 296,423 C 351,423 396,382 396,314 C 396,248 345,179 262,179 C 207,179 164,220 164,288 Z "/>
</svg>
