<svg xmlns="http://www.w3.org/2000/svg" viewBox="0 -970 1077 1200">
  <path transform="scale(1,-1)" d="M 214,386 C 332,386 387,481 387,574 C 387,651 337,704 257,704 C 139,704 84,609 84,516 C 84,439 134,386 214,386 Z M 621,690 L 54,0 L 147,0 L 714,690 L 621,690 Z M 250,644 C 287,644 302,617 302,579 C 302,499 269,446 221,446 C 184,446 169,473 169,511 C 169,591 202,644 250,644 Z M 554,304 C 436,304 381,209 381,116 C 381,39 431,-14 511,-14 C 629,-14 684,81 684,174 C 684,251 634,304 554,304 Z M 891,304 C 773,304 718,209 718,116 C 718,39 768,-14 848,-14 C 966,-14 1021,81 1021,174 C 1021,251 971,304 891,304 Z M 518,46 C 481,46 466,73 466,111 C 466,191 499,244 547,244 C 584,244 599,217 599,179 C 599,99 566,46 518,46 Z M 855,46 C 818,46 803,73 803,111 C 803,191 836,244 884,244 C 921,244 936,217 936,179 C 936,99 903,46 855,46 Z "/>
</svg>
