<svg xmlns="http://www.w3.org/2000/svg" viewBox="0 -970 532 1200">
  <path transform="scale(1,-1)" d="M 413,100 C 413,112 415,125 420,152 L 523,735 C 488,747 438,754 386,754 C 251,754 171,701 143,604 C 138,586 133,560 129,540 L 127,526 L 80,526 L 68,460 L 115,460 L 34,0 L 120,0 L 201,460 L 310,460 L 322,526 L 213,526 L 217,548 C 219,563 225,588 229,602 C 245,651 286,688 370,688 C 389,688 409,686 428,682 L 334,149 C 324,95 321,76 321,61 C 321,9 353,-4 398,-4 C 418,-4 440,-3 460,0 L 471,63 C 431,60 413,74 413,100 Z "/>
</svg>
