<svg xmlns="http://www.w3.org/2000/svg" viewBox="0 -970 437 1200">
  <path transform="scale(1,-1)" d="M 196,704 C 160,704 131,676 131,640 C 131,614 150,594 178,594 C 214,594 243,622 243,658 C 243,684 224,704 196,704 Z M 412,704 C 376,704 347,676 347,640 C 347,614 366,594 394,594 C 430,594 459,622 459,658 C 459,684 440,704 412,704 Z M 114,0 L 208,530 L 122,530 L 28,0 L 114,0 Z M 427,530 L 341,530 L 241,-40 C 236,-67 233,-81 228,-95 C 217,-128 188,-144 142,-138 L 129,-208 C 142,-210 154,-210 170,-210 C 252,-210 293,-174 312,-110 C 317,-92 322,-66 326,-46 L 427,530 Z "/>
</svg>
