<svg xmlns="http://www.w3.org/2000/svg" viewBox="0 -970 683 1200">
  <path transform="scale(1,-1)" d="M 383,829 C 356,829 328,804 328,776 C 328,754 344,737 367,737 C 394,737 422,762 422,790 C 422,812 406,829 383,829 Z M 523,829 C 496,829 468,804 468,776 C 468,754 484,737 507,737 C 534,737 562,762 562,790 C 562,812 546,829 523,829 Z M 688,690 L 602,690 L 527,263 C 523,241 519,220 514,202 C 485,97 423,54 317,54 C 218,54 172,104 172,182 C 172,208 174,224 182,270 L 256,690 L 170,690 L 94,262 C 89,235 86,209 86,179 C 86,55 159,-14 305,-14 C 474,-14 566,61 598,193 C 603,213 607,233 611,255 L 688,690 Z "/>
</svg>
