<svg xmlns="http://www.w3.org/2000/svg" viewBox="0 -970 590 1200">
  <path transform="scale(1,-1)" d="M 347,565 C 406,565 455,608 455,665 C 455,705 424,733 377,733 C 318,733 269,690 269,633 C 269,593 300,565 347,565 Z M 370,697 C 391,697 404,684 404,661 C 404,624 381,601 354,601 C 333,601 320,614 320,637 C 320,674 343,697 370,697 Z M 563,530 L 477,530 L 436,297 C 404,116 324,56 240,54 C 165,52 137,92 137,146 C 137,167 140,193 148,238 L 201,530 L 115,530 L 61,232 C 49,168 48,150 48,122 C 48,39 102,-14 210,-14 C 264,-14 305,-5 356,30 L 400,91 L 384,0 L 470,0 L 563,530 Z "/>
</svg>
