<svg xmlns="http://www.w3.org/2000/svg" viewBox="0 -970 580 1200">
  <path transform="scale(1,-1)" d="M 415,366 C 502,390 569,463 569,556 C 569,644 503,704 390,704 C 240,704 140,628 115,501 L 113,491 L 199,491 L 201,501 C 220,594 285,636 367,636 C 431,636 471,596 471,538 C 471,442 389,384 297,384 L 280,384 L 267,314 L 284,314 C 383,314 428,276 428,210 C 428,113 352,54 256,54 C 172,54 114,97 121,194 L 122,204 L 36,204 L 35,194 C 24,45 105,-14 236,-14 C 393,-14 526,75 526,222 C 526,295 485,345 415,366 Z "/>
</svg>
