<svg xmlns="http://www.w3.org/2000/svg" viewBox="0 -970 451 1200">
  <path transform="scale(1,-1)" d="M 242,303 C 185,320 146,344 146,393 C 146,437 175,478 249,478 C 309,478 337,441 340,379 L 430,379 C 428,476 376,544 253,544 C 120,544 52,471 52,384 C 52,292 117,258 199,233 C 274,210 305,183 305,136 C 305,80 259,46 199,46 C 135,46 87,73 80,150 L -10,150 C -7,80 31,3 138,-16 L 94,-78 C 152,-71 183,-90 183,-120 C 183,-148 160,-168 112,-168 C 91,-168 74,-166 61,-161 L 53,-201 C 66,-207 83,-210 107,-210 C 181,-210 241,-182 241,-115 C 241,-78 218,-48 173,-40 L 188,-20 L 192,-20 C 324,-20 399,51 399,143 C 399,230 344,272 242,303 Z "/>
</svg>
