<svg xmlns="http://www.w3.org/2000/svg" viewBox="0 -970 560 1200">
  <path transform="scale(1,-1)" d="M 531,252 C 531,339 474,397 354,432 C 275,455 238,491 238,538 C 238,601 279,638 331,638 C 390,638 424,600 430,538 L 520,538 C 511,639 447,704 344,704 C 211,704 144,617 144,535 C 144,499 154,469 172,445 C 79,416 36,351 36,286 C 36,190 105,146 203,110 C 301,74 336,45 336,-11 C 336,-76 291,-108 220,-108 C 167,-108 115,-77 108,0 L 18,0 C 27,-120 113,-174 206,-174 C 334,-174 430,-108 430,-2 C 430,36 419,67 399,92 C 483,118 531,182 531,252 Z M 331,147 C 307,160 279,171 249,182 C 176,208 130,237 130,294 C 130,343 163,383 231,393 C 255,379 281,368 308,360 C 395,331 437,300 437,245 C 437,193 400,152 331,147 Z "/>
</svg>
