<svg xmlns="http://www.w3.org/2000/svg" viewBox="0 -970 683 1200">
  <path transform="scale(1,-1)" d="M 688,690 L 602,690 L 527,263 C 523,241 519,220 514,202 C 485,97 423,54 317,54 C 218,54 172,104 172,182 C 172,208 174,224 182,270 L 256,690 L 170,690 L 94,262 C 89,235 86,209 86,179 C 86,58 156,-11 295,-14 C 237,-49 207,-100 207,-150 C 207,-203 245,-223 287,-223 C 324,-223 356,-212 380,-195 L 389,-149 C 369,-163 350,-169 330,-169 C 306,-169 293,-157 293,-127 C 293,-87 329,-30 382,-8 C 503,12 571,83 598,193 C 603,213 607,233 611,255 L 688,690 Z "/>
</svg>
