<svg xmlns="http://www.w3.org/2000/svg" viewBox="0 -970 877 1200">
  <path transform="scale(1,-1)" d="M 841,239 C 851,271 857,312 857,347 C 857,466 794,544 670,544 C 591,544 524,511 472,454 C 459,504 419,544 312,544 C 188,544 100,479 77,366 L 167,366 C 183,439 226,478 301,478 C 368,478 395,441 395,382 C 395,367 393,350 385,305 L 351,305 C 99,305 11,225 11,117 C 11,37 78,-14 165,-14 C 248,-14 291,1 346,47 L 383,101 C 409,17 477,-14 561,-14 C 670,-14 781,43 824,171 L 734,171 C 709,95 645,52 576,52 C 507,52 456,95 456,197 C 456,210 457,224 459,239 L 841,239 Z M 657,478 C 768,478 774,378 768,305 L 471,305 C 502,418 572,478 657,478 Z M 198,52 C 141,52 107,79 107,127 C 107,210 184,240 318,240 C 335,240 354,240 373,239 L 368,209 C 351,113 278,52 198,52 Z "/>
</svg>
