<svg xmlns="http://www.w3.org/2000/svg" viewBox="0 -970 683 1200">
  <path transform="scale(1,-1)" d="M 458,874 C 404,874 356,841 356,783 C 356,745 386,716 438,716 C 492,716 540,749 540,807 C 540,845 510,874 458,874 Z M 456,838 C 477,838 490,823 490,803 C 490,770 467,752 440,752 C 419,752 406,767 406,787 C 406,820 429,838 456,838 Z M 688,690 L 602,690 L 527,263 C 523,241 519,220 514,202 C 485,97 423,54 317,54 C 218,54 172,104 172,182 C 172,208 174,224 182,270 L 256,690 L 170,690 L 94,262 C 89,235 86,209 86,179 C 86,55 159,-14 305,-14 C 474,-14 566,61 598,193 C 603,213 607,233 611,255 L 688,690 Z "/>
</svg>
