<svg xmlns="http://www.w3.org/2000/svg" viewBox="0 -970 596 1200">
  <path transform="scale(1,-1)" d="M 552,665 L 534,714 L 459,685 C 436,710 407,729 372,745 L 312,694 C 339,683 361,669 379,654 L 261,609 L 279,560 L 416,613 C 444,570 452,518 454,463 L 425,515 C 392,537 362,544 313,544 C 118,544 25,347 25,205 C 25,85 92,-14 234,-14 C 457,-14 539,185 539,370 C 539,492 526,579 491,641 L 552,665 Z M 241,52 C 167,52 119,98 119,208 C 119,318 174,478 312,478 C 378,478 445,438 445,337 C 445,205 389,52 241,52 Z "/>
</svg>
