<svg xmlns="http://www.w3.org/2000/svg" viewBox="0 -970 618 1200">
  <path transform="scale(1,-1)" d="M 633,536 C 633,628 575,675 490,686 C 459,690 435,690 400,690 L 174,690 L 52,0 L 138,0 L 191,297 L 321,297 C 337,297 354,297 370,296 C 430,292 447,250 448,189 C 450,62 453,27 459,0 L 552,0 C 539,23 534,63 534,111 C 534,291 514,327 454,334 C 539,349 633,411 633,536 Z M 403,369 C 383,367 366,367 335,367 L 203,367 L 248,620 L 388,620 C 419,620 437,619 456,616 C 508,608 539,579 539,521 C 539,427 478,376 403,369 Z "/>
</svg>
