<svg xmlns="http://www.w3.org/2000/svg" viewBox="0 -970 747 1200">
  <path transform="scale(1,-1)" d="M 385,737 C 412,737 440,762 440,790 C 440,812 424,829 401,829 C 374,829 346,804 346,776 C 346,754 362,737 385,737 Z M 525,737 C 552,737 580,762 580,790 C 580,812 564,829 541,829 C 514,829 486,804 486,776 C 486,754 502,737 525,737 Z M 447,704 C 177,704 59,491 59,285 C 59,122 154,-14 337,-14 C 607,-14 725,199 725,405 C 725,568 630,704 447,704 Z M 355,54 C 228,54 153,147 153,285 C 153,442 239,636 429,636 C 555,636 631,543 631,405 C 631,248 545,54 355,54 Z "/>
</svg>
