<svg xmlns="http://www.w3.org/2000/svg" viewBox="0 -970 580 1200">
  <path transform="scale(1,-1)" d="M 365,631 C 414,616 443,571 445,509 L 537,509 C 535,605 484,684 377,701 L 391,780 L 333,780 L 320,704 C 157,698 85,591 85,494 C 85,385 153,342 250,313 L 205,58 C 142,71 111,118 106,186 L 14,186 C 20,84 69,4 193,-11 L 179,-90 L 237,-90 L 250,-14 C 399,-9 499,68 499,190 C 499,289 441,351 322,391 L 365,631 Z M 179,504 C 179,568 220,628 307,635 L 267,405 C 213,423 179,450 179,504 Z M 307,301 C 374,277 405,244 405,185 C 405,100 354,59 263,54 L 307,301 Z "/>
</svg>
