<svg xmlns="http://www.w3.org/2000/svg" viewBox="0 -970 531 1200">
  <path transform="scale(1,-1)" d="M 235,52 C 170,52 119,96 119,198 C 119,365 202,478 312,478 C 384,478 421,437 425,352 L 515,352 C 514,468 455,544 328,544 C 131,544 25,373 25,195 C 25,73 90,3 184,-11 L 136,-78 C 194,-71 225,-90 225,-120 C 225,-148 202,-168 154,-168 C 133,-168 116,-166 103,-161 L 95,-201 C 108,-207 125,-210 149,-210 C 223,-210 283,-182 283,-115 C 283,-78 260,-48 215,-40 L 234,-14 C 357,-10 436,50 486,169 L 396,169 C 365,92 308,52 235,52 Z "/>
</svg>
