<svg xmlns="http://www.w3.org/2000/svg" viewBox="0 -970 612 1200">
  <path transform="scale(1,-1)" d="M 586,530 L 500,530 L 485,447 L 461,500 C 438,526 384,544 340,544 C 126,544 26,366 26,202 C 26,81 92,-14 224,-14 C 278,-14 337,3 371,28 L 422,85 L 420,76 C 417,60 413,43 408,18 C 386,-84 319,-144 214,-144 C 123,-144 79,-99 83,-34 L 84,-25 L -3,-25 L -4,-35 C -13,-147 71,-210 202,-210 C 365,-210 464,-128 496,27 C 502,56 509,97 515,130 L 586,530 Z M 248,52 C 161,52 120,116 120,206 C 120,341 194,478 328,478 C 436,478 474,387 457,289 L 459,296 L 452,255 L 452,260 C 425,108 336,52 248,52 Z "/>
</svg>
