<svg xmlns="http://www.w3.org/2000/svg" viewBox="0 -970 595 1200">
  <path transform="scale(1,-1)" d="M 316,620 C 325,620 335,617 358,609 C 383,600 398,596 417,596 C 449,596 472,611 482,667 L 444,667 C 441,652 434,647 424,647 C 415,647 405,650 382,658 C 357,667 342,671 323,671 C 291,671 268,656 258,600 L 296,600 C 299,615 306,620 316,620 Z M 381,544 C 327,544 286,535 235,500 L 191,439 L 207,530 L 121,530 L 28,0 L 114,0 L 155,233 C 187,414 267,474 351,476 C 426,478 454,438 454,384 C 454,363 451,337 443,292 L 390,0 L 476,0 L 530,298 C 542,362 543,380 543,408 C 543,491 489,544 381,544 Z "/>
</svg>
