<svg xmlns="http://www.w3.org/2000/svg" viewBox="0 -970 748 1200">
  <path transform="scale(1,-1)" d="M 778,638 L 744,679 L 664,611 C 617,668 546,704 452,704 C 182,704 64,491 64,285 C 64,229 75,175 98,130 L 6,52 L 40,11 L 126,84 C 173,24 245,-14 342,-14 C 612,-14 730,199 730,405 C 730,464 718,519 693,566 L 778,638 Z M 158,285 C 158,442 244,636 434,636 C 506,636 562,606 596,554 L 171,192 C 163,220 158,251 158,285 Z M 636,405 C 636,248 550,54 360,54 C 285,54 228,87 194,142 L 621,504 C 631,475 636,442 636,405 Z "/>
</svg>
