<svg xmlns="http://www.w3.org/2000/svg" viewBox="0 -970 590 1200">
  <path transform="scale(1,-1)" d="M 563,530 L 477,530 L 436,297 C 404,116 324,56 240,54 C 165,52 137,92 137,146 C 137,167 140,193 148,238 L 201,530 L 115,530 L 61,232 C 49,168 48,150 48,122 C 48,39 102,-14 210,-14 C 264,-14 305,-5 356,30 L 400,91 L 386,10 C 294,-22 246,-87 246,-150 C 246,-203 284,-223 326,-223 C 363,-223 395,-212 419,-195 L 428,-149 C 408,-163 389,-169 369,-169 C 345,-169 332,-157 332,-127 C 332,-81 381,-11 449,0 L 470,0 L 563,530 Z "/>
</svg>
