<svg xmlns="http://www.w3.org/2000/svg" viewBox="0 -970 580 1200">
  <path transform="scale(1,-1)" d="M 414,704 C 213,704 118,566 82,426 L 42,426 L 22,370 L 70,370 C 67,352 65,334 64,316 L 5,316 L -15,260 L 63,260 C 68,41 171,-14 305,-14 C 359,-14 409,-5 463,23 L 476,94 C 427,66 379,54 322,54 C 224,54 163,102 157,260 L 420,260 L 439,316 L 158,316 C 159,333 161,351 164,370 L 456,370 L 477,426 L 175,426 C 204,532 270,636 406,636 C 454,636 496,619 522,587 L 571,641 C 541,680 490,704 414,704 Z "/>
</svg>
