<svg xmlns="http://www.w3.org/2000/svg" viewBox="0 -970 539 1200">
  <path transform="scale(1,-1)" d="M 262,583 C 289,583 317,608 317,636 C 317,658 301,675 278,675 C 251,675 223,650 223,622 C 223,600 239,583 262,583 Z M 408,583 C 435,583 463,608 463,636 C 463,658 447,675 424,675 C 397,675 369,650 369,622 C 369,600 385,583 408,583 Z M 504,239 C 514,271 520,312 520,347 C 520,466 444,544 320,544 C 108,544 25,348 25,194 C 25,60 105,-14 224,-14 C 333,-14 444,43 487,171 L 397,171 C 372,95 308,52 239,52 C 170,52 119,96 119,197 C 119,210 120,225 121,239 L 504,239 Z M 307,478 C 384,478 433,429 433,342 C 433,330 432,318 431,305 L 131,305 C 152,395 204,478 307,478 Z "/>
</svg>
