<svg xmlns="http://www.w3.org/2000/svg" viewBox="0 -970 717 1200">
  <path transform="scale(1,-1)" d="M 444,704 C 219,704 56,515 57,271 C 56,132 116,32 229,-2 L 175,-78 C 233,-71 264,-90 264,-120 C 264,-148 241,-168 193,-168 C 172,-168 155,-166 142,-161 L 134,-201 C 147,-207 164,-210 188,-210 C 262,-210 322,-182 322,-115 C 322,-78 299,-48 254,-40 L 275,-11 C 290,-13 305,-14 321,-14 C 503,-14 606,85 644,220 L 647,230 L 561,230 L 557,220 C 519,121 453,54 338,54 C 224,54 154,128 154,282 C 154,477 264,636 430,636 C 545,636 607,589 607,470 L 607,460 L 693,460 L 694,470 C 704,605 619,704 444,704 Z "/>
</svg>
