<svg xmlns="http://www.w3.org/2000/svg" viewBox="0 -970 565 1200">
  <path transform="scale(1,-1)" d="M 564,499 C 571,617 503,704 360,704 C 219,704 101,621 101,482 C 101,389 174,345 278,319 C 379,294 423,260 423,194 C 423,104 350,54 257,54 C 167,54 113,105 109,196 L 17,196 C 9,70 91,-6 221,-13 L 175,-78 C 233,-71 264,-90 264,-120 C 264,-148 241,-168 193,-168 C 172,-168 155,-166 142,-161 L 134,-201 C 147,-207 164,-210 188,-210 C 262,-210 322,-182 322,-115 C 322,-78 299,-48 254,-40 L 274,-13 C 416,-2 519,82 519,209 C 519,313 453,368 325,399 C 237,420 197,449 197,508 C 197,589 259,636 341,636 C 428,636 479,586 472,499 L 564,499 Z "/>
</svg>
