<svg xmlns="http://www.w3.org/2000/svg" viewBox="0 -970 740 1200">
  <path transform="scale(1,-1)" d="M 214,386 C 332,386 387,481 387,574 C 387,651 337,704 257,704 C 139,704 84,609 84,516 C 84,439 134,386 214,386 Z M 714,690 L 621,690 L 54,0 L 147,0 L 714,690 Z M 250,644 C 287,644 302,617 302,579 C 302,499 269,446 221,446 C 184,446 169,473 169,511 C 169,591 202,644 250,644 Z M 554,304 C 436,304 381,209 381,116 C 381,39 431,-14 511,-14 C 629,-14 684,81 684,174 C 684,251 634,304 554,304 Z M 518,46 C 481,46 466,73 466,111 C 466,191 499,244 547,244 C 584,244 599,217 599,179 C 599,99 566,46 518,46 Z "/>
</svg>
