<svg xmlns="http://www.w3.org/2000/svg" viewBox="0 -970 539 1200">
  <path transform="scale(1,-1)" d="M 306,580 L 365,580 L 452,690 L 389,690 L 345,627 L 323,690 L 259,690 L 306,580 Z M 504,239 C 514,271 520,312 520,347 C 520,466 444,544 320,544 C 108,544 25,348 25,194 C 25,60 105,-14 224,-14 C 333,-14 444,43 487,171 L 397,171 C 372,95 308,52 239,52 C 170,52 119,96 119,197 C 119,210 120,225 121,239 L 504,239 Z M 307,478 C 384,478 433,429 433,342 C 433,330 432,318 431,305 L 131,305 C 152,395 204,478 307,478 Z "/>
</svg>
