<svg xmlns="http://www.w3.org/2000/svg" viewBox="0 -970 757 1200">
  <path transform="scale(1,-1)" d="M 540,722 C 613,722 649,761 662,830 L 609,830 C 601,794 579,777 550,777 C 517,777 506,797 511,830 L 458,830 C 449,777 466,722 540,722 Z M 454,704 C 229,704 56,515 56,271 C 56,108 143,-14 314,-14 C 393,-14 459,12 506,56 L 548,119 L 527,0 L 603,0 L 662,333 L 415,333 L 402,263 L 563,263 C 542,140 443,54 331,54 C 217,54 154,148 154,282 C 154,477 274,636 440,636 C 555,636 607,590 607,470 L 607,460 L 693,460 L 694,470 C 704,605 629,704 454,704 Z "/>
</svg>
