<svg xmlns="http://www.w3.org/2000/svg" viewBox="0 -970 775 1200">
  <path transform="scale(1,-1)" d="M 327,862 C 273,862 247,828 247,744 L 328,744 C 328,764 333,772 343,772 C 352,772 364,768 388,758 C 423,744 439,741 465,741 C 520,741 546,775 546,859 L 464,859 C 464,839 460,831 449,831 C 441,831 428,835 404,845 C 370,859 354,862 327,862 Z M 715,0 L 715,690 L 559,690 L 559,383 C 559,332 560,254 564,182 L 286,690 L 85,690 L 85,0 L 242,0 L 242,300 C 242,350 241,421 236,494 L 506,0 L 715,0 Z "/>
</svg>
