<svg xmlns="http://www.w3.org/2000/svg" viewBox="0 -970 775 1200">
  <path transform="scale(1,-1)" d="M 346,772 C 355,772 367,768 391,758 C 426,744 442,741 468,741 C 523,741 549,775 549,859 L 467,859 C 467,839 463,831 452,831 C 444,831 431,835 407,845 C 373,859 357,862 330,862 C 276,862 250,828 250,744 L 331,744 C 331,764 336,772 346,772 Z M 399,704 C 185,704 52,564 52,345 C 52,127 185,-14 399,-14 C 612,-14 745,127 745,345 C 745,564 612,704 399,704 Z M 399,102 C 284,102 214,191 214,345 C 214,500 284,588 399,588 C 513,588 583,500 583,345 C 583,191 513,102 399,102 Z "/>
</svg>
