<svg xmlns="http://www.w3.org/2000/svg" viewBox="0 -970 631 1200">
  <path transform="scale(1,-1)" d="M 264,609 C 273,609 285,604 309,595 C 344,581 360,577 386,577 C 441,577 467,612 467,696 L 385,696 C 385,675 381,667 370,667 C 362,667 349,671 325,681 C 291,696 275,699 248,699 C 194,699 168,664 168,581 L 249,581 C 249,601 254,609 264,609 Z M 573,400 C 561,493 496,547 384,547 C 334,547 296,537 260,513 L 216,449 L 216,533 L 59,533 L 59,0 L 216,0 L 216,247 C 216,383 262,439 324,439 C 385,439 415,405 419,351 C 421,324 421,297 421,277 L 421,0 L 578,0 L 578,301 C 578,344 577,373 573,400 Z "/>
</svg>
