<svg xmlns="http://www.w3.org/2000/svg" viewBox="0 -970 398 1200">
  <path transform="scale(1,-1)" d="M 338,694 L 338,780 L 297,780 C 200,780 161,746 161,667 C 161,636 165,607 173,550 C 180,506 183,479 183,455 C 183,425 168,398 101,393 L 101,307 C 168,303 183,276 183,245 C 183,221 180,194 173,150 C 165,93 161,64 161,34 C 161,-46 200,-80 297,-80 L 338,-80 L 338,6 L 318,6 C 267,6 251,14 251,48 C 251,65 253,84 261,140 C 269,191 273,228 273,248 C 273,304 245,340 188,352 C 245,364 273,397 273,452 C 273,472 269,509 261,560 C 253,617 251,636 251,652 C 251,686 267,694 318,694 L 338,694 Z "/>
</svg>
