<svg xmlns="http://www.w3.org/2000/svg" viewBox="0 -970 725 1200">
  <path transform="scale(1,-1)" d="M 535,243 L 533,233 C 517,151 468,102 387,102 C 293,102 217,177 217,350 C 217,503 288,588 388,588 C 471,588 520,545 536,465 L 538,455 L 695,455 L 694,465 C 680,601 581,704 390,704 C 200,704 52,573 52,341 C 52,139 164,14 324,-10 L 286,-86 C 359,-81 382,-93 382,-117 C 382,-137 364,-148 322,-148 C 307,-148 288,-146 265,-140 L 265,-203 C 283,-209 301,-210 320,-210 C 408,-210 478,-186 478,-120 C 478,-75 447,-49 386,-41 L 400,-14 C 565,-7 676,83 691,233 L 692,243 L 535,243 Z "/>
</svg>
