<svg xmlns="http://www.w3.org/2000/svg" viewBox="0 -970 709 1200">
  <path transform="scale(1,-1)" d="M 369,918 C 303,918 257,877 257,819 C 257,761 303,721 369,721 C 435,721 481,761 481,819 C 481,877 435,918 369,918 Z M 369,859 C 391,859 406,843 406,819 C 406,796 391,779 369,779 C 347,779 332,796 332,819 C 332,843 347,859 369,859 Z M 663,690 L 507,690 L 507,268 C 507,249 507,236 505,222 C 500,147 455,102 369,102 C 283,102 238,147 232,222 C 231,236 231,249 231,268 L 231,690 L 75,690 L 75,291 C 75,259 75,239 77,203 C 86,87 167,-14 369,-14 C 571,-14 652,87 660,203 C 663,239 663,259 663,291 L 663,690 Z "/>
</svg>
