<svg xmlns="http://www.w3.org/2000/svg" viewBox="0 -970 855 1200">
  <path transform="scale(1,-1)" d="M 427,755 C 192,755 21,588 21,355 C 21,122 192,-45 427,-45 C 663,-45 834,122 834,355 C 834,588 663,755 427,755 Z M 427,669 C 607,669 737,537 737,355 C 737,174 607,43 427,43 C 248,43 118,174 118,355 C 118,537 248,669 427,669 Z M 436,583 C 299,583 209,493 209,355 C 209,212 299,126 428,126 C 556,126 625,198 642,307 L 509,307 C 505,247 473,219 434,219 C 381,219 349,264 349,356 C 349,439 373,490 431,490 C 481,490 505,455 510,402 L 643,402 C 632,510 560,583 436,583 Z "/>
</svg>
