<svg xmlns="http://www.w3.org/2000/svg" viewBox="0 -970 588 1200">
  <path transform="scale(1,-1)" d="M 203,573 C 243,573 271,599 271,639 C 271,679 243,705 203,705 C 163,705 135,679 135,639 C 135,599 163,573 203,573 Z M 389,573 C 429,573 457,599 457,639 C 457,679 429,705 389,705 C 349,705 322,679 322,639 C 322,599 349,573 389,573 Z M 560,276 C 560,418 472,547 302,547 C 133,547 26,425 26,265 C 26,77 143,-14 292,-14 C 422,-14 522,51 551,174 L 396,174 C 387,124 350,94 295,94 C 236,94 192,124 183,226 L 557,226 C 559,245 560,262 560,276 Z M 295,439 C 353,439 388,400 397,325 L 187,325 C 200,404 239,439 295,439 Z "/>
</svg>
