<svg xmlns="http://www.w3.org/2000/svg" viewBox="0 -970 709 1200">
  <path transform="scale(1,-1)" d="M 663,690 L 507,690 L 507,268 C 507,249 507,236 505,222 C 500,147 455,102 369,102 C 283,102 238,147 232,222 C 231,236 231,249 231,268 L 231,690 L 75,690 L 75,291 C 75,259 75,239 77,203 C 86,91 161,-7 347,-14 C 312,-43 285,-87 285,-137 C 285,-201 331,-223 394,-223 C 450,-223 490,-205 518,-179 L 518,-112 C 501,-127 486,-133 471,-133 C 448,-133 429,-120 429,-82 C 429,-45 447,-14 471,-4 C 599,25 654,109 660,203 C 663,239 663,259 663,291 L 663,690 Z "/>
</svg>
