<svg xmlns="http://www.w3.org/2000/svg" viewBox="0 -970 747 1200">
  <path transform="scale(1,-1)" d="M 382,728 C 430,728 463,759 463,806 C 463,852 430,883 382,883 C 334,883 301,852 301,806 C 301,759 334,728 382,728 Z M 407,359 L 407,237 L 547,237 C 529,149 473,102 393,102 C 295,102 217,177 217,350 C 217,503 294,588 395,588 C 479,588 528,545 544,465 L 546,455 L 702,455 L 701,465 C 687,601 589,704 397,704 C 206,704 52,573 52,341 C 52,116 177,-14 365,-14 C 440,-14 490,1 529,37 L 560,109 L 572,0 L 696,0 L 696,359 L 407,359 Z "/>
</svg>
