<svg xmlns="http://www.w3.org/2000/svg" viewBox="0 -970 398 1200">
  <path transform="scale(1,-1)" d="M 298,393 C 231,398 216,425 216,455 C 216,479 219,506 225,550 C 234,607 237,636 237,667 C 237,746 198,780 102,780 L 61,780 L 61,694 L 80,694 C 132,694 148,686 148,652 C 148,636 146,617 137,560 C 130,509 126,472 126,452 C 126,397 153,360 210,348 C 153,337 126,304 126,248 C 126,228 130,191 137,140 C 146,84 148,65 148,48 C 148,14 132,6 80,6 L 61,6 L 61,-80 L 102,-80 C 198,-80 237,-46 237,34 C 237,64 234,93 225,150 C 219,194 216,221 216,245 C 216,276 231,303 298,307 L 298,393 Z "/>
</svg>
