<svg xmlns="http://www.w3.org/2000/svg" viewBox="0 -970 642 1200">
  <path transform="scale(1,-1)" d="M 485,233 L 502,319 L 274,319 C 274,328 274,337 274,346 L 274,370 L 512,370 L 531,456 L 285,456 C 305,546 355,588 428,588 C 480,588 518,576 557,545 L 614,642 C 577,680 514,704 421,704 C 274,704 156,626 120,456 L 81,456 L 63,370 L 110,370 C 109,361 109,352 109,342 L 109,319 L 53,319 L 35,233 L 117,233 C 145,55 249,-14 397,-14 C 485,-14 531,-1 580,27 L 580,141 C 536,115 488,102 433,102 C 357,102 305,133 284,233 L 485,233 Z "/>
</svg>
