<svg xmlns="http://www.w3.org/2000/svg" viewBox="0 -970 588 1200">
  <path transform="scale(1,-1)" d="M 560,276 C 560,418 472,547 302,547 C 133,547 26,425 26,265 C 26,94 123,3 253,-12 C 218,-41 189,-86 189,-137 C 189,-201 235,-223 298,-223 C 354,-223 394,-205 422,-179 L 422,-112 C 405,-127 390,-133 375,-133 C 352,-133 333,-120 333,-82 C 333,-46 350,-16 373,-5 C 379,-3 384,-2 390,0 C 471,25 530,84 551,174 L 396,174 C 387,124 350,94 295,94 C 236,94 192,124 183,226 L 557,226 C 559,245 560,262 560,276 Z M 295,439 C 353,439 388,400 397,325 L 187,325 C 200,404 239,439 295,439 Z "/>
</svg>
