<svg xmlns="http://www.w3.org/2000/svg" viewBox="0 -970 511 1200">
  <path transform="scale(1,-1)" d="M 491,149 C 491,249 425,292 322,318 C 227,342 198,362 198,398 C 198,426 219,447 253,447 C 292,447 315,422 324,378 L 479,378 C 466,475 392,547 263,547 C 129,547 41,483 41,379 C 41,288 106,243 206,218 C 300,196 334,175 334,137 C 334,103 304,87 266,87 C 222,87 186,114 175,164 L 20,164 C 32,59 106,2 215,-11 L 178,-86 C 251,-81 274,-93 274,-117 C 274,-137 256,-148 214,-148 C 199,-148 180,-146 157,-140 L 157,-203 C 175,-209 193,-210 212,-210 C 300,-210 370,-186 370,-120 C 370,-75 339,-49 278,-41 L 293,-13 C 405,-6 491,46 491,149 Z "/>
</svg>
