<svg xmlns="http://www.w3.org/2000/svg" viewBox="0 -970 573 1200">
  <path transform="scale(1,-1)" d="M 421,-82 C 421,-38 447,-2 478,0 L 523,0 C 515,59 513,95 513,135 L 513,297 C 513,328 512,358 510,383 C 502,478 445,547 287,547 C 157,547 54,478 51,356 L 201,356 C 205,409 232,439 281,439 C 328,439 352,413 355,381 C 357,363 357,349 357,335 L 357,326 L 323,326 C 135,326 32,258 32,142 C 32,41 113,-14 203,-14 C 252,-14 297,-3 335,21 L 359,78 L 369,7 C 321,-19 277,-73 277,-137 C 277,-201 323,-223 386,-223 C 442,-223 482,-205 510,-179 L 510,-112 C 493,-127 478,-133 463,-133 C 440,-133 421,-120 421,-82 Z M 265,94 C 222,94 193,115 193,155 C 193,217 260,241 357,233 L 357,194 C 357,128 312,94 265,94 Z "/>
</svg>
