<svg xmlns="http://www.w3.org/2000/svg" viewBox="0 -970 642 1200">
  <path transform="scale(1,-1)" d="M 596,186 C 596,302 530,363 371,414 L 371,589 C 415,575 436,540 442,493 L 593,493 C 579,605 511,687 371,702 L 371,780 L 281,780 L 281,701 C 170,688 73,623 73,496 C 73,383 150,329 281,284 L 281,101 C 236,113 204,145 195,197 L 45,197 C 57,65 147,0 281,-12 L 281,-90 L 371,-90 L 371,-12 C 501,1 596,70 596,186 Z M 218,513 C 218,554 242,581 281,591 L 281,431 C 240,447 218,468 218,513 Z M 371,263 C 426,243 444,214 444,177 C 444,131 418,107 371,98 L 371,263 Z "/>
</svg>
