<svg xmlns="http://www.w3.org/2000/svg" viewBox="0 -970 1118 1200">
  <path transform="scale(1,-1)" d="M 348,537 C 348,642 288,703 191,703 C 93,703 34,642 34,537 C 34,432 93,370 191,370 C 288,370 348,432 348,537 Z M 670,690 L 556,690 L 109,0 L 223,0 L 670,690 Z M 136,537 C 136,594 154,625 191,625 C 227,625 246,594 246,537 C 246,480 227,448 191,448 C 154,448 136,480 136,537 Z M 581,319 C 484,319 424,258 424,153 C 424,48 484,-14 581,-14 C 679,-14 738,48 738,153 C 738,258 679,319 581,319 Z M 928,319 C 830,319 771,258 771,153 C 771,48 830,-14 928,-14 C 1025,-14 1085,48 1085,153 C 1085,258 1025,319 928,319 Z M 581,64 C 545,64 526,96 526,153 C 526,210 545,241 581,241 C 618,241 636,210 636,153 C 636,96 618,64 581,64 Z M 928,64 C 891,64 873,96 873,153 C 873,210 891,241 928,241 C 964,241 983,210 983,153 C 983,96 964,64 928,64 Z "/>
</svg>
