<svg xmlns="http://www.w3.org/2000/svg" viewBox="0 -970 616 1200">
  <path transform="scale(1,-1)" d="M 358,735 L 494,853 L 354,853 L 272,735 L 358,735 Z M 320,704 C 186,704 67,629 67,500 C 67,368 157,319 305,282 C 399,260 431,227 431,179 C 431,132 386,102 329,102 C 266,102 211,136 197,207 L 39,207 C 51,58 163,-14 332,-14 C 470,-14 595,58 595,192 C 595,301 529,373 377,409 C 266,435 231,463 231,515 C 231,565 266,588 315,588 C 381,588 417,547 425,483 L 583,483 C 568,608 492,704 320,704 Z "/>
</svg>
