<svg xmlns="http://www.w3.org/2000/svg" viewBox="0 -970 911 1200">
  <path transform="scale(1,-1)" d="M 685,470 L 552,470 L 532,406 L 517,460 C 504,476 476,488 438,488 C 322,488 241,379 241,239 C 241,111 309,72 378,72 C 408,72 439,81 469,105 L 497,163 C 515,101 565,70 636,70 C 758,70 866,146 866,347 C 866,530 734,693 495,693 C 249,693 47,511 47,249 C 47,-21 250,-127 428,-127 C 514,-127 615,-104 703,-47 L 670,29 C 606,-18 524,-40 440,-40 C 252,-40 143,72 143,255 C 143,477 318,606 492,606 C 659,606 769,509 769,339 C 769,218 723,156 670,156 C 641,156 630,180 630,214 C 630,230 632,247 645,305 L 685,470 Z M 430,180 C 405,180 388,199 388,250 C 388,323 423,380 471,380 C 501,380 516,357 506,312 L 492,249 C 483,212 463,180 430,180 Z "/>
</svg>
