<svg xmlns="http://www.w3.org/2000/svg" viewBox="0 -970 573 1200">
  <path transform="scale(1,-1)" d="M 286,567 C 352,567 398,608 398,668 C 398,728 352,769 286,769 C 220,769 174,728 174,668 C 174,608 220,567 286,567 Z M 286,711 C 308,711 323,695 323,668 C 323,641 308,625 286,625 C 264,625 249,641 249,668 C 249,695 264,711 286,711 Z M 370,0 L 523,0 C 515,59 513,95 513,135 L 513,297 C 513,328 512,358 510,383 C 502,478 445,547 287,547 C 157,547 54,478 51,356 L 201,356 C 205,409 232,439 281,439 C 328,439 352,413 355,381 C 357,363 357,349 357,335 L 357,326 L 323,326 C 135,326 32,258 32,142 C 32,41 113,-14 203,-14 C 252,-14 297,-3 335,21 L 359,78 L 370,0 Z M 265,94 C 222,94 193,115 193,155 C 193,217 260,241 357,233 L 357,194 C 357,128 312,94 265,94 Z "/>
</svg>
