<svg xmlns="http://www.w3.org/2000/svg" viewBox="0 -970 709 1200">
  <path transform="scale(1,-1)" d="M 277,858 C 237,858 209,832 209,792 C 209,752 237,726 277,726 C 317,726 344,752 344,792 C 344,832 317,858 277,858 Z M 462,858 C 422,858 394,832 394,792 C 394,752 422,726 462,726 C 502,726 529,752 529,792 C 529,832 502,858 462,858 Z M 663,690 L 507,690 L 507,268 C 507,249 507,236 505,222 C 500,147 455,102 369,102 C 283,102 238,147 232,222 C 231,236 231,249 231,268 L 231,690 L 75,690 L 75,291 C 75,259 75,239 77,203 C 86,87 167,-14 369,-14 C 571,-14 652,87 660,203 C 663,239 663,259 663,291 L 663,690 Z "/>
</svg>
