<svg xmlns="http://www.w3.org/2000/svg" viewBox="0 -970 584 1200">
  <path transform="scale(1,-1)" d="M 196,573 C 236,573 264,599 264,639 C 264,679 236,705 196,705 C 156,705 128,679 128,639 C 128,599 156,573 196,573 Z M 382,573 C 422,573 450,599 450,639 C 450,679 422,705 382,705 C 342,705 315,679 315,639 C 315,599 342,573 382,573 Z M 589,533 L 418,533 L 297,121 L 175,533 L 0,533 L 219,-24 L 212,-41 C 192,-87 162,-103 117,-103 C 101,-103 87,-103 73,-101 L 73,-206 C 95,-209 114,-210 141,-210 C 257,-210 315,-166 376,-11 L 589,533 Z "/>
</svg>
