<svg xmlns="http://www.w3.org/2000/svg" viewBox="0 -970 680 1200">
  <path transform="scale(1,-1)" d="M 675,411 L 582,411 L 582,497 L 425,497 L 425,411 L 397,411 C 380,411 358,411 340,412 C 291,415 253,440 253,501 C 253,559 287,588 354,588 C 390,588 415,587 456,580 L 456,694 C 426,701 393,704 351,704 C 186,704 88,633 88,508 C 88,433 140,374 214,353 C 114,336 49,273 49,177 C 49,31 169,-14 330,-14 C 427,-14 510,-4 582,12 L 582,289 L 675,289 L 675,411 Z M 214,197 C 214,250 254,283 332,288 C 352,289 363,289 385,289 L 425,289 L 425,110 C 388,103 365,102 334,102 C 259,102 214,124 214,197 Z "/>
</svg>
