<svg xmlns="http://www.w3.org/2000/svg" viewBox="0 -970 838 1200">
  <path transform="scale(1,-1)" d="M 819,678 L 757,740 L 679,662 C 609,722 518,758 419,758 C 200,758 19,582 19,355 C 19,255 54,165 112,95 L 20,3 L 82,-60 L 176,34 C 244,-18 328,-48 419,-48 C 638,-48 819,128 819,355 C 819,447 789,531 739,598 L 819,678 Z M 115,355 C 115,535 252,671 419,671 C 493,671 562,644 615,598 L 178,161 C 138,214 115,281 115,355 Z M 723,355 C 723,175 586,39 419,39 C 352,39 290,61 240,98 L 673,531 C 704,482 723,421 723,355 Z "/>
</svg>
