<svg xmlns="http://www.w3.org/2000/svg" viewBox="0 -970 643 1200">
  <path transform="scale(1,-1)" d="M 566,633 L 552,701 L 470,682 C 441,707 407,727 367,745 L 237,682 C 265,671 289,658 309,645 L 230,626 L 244,559 L 373,589 C 404,551 420,509 426,462 L 382,518 C 345,540 318,547 284,547 C 142,547 26,447 26,265 C 26,102 120,-14 315,-14 C 452,-14 599,69 599,307 C 599,450 575,550 524,623 L 566,633 Z M 437,260 C 437,163 395,102 316,102 C 236,102 190,156 190,267 C 190,367 235,432 317,432 C 385,432 437,380 437,289 L 437,260 Z "/>
</svg>
