<svg xmlns="http://www.w3.org/2000/svg" viewBox="0 -970 613 1200">
  <path transform="scale(1,-1)" d="M 254,609 C 263,609 275,604 299,595 C 334,581 350,577 376,577 C 431,577 457,612 457,696 L 375,696 C 375,675 371,667 360,667 C 352,667 339,671 315,681 C 281,696 265,699 238,699 C 184,699 158,664 158,581 L 239,581 C 239,601 244,609 254,609 Z M 307,547 C 130,547 26,433 26,267 C 26,101 130,-14 307,-14 C 483,-14 588,101 588,267 C 588,433 483,547 307,547 Z M 307,94 C 232,94 187,156 187,267 C 187,378 232,439 307,439 C 381,439 426,378 426,267 C 426,156 381,94 307,94 Z "/>
</svg>
