<svg xmlns="http://www.w3.org/2000/svg" viewBox="0 -970 989 1200">
  <path transform="scale(1,-1)" d="M 961,276 C 961,418 873,547 710,547 C 626,547 554,514 509,440 C 463,515 391,547 307,547 C 130,547 26,433 26,267 C 26,101 130,-14 307,-14 C 389,-14 459,15 504,87 C 550,13 620,-14 696,-14 C 823,-14 923,51 951,174 L 796,174 C 788,124 751,94 695,94 C 637,94 592,127 583,226 L 958,226 C 960,245 961,262 961,276 Z M 307,94 C 232,94 187,156 187,267 C 187,378 232,439 307,439 C 381,439 426,378 426,267 C 426,156 381,94 307,94 Z M 588,325 C 600,402 640,439 696,439 C 754,439 789,399 798,325 L 588,325 Z "/>
</svg>
