<svg xmlns="http://www.w3.org/2000/svg" viewBox="0 -970 1013 1200">
  <path transform="scale(1,-1)" d="M 734,544 C 633,544 566,512 516,420 C 464,512 386,544 287,544 C 128,544 26,432 26,265 C 26,99 128,-14 279,-14 C 380,-14 449,19 500,110 C 552,19 628,-14 727,-14 C 885,-14 988,99 988,265 C 988,432 885,544 734,544 Z M 295,94 C 230,94 187,162 187,265 C 187,369 230,436 295,436 C 353,436 391,391 410,265 C 397,141 353,94 295,94 Z M 718,94 C 660,94 625,140 606,265 C 619,389 660,436 718,436 C 784,436 826,369 826,265 C 826,162 784,94 718,94 Z "/>
</svg>
