<svg xmlns="http://www.w3.org/2000/svg" viewBox="0 -970 953 1200">
  <path transform="scale(1,-1)" d="M 925,276 C 925,418 837,547 674,547 C 589,547 518,516 475,454 C 445,513 384,547 287,547 C 155,547 52,478 51,356 L 201,356 C 204,409 238,439 289,439 C 350,439 377,403 377,337 L 377,325 L 325,325 C 145,325 32,268 32,146 C 32,41 114,-14 234,-14 C 286,-14 342,-1 383,28 L 440,101 C 485,22 562,-14 657,-14 C 787,-14 887,51 915,174 L 760,174 C 752,124 715,94 659,94 C 601,94 556,127 547,226 L 922,226 C 924,245 925,262 925,276 Z M 552,325 C 564,402 604,439 660,439 C 718,439 753,399 762,325 L 552,325 Z M 378,213 C 378,138 335,94 274,94 C 222,94 193,115 193,158 C 193,215 254,232 378,226 L 378,213 Z "/>
</svg>
