<svg xmlns="http://www.w3.org/2000/svg" viewBox="0 -970 642 1200">
  <path transform="scale(1,-1)" d="M 461,366 C 522,386 576,430 576,511 C 576,625 487,704 330,704 C 172,704 82,625 82,511 C 82,430 126,386 183,366 C 113,342 49,286 49,195 C 49,45 158,-15 319,-15 C 470,-15 592,45 592,195 C 592,286 531,343 461,366 Z M 328,588 C 382,588 415,556 415,505 C 415,450 380,418 327,418 C 274,418 243,450 243,505 C 243,556 277,588 328,588 Z M 321,101 C 252,101 213,139 213,202 C 213,263 255,304 320,304 C 392,304 429,261 429,200 C 429,140 396,101 321,101 Z "/>
</svg>
