<svg xmlns="http://www.w3.org/2000/svg" viewBox="0 -970 779 1200">
  <path transform="scale(1,-1)" d="M 752,634 L 690,697 L 625,632 C 568,679 491,704 400,704 C 187,704 54,564 54,345 C 54,257 76,182 115,123 L 48,56 L 111,-7 L 176,58 C 233,12 309,-14 400,-14 C 614,-14 747,127 747,345 C 747,433 725,509 685,567 L 752,634 Z M 216,345 C 216,500 286,588 400,588 C 453,588 496,570 527,535 L 230,238 C 221,269 216,305 216,345 Z M 585,345 C 585,191 515,102 400,102 C 348,102 305,121 274,156 L 571,453 C 581,422 585,386 585,345 Z "/>
</svg>
