<svg xmlns="http://www.w3.org/2000/svg" viewBox="0 -970 628 1200">
  <path transform="scale(1,-1)" d="M 216,573 C 256,573 284,599 284,639 C 284,679 256,705 216,705 C 176,705 148,679 148,639 C 148,599 176,573 216,573 Z M 402,573 C 442,573 470,599 470,639 C 470,679 442,705 402,705 C 362,705 335,679 335,639 C 335,599 362,573 402,573 Z M 568,533 L 412,533 L 412,248 C 412,150 370,95 306,95 C 245,95 217,127 210,181 C 207,208 206,237 206,254 L 206,533 L 50,533 L 50,220 C 50,177 51,148 55,121 C 67,48 133,-14 243,-14 C 293,-14 331,-4 367,20 L 412,91 L 412,0 L 568,0 L 568,533 Z "/>
</svg>
