<svg xmlns="http://www.w3.org/2000/svg" viewBox="0 -970 666 1200">
  <path transform="scale(1,-1)" d="M 388,735 L 524,853 L 384,853 L 302,735 L 388,735 Z M 602,171 C 594,251 567,306 497,332 C 584,357 634,414 634,502 C 634,623 551,673 451,685 C 415,689 388,690 347,690 L 85,690 L 85,0 L 242,0 L 242,271 L 304,271 C 323,271 340,271 359,270 C 411,266 440,222 449,147 C 455,89 465,48 482,0 L 653,0 C 625,40 611,90 602,171 Z M 242,386 L 242,568 L 329,568 C 351,568 368,567 382,566 C 433,560 470,540 470,477 C 470,414 427,392 376,387 C 362,386 345,386 323,386 L 242,386 Z "/>
</svg>
