<svg xmlns="http://www.w3.org/2000/svg" viewBox="0 -970 635 1200">
  <path transform="scale(1,-1)" d="M 558,133 C 556,147 556,159 556,182 L 556,726 C 503,744 430,754 338,754 C 147,754 77,687 68,588 C 67,570 67,553 67,536 L 67,529 L 20,529 L 20,429 L 67,429 L 67,0 L 223,0 L 223,429 L 332,429 L 332,529 L 223,529 L 223,538 C 223,551 223,567 225,581 C 229,623 263,646 337,646 C 363,646 380,645 400,639 L 400,179 C 400,142 400,116 401,90 C 405,20 450,-9 517,-9 C 552,-9 585,-7 618,-3 L 618,96 C 577,93 561,101 558,133 Z "/>
</svg>
