<svg xmlns="http://www.w3.org/2000/svg" viewBox="0 -970 938 1200">
  <path transform="scale(1,-1)" d="M 880,414 C 868,487 809,547 705,547 C 657,547 622,537 591,516 L 537,444 C 515,503 460,547 371,547 C 322,547 288,537 256,516 L 216,450 L 216,533 L 59,533 L 59,0 L 216,0 L 216,277 C 216,386 245,439 305,439 C 356,439 383,409 390,356 C 393,329 394,300 394,275 L 394,0 L 550,0 L 550,277 C 550,386 580,439 640,439 C 690,439 718,409 724,356 C 727,329 728,300 728,275 L 728,0 L 885,0 L 885,315 C 885,358 884,387 880,414 Z "/>
</svg>
