<svg xmlns="http://www.w3.org/2000/svg" viewBox="0 -970 616 1200">
  <path transform="scale(1,-1)" d="M 595,192 C 595,301 529,373 377,409 C 266,435 231,463 231,515 C 231,565 266,588 315,588 C 381,588 417,547 425,483 L 583,483 C 568,608 492,704 320,704 C 186,704 67,629 67,500 C 67,368 157,319 305,282 C 399,260 431,227 431,179 C 431,132 386,102 329,102 C 266,102 211,136 197,207 L 39,207 C 49,79 133,8 264,-10 L 226,-86 C 299,-81 322,-93 322,-117 C 322,-137 304,-148 262,-148 C 247,-148 228,-146 205,-140 L 205,-203 C 223,-209 241,-210 260,-210 C 348,-210 418,-186 418,-120 C 418,-75 387,-49 326,-41 L 340,-14 C 475,-11 595,61 595,192 Z "/>
</svg>
