<svg xmlns="http://www.w3.org/2000/svg" viewBox="0 -970 747 1200">
  <path transform="scale(1,-1)" d="M 382,727 C 453,727 509,761 509,853 L 428,853 C 426,820 411,804 382,804 C 353,804 338,820 336,853 L 255,853 C 255,761 310,727 382,727 Z M 407,359 L 407,237 L 547,237 C 529,149 473,102 393,102 C 295,102 217,177 217,350 C 217,503 294,588 395,588 C 479,588 528,545 544,465 L 546,455 L 702,455 L 701,465 C 687,601 589,704 397,704 C 206,704 52,573 52,341 C 52,116 177,-14 365,-14 C 440,-14 490,1 529,37 L 560,109 L 572,0 L 696,0 L 696,359 L 407,359 Z "/>
</svg>
