<svg xmlns="http://www.w3.org/2000/svg" viewBox="0 -970 668 1200">
  <path transform="scale(1,-1)" d="M 508,373 C 577,397 613,445 613,512 C 613,604 549,672 437,686 C 402,690 384,690 348,690 L 85,690 L 85,0 L 347,0 C 388,0 411,0 445,4 C 538,16 638,79 638,207 C 638,294 596,350 508,373 Z M 242,568 L 333,568 C 349,568 367,567 381,565 C 422,559 449,537 449,491 C 449,445 425,422 382,415 C 368,413 352,412 336,412 L 242,412 L 242,568 Z M 397,124 C 384,123 368,123 352,123 L 242,123 L 242,297 L 346,297 C 362,297 378,297 394,295 C 438,291 474,265 474,209 C 474,157 438,127 397,124 Z "/>
</svg>
