<svg xmlns="http://www.w3.org/2000/svg" viewBox="0 -970 634 1200">
  <path transform="scale(1,-1)" d="M 612,498 L 549,562 L 485,498 C 440,529 381,547 312,547 C 136,547 31,433 31,267 C 31,199 48,140 81,94 L 22,35 L 85,-29 L 145,31 C 190,2 246,-14 312,-14 C 488,-14 593,101 593,267 C 593,332 577,388 547,433 L 612,498 Z M 192,267 C 192,378 237,439 312,439 C 345,439 372,427 392,405 L 197,210 C 194,227 192,246 192,267 Z M 431,267 C 431,156 387,94 312,94 C 282,94 256,104 237,123 L 428,314 C 430,300 431,284 431,267 Z "/>
</svg>
