<svg xmlns="http://www.w3.org/2000/svg" viewBox="0 -970 652 1200">
  <path transform="scale(1,-1)" d="M 328,754 C 171,754 70,675 61,537 C 60,519 59,493 59,443 L 59,0 L 216,0 L 216,451 C 216,502 217,521 218,535 C 222,601 259,638 322,638 C 387,638 417,610 417,563 C 417,545 414,530 403,514 C 352,484 330,447 330,398 C 330,341 354,311 408,257 C 444,222 457,197 457,169 C 457,133 435,112 391,112 C 369,112 341,114 297,125 L 297,6 C 336,-2 362,-4 425,-4 C 528,-4 622,47 622,150 C 622,225 600,257 547,310 C 511,345 495,369 495,398 C 495,429 512,452 555,476 C 574,504 582,531 582,565 C 582,677 489,754 328,754 Z "/>
</svg>
