<svg xmlns="http://www.w3.org/2000/svg" viewBox="0 -970 775 1200">
  <path transform="scale(1,-1)" d="M 307,726 C 347,726 374,752 374,792 C 374,832 347,858 307,858 C 267,858 239,832 239,792 C 239,752 267,726 307,726 Z M 492,726 C 532,726 559,752 559,792 C 559,832 532,858 492,858 C 452,858 424,832 424,792 C 424,752 452,726 492,726 Z M 399,704 C 185,704 52,564 52,345 C 52,127 185,-14 399,-14 C 612,-14 745,127 745,345 C 745,564 612,704 399,704 Z M 399,102 C 284,102 214,191 214,345 C 214,500 284,588 399,588 C 513,588 583,500 583,345 C 583,191 513,102 399,102 Z "/>
</svg>
