<svg xmlns="http://www.w3.org/2000/svg" viewBox="0 -970 573 1200">
  <path transform="scale(1,-1)" d="M 295,94 C 230,94 187,148 187,272 C 187,385 229,439 295,439 C 347,439 384,409 395,336 L 548,336 C 540,455 448,547 299,547 C 148,547 26,445 26,262 C 26,101 115,8 238,-11 L 201,-86 C 274,-81 297,-93 297,-117 C 297,-137 279,-148 237,-148 C 222,-148 203,-146 180,-140 L 180,-203 C 198,-209 216,-210 235,-210 C 323,-210 393,-186 393,-120 C 393,-75 362,-49 301,-41 L 316,-13 C 439,-4 529,65 548,189 L 393,189 C 381,127 343,94 295,94 Z "/>
</svg>
