<svg xmlns="http://www.w3.org/2000/svg" viewBox="0 -970 588 1200">
  <path transform="scale(1,-1)" d="M 296,580 C 346,580 380,611 380,660 C 380,708 346,739 296,739 C 246,739 213,708 213,660 C 213,611 246,580 296,580 Z M 560,276 C 560,418 472,547 302,547 C 133,547 26,425 26,265 C 26,77 143,-14 292,-14 C 422,-14 522,51 551,174 L 396,174 C 387,124 350,94 295,94 C 236,94 192,124 183,226 L 557,226 C 559,245 560,262 560,276 Z M 295,439 C 353,439 388,400 397,325 L 187,325 C 200,404 239,439 295,439 Z "/>
</svg>
