<svg xmlns="http://www.w3.org/2000/svg" viewBox="0 -970 492 1200">
  <path transform="scale(1,-1)" d="M 246,764 C 122,764 36,677 36,554 C 36,431 122,344 246,344 C 370,344 456,431 456,554 C 456,677 370,764 246,764 Z M 246,398 C 156,398 93,463 93,554 C 93,646 156,711 246,711 C 336,711 399,646 399,554 C 399,463 336,398 246,398 Z M 298,554 C 320,560 338,577 338,605 C 338,637 315,659 269,664 C 260,665 252,665 242,665 L 166,665 L 166,454 L 224,454 L 224,523 L 239,523 C 257,523 266,514 268,496 C 270,480 272,466 275,454 L 340,454 C 335,465 330,481 327,508 C 325,530 317,548 298,554 Z M 255,569 C 249,568 244,568 236,568 L 224,568 L 224,621 L 236,621 C 245,621 249,621 255,620 C 267,618 275,609 275,594 C 275,582 269,571 255,569 Z "/>
</svg>
