<svg xmlns="http://www.w3.org/2000/svg" viewBox="0 -970 378 1200">
  <path transform="scale(1,-1)" d="M 247,429 L 360,429 L 360,529 L 247,529 L 247,663 L 90,663 L 90,529 L 9,529 L 9,429 L 90,429 L 90,184 C 90,154 90,130 92,103 C 96,48 117,12 170,-3 L 129,-86 C 202,-81 225,-93 225,-117 C 225,-137 207,-148 165,-148 C 150,-148 131,-146 108,-140 L 108,-203 C 126,-209 144,-210 163,-210 C 251,-210 321,-186 321,-120 C 321,-75 290,-49 229,-41 L 244,-13 L 253,-13 C 287,-13 318,-10 350,-5 L 350,95 C 270,90 252,102 248,155 C 247,169 247,187 247,205 L 247,429 Z "/>
</svg>
