<svg xmlns="http://www.w3.org/2000/svg" viewBox="0 -970 546 1200">
  <path transform="scale(1,-1)" d="M 137,739 C 87,739 54,708 54,660 C 54,611 87,580 137,580 C 187,580 221,611 221,660 C 221,708 187,739 137,739 Z M 411,739 C 355,739 327,714 327,660 C 327,605 355,580 411,580 C 466,580 494,605 494,660 C 494,714 466,739 411,739 Z M 216,0 L 216,533 L 59,533 L 59,0 L 216,0 Z M 489,533 L 332,533 L 332,-1 C 332,-16 332,-34 330,-48 C 326,-92 298,-104 235,-98 L 235,-207 C 252,-209 271,-210 291,-210 C 427,-210 480,-155 487,-64 C 488,-46 489,-20 489,1 L 489,533 Z "/>
</svg>
