<svg xmlns="http://www.w3.org/2000/svg" viewBox="0 -970 642 1200">
  <path transform="scale(1,-1)" d="M 444,365 C 530,386 573,442 573,522 C 573,622 494,704 336,704 C 167,704 81,607 69,488 L 68,478 L 224,478 L 225,488 C 230,545 262,588 320,588 C 375,588 408,555 408,504 C 408,447 367,408 297,404 L 272,403 L 272,298 L 297,298 C 379,295 424,261 424,197 C 424,141 379,102 312,102 C 246,102 204,145 194,205 L 193,215 L 36,215 L 37,205 C 51,65 151,-14 315,-14 C 479,-14 589,71 589,202 C 589,291 539,344 444,365 Z "/>
</svg>
