<svg xmlns="http://www.w3.org/2000/svg" viewBox="0 -970 628 1200">
  <path transform="scale(1,-1)" d="M 568,0 L 568,533 L 412,533 L 412,248 C 412,150 370,95 306,95 C 245,95 217,127 210,181 C 207,208 206,237 206,254 L 206,533 L 50,533 L 50,220 C 50,177 51,148 55,121 C 67,48 133,-14 243,-14 C 293,-14 331,-4 367,20 L 412,91 L 412,7 C 364,-18 319,-73 319,-137 C 319,-201 365,-223 428,-223 C 484,-223 524,-205 552,-179 L 552,-112 C 535,-127 520,-133 505,-133 C 482,-133 463,-120 463,-82 C 463,-38 489,-2 520,0 L 568,0 Z "/>
</svg>
