<svg xmlns="http://www.w3.org/2000/svg" viewBox="0 -970 656 1200">
  <path transform="scale(1,-1)" d="M 323,568 C 394,568 450,600 450,695 L 369,695 C 367,661 352,645 323,645 C 294,645 279,661 277,695 L 196,695 C 196,600 251,568 323,568 Z M 596,533 L 439,533 L 439,463 L 404,519 C 377,536 324,547 280,547 C 143,547 26,453 26,262 C 26,104 122,1 270,1 C 324,1 369,14 399,36 L 439,95 L 439,81 C 439,56 438,33 437,14 C 433,-65 382,-102 305,-102 C 240,-102 197,-76 192,-33 L 191,-24 L 39,-24 L 40,-34 C 52,-153 144,-218 301,-218 C 475,-218 589,-139 595,32 C 596,61 596,102 596,135 L 596,533 Z M 312,109 C 238,109 187,169 187,274 C 187,390 241,439 317,439 C 376,439 439,399 439,285 L 439,275 C 439,153 383,109 312,109 Z "/>
</svg>
