<svg xmlns="http://www.w3.org/2000/svg" viewBox="0 -970 628 1200">
  <path transform="scale(1,-1)" d="M 309,567 C 375,567 421,608 421,668 C 421,728 375,769 309,769 C 243,769 197,728 197,668 C 197,608 243,567 309,567 Z M 309,711 C 331,711 346,695 346,668 C 346,641 331,625 309,625 C 287,625 272,641 272,668 C 272,695 287,711 309,711 Z M 568,533 L 412,533 L 412,248 C 412,150 370,95 306,95 C 245,95 217,127 210,181 C 207,208 206,237 206,254 L 206,533 L 50,533 L 50,220 C 50,177 51,148 55,121 C 67,48 133,-14 243,-14 C 293,-14 331,-4 367,20 L 412,91 L 412,0 L 568,0 L 568,533 Z "/>
</svg>
