<svg xmlns="http://www.w3.org/2000/svg" viewBox="0 -970 613 1200">
  <path transform="scale(1,-1)" d="M 214,573 C 254,573 282,599 282,639 C 282,679 254,705 214,705 C 174,705 146,679 146,639 C 146,599 174,573 214,573 Z M 400,573 C 440,573 468,599 468,639 C 468,679 440,705 400,705 C 360,705 333,679 333,639 C 333,599 360,573 400,573 Z M 307,547 C 130,547 26,433 26,267 C 26,101 130,-14 307,-14 C 483,-14 588,101 588,267 C 588,433 483,547 307,547 Z M 307,94 C 232,94 187,156 187,267 C 187,378 232,439 307,439 C 381,439 426,378 426,267 C 426,156 381,94 307,94 Z "/>
</svg>
