<svg xmlns="http://www.w3.org/2000/svg" viewBox="0 -970 613 1200">
  <path transform="scale(1,-1)" d="M 588,237 C 588,341 520,398 371,438 C 271,464 245,489 245,541 C 245,581 269,604 300,604 C 338,604 360,578 369,529 L 524,529 C 511,633 437,704 308,704 C 176,704 87,627 87,515 C 87,488 94,463 107,442 C 56,411 25,361 25,296 C 25,186 98,138 216,103 C 340,67 369,34 369,-12 C 369,-53 340,-74 301,-74 C 258,-74 222,-46 210,5 L 55,5 C 69,-116 166,-174 298,-174 C 425,-174 527,-111 527,3 C 527,38 518,67 501,91 C 553,121 588,169 588,237 Z M 293,206 C 221,228 183,255 183,301 C 183,330 193,350 210,361 C 238,348 271,336 308,326 C 397,300 430,271 430,223 C 430,197 417,178 398,167 C 368,181 333,194 293,206 Z "/>
</svg>
