<svg xmlns="http://www.w3.org/2000/svg" viewBox="0 -970 642 1200">
  <path transform="scale(1,-1)" d="M 501,301 C 501,337 491,371 472,399 L 526,453 L 473,506 L 420,452 C 391,470 358,481 321,481 C 284,481 251,470 222,452 L 169,506 L 116,453 L 170,399 C 151,371 141,337 141,301 C 141,265 151,231 169,203 L 116,150 L 169,97 L 222,150 C 250,132 284,121 321,121 C 358,121 392,132 420,150 L 473,97 L 526,150 L 473,203 C 491,231 501,265 501,301 Z M 321,206 C 270,206 234,244 234,301 C 234,358 270,396 321,396 C 372,396 407,358 407,301 C 407,244 372,206 321,206 Z "/>
</svg>
