<svg xmlns="http://www.w3.org/2000/svg" viewBox="0 -970 725 1200">
  <path transform="scale(1,-1)" d="M 380,883 C 332,883 299,852 299,806 C 299,759 332,728 380,728 C 428,728 461,759 461,806 C 461,852 428,883 380,883 Z M 390,704 C 200,704 52,573 52,341 C 52,115 192,-14 381,-14 C 556,-14 675,77 691,233 L 692,243 L 535,243 L 533,233 C 517,151 468,102 387,102 C 293,102 217,177 217,350 C 217,503 288,588 388,588 C 471,588 520,545 536,465 L 538,455 L 695,455 L 694,465 C 680,601 581,704 390,704 Z "/>
</svg>
