<svg xmlns="http://www.w3.org/2000/svg" viewBox="0 -970 642 1200">
  <path transform="scale(1,-1)" d="M 213,482 C 160,482 116,461 77,397 L 131,341 C 156,373 181,388 214,388 C 239,388 257,379 307,353 C 361,324 387,312 427,312 C 481,312 525,333 564,397 L 510,452 C 484,421 460,406 427,406 C 402,406 383,414 334,441 C 280,469 254,482 213,482 Z M 213,292 C 160,292 116,271 77,207 L 131,151 C 156,183 181,198 214,198 C 239,198 257,189 307,163 C 361,134 387,122 427,122 C 481,122 525,143 564,207 L 510,262 C 484,231 460,216 427,216 C 402,216 383,224 334,251 C 280,279 254,292 213,292 Z "/>
</svg>
