<svg xmlns="http://www.w3.org/2000/svg" viewBox="0 -970 692 1200">
  <path transform="scale(1,-1)" d="M 381,839 C 351,839 319,813 319,778 C 319,752 337,733 366,733 C 396,733 427,760 427,794 C 427,821 409,839 381,839 Z M 536,839 C 506,839 474,813 474,778 C 474,752 492,733 521,733 C 551,733 582,760 582,794 C 582,821 564,839 536,839 Z M 705,690 L 595,690 L 521,265 C 517,244 513,225 509,209 C 482,109 424,70 327,70 C 237,70 190,116 190,190 C 190,214 192,230 199,270 L 273,690 L 163,690 L 91,280 C 84,241 80,213 80,181 C 80,60 157,-14 315,-14 C 494,-14 584,66 616,199 C 622,224 626,244 631,272 L 705,690 Z "/>
</svg>
