<svg xmlns="http://www.w3.org/2000/svg" viewBox="0 -970 692 1200">
  <path transform="scale(1,-1)" d="M 705,690 L 595,690 L 521,265 C 517,244 513,225 509,209 C 482,109 424,70 327,70 C 237,70 190,116 190,190 C 190,214 192,230 199,270 L 273,690 L 163,690 L 91,280 C 84,241 80,213 80,181 C 80,65 151,-8 296,-14 C 239,-49 209,-98 209,-149 C 209,-203 248,-223 294,-223 C 337,-223 374,-210 400,-190 L 410,-138 C 391,-152 373,-157 354,-157 C 332,-157 318,-146 318,-116 C 318,-80 347,-29 392,-8 C 520,12 589,87 616,199 C 622,224 626,244 631,272 L 705,690 Z "/>
</svg>
