<svg xmlns="http://www.w3.org/2000/svg" viewBox="0 -970 601 1200">
  <path transform="scale(1,-1)" d="M 522,459 L 485,504 L 415,445 C 390,467 357,481 319,481 C 278,481 243,472 215,455 L 170,507 L 119,464 L 162,411 C 131,373 116,326 116,284 C 116,255 123,227 135,203 L 67,145 L 104,100 L 171,157 C 197,134 230,121 268,121 C 310,121 345,132 374,149 L 419,96 L 469,138 L 425,192 C 456,229 472,276 472,318 C 472,348 465,376 452,400 L 522,459 Z M 187,290 C 187,349 230,414 308,414 C 361,414 400,375 400,313 C 400,253 356,188 278,188 C 225,188 187,227 187,290 Z "/>
</svg>
