<svg xmlns="http://www.w3.org/2000/svg" viewBox="0 -970 517 1200">
  <path transform="scale(1,-1)" d="M 229,580 C 259,580 291,606 291,641 C 291,667 273,685 245,685 C 215,685 183,659 183,624 C 183,598 201,580 229,580 Z M 389,580 C 419,580 451,606 451,641 C 451,667 432,685 405,685 C 375,685 343,659 343,624 C 343,598 361,580 389,580 Z M 572,531 L 449,531 L 225,85 L 158,531 L 34,531 L 149,-28 L 141,-43 C 107,-107 73,-128 23,-128 C 11,-128 0,-127 -13,-125 L -26,-206 C -11,-209 6,-210 24,-210 C 129,-210 185,-161 275,0 L 572,531 Z "/>
</svg>
