<svg xmlns="http://www.w3.org/2000/svg" viewBox="0 -970 601 1200">
  <path transform="scale(1,-1)" d="M 276,580 C 306,580 338,606 338,641 C 338,667 320,685 292,685 C 262,685 230,659 230,624 C 230,598 248,580 276,580 Z M 436,580 C 466,580 498,606 498,641 C 498,667 479,685 452,685 C 422,685 390,659 390,624 C 390,598 408,580 436,580 Z M 339,545 C 122,545 27,371 27,221 C 27,95 96,-14 263,-14 C 479,-14 574,160 574,310 C 574,436 505,545 339,545 Z M 274,66 C 185,66 145,136 145,224 C 145,340 207,465 327,465 C 417,465 456,395 456,308 C 456,192 395,66 274,66 Z "/>
</svg>
