<svg xmlns="http://www.w3.org/2000/svg" viewBox="0 -970 550 1200">
  <path transform="scale(1,-1)" d="M 248,66 C 188,66 142,108 142,202 C 142,354 216,464 319,464 C 385,464 421,426 424,346 L 535,346 C 534,464 471,544 334,544 C 137,544 24,380 24,200 C 24,74 92,4 191,-11 L 143,-81 C 199,-74 232,-90 232,-118 C 232,-144 209,-161 163,-161 C 143,-161 126,-160 111,-154 L 101,-202 C 116,-207 136,-210 163,-210 C 240,-210 303,-181 303,-114 C 303,-77 279,-49 231,-41 L 251,-14 C 378,-9 459,54 508,176 L 396,176 C 368,104 315,66 248,66 Z "/>
</svg>
