<svg xmlns="http://www.w3.org/2000/svg" viewBox="0 -970 602 1200">
  <path transform="scale(1,-1)" d="M 358,566 C 423,566 473,611 473,671 C 473,716 440,745 389,745 C 323,745 273,700 273,640 C 273,595 306,566 358,566 Z M 381,702 C 401,702 414,689 414,667 C 414,635 394,609 365,609 C 345,609 332,622 332,644 C 332,676 352,702 381,702 Z M 580,531 L 471,531 L 429,294 L 428,291 C 399,127 328,69 251,68 C 182,66 156,104 156,155 C 156,176 159,203 167,245 L 219,531 L 109,531 L 55,231 C 44,171 42,150 42,122 C 42,40 96,-14 204,-14 C 257,-14 297,-5 345,27 L 392,86 L 377,0 L 487,0 L 580,531 Z "/>
</svg>
