<svg xmlns="http://www.w3.org/2000/svg" viewBox="0 -970 978 1200">
  <path transform="scale(1,-1)" d="M 941,235 C 951,266 957,307 957,342 C 957,461 893,544 763,544 C 677,544 598,509 539,426 C 509,507 443,544 345,544 C 111,544 23,338 23,204 C 23,78 96,-14 250,-14 C 344,-14 422,23 478,102 C 507,19 573,-14 653,-14 C 770,-14 879,46 924,172 L 813,172 C 790,105 733,66 669,66 C 605,66 560,104 560,200 C 560,210 560,222 561,235 L 941,235 Z M 263,66 C 183,66 141,123 141,210 C 141,310 195,464 334,464 C 415,464 457,408 457,323 C 457,224 403,66 263,66 Z M 743,464 C 812,464 847,422 847,344 C 847,335 847,324 845,312 L 578,312 C 606,413 668,464 743,464 Z "/>
</svg>
