<svg xmlns="http://www.w3.org/2000/svg" viewBox="0 -970 527 1200">
  <path transform="scale(1,-1)" d="M 247,580 C 277,580 309,606 309,641 C 309,667 291,685 263,685 C 233,685 201,659 201,624 C 201,598 219,580 247,580 Z M 407,580 C 437,580 469,606 469,641 C 469,667 450,685 423,685 C 393,685 361,659 361,624 C 361,598 379,580 407,580 Z M 314,545 C 187,545 92,479 69,363 L 179,363 C 194,429 230,465 308,465 C 364,465 384,435 384,397 C 384,382 382,365 377,333 L 375,321 C 163,336 12,270 12,125 C 12,30 82,-14 158,-14 C 215,-14 262,-3 296,27 L 332,76 L 329,0 L 437,0 C 440,59 444,95 451,135 L 484,321 C 490,357 494,385 494,410 C 494,489 442,545 314,545 Z M 353,199 C 338,120 270,66 211,66 C 162,66 129,91 129,138 C 129,228 236,263 362,249 L 353,199 Z "/>
</svg>
