<svg xmlns="http://www.w3.org/2000/svg" viewBox="0 -970 904 1200">
  <path transform="scale(1,-1)" d="M 867,235 C 877,267 883,308 883,342 C 883,461 819,544 689,544 C 608,544 538,512 485,454 C 471,504 429,544 321,544 C 195,544 98,478 75,362 L 185,362 C 200,428 242,464 308,464 C 370,464 395,432 395,378 C 395,365 393,350 386,312 L 347,312 C 100,312 11,227 11,120 C 11,38 79,-14 176,-14 C 250,-14 297,0 349,41 L 394,101 C 422,19 491,-14 578,-14 C 694,-14 805,46 850,172 L 739,172 C 716,105 659,66 595,66 C 531,66 485,104 485,199 C 485,210 486,222 487,235 L 867,235 Z M 669,464 C 765,464 776,382 771,312 L 503,312 C 532,413 594,464 669,464 Z M 369,208 C 354,121 288,66 214,66 C 161,66 130,90 130,133 C 130,208 199,236 323,236 C 338,236 356,236 374,235 L 369,208 Z "/>
</svg>
