<svg xmlns="http://www.w3.org/2000/svg" viewBox="0 -970 633 1200">
  <path transform="scale(1,-1)" d="M 643,504 L 603,553 L 520,482 C 482,521 425,545 347,545 C 130,545 35,371 35,221 C 35,175 44,132 64,95 L -17,26 L 23,-23 L 102,44 C 140,8 196,-14 271,-14 C 488,-14 583,160 583,310 C 583,354 575,395 557,431 L 643,504 Z M 153,224 C 153,340 215,465 336,465 C 384,465 417,445 438,413 L 158,175 C 155,190 153,207 153,224 Z M 465,308 C 465,192 403,66 283,66 C 237,66 204,84 183,113 L 461,350 C 464,337 465,322 465,308 Z "/>
</svg>
