<svg xmlns="http://www.w3.org/2000/svg" viewBox="0 -970 1003 1200">
  <path transform="scale(1,-1)" d="M 764,544 C 662,544 595,499 528,396 C 496,499 420,544 321,544 C 114,544 27,363 27,224 C 27,82 100,-14 241,-14 C 342,-14 411,31 478,134 C 510,31 584,-14 683,-14 C 890,-14 977,167 977,306 C 977,449 905,544 764,544 Z M 258,66 C 185,66 145,124 145,227 C 145,321 201,464 313,464 C 391,464 436,410 437,265 C 395,121 321,66 258,66 Z M 692,66 C 614,66 568,121 569,265 C 610,409 684,464 746,464 C 819,464 859,406 859,303 C 859,209 803,66 692,66 Z "/>
</svg>
