<svg xmlns="http://www.w3.org/2000/svg" viewBox="0 -970 692 1200">
  <path transform="scale(1,-1)" d="M 466,889 C 405,889 355,852 355,791 C 355,749 388,718 442,718 C 503,718 553,754 553,815 C 553,857 520,889 466,889 Z M 462,845 C 482,845 495,831 495,811 C 495,780 472,761 446,761 C 426,761 413,775 413,795 C 413,827 436,845 462,845 Z M 705,690 L 595,690 L 521,265 C 517,244 513,225 509,209 C 482,109 424,70 327,70 C 237,70 190,116 190,190 C 190,214 192,230 199,270 L 273,690 L 163,690 L 91,280 C 84,241 80,213 80,181 C 80,60 157,-14 315,-14 C 494,-14 584,66 616,199 C 622,224 626,244 631,272 L 705,690 Z "/>
</svg>
