<svg xmlns="http://www.w3.org/2000/svg" viewBox="0 -970 601 1200">
  <path transform="scale(1,-1)" d="M 383,615 C 426,599 453,559 454,504 L 565,504 C 562,603 508,683 398,700 L 412,780 L 343,780 L 329,704 C 168,696 90,595 90,493 C 90,386 155,339 259,305 L 218,73 C 163,87 134,128 130,190 L 18,190 C 25,87 75,7 203,-11 L 189,-90 L 258,-90 L 271,-14 C 423,-9 525,67 525,190 C 525,291 466,350 344,394 L 383,615 Z M 202,503 C 202,562 239,613 315,622 L 278,412 C 231,431 202,455 202,503 Z M 325,287 C 384,265 411,235 411,183 C 411,110 365,74 286,69 L 325,287 Z "/>
</svg>
