<svg xmlns="http://www.w3.org/2000/svg" viewBox="0 -970 844 1200">
  <path transform="scale(1,-1)" d="M 422,748 C 200,748 31,579 31,355 C 31,131 200,-38 422,-38 C 644,-38 813,131 813,355 C 813,579 644,748 422,748 Z M 422,680 C 602,680 739,540 739,355 C 739,169 602,30 422,30 C 241,30 105,169 105,355 C 105,540 241,680 422,680 Z M 429,585 C 297,585 209,496 209,354 C 209,214 296,125 420,125 C 543,125 608,193 629,292 L 523,292 C 516,238 480,201 428,201 C 362,201 320,259 320,356 C 320,449 356,509 427,509 C 488,509 516,470 524,417 L 630,417 C 613,517 543,585 429,585 Z "/>
</svg>
