<svg xmlns="http://www.w3.org/2000/svg" viewBox="0 -970 578 1200">
  <path transform="scale(1,-1)" d="M 213,453 C 160,453 118,431 73,376 L 114,332 C 141,366 166,381 197,381 C 224,381 247,368 285,346 C 333,317 356,305 395,305 C 449,305 491,329 536,384 L 495,425 C 467,392 444,377 412,377 C 384,377 362,389 324,412 C 276,440 253,453 213,453 Z M 183,283 C 130,283 88,261 44,206 L 84,162 C 111,196 136,211 167,211 C 194,211 217,198 255,176 C 303,147 326,135 365,135 C 419,135 461,159 505,214 L 465,255 C 438,222 414,207 382,207 C 355,207 332,219 294,242 C 246,270 223,283 183,283 Z "/>
</svg>
