<svg xmlns="http://www.w3.org/2000/svg" viewBox="0 -970 558 1200">
  <path transform="scale(1,-1)" d="M 521,235 C 531,267 537,308 537,342 C 537,461 462,545 326,545 C 121,545 24,365 24,198 C 24,74 93,4 193,-11 C 133,-46 101,-97 101,-149 C 101,-203 140,-223 186,-223 C 229,-223 266,-210 292,-190 L 302,-138 C 283,-152 265,-157 246,-157 C 224,-157 210,-146 210,-116 C 210,-82 237,-34 278,-11 C 379,1 467,61 505,172 L 393,172 C 371,105 314,66 250,66 C 186,66 140,106 140,200 C 140,211 140,223 141,235 L 521,235 Z M 313,465 C 384,465 426,420 426,342 C 426,333 426,323 425,312 L 154,312 C 176,395 225,465 313,465 Z "/>
</svg>
