<svg xmlns="http://www.w3.org/2000/svg" viewBox="0 -970 872 1200">
  <path transform="scale(1,-1)" d="M 649,467 L 550,467 L 532,405 L 521,455 C 504,474 473,485 436,485 C 313,485 227,366 227,232 C 227,108 301,69 366,69 C 400,69 432,80 463,106 L 487,153 C 498,97 541,73 600,73 C 704,73 813,149 813,336 C 813,530 681,674 475,674 C 258,674 49,508 49,245 C 49,-1 227,-112 404,-112 C 486,-112 587,-89 681,-26 L 654,32 C 584,-19 492,-44 410,-44 C 244,-44 123,57 123,248 C 123,478 302,606 472,606 C 623,606 739,512 739,332 C 739,203 682,141 624,141 C 593,141 586,161 586,184 C 586,195 587,208 593,236 L 649,467 Z M 494,250 C 481,198 445,149 398,149 C 364,149 338,173 338,239 C 338,325 381,405 451,405 C 493,405 522,376 504,297 L 494,250 Z "/>
</svg>
