<svg xmlns="http://www.w3.org/2000/svg" viewBox="0 -970 326 1200">
  <path transform="scale(1,-1)" d="M 225,450 L 322,450 L 336,527 L 239,527 L 261,654 L 152,654 L 130,527 L 57,527 L 43,450 L 116,450 L 65,162 C 57,117 54,91 54,74 C 54,35 70,10 104,-1 L 49,-81 C 105,-74 138,-90 138,-118 C 138,-144 115,-161 69,-161 C 49,-161 32,-160 17,-154 L 7,-202 C 22,-207 42,-210 69,-210 C 146,-210 209,-181 209,-114 C 209,-77 185,-49 137,-41 L 159,-10 L 165,-10 C 192,-10 220,-6 244,0 L 258,75 C 197,66 169,75 169,115 C 169,127 170,139 176,172 L 225,450 Z "/>
</svg>
