<svg xmlns="http://www.w3.org/2000/svg" viewBox="0 -970 564 1200">
  <path transform="scale(1,-1)" d="M 451,110 C 451,122 454,136 458,162 L 560,734 L 557,734 C 515,747 459,754 397,754 C 245,754 164,699 137,601 C 132,583 127,558 124,539 L 122,527 L 75,527 L 61,450 L 108,450 L 29,0 L 138,0 L 218,450 L 326,450 L 340,527 L 232,527 L 235,545 C 237,559 242,581 246,595 C 260,642 301,674 378,674 C 399,674 418,673 438,667 L 349,159 C 339,106 335,83 335,64 C 335,10 369,-6 424,-6 C 449,-6 473,-4 495,-1 L 508,74 C 468,71 451,83 451,110 Z "/>
</svg>
