<svg xmlns="http://www.w3.org/2000/svg" viewBox="0 -970 630 1200">
  <path transform="scale(1,-1)" d="M 646,536 C 646,629 584,675 499,686 C 466,690 441,690 404,690 L 166,690 L 44,0 L 154,0 L 205,288 L 313,288 C 330,288 347,288 364,287 C 419,284 437,242 438,180 C 440,65 442,30 448,0 L 567,0 C 553,26 548,66 548,117 C 548,271 529,319 470,333 C 565,354 646,419 646,536 Z M 398,375 C 380,373 363,373 335,373 L 220,373 L 261,603 L 383,603 C 411,603 429,602 446,599 C 495,593 526,567 526,513 C 526,425 468,381 398,375 Z "/>
</svg>
