<svg xmlns="http://www.w3.org/2000/svg" viewBox="0 -970 762 1200">
  <path transform="scale(1,-1)" d="M 422,771 C 432,771 443,768 465,759 C 495,748 511,744 530,744 C 570,744 593,766 605,831 L 553,831 C 549,814 543,808 532,808 C 523,808 512,811 489,820 C 460,831 444,835 424,835 C 384,835 361,813 349,748 L 402,748 C 405,765 412,771 422,771 Z M 452,704 C 194,704 61,505 61,285 C 61,120 162,-14 352,-14 C 610,-14 743,186 743,405 C 743,570 642,704 452,704 Z M 367,70 C 247,70 179,158 179,286 C 179,436 260,620 437,620 C 556,620 625,533 625,404 C 625,254 544,70 367,70 Z "/>
</svg>
