<svg xmlns="http://www.w3.org/2000/svg" viewBox="0 -970 601 1200">
  <path transform="scale(1,-1)" d="M 311,616 C 321,616 332,613 354,604 C 384,593 400,589 419,589 C 459,589 482,611 494,676 L 442,676 C 438,659 432,653 421,653 C 412,653 401,656 378,665 C 349,676 333,680 313,680 C 273,680 250,658 238,593 L 291,593 C 294,610 301,616 311,616 Z M 339,545 C 122,545 27,371 27,221 C 27,95 96,-14 263,-14 C 479,-14 574,160 574,310 C 574,436 505,545 339,545 Z M 274,66 C 185,66 145,136 145,224 C 145,340 207,465 327,465 C 417,465 456,395 456,308 C 456,192 395,66 274,66 Z "/>
</svg>
