<svg xmlns="http://www.w3.org/2000/svg" viewBox="0 -970 601 1200">
  <path transform="scale(1,-1)" d="M 431,704 C 230,704 133,575 95,436 L 54,436 L 32,370 L 80,370 C 78,352 76,334 75,317 L 15,317 L -7,251 L 73,251 C 80,48 179,-14 316,-14 C 380,-14 431,-4 484,24 L 500,110 C 451,82 403,70 344,70 C 255,70 198,112 191,251 L 429,251 L 449,317 L 191,317 C 192,335 194,352 196,370 L 466,370 L 489,436 L 210,436 C 239,537 303,620 422,620 C 470,620 509,605 538,573 L 595,641 C 565,680 512,704 431,704 Z "/>
</svg>
