<svg xmlns="http://www.w3.org/2000/svg" viewBox="0 -970 629 1200">
  <path transform="scale(1,-1)" d="M 406,578 L 475,730 L 415,730 L 323,585 L 323,578 L 406,578 Z M 608,531 L 498,531 L 484,452 L 459,506 C 436,529 383,545 339,545 C 126,545 24,369 24,201 C 24,78 93,-13 225,-13 C 279,-13 335,3 368,27 L 419,85 L 418,78 C 415,59 410,40 406,17 C 385,-78 321,-130 225,-130 C 143,-130 101,-91 104,-34 L 105,-25 L -4,-25 L -5,-35 C -14,-149 71,-213 209,-213 C 384,-213 484,-132 518,29 C 524,58 531,99 537,132 L 608,531 Z M 262,68 C 183,68 142,123 142,211 C 142,339 213,465 334,465 C 438,465 470,379 455,288 L 455,289 L 450,258 L 450,260 C 425,119 344,68 262,68 Z "/>
</svg>
