<svg xmlns="http://www.w3.org/2000/svg" viewBox="0 -970 601 1200">
  <path transform="scale(1,-1)" d="M 440,365 C 516,389 584,450 584,545 C 584,641 511,704 384,704 C 224,704 117,616 117,490 C 117,428 150,385 199,365 C 112,339 29,267 29,157 C 29,34 124,-15 250,-15 C 396,-15 544,54 544,219 C 544,291 499,344 440,365 Z M 369,620 C 435,620 467,581 467,531 C 467,458 415,401 329,401 C 265,401 233,438 233,491 C 233,561 283,620 369,620 Z M 267,69 C 188,69 148,111 148,171 C 148,247 203,317 310,317 C 392,317 426,271 426,215 C 426,134 374,69 267,69 Z "/>
</svg>
