<svg xmlns="http://www.w3.org/2000/svg" viewBox="0 -970 503 1200">
  <path transform="scale(1,-1)" d="M 276,764 C 127,764 35,653 35,531 C 35,427 107,344 228,344 C 377,344 469,455 469,577 C 469,681 397,764 276,764 Z M 237,393 C 142,393 86,450 86,531 C 86,631 153,716 268,716 C 362,716 418,658 418,577 C 418,477 351,393 237,393 Z M 290,660 C 281,661 273,661 263,661 L 194,661 L 158,455 L 210,455 L 222,523 L 243,523 C 258,523 267,518 267,503 C 266,483 268,471 271,455 L 330,455 C 323,471 321,493 322,509 C 323,529 315,544 297,550 C 331,558 347,579 347,605 C 347,637 326,656 290,660 Z M 230,566 L 239,619 L 256,619 C 263,619 267,619 273,618 C 284,616 292,608 292,595 C 292,579 281,569 265,567 C 259,566 255,566 247,566 L 230,566 Z "/>
</svg>
