<svg xmlns="http://www.w3.org/2000/svg" viewBox="0 -970 762 1200">
  <path transform="scale(1,-1)" d="M 791,637 L 751,685 L 672,618 C 623,671 550,704 456,704 C 197,704 64,505 64,285 C 64,228 76,176 99,130 L 8,53 L 48,5 L 134,78 C 183,21 257,-14 355,-14 C 614,-14 747,186 747,405 C 747,464 734,520 708,567 L 791,637 Z M 182,286 C 182,436 263,620 441,620 C 506,620 557,593 589,547 L 191,209 C 185,233 182,258 182,286 Z M 629,404 C 629,254 547,70 370,70 C 301,70 249,99 217,149 L 617,489 C 625,464 629,435 629,404 Z "/>
</svg>
