<svg xmlns="http://www.w3.org/2000/svg" viewBox="0 -970 883 1200">
  <path transform="scale(1,-1)" d="M 695,545 C 647,545 608,536 574,512 L 517,447 C 506,504 461,545 378,545 C 330,545 292,536 259,514 L 213,455 L 226,531 L 116,531 L 23,0 L 133,0 L 180,267 C 201,388 259,464 322,464 C 375,464 405,437 405,384 C 405,357 400,326 392,281 L 343,0 L 452,0 L 499,267 L 501,276 C 523,391 582,464 643,464 C 695,464 724,437 724,384 C 724,357 719,325 712,281 L 662,0 L 772,0 L 828,321 C 836,365 840,389 840,417 C 840,489 794,545 695,545 Z "/>
</svg>
