<svg xmlns="http://www.w3.org/2000/svg" viewBox="0 -970 666 1200">
  <path transform="scale(1,-1)" d="M 649,394 L 554,394 L 571,497 L 462,497 L 444,394 L 395,394 C 374,394 352,394 334,395 C 278,398 236,420 236,484 C 236,574 294,620 389,620 C 433,620 463,618 503,610 L 518,694 C 483,701 451,704 405,704 C 237,704 116,621 116,491 C 116,419 157,371 220,353 C 105,333 25,254 25,148 C 25,22 134,-14 271,-14 C 348,-14 422,-5 486,9 L 538,306 L 633,306 L 649,394 Z M 428,306 L 388,79 C 352,72 326,70 289,70 C 194,70 148,95 148,164 C 148,240 198,295 316,305 C 336,306 353,306 375,306 L 428,306 Z "/>
</svg>
