<svg xmlns="http://www.w3.org/2000/svg" viewBox="0 -970 762 1200">
  <path transform="scale(1,-1)" d="M 528,724 C 600,724 645,763 659,838 L 597,838 C 589,803 568,786 539,786 C 506,786 496,806 501,838 L 438,838 C 429,781 447,724 528,724 Z M 462,704 C 240,704 58,524 58,269 C 58,102 148,-14 316,-14 C 394,-14 455,8 502,50 L 544,116 L 528,0 L 620,0 L 680,342 L 419,342 L 403,254 L 557,254 C 532,143 445,70 343,70 C 240,70 179,152 179,283 C 179,477 294,620 445,620 C 550,620 599,577 599,468 L 599,458 L 709,458 L 710,468 C 720,604 643,704 462,704 Z "/>
</svg>
