<svg xmlns="http://www.w3.org/2000/svg" viewBox="0 -970 468 1200">
  <path transform="scale(1,-1)" d="M 205,716 C 161,716 130,682 130,643 C 130,611 152,589 186,589 C 231,589 261,624 261,663 C 261,694 239,716 205,716 Z M 433,716 C 389,716 359,686 359,642 C 359,611 381,589 416,589 C 460,589 490,619 490,663 C 490,694 468,716 433,716 Z M 133,0 L 227,531 L 117,531 L 23,0 L 133,0 Z M 459,531 L 350,531 L 252,-26 C 248,-50 244,-66 240,-80 C 228,-116 199,-131 148,-125 L 133,-208 C 147,-210 161,-210 178,-210 C 279,-210 327,-168 347,-95 C 352,-77 357,-51 361,-31 L 459,531 Z "/>
</svg>
