<svg xmlns="http://www.w3.org/2000/svg" viewBox="0 -970 602 1200">
  <path transform="scale(1,-1)" d="M 280,580 C 310,580 342,606 342,641 C 342,667 324,685 296,685 C 266,685 234,659 234,624 C 234,598 252,580 280,580 Z M 440,580 C 470,580 502,606 502,641 C 502,667 483,685 456,685 C 426,685 394,659 394,624 C 394,598 412,580 440,580 Z M 580,531 L 471,531 L 429,294 L 428,291 C 399,127 328,69 251,68 C 182,66 156,104 156,155 C 156,176 159,203 167,245 L 219,531 L 109,531 L 55,231 C 44,171 42,150 42,122 C 42,40 96,-14 204,-14 C 257,-14 297,-5 345,27 L 392,86 L 377,0 L 487,0 L 580,531 Z "/>
</svg>
