<svg xmlns="http://www.w3.org/2000/svg" viewBox="0 -970 756 1200">
  <path transform="scale(1,-1)" d="M 214,381 C 333,381 390,476 390,571 C 390,652 338,704 257,704 C 138,704 81,609 81,514 C 81,434 133,381 214,381 Z M 728,690 L 623,690 L 56,0 L 161,0 L 728,690 Z M 249,638 C 283,638 299,613 299,574 C 299,500 268,447 222,447 C 188,447 172,472 172,511 C 172,586 203,638 249,638 Z M 569,309 C 451,309 394,214 394,119 C 394,39 446,-14 527,-14 C 646,-14 703,81 703,176 C 703,257 651,309 569,309 Z M 535,52 C 500,52 484,77 484,116 C 484,191 516,243 562,243 C 596,243 612,218 612,179 C 612,105 581,52 535,52 Z "/>
</svg>
