<svg xmlns="http://www.w3.org/2000/svg" viewBox="0 -970 558 1200">
  <path transform="scale(1,-1)" d="M 347,589 C 392,589 422,624 422,663 C 422,694 400,716 366,716 C 322,716 291,682 291,643 C 291,611 313,589 347,589 Z M 521,235 C 531,267 537,308 537,342 C 537,461 462,545 326,545 C 121,545 24,365 24,198 C 24,57 113,-14 236,-14 C 354,-14 462,46 505,172 L 393,172 C 371,105 314,66 250,66 C 186,66 140,106 140,200 C 140,211 140,223 141,235 L 521,235 Z M 313,465 C 384,465 426,420 426,342 C 426,333 426,323 425,312 L 154,312 C 176,395 225,465 313,465 Z "/>
</svg>
