<svg xmlns="http://www.w3.org/2000/svg" viewBox="0 -970 601 1200">
  <path transform="scale(1,-1)" d="M 432,366 C 526,390 588,460 588,553 C 588,641 522,704 400,704 C 237,704 141,621 114,497 L 112,487 L 222,487 L 224,497 C 241,578 297,620 372,620 C 431,620 467,584 467,532 C 467,447 395,392 307,391 L 287,390 L 273,309 L 292,309 C 382,308 425,273 425,211 C 425,125 356,70 269,70 C 189,70 139,113 144,198 L 145,208 L 35,208 L 34,198 C 23,52 106,-14 248,-14 C 414,-14 546,79 546,225 C 546,297 505,345 432,366 Z "/>
</svg>
