<svg xmlns="http://www.w3.org/2000/svg" viewBox="0 -970 762 1200">
  <path transform="scale(1,-1)" d="M 391,733 C 421,733 452,760 452,794 C 452,821 434,839 406,839 C 376,839 344,813 344,778 C 344,752 362,733 391,733 Z M 546,733 C 576,733 607,760 607,794 C 607,821 589,839 561,839 C 531,839 499,813 499,778 C 499,752 517,733 546,733 Z M 452,704 C 194,704 61,505 61,285 C 61,120 162,-14 352,-14 C 610,-14 743,186 743,405 C 743,570 642,704 452,704 Z M 367,70 C 247,70 179,158 179,286 C 179,436 260,620 437,620 C 556,620 625,533 625,404 C 625,254 544,70 367,70 Z "/>
</svg>
