<svg xmlns="http://www.w3.org/2000/svg" viewBox="0 -970 467 1200">
  <path transform="scale(1,-1)" d="M 266,307 C 201,327 167,348 167,394 C 167,432 193,467 256,467 C 308,467 334,434 338,378 L 449,378 C 446,475 391,544 260,544 C 121,544 50,469 50,381 C 50,290 112,256 195,230 C 275,204 304,179 304,136 C 304,87 263,58 209,58 C 152,58 108,83 101,153 L -11,153 C -7,75 38,4 144,-15 L 99,-81 C 155,-74 188,-90 188,-118 C 188,-144 165,-161 119,-161 C 99,-161 82,-160 67,-154 L 57,-202 C 72,-207 92,-210 119,-210 C 196,-210 259,-181 259,-114 C 259,-77 235,-49 187,-41 L 202,-20 C 338,-20 421,49 421,146 C 421,232 369,275 266,307 Z "/>
</svg>
