<svg xmlns="http://www.w3.org/2000/svg" viewBox="0 -970 558 1200">
  <path transform="scale(1,-1)" d="M 262,580 C 292,580 324,606 324,641 C 324,667 306,685 278,685 C 248,685 216,659 216,624 C 216,598 234,580 262,580 Z M 422,580 C 452,580 484,606 484,641 C 484,667 465,685 438,685 C 408,685 376,659 376,624 C 376,598 394,580 422,580 Z M 521,235 C 531,267 537,308 537,342 C 537,461 462,545 326,545 C 121,545 24,365 24,198 C 24,57 113,-14 236,-14 C 354,-14 462,46 505,172 L 393,172 C 371,105 314,66 250,66 C 186,66 140,106 140,200 C 140,211 140,223 141,235 L 521,235 Z M 313,465 C 384,465 426,420 426,342 C 426,333 426,323 425,312 L 154,312 C 176,395 225,465 313,465 Z "/>
</svg>
