<svg xmlns="http://www.w3.org/2000/svg" viewBox="0 -970 581 1200">
  <path transform="scale(1,-1)" d="M 579,494 C 586,614 518,704 365,704 C 222,704 98,620 98,477 C 98,381 172,336 283,308 C 377,284 417,251 417,194 C 417,115 351,70 267,70 C 186,70 134,115 131,200 L 17,200 C 8,71 90,-3 220,-13 L 173,-81 C 229,-74 262,-90 262,-118 C 262,-144 239,-161 193,-161 C 173,-161 156,-160 141,-154 L 131,-202 C 146,-207 166,-210 193,-210 C 270,-210 333,-181 333,-114 C 333,-77 309,-49 262,-41 L 282,-13 C 426,-3 537,81 537,214 C 537,314 474,371 347,402 C 256,424 218,452 218,506 C 218,579 273,620 347,620 C 427,620 471,573 465,494 L 579,494 Z "/>
</svg>
