<svg xmlns="http://www.w3.org/2000/svg" viewBox="0 -970 614 1200">
  <path transform="scale(1,-1)" d="M 581,655 L 565,710 L 482,683 C 460,709 432,729 398,745 L 314,694 C 342,681 364,667 382,651 L 271,615 L 288,561 L 422,604 C 447,562 454,513 456,462 L 425,516 C 392,538 363,545 317,545 C 118,545 24,355 24,207 C 24,84 98,-14 248,-14 C 478,-14 562,188 562,373 C 562,484 549,570 516,634 L 581,655 Z M 256,69 C 186,69 141,111 141,212 C 141,313 191,463 323,463 C 386,463 445,421 445,331 C 445,215 396,69 256,69 Z "/>
</svg>
