<svg xmlns="http://www.w3.org/2000/svg" viewBox="0 -970 527 1200">
  <path transform="scale(1,-1)" d="M 354,577 L 477,691 L 377,691 L 288,577 L 354,577 Z M 314,545 C 187,545 92,479 69,363 L 179,363 C 194,429 230,465 308,465 C 364,465 384,435 384,397 C 384,382 382,365 377,333 L 375,321 C 163,336 12,270 12,125 C 12,30 82,-14 158,-14 C 215,-14 262,-3 296,27 L 332,76 L 329,0 L 437,0 C 440,59 444,95 451,135 L 484,321 C 490,357 494,385 494,410 C 494,489 442,545 314,545 Z M 353,199 C 338,120 270,66 211,66 C 162,66 129,91 129,138 C 129,228 236,263 362,249 L 353,199 Z "/>
</svg>
