<svg xmlns="http://www.w3.org/2000/svg" viewBox="0 -970 607 1200">
  <path transform="scale(1,-1)" d="M 319,616 C 329,616 340,613 362,604 C 392,593 408,589 427,589 C 467,589 490,611 502,676 L 450,676 C 446,659 440,653 429,653 C 420,653 409,656 386,665 C 357,676 341,680 321,680 C 281,680 258,658 246,593 L 299,593 C 302,610 309,616 319,616 Z M 399,545 C 347,545 306,536 258,504 L 211,445 L 226,531 L 116,531 L 23,0 L 133,0 L 174,237 C 204,403 275,462 352,464 C 422,465 447,428 447,376 C 447,355 444,329 436,286 L 385,0 L 494,0 L 548,301 C 559,360 561,381 561,409 C 561,491 508,545 399,545 Z "/>
</svg>
