<svg xmlns="http://www.w3.org/2000/svg" viewBox="0 -970 653 1200">
  <path transform="scale(1,-1)" d="M 478,368 C 569,394 623,449 623,544 C 623,623 572,673 478,686 C 445,690 423,690 389,690 L 166,690 L 44,0 L 280,0 C 315,0 337,0 372,5 C 478,20 594,81 594,216 C 594,297 554,346 478,368 Z M 261,603 L 374,603 C 390,603 409,602 426,600 C 472,595 504,571 504,522 C 504,463 476,415 397,403 C 378,400 362,399 344,399 L 225,399 L 261,603 Z M 349,89 C 335,88 317,88 301,88 L 170,88 L 210,314 L 340,314 C 356,314 372,314 391,311 C 441,304 476,280 476,222 C 476,140 415,95 349,89 Z "/>
</svg>
