<svg xmlns="http://www.w3.org/2000/svg" viewBox="0 -970 729 1200">
  <path transform="scale(1,-1)" d="M 450,704 C 227,704 58,521 59,271 C 58,143 111,50 206,9 L 169,9 L 107,-81 C 163,-74 196,-90 196,-118 C 196,-144 173,-161 127,-161 C 107,-161 90,-160 75,-154 L 65,-202 C 80,-207 100,-210 127,-210 C 204,-210 267,-181 267,-114 C 267,-77 243,-49 195,-41 L 226,2 C 256,-9 291,-14 329,-14 C 509,-14 619,82 659,224 L 662,234 L 552,234 L 548,224 C 513,131 450,70 346,70 C 245,70 179,137 179,282 C 179,476 284,620 435,620 C 540,620 596,576 596,468 L 596,458 L 706,458 L 707,468 C 717,604 630,704 450,704 Z "/>
</svg>
