<svg xmlns="http://www.w3.org/2000/svg" viewBox="0 -970 602 1200">
  <path transform="scale(1,-1)" d="M 580,531 L 471,531 L 429,294 L 428,291 C 399,127 328,69 251,68 C 182,66 156,104 156,155 C 156,176 159,203 167,245 L 219,531 L 109,531 L 55,231 C 44,171 42,150 42,122 C 42,40 96,-14 204,-14 C 257,-14 297,-5 345,27 L 392,86 L 378,6 C 296,-28 252,-87 252,-149 C 252,-203 291,-223 337,-223 C 380,-223 417,-210 443,-190 L 453,-138 C 434,-152 416,-157 397,-157 C 375,-157 361,-146 361,-116 C 361,-73 403,-8 463,0 L 487,0 L 580,531 Z "/>
</svg>
