<svg xmlns="http://www.w3.org/2000/svg" viewBox="0 -970 602 1200">
  <path transform="scale(1,-1)" d="M 391,754 C 194,754 134,632 106,468 L 23,0 L 133,0 L 216,476 C 235,583 274,670 378,670 C 447,670 478,638 478,591 C 478,569 474,544 454,514 C 378,475 350,432 350,382 C 350,331 368,305 409,260 C 441,226 452,194 452,167 C 452,125 426,79 348,79 C 326,79 299,81 257,92 L 242,7 C 280,-2 308,-4 348,-4 C 497,-4 570,78 570,166 C 570,221 548,263 507,304 C 476,336 466,357 466,384 C 466,417 484,441 551,473 C 584,515 596,559 596,596 C 596,686 528,754 391,754 Z "/>
</svg>
