<svg xmlns="http://www.w3.org/2000/svg" viewBox="0 -970 586 1200">
  <path transform="scale(1,-1)" d="M 553,250 C 553,340 495,398 373,434 C 293,457 259,488 259,535 C 259,590 293,627 342,627 C 393,627 423,593 428,535 L 540,535 C 530,637 466,704 352,704 C 213,704 142,613 142,531 C 142,498 150,470 165,447 C 76,415 36,349 36,283 C 36,189 102,144 201,108 C 302,72 335,43 335,-9 C 335,-69 293,-97 231,-97 C 182,-97 136,-67 130,2 L 18,2 C 28,-119 116,-174 219,-174 C 354,-174 452,-106 452,2 C 452,36 443,64 425,89 C 508,118 553,183 553,250 Z M 352,152 C 326,166 297,179 264,190 C 195,215 153,243 153,294 C 153,335 178,372 234,383 C 258,370 286,359 315,349 C 398,320 436,292 436,242 C 436,195 405,160 352,152 Z "/>
</svg>
