<svg xmlns="http://www.w3.org/2000/svg" viewBox="0 -970 958 1200">
  <path transform="scale(1,-1)" d="M 918,226 C 929,259 936,299 936,333 C 936,450 868,544 727,544 C 642,544 565,515 512,455 C 495,504 449,544 340,544 C 208,544 93,475 70,353 L 220,353 C 233,406 273,436 323,436 C 373,436 394,414 394,370 C 394,360 393,349 389,325 L 340,325 C 101,325 12,230 12,125 C 12,39 82,-14 197,-14 C 254,-14 308,-2 356,29 L 416,98 C 448,21 518,-14 611,-14 C 741,-14 853,51 903,174 L 748,174 C 731,124 688,94 632,94 C 580,94 542,121 542,202 C 542,209 543,217 544,226 L 918,226 Z M 694,436 C 758,436 779,390 776,325 L 566,325 C 592,402 638,436 694,436 Z M 371,206 C 359,138 307,94 247,94 C 202,94 177,111 177,144 C 177,203 228,227 332,227 C 345,227 359,227 375,226 L 371,206 Z "/>
</svg>
