<svg xmlns="http://www.w3.org/2000/svg" viewBox="0 -970 626 1200">
  <path transform="scale(1,-1)" d="M 323,607 C 334,607 346,604 367,595 C 406,578 424,576 445,576 C 499,576 524,610 539,694 L 458,694 C 454,674 448,666 437,666 C 426,666 414,669 391,678 C 354,694 336,697 313,697 C 259,697 234,663 219,579 L 301,579 C 304,599 312,607 323,607 Z M 350,547 C 131,547 24,388 24,223 C 24,87 107,-14 278,-14 C 496,-14 603,145 603,310 C 603,446 520,547 350,547 Z M 290,94 C 222,94 190,151 190,227 C 190,333 240,439 337,439 C 406,439 437,382 437,307 C 437,201 388,94 290,94 Z "/>
</svg>
