<svg xmlns="http://www.w3.org/2000/svg" viewBox="0 -970 642 1200">
  <path transform="scale(1,-1)" d="M 418,583 C 450,566 472,534 471,493 L 622,493 C 616,600 554,680 439,700 L 453,780 L 364,780 L 350,703 C 191,692 99,601 99,490 C 99,387 162,333 277,290 L 244,103 C 204,117 181,148 177,197 L 27,197 C 36,92 86,11 224,-9 L 210,-90 L 299,-90 L 312,-14 C 468,-9 576,66 576,190 C 576,296 515,348 386,403 L 418,583 Z M 247,502 C 247,551 278,584 331,593 L 302,427 C 267,444 247,465 247,502 Z M 361,259 C 404,240 423,216 423,178 C 423,129 390,103 332,97 L 361,259 Z "/>
</svg>
