<svg xmlns="http://www.w3.org/2000/svg" viewBox="0 -970 612 1200">
  <path transform="scale(1,-1)" d="M 316,735 L 443,735 L 527,853 L 433,853 L 388,785 L 368,853 L 274,853 L 316,735 Z M 608,483 C 615,608 547,704 375,704 C 227,704 91,618 91,466 C 91,364 167,317 293,285 C 372,264 404,232 404,193 C 404,137 352,102 288,102 C 225,102 175,136 174,207 L 16,207 C 2,58 109,-14 270,-14 C 430,-14 573,69 573,223 C 573,315 516,378 390,409 C 294,432 260,459 260,501 C 260,558 302,588 358,588 C 424,588 454,547 450,483 L 608,483 Z "/>
</svg>
