<svg xmlns="http://www.w3.org/2000/svg" viewBox="0 -970 793 1200">
  <path transform="scale(1,-1)" d="M 402,726 C 438,726 477,755 477,803 C 477,838 454,858 417,858 C 381,858 341,830 341,781 C 341,747 363,726 402,726 Z M 587,726 C 623,726 662,755 662,803 C 662,838 639,858 602,858 C 566,858 526,830 526,781 C 526,747 548,726 587,726 Z M 462,704 C 227,704 64,532 64,285 C 64,116 177,-14 381,-14 C 616,-14 779,159 779,405 C 779,574 666,704 462,704 Z M 390,102 C 286,102 230,179 230,289 C 230,425 301,588 453,588 C 557,588 613,512 613,401 C 613,265 541,102 390,102 Z "/>
</svg>
