<svg xmlns="http://www.w3.org/2000/svg" viewBox="0 -970 994 1200">
  <path transform="scale(1,-1)" d="M 954,226 C 965,257 972,296 972,333 C 972,450 904,544 762,544 C 677,544 600,514 542,443 C 508,514 440,544 352,544 C 116,544 22,353 22,211 C 22,72 108,-14 261,-14 C 343,-14 421,15 477,85 C 510,13 576,-14 651,-14 C 785,-14 889,51 939,174 L 784,174 C 767,124 724,94 668,94 C 616,94 579,121 579,202 C 579,207 579,215 580,226 L 954,226 Z M 280,94 C 219,94 185,142 185,215 C 185,305 226,436 341,436 C 402,436 436,391 436,322 C 436,235 394,94 280,94 Z M 730,436 C 783,436 814,405 814,344 C 814,340 814,334 812,325 L 603,325 C 628,402 673,436 730,436 Z "/>
</svg>
