<svg xmlns="http://www.w3.org/2000/svg" viewBox="0 -970 594 1200">
  <path transform="scale(1,-1)" d="M 362,580 C 424,580 456,627 456,672 C 456,713 428,739 383,739 C 322,739 289,693 289,648 C 289,606 317,580 362,580 Z M 181,226 L 554,226 C 565,259 572,299 572,332 C 572,450 497,547 339,547 C 148,547 22,399 22,205 C 22,50 128,-14 259,-14 C 395,-14 499,51 541,174 L 386,174 C 369,124 326,94 271,94 C 218,94 181,125 181,205 L 181,226 Z M 324,439 C 383,439 413,402 413,343 C 413,338 413,333 412,325 L 199,325 C 221,393 264,439 324,439 Z "/>
</svg>
