<svg xmlns="http://www.w3.org/2000/svg" viewBox="0 -970 631 1200">
  <path transform="scale(1,-1)" d="M 410,754 C 192,754 125,641 91,443 L 13,0 L 170,0 L 249,451 C 272,580 309,638 387,638 C 442,638 467,613 467,572 C 467,555 463,538 448,514 C 383,479 352,440 352,384 C 352,334 371,303 408,258 C 432,229 443,204 443,180 C 443,142 417,112 361,112 C 339,112 315,114 273,125 L 252,8 C 290,-1 323,-4 378,-4 C 534,-4 609,78 609,174 C 609,221 595,261 552,307 C 525,337 515,361 515,385 C 515,420 536,442 586,466 C 621,510 633,548 633,587 C 633,682 557,754 410,754 Z "/>
</svg>
