<svg xmlns="http://www.w3.org/2000/svg" viewBox="0 -970 710 1200">
  <path transform="scale(1,-1)" d="M 738,690 L 582,690 L 508,268 C 504,249 502,236 498,222 C 475,132 426,102 346,102 C 275,102 225,139 225,205 C 225,225 227,242 232,270 L 306,690 L 150,690 L 84,315 C 73,252 69,221 69,186 C 69,78 142,-2 296,-13 C 241,-48 212,-93 212,-146 C 212,-202 253,-223 308,-223 C 361,-223 408,-205 439,-179 L 451,-117 C 433,-129 417,-133 402,-133 C 382,-133 366,-123 366,-93 C 366,-64 383,-26 411,-9 C 557,12 623,95 651,210 C 660,246 664,267 671,306 L 738,690 Z "/>
</svg>
