<svg xmlns="http://www.w3.org/2000/svg" viewBox="0 -970 626 1200">
  <path transform="scale(1,-1)" d="M 381,567 C 458,567 510,616 510,683 C 510,737 472,769 413,769 C 334,769 282,719 282,653 C 282,599 320,567 381,567 Z M 403,711 C 422,711 434,699 434,679 C 434,656 421,625 389,625 C 370,625 358,637 358,657 C 358,679 371,711 403,711 Z M 614,533 L 458,533 L 415,289 C 391,153 337,95 273,95 C 215,94 194,127 194,174 C 194,193 198,222 204,259 L 254,533 L 97,533 L 42,228 C 33,178 30,151 30,123 C 30,43 83,-14 191,-14 C 242,-14 282,-4 322,20 L 378,79 L 364,0 L 520,0 L 614,533 Z "/>
</svg>
