<svg xmlns="http://www.w3.org/2000/svg" viewBox="0 -970 594 1200">
  <path transform="scale(1,-1)" d="M 181,226 L 554,226 C 565,259 572,299 572,332 C 572,450 497,547 339,547 C 148,547 22,399 22,205 C 22,72 101,6 206,-10 C 149,-46 118,-92 118,-146 C 118,-202 159,-223 214,-223 C 267,-223 314,-205 345,-179 L 357,-117 C 339,-129 323,-133 308,-133 C 288,-133 272,-123 272,-93 C 272,-65 288,-28 316,-10 C 424,6 505,69 541,174 L 386,174 C 369,124 326,94 271,94 C 218,94 181,125 181,205 L 181,226 Z M 324,439 C 383,439 413,402 413,343 C 413,338 413,333 412,325 L 199,325 C 221,393 264,439 324,439 Z "/>
</svg>
