<svg xmlns="http://www.w3.org/2000/svg" viewBox="0 -970 587 1200">
  <path transform="scale(1,-1)" d="M 273,94 C 225,94 188,133 188,209 C 188,332 243,436 332,436 C 387,436 420,403 421,333 L 574,333 C 574,455 504,544 345,544 C 148,544 22,395 22,210 C 22,76 97,6 206,-10 L 156,-86 C 209,-81 247,-89 247,-114 C 247,-135 223,-148 181,-148 C 162,-148 145,-147 126,-141 L 114,-203 C 131,-208 157,-210 192,-210 C 273,-210 343,-180 343,-112 C 343,-74 316,-50 263,-42 L 283,-13 C 418,-7 505,62 551,189 L 395,189 C 373,127 330,94 273,94 Z "/>
</svg>
