<svg xmlns="http://www.w3.org/2000/svg" viewBox="0 -970 710 1200">
  <path transform="scale(1,-1)" d="M 482,918 C 407,918 353,873 353,806 C 353,758 392,721 452,721 C 527,721 581,765 581,832 C 581,880 541,918 482,918 Z M 474,859 C 493,859 505,846 505,828 C 505,799 484,779 460,779 C 441,779 429,792 429,810 C 429,840 450,859 474,859 Z M 738,690 L 582,690 L 508,268 C 504,249 502,236 498,222 C 475,132 426,102 346,102 C 275,102 225,139 225,205 C 225,225 227,242 232,270 L 306,690 L 150,690 L 84,315 C 73,252 69,221 69,186 C 69,69 154,-14 334,-14 C 534,-14 619,76 651,210 C 660,246 664,267 671,306 L 738,690 Z "/>
</svg>
