<svg xmlns="http://www.w3.org/2000/svg" viewBox="0 -970 642 1200">
  <path transform="scale(1,-1)" d="M 467,364 C 573,388 626,455 626,548 C 626,634 560,704 419,704 C 232,704 144,607 113,488 L 111,478 L 267,478 L 269,488 C 283,545 322,588 382,588 C 430,588 458,561 458,519 C 458,456 406,409 326,404 L 302,403 L 284,298 L 308,298 C 380,295 419,267 419,214 C 419,148 364,102 296,102 C 223,102 188,145 189,205 L 190,215 L 33,215 L 32,205 C 22,65 107,-14 271,-14 C 455,-14 586,86 586,231 C 586,302 545,346 467,364 Z "/>
</svg>
