<svg xmlns="http://www.w3.org/2000/svg" viewBox="0 -970 529 1200">
  <path transform="scale(1,-1)" d="M 222,739 C 161,739 128,693 128,648 C 128,606 156,580 201,580 C 263,580 295,627 295,672 C 295,713 267,739 222,739 Z M 474,739 C 416,739 382,707 382,646 C 382,606 410,580 461,580 C 519,580 553,612 553,673 C 553,713 525,739 474,739 Z M 170,0 L 264,533 L 108,533 L 13,0 L 170,0 Z M 524,533 L 367,533 L 274,1 C 271,-17 267,-35 263,-49 C 250,-91 220,-105 159,-98 L 140,-207 C 156,-209 175,-210 195,-210 C 332,-210 394,-155 416,-64 C 421,-46 427,-20 430,1 L 524,533 Z "/>
</svg>
