<svg xmlns="http://www.w3.org/2000/svg" viewBox="0 -970 612 1200">
  <path transform="scale(1,-1)" d="M 608,483 C 615,608 547,704 375,704 C 227,704 91,618 91,466 C 91,364 167,317 293,285 C 372,264 404,232 404,193 C 404,137 352,102 288,102 C 225,102 175,136 174,207 L 16,207 C 4,75 87,3 218,-11 L 168,-86 C 221,-81 259,-89 259,-114 C 259,-135 235,-148 193,-148 C 174,-148 157,-147 138,-141 L 126,-203 C 143,-208 169,-210 204,-210 C 285,-210 355,-180 355,-112 C 355,-74 328,-50 276,-42 L 295,-13 C 445,-5 573,77 573,223 C 573,315 516,378 390,409 C 294,432 260,459 260,501 C 260,558 302,588 358,588 C 424,588 454,547 450,483 L 608,483 Z "/>
</svg>
