<svg xmlns="http://www.w3.org/2000/svg" viewBox="0 -970 637 1200">
  <path transform="scale(1,-1)" d="M 597,245 C 597,342 537,399 412,437 C 330,461 300,482 300,529 C 300,567 320,604 363,604 C 398,604 420,578 423,529 L 579,529 C 567,633 503,704 368,704 C 217,704 137,605 137,523 C 137,494 142,469 153,448 C 72,411 36,343 36,276 C 36,188 97,139 198,104 C 303,67 333,40 333,-6 C 333,-55 298,-74 253,-74 C 211,-74 178,-46 174,5 L 19,5 C 31,-116 121,-174 245,-174 C 395,-174 496,-103 496,9 C 496,36 489,61 475,84 C 556,119 597,183 597,245 Z M 293,206 C 232,228 199,254 199,293 C 199,318 210,349 242,363 C 267,350 296,338 329,326 C 404,299 434,276 434,235 C 434,199 415,175 388,164 C 361,179 329,193 293,206 Z "/>
</svg>
