<svg xmlns="http://www.w3.org/2000/svg" viewBox="0 -970 642 1200">
  <path transform="scale(1,-1)" d="M 453,588 C 501,588 536,576 571,545 L 644,642 C 613,679 555,704 465,704 C 266,704 165,593 122,456 L 77,456 L 52,370 L 102,370 C 99,353 97,336 96,319 L 36,319 L 11,233 L 95,233 C 104,59 197,-14 339,-14 C 422,-14 474,-1 527,25 L 548,141 C 499,115 450,102 387,102 C 317,102 268,133 259,233 L 446,233 L 470,319 L 258,319 C 259,337 261,354 263,370 L 486,370 L 512,456 L 281,456 C 310,542 366,588 453,588 Z "/>
</svg>
