<svg xmlns="http://www.w3.org/2000/svg" viewBox="0 -970 655 1200">
  <path transform="scale(1,-1)" d="M 671,535 C 671,631 602,675 516,685 C 481,689 454,690 413,690 L 151,690 L 29,0 L 185,0 L 233,271 L 296,271 C 315,271 332,271 351,270 C 397,267 418,227 418,162 C 419,71 421,35 426,0 L 596,0 C 582,31 575,73 575,128 C 575,250 555,307 494,330 C 605,358 671,426 671,535 Z M 389,387 C 374,386 358,386 336,386 L 253,386 L 285,568 L 373,568 C 395,568 412,567 426,566 C 469,562 500,544 500,496 C 500,420 447,392 389,387 Z M 219,-41 L 132,-211 L 216,-211 L 329,-50 L 329,-41 L 219,-41 Z "/>
</svg>
