<svg xmlns="http://www.w3.org/2000/svg" viewBox="0 -970 665 1200">
  <path transform="scale(1,-1)" d="M 515,372 C 603,398 650,456 650,539 C 650,616 599,674 502,686 C 468,690 450,690 414,690 L 151,690 L 29,0 L 291,0 C 332,0 354,0 390,4 C 495,17 623,82 623,220 C 623,296 588,348 515,372 Z M 286,568 L 377,568 C 393,568 410,567 425,565 C 459,560 481,542 481,505 C 481,453 453,423 400,415 C 384,413 369,412 352,412 L 258,412 L 286,568 Z M 362,124 C 348,123 332,123 316,123 L 207,123 L 238,297 L 343,297 C 359,297 375,297 390,295 C 428,291 457,269 457,225 C 457,163 408,127 362,124 Z "/>
</svg>
