<svg xmlns="http://www.w3.org/2000/svg" viewBox="0 -970 651 1200">
  <path transform="scale(1,-1)" d="M 640,636 L 626,701 L 529,679 C 508,707 482,730 450,745 L 317,695 C 344,680 366,664 384,647 L 292,626 L 305,562 L 429,589 C 452,548 459,504 461,459 L 425,518 C 392,540 366,547 324,547 C 117,547 23,370 23,210 C 23,81 111,-14 275,-14 C 519,-14 607,193 607,378 C 607,468 594,552 564,619 L 640,636 Z M 286,102 C 224,102 186,138 186,220 C 186,302 224,432 344,432 C 403,432 444,386 444,318 C 444,234 409,102 286,102 Z "/>
</svg>
