<svg xmlns="http://www.w3.org/2000/svg" viewBox="0 -970 911 1200">
  <path transform="scale(1,-1)" d="M 678,470 L 544,470 L 524,407 L 510,460 C 497,476 468,488 430,488 C 314,488 234,379 234,239 C 234,111 302,72 370,72 C 401,72 431,81 461,105 L 490,163 C 507,101 557,70 629,70 C 750,70 858,146 858,347 C 858,530 726,693 488,693 C 246,693 39,511 39,249 C 39,-21 242,-127 421,-127 C 506,-127 608,-104 696,-47 L 662,29 C 598,-18 517,-40 432,-40 C 244,-40 136,72 136,255 C 136,485 310,606 484,606 C 652,606 762,509 762,339 C 762,218 715,156 663,156 C 634,156 623,180 623,214 C 623,230 624,247 638,305 L 678,470 Z M 423,180 C 397,180 380,199 380,250 C 380,323 415,380 463,380 C 494,380 509,357 499,312 L 485,249 C 476,212 455,180 423,180 Z "/>
</svg>
