<svg xmlns="http://www.w3.org/2000/svg" viewBox="0 -970 568 1200">
  <path transform="scale(1,-1)" d="M 298,607 C 309,607 321,604 342,595 C 381,578 399,576 420,576 C 474,576 499,610 514,694 L 433,694 C 429,674 423,666 412,666 C 401,666 389,669 366,678 C 329,694 311,697 288,697 C 234,697 209,663 194,579 L 276,579 C 279,599 287,607 298,607 Z M 333,547 C 201,547 91,478 68,356 L 218,356 C 231,409 263,439 317,439 C 361,439 377,414 377,384 C 377,367 375,350 372,332 L 371,326 C 146,338 12,257 12,128 C 12,32 79,-14 161,-14 C 212,-14 259,-2 295,24 L 328,77 L 326,0 L 479,0 C 482,59 486,95 493,135 L 521,294 C 530,344 535,374 535,403 C 535,486 480,547 333,547 Z M 347,194 L 347,192 C 335,129 281,94 238,94 C 200,94 175,112 175,149 C 175,215 251,246 354,235 L 347,194 Z "/>
</svg>
