<svg xmlns="http://www.w3.org/2000/svg" viewBox="0 -970 613 1200">
  <path transform="scale(1,-1)" d="M 232,482 C 179,482 130,461 80,397 L 125,341 C 155,373 183,388 216,388 C 240,388 258,379 302,353 C 352,324 375,312 416,312 C 469,312 517,333 567,397 L 522,452 C 492,421 465,406 431,406 C 407,406 389,414 345,441 C 295,469 272,482 232,482 Z M 198,292 C 145,292 97,271 47,207 L 91,151 C 122,183 149,198 182,198 C 207,198 224,189 269,163 C 318,134 341,122 382,122 C 435,122 484,143 534,207 L 489,262 C 459,231 431,216 398,216 C 374,216 356,224 311,251 C 262,279 238,292 198,292 Z "/>
</svg>
