<svg xmlns="http://www.w3.org/2000/svg" viewBox="0 -970 626 1200">
  <path transform="scale(1,-1)" d="M 286,573 C 322,573 361,601 361,650 C 361,685 338,705 301,705 C 265,705 225,676 225,628 C 225,593 247,573 286,573 Z M 472,573 C 508,573 548,601 548,650 C 548,685 525,705 488,705 C 452,705 412,676 412,628 C 412,593 434,573 472,573 Z M 614,533 L 458,533 L 415,289 C 391,153 337,95 273,95 C 215,94 194,127 194,174 C 194,193 198,222 204,259 L 254,533 L 97,533 L 42,228 C 33,178 30,151 30,123 C 30,43 83,-14 191,-14 C 242,-14 282,-4 322,20 L 378,79 L 364,0 L 520,0 L 614,533 Z "/>
</svg>
