<svg xmlns="http://www.w3.org/2000/svg" viewBox="0 -970 663 1200">
  <path transform="scale(1,-1)" d="M 402,580 C 464,580 496,627 496,672 C 496,713 468,739 423,739 C 362,739 329,693 329,648 C 329,606 357,580 402,580 Z M 651,533 L 494,533 L 481,459 L 455,517 C 431,535 380,547 336,547 C 125,547 21,376 21,198 C 21,71 95,-10 228,-10 C 282,-10 330,3 363,26 L 415,85 L 414,81 C 410,56 405,33 401,14 C 382,-65 324,-102 248,-102 C 183,-102 144,-76 147,-33 L 148,-24 L -5,-24 L -6,-34 C -15,-153 71,-218 224,-218 C 423,-218 525,-139 561,32 C 567,61 574,102 580,135 L 651,533 Z M 289,99 C 226,99 187,137 187,221 C 187,334 250,439 347,439 C 441,439 463,363 450,285 L 450,286 L 444,253 L 445,260 C 424,140 360,99 289,99 Z "/>
</svg>
