<svg xmlns="http://www.w3.org/2000/svg" viewBox="0 -970 1025 1200">
  <path transform="scale(1,-1)" d="M 781,544 C 686,544 617,512 551,420 C 514,512 439,544 334,544 C 123,544 24,376 24,223 C 24,73 110,-14 248,-14 C 343,-14 415,19 482,110 C 518,19 591,-14 696,-14 C 905,-14 1002,154 1002,307 C 1002,458 920,544 781,544 Z M 426,265 C 392,141 334,94 279,94 C 224,94 190,145 190,229 C 190,310 232,436 331,436 C 392,436 429,391 426,265 Z M 699,94 C 638,94 601,140 606,265 C 639,389 695,436 751,436 C 806,436 836,385 836,301 C 836,220 796,94 699,94 Z "/>
</svg>
