<svg xmlns="http://www.w3.org/2000/svg" viewBox="0 -970 793 1200">
  <path transform="scale(1,-1)" d="M 448,772 C 459,772 471,769 492,760 C 531,743 549,741 570,741 C 624,741 649,775 664,859 L 583,859 C 579,839 573,831 562,831 C 551,831 539,834 516,843 C 479,859 461,862 438,862 C 384,862 359,828 344,744 L 426,744 C 429,764 437,772 448,772 Z M 462,704 C 227,704 64,532 64,285 C 64,116 177,-14 381,-14 C 616,-14 779,159 779,405 C 779,574 666,704 462,704 Z M 390,102 C 286,102 230,179 230,289 C 230,425 301,588 453,588 C 557,588 613,512 613,401 C 613,265 541,102 390,102 Z "/>
</svg>
