<svg xmlns="http://www.w3.org/2000/svg" viewBox="0 -970 492 1200">
  <path transform="scale(1,-1)" d="M 272,764 C 127,764 30,656 30,530 C 30,429 100,344 220,344 C 365,344 462,451 462,578 C 462,679 392,764 272,764 Z M 230,398 C 140,398 88,453 88,532 C 88,631 151,711 263,711 C 352,711 404,655 404,576 C 404,477 341,398 230,398 Z M 281,664 C 272,665 264,665 254,665 L 186,665 L 149,454 L 206,454 L 218,523 L 234,523 C 251,523 258,515 258,500 C 257,483 259,468 262,454 L 327,454 C 318,473 316,490 317,508 C 317,531 310,546 291,552 C 325,560 344,580 344,608 C 344,640 321,660 281,664 Z M 226,568 L 236,621 L 248,621 C 256,621 260,621 266,620 C 276,618 283,611 283,598 C 283,583 274,572 259,569 C 252,568 248,568 240,568 L 226,568 Z "/>
</svg>
