<svg xmlns="http://www.w3.org/2000/svg" viewBox="0 -970 499 1200">
  <path transform="scale(1,-1)" d="M 315,314 C 234,341 210,357 210,395 C 210,422 230,444 269,444 C 307,444 328,419 333,375 L 487,375 C 482,472 421,544 275,544 C 124,544 46,466 46,375 C 46,287 101,253 187,223 C 276,193 301,172 301,137 C 301,100 271,81 230,81 C 185,81 149,102 144,158 L -12,158 C -7,66 50,4 155,-14 L 107,-86 C 160,-81 198,-89 198,-114 C 198,-135 174,-148 132,-148 C 113,-148 96,-147 77,-141 L 65,-203 C 82,-208 108,-210 143,-210 C 224,-210 294,-180 294,-112 C 294,-74 267,-50 214,-42 L 229,-20 C 368,-18 465,45 465,153 C 465,235 419,280 315,314 Z "/>
</svg>
