<svg xmlns="http://www.w3.org/2000/svg" viewBox="0 -970 789 1200">
  <path transform="scale(1,-1)" d="M 818,634 L 766,697 L 686,629 C 633,676 558,704 463,704 C 227,704 64,532 64,285 C 64,229 77,177 101,132 L 11,56 L 63,-7 L 151,68 C 204,17 282,-14 381,-14 C 617,-14 780,159 780,405 C 780,465 766,520 738,566 L 818,634 Z M 230,289 C 230,425 302,588 454,588 C 507,588 547,568 574,534 L 233,245 C 231,259 230,274 230,289 Z M 614,401 C 614,265 542,102 390,102 C 333,102 291,125 264,164 L 609,456 C 612,439 614,421 614,401 Z "/>
</svg>
