<svg xmlns="http://www.w3.org/2000/svg" viewBox="0 -970 642 1200">
  <path transform="scale(1,-1)" d="M 548,450 L 506,501 L 441,447 C 415,468 382,480 342,481 C 304,482 272,473 244,458 L 202,508 L 142,457 L 184,405 C 156,369 142,325 142,287 C 142,259 148,232 159,208 L 96,154 L 139,103 L 201,154 C 227,133 261,121 301,121 C 339,121 372,131 399,146 L 443,95 L 500,143 L 457,196 C 486,233 501,277 501,315 C 501,343 495,370 484,394 L 548,450 Z M 310,206 C 262,206 234,240 234,293 C 234,340 265,396 332,396 C 380,396 409,362 409,310 C 409,262 377,206 310,206 Z "/>
</svg>
