<svg xmlns="http://www.w3.org/2000/svg" viewBox="0 -970 680 1200">
  <path transform="scale(1,-1)" d="M 680,411 L 587,411 L 602,497 L 445,497 L 430,411 L 402,411 C 385,411 363,411 345,412 C 303,415 271,435 271,483 C 271,552 311,588 390,588 C 426,588 451,587 491,579 L 511,694 C 482,701 449,704 408,704 C 222,704 107,622 107,488 C 107,423 147,373 210,353 C 92,335 9,262 9,145 C 9,24 117,-14 260,-14 C 357,-14 443,-4 517,12 L 565,289 L 658,289 L 680,411 Z M 179,177 C 179,243 225,282 315,288 C 335,289 347,289 369,289 L 409,289 L 377,110 C 339,103 316,102 284,102 C 219,102 179,120 179,177 Z "/>
</svg>
