<svg xmlns="http://www.w3.org/2000/svg" viewBox="0 -970 939 1200">
  <path transform="scale(1,-1)" d="M 748,547 C 700,547 661,539 621,510 L 568,450 C 555,506 507,547 421,547 C 373,547 337,537 301,516 L 250,458 L 263,533 L 107,533 L 13,0 L 170,0 L 219,277 L 219,280 C 237,379 284,439 337,439 C 384,439 406,412 406,365 C 406,341 401,309 396,275 L 348,0 L 504,0 L 553,277 L 554,285 C 573,378 622,439 676,439 C 718,439 741,412 741,365 C 741,340 736,306 731,275 L 682,0 L 839,0 L 894,315 C 902,359 907,388 907,416 C 907,488 859,547 748,547 Z "/>
</svg>
