<svg xmlns="http://www.w3.org/2000/svg" viewBox="0 -970 562 1200">
  <path transform="scale(1,-1)" d="M 234,573 C 270,573 309,601 309,650 C 309,685 286,705 249,705 C 213,705 173,676 173,628 C 173,593 195,573 234,573 Z M 420,573 C 456,573 496,601 496,650 C 496,685 473,705 436,705 C 400,705 360,676 360,628 C 360,593 382,573 420,573 Z M 622,533 L 450,533 L 257,129 L 207,533 L 32,533 L 150,-25 L 144,-36 C 118,-86 86,-105 44,-105 C 27,-105 13,-104 -2,-102 L -19,-205 C 3,-208 23,-210 48,-210 C 164,-210 232,-157 321,0 L 622,533 Z "/>
</svg>
