<svg xmlns="http://www.w3.org/2000/svg" viewBox="0 -970 568 1200">
  <path transform="scale(1,-1)" d="M 249,573 C 285,573 324,601 324,650 C 324,685 301,705 264,705 C 228,705 188,676 188,628 C 188,593 210,573 249,573 Z M 435,573 C 471,573 511,601 511,650 C 511,685 488,705 451,705 C 415,705 375,676 375,628 C 375,593 397,573 435,573 Z M 333,547 C 201,547 91,478 68,356 L 218,356 C 231,409 263,439 317,439 C 361,439 377,414 377,384 C 377,367 375,350 372,332 L 371,326 C 146,338 12,257 12,128 C 12,32 79,-14 161,-14 C 212,-14 259,-2 295,24 L 328,77 L 326,0 L 479,0 C 482,59 486,95 493,135 L 521,294 C 530,344 535,374 535,403 C 535,486 480,547 333,547 Z M 347,194 L 347,192 C 335,129 281,94 238,94 C 200,94 175,112 175,149 C 175,215 251,246 354,235 L 347,194 Z "/>
</svg>
