<svg xmlns="http://www.w3.org/2000/svg" viewBox="0 -970 773 1200">
  <path transform="scale(1,-1)" d="M 504,727 C 575,727 638,767 653,853 L 573,853 C 565,820 546,804 517,804 C 486,804 476,823 481,853 L 400,853 C 389,789 410,727 504,727 Z M 478,704 C 261,704 61,543 61,266 C 61,89 159,-14 320,-14 C 395,-14 448,1 493,37 L 536,108 L 529,0 L 653,0 L 717,359 L 427,359 L 405,237 L 546,237 C 512,149 448,102 368,102 C 287,102 228,159 228,284 C 228,476 335,588 456,588 C 539,588 582,550 583,465 L 583,455 L 740,455 L 741,465 C 751,601 670,704 478,704 Z "/>
</svg>
