<svg xmlns="http://www.w3.org/2000/svg" viewBox="0 -970 372 1200">
  <path transform="scale(1,-1)" d="M 269,429 L 378,429 L 396,529 L 286,529 L 310,663 L 153,663 L 129,529 L 52,529 L 34,429 L 111,429 L 68,184 C 60,135 57,106 57,84 C 57,39 75,10 119,-4 L 65,-86 C 118,-81 156,-89 156,-114 C 156,-135 132,-148 90,-148 C 71,-148 54,-147 35,-141 L 23,-203 C 40,-208 66,-210 101,-210 C 182,-210 252,-180 252,-112 C 252,-74 225,-50 172,-42 L 192,-13 C 231,-13 266,-9 302,-1 L 320,100 C 252,91 222,101 222,145 C 222,162 223,176 229,205 L 269,429 Z "/>
</svg>
