<svg xmlns="http://www.w3.org/2000/svg" viewBox="0 -970 626 1200">
  <path transform="scale(1,-1)" d="M 274,573 C 310,573 349,601 349,650 C 349,685 326,705 289,705 C 253,705 213,676 213,628 C 213,593 235,573 274,573 Z M 460,573 C 496,573 536,601 536,650 C 536,685 513,705 476,705 C 440,705 400,676 400,628 C 400,593 422,573 460,573 Z M 350,547 C 131,547 24,388 24,223 C 24,87 107,-14 278,-14 C 496,-14 603,145 603,310 C 603,446 520,547 350,547 Z M 290,94 C 222,94 190,151 190,227 C 190,333 240,439 337,439 C 406,439 437,382 437,307 C 437,201 388,94 290,94 Z "/>
</svg>
