<svg xmlns="http://www.w3.org/2000/svg" viewBox="0 -970 710 1200">
  <path transform="scale(1,-1)" d="M 377,858 C 341,858 301,830 301,781 C 301,747 323,726 362,726 C 398,726 437,755 437,803 C 437,838 414,858 377,858 Z M 562,858 C 526,858 486,830 486,781 C 486,747 508,726 547,726 C 583,726 622,755 622,803 C 622,838 599,858 562,858 Z M 738,690 L 582,690 L 508,268 C 504,249 502,236 498,222 C 475,132 426,102 346,102 C 275,102 225,139 225,205 C 225,225 227,242 232,270 L 306,690 L 150,690 L 84,315 C 73,252 69,221 69,186 C 69,69 154,-14 334,-14 C 534,-14 619,76 651,210 C 660,246 664,267 671,306 L 738,690 Z "/>
</svg>
