<svg xmlns="http://www.w3.org/2000/svg" viewBox="0 -970 642 1200">
  <path transform="scale(1,-1)" d="M 478,366 C 551,388 621,439 621,540 C 621,637 547,704 407,704 C 230,704 122,611 122,483 C 122,421 155,384 200,366 C 116,340 32,274 32,158 C 32,35 126,-15 269,-15 C 438,-15 582,57 582,222 C 582,297 535,344 478,366 Z M 353,418 C 308,418 282,443 282,487 C 282,548 326,588 384,588 C 432,588 458,561 458,520 C 458,457 414,418 353,418 Z M 292,101 C 231,101 199,132 199,183 C 199,254 252,304 327,304 C 389,304 419,269 419,219 C 419,152 380,101 292,101 Z "/>
</svg>
