<svg xmlns="http://www.w3.org/2000/svg" viewBox="0 -970 787 1200">
  <path transform="scale(1,-1)" d="M 215,371 C 334,371 396,466 396,564 C 396,653 340,704 256,704 C 136,704 74,609 74,511 C 74,423 130,371 215,371 Z M 757,690 L 626,690 L 59,0 L 189,0 L 757,690 Z M 246,626 C 276,626 294,606 294,564 C 294,501 265,449 224,449 C 195,449 177,469 177,511 C 177,575 205,626 246,626 Z M 600,319 C 480,319 419,224 419,126 C 419,38 475,-14 559,-14 C 679,-14 740,81 740,179 C 740,268 684,319 600,319 Z M 568,64 C 539,64 521,84 521,126 C 521,190 549,241 591,241 C 620,241 638,221 638,179 C 638,116 610,64 568,64 Z "/>
</svg>
