<svg xmlns="http://www.w3.org/2000/svg" viewBox="0 -970 626 1200">
  <path transform="scale(1,-1)" d="M 520,0 L 614,533 L 458,533 L 415,289 C 391,153 337,95 273,95 C 215,94 194,127 194,174 C 194,193 198,222 204,259 L 254,533 L 97,533 L 42,228 C 33,178 30,151 30,123 C 30,43 83,-14 191,-14 C 242,-14 282,-4 322,20 L 378,79 L 364,0 L 369,0 C 300,-37 263,-87 263,-146 C 263,-202 304,-223 359,-223 C 412,-223 459,-205 490,-179 L 502,-117 C 484,-129 468,-133 453,-133 C 433,-133 417,-123 417,-93 C 417,-56 445,-3 490,0 L 520,0 Z "/>
</svg>
