<svg xmlns="http://www.w3.org/2000/svg" viewBox="0 -970 629 1200">
  <path transform="scale(1,-1)" d="M 528,129 C 528,142 531,159 535,182 L 633,731 L 624,731 C 567,746 501,754 420,754 C 232,754 150,694 124,595 C 120,577 115,553 113,536 L 112,529 L 64,529 L 46,429 L 94,429 L 18,0 L 174,0 L 251,429 L 359,429 L 377,529 L 268,529 L 270,538 C 272,551 275,567 279,581 C 290,623 330,646 393,646 C 419,646 435,645 460,639 L 378,179 C 368,128 364,96 364,69 C 364,13 401,-9 477,-9 C 512,-9 538,-7 564,-3 L 582,96 C 543,94 528,101 528,129 Z "/>
</svg>
