<svg xmlns="http://www.w3.org/2000/svg" viewBox="0 -970 503 1200">
  <path transform="scale(1,-1)" d="M 268,580 L 341,690 L 300,690 L 240,580 L 268,580 Z M 401,0 L 440,0 C 434,67 431,106 431,161 L 431,333 C 431,359 431,376 429,402 C 421,490 365,541 256,541 C 149,541 72,472 65,378 L 104,378 C 115,470 183,509 256,509 C 339,509 385,469 391,398 C 393,376 393,355 393,331 L 393,307 L 359,307 C 184,307 44,252 44,130 C 44,35 110,-14 209,-14 C 275,-14 333,11 369,62 L 394,115 L 401,0 Z M 218,18 C 130,18 86,61 86,132 C 86,245 241,285 393,275 L 393,207 C 393,105 323,18 218,18 Z "/>
</svg>
