<svg xmlns="http://www.w3.org/2000/svg" viewBox="0 -970 698 1200">
  <path transform="scale(1,-1)" d="M 361,757 C 376,757 388,769 388,783 C 388,798 376,810 361,810 C 347,810 335,798 335,783 C 335,769 347,757 361,757 Z M 384,314 L 384,281 L 599,281 C 599,91 464,19 358,19 C 210,19 92,130 92,345 C 92,552 222,671 370,671 C 502,671 579,590 601,481 L 603,471 L 641,471 L 639,481 C 617,607 531,704 374,704 C 187,704 50,557 50,343 C 50,124 174,-14 355,-14 C 441,-14 526,20 579,103 L 602,167 L 602,0 L 637,0 L 637,314 L 384,314 Z "/>
</svg>
