<svg xmlns="http://www.w3.org/2000/svg" viewBox="0 -970 543 1200">
  <path transform="scale(1,-1)" d="M 346,360 C 427,379 487,447 487,531 C 487,630 418,704 293,704 C 175,704 88,631 76,507 L 75,497 L 113,497 L 114,507 C 125,612 194,671 290,671 C 378,671 445,623 445,527 C 445,427 350,369 261,369 L 244,369 L 244,336 L 261,336 C 397,336 458,273 458,184 C 458,78 378,19 271,19 C 162,19 95,89 84,194 L 83,204 L 45,204 L 46,194 C 60,55 146,-14 269,-14 C 398,-14 500,61 500,185 C 500,285 441,342 346,360 Z "/>
</svg>
