<svg xmlns="http://www.w3.org/2000/svg" viewBox="0 -970 562 1200">
  <path transform="scale(1,-1)" d="M 277,569 C 341,569 370,615 370,690 L 343,690 C 342,631 319,599 277,599 C 235,599 211,631 210,690 L 183,690 C 183,615 213,569 277,569 Z M 489,530 L 451,530 L 451,420 L 421,481 C 382,523 335,541 274,541 C 145,541 30,447 30,259 C 30,100 119,-14 261,-14 C 328,-14 377,4 420,52 L 451,112 L 451,94 C 451,53 451,29 450,-4 C 447,-112 384,-185 265,-185 C 177,-185 103,-147 91,-55 L 90,-42 L 51,-42 L 53,-55 C 68,-173 153,-218 263,-218 C 402,-218 484,-135 488,-7 C 489,26 489,67 489,138 L 489,530 Z M 265,18 C 139,18 72,131 72,264 C 72,412 156,509 274,509 C 355,509 451,458 451,295 L 451,244 C 451,76 365,18 265,18 Z "/>
</svg>
