<svg xmlns="http://www.w3.org/2000/svg" viewBox="0 -970 721 1200">
  <path transform="scale(1,-1)" d="M 687,644 L 666,666 L 599,599 C 545,665 465,704 367,704 C 173,704 51,553 51,345 C 51,256 74,176 115,115 L 46,46 L 68,25 L 134,91 C 189,25 269,-14 367,-14 C 560,-14 682,138 682,345 C 682,435 659,514 618,575 L 687,644 Z M 93,345 C 93,553 215,671 367,671 C 449,671 522,636 572,572 L 144,144 C 112,196 93,264 93,345 Z M 640,345 C 640,138 518,19 367,19 C 284,19 211,54 161,118 L 589,546 C 621,494 640,427 640,345 Z "/>
</svg>
