<svg xmlns="http://www.w3.org/2000/svg" viewBox="0 -970 657 1200">
  <path transform="scale(1,-1)" d="M 289,810 C 263,810 249,795 249,761 L 273,761 C 273,776 279,782 289,782 C 298,782 311,778 335,770 C 362,761 377,757 394,757 C 420,757 434,772 434,806 L 409,806 C 409,791 403,785 393,785 C 384,785 371,789 347,797 C 320,806 305,810 289,810 Z M 585,0 L 584,690 L 547,690 L 547,323 C 547,233 547,126 549,36 L 155,690 L 97,690 L 97,0 L 135,0 L 135,368 C 135,458 135,564 133,654 L 526,0 L 585,0 Z "/>
</svg>
