<svg xmlns="http://www.w3.org/2000/svg" viewBox="0 -970 644 1200">
  <path transform="scale(1,-1)" d="M 619,363 L 513,363 L 513,505 L 475,505 L 475,363 L 377,363 C 355,363 335,363 316,364 C 237,368 146,394 146,516 C 146,613 224,671 330,671 C 379,671 412,668 453,660 L 453,694 C 415,701 382,704 333,704 C 198,704 104,624 104,514 C 104,410 169,359 252,346 C 144,331 69,265 69,162 C 69,23 173,-14 334,-14 C 384,-14 456,-8 513,3 L 513,329 L 619,329 L 619,363 Z M 111,165 C 111,275 201,317 316,327 C 336,329 355,329 377,329 L 475,329 L 475,30 C 434,22 378,19 336,19 C 196,19 111,51 111,165 Z "/>
</svg>
