<svg xmlns="http://www.w3.org/2000/svg" viewBox="0 -970 562 1200">
  <path transform="scale(1,-1)" d="M 229,643 C 238,643 251,640 275,632 C 302,623 317,619 334,619 C 360,619 374,634 374,667 L 349,667 C 349,652 343,646 333,646 C 324,646 311,650 287,658 C 260,667 245,671 229,671 C 203,671 189,656 189,623 L 213,623 C 213,638 219,643 229,643 Z M 281,541 C 125,541 30,426 30,263 C 30,101 125,-14 281,-14 C 437,-14 532,101 532,263 C 532,426 437,541 281,541 Z M 281,18 C 169,18 72,100 72,263 C 72,427 169,509 281,509 C 393,509 491,427 491,263 C 491,100 393,18 281,18 Z "/>
</svg>
