<svg xmlns="http://www.w3.org/2000/svg" viewBox="0 -970 992 1200">
  <path transform="scale(1,-1)" d="M 727,544 C 613,544 533,474 497,340 C 458,477 376,544 265,544 C 119,544 30,427 30,264 C 30,102 119,-14 265,-14 C 379,-14 458,54 495,191 C 535,54 615,-14 727,-14 C 873,-14 962,102 962,264 C 962,427 873,544 727,544 Z M 265,18 C 165,18 72,101 72,264 C 72,428 165,512 265,512 C 356,512 445,449 472,265 C 455,81 356,18 265,18 Z M 727,18 C 636,18 546,81 520,265 C 536,449 636,512 727,512 C 827,512 921,428 921,264 C 921,101 827,18 727,18 Z "/>
</svg>
