<svg xmlns="http://www.w3.org/2000/svg" viewBox="0 -970 519 1200">
  <path transform="scale(1,-1)" d="M 259,764 C 136,764 49,677 49,555 C 49,431 136,344 259,344 C 382,344 469,431 469,555 C 469,677 382,764 259,764 Z M 259,371 C 153,371 79,448 79,555 C 79,661 153,737 259,737 C 366,737 440,661 440,555 C 440,448 366,371 259,371 Z M 294,550 C 319,557 335,575 335,601 C 335,637 311,655 276,659 C 267,660 260,660 252,660 L 197,660 L 197,456 L 225,456 L 225,534 L 261,534 C 281,534 290,524 292,505 C 296,482 300,468 305,456 L 338,456 C 331,467 325,484 321,510 C 318,531 310,545 294,550 Z M 225,558 L 225,635 L 257,635 C 263,635 267,635 273,634 C 290,631 305,621 305,596 C 305,574 291,562 273,559 C 267,558 260,558 251,558 L 225,558 Z "/>
</svg>
