<svg xmlns="http://www.w3.org/2000/svg" viewBox="0 -970 528 1200">
  <path transform="scale(1,-1)" d="M 213,606 C 227,606 239,618 239,632 C 239,647 227,659 213,659 C 198,659 186,647 186,632 C 186,618 198,606 213,606 Z M 309,606 C 324,606 336,618 336,632 C 336,647 324,659 309,659 C 295,659 283,647 283,632 C 283,618 295,606 309,606 Z M 491,278 C 491,415 418,541 269,541 C 135,541 30,432 30,265 C 30,80 134,-14 260,-14 C 362,-14 454,45 483,164 L 444,164 C 418,64 342,18 262,18 C 170,18 76,82 70,253 L 490,253 C 491,266 491,273 491,278 Z M 267,509 C 356,509 446,449 452,286 L 70,286 C 76,437 175,509 267,509 Z "/>
</svg>
