<svg xmlns="http://www.w3.org/2000/svg" viewBox="0 -970 583 1200">
  <path transform="scale(1,-1)" d="M 508,187 C 500,263 468,325 407,346 C 488,363 544,424 544,513 C 544,616 481,672 376,685 C 344,689 314,690 279,690 L 97,690 L 97,0 L 135,0 L 135,328 L 288,328 C 304,328 327,328 348,327 C 428,323 461,257 470,181 C 481,85 495,44 511,0 L 554,0 C 533,42 519,87 508,187 Z M 135,361 L 135,657 L 279,657 C 314,657 339,656 367,652 C 454,641 503,596 503,510 C 503,426 448,370 362,363 C 333,361 316,361 289,361 L 135,361 Z M 284,-51 L 239,-179 L 268,-179 L 320,-58 L 320,-51 L 284,-51 Z "/>
</svg>
