<svg xmlns="http://www.w3.org/2000/svg" viewBox="0 -970 851 1200">
  <path transform="scale(1,-1)" d="M 608,465 L 569,465 L 552,398 L 535,450 C 520,469 495,483 456,483 C 334,483 243,359 243,221 C 243,100 314,67 371,67 C 414,67 452,86 487,128 L 505,167 C 508,97 556,75 606,75 C 701,75 795,161 795,336 C 795,530 663,664 470,664 C 272,664 59,507 59,244 C 59,9 227,-104 395,-104 C 490,-104 571,-88 679,-15 L 664,12 C 573,-52 494,-74 396,-74 C 237,-74 93,35 93,246 C 93,490 293,634 465,634 C 637,634 762,524 762,332 C 762,191 693,105 613,105 C 568,105 544,129 544,168 C 544,185 546,202 555,242 L 608,465 Z M 524,272 C 496,152 439,99 379,99 C 323,99 285,138 285,225 C 285,349 363,451 455,451 C 517,451 552,394 533,312 L 524,272 Z "/>
</svg>
