<svg xmlns="http://www.w3.org/2000/svg" viewBox="0 -970 562 1200">
  <path transform="scale(1,-1)" d="M 233,606 C 247,606 259,618 259,632 C 259,647 247,659 233,659 C 218,659 206,647 206,632 C 206,618 218,606 233,606 Z M 329,606 C 344,606 356,618 356,632 C 356,647 344,659 329,659 C 315,659 303,647 303,632 C 303,618 315,606 329,606 Z M 281,541 C 125,541 30,426 30,263 C 30,101 125,-14 281,-14 C 437,-14 532,101 532,263 C 532,426 437,541 281,541 Z M 281,18 C 169,18 72,100 72,263 C 72,427 169,509 281,509 C 393,509 491,427 491,263 C 491,100 393,18 281,18 Z "/>
</svg>
