<svg xmlns="http://www.w3.org/2000/svg" viewBox="0 -970 552 1200">
  <path transform="scale(1,-1)" d="M 283,754 C 170,754 81,683 74,552 C 73,534 72,508 72,488 L 72,0 L 110,0 L 110,491 C 110,517 111,536 112,550 C 120,661 189,721 280,721 C 366,721 429,672 429,586 C 429,559 423,532 408,508 C 344,475 311,445 311,394 C 311,347 326,320 386,266 C 450,207 466,175 466,134 C 466,67 414,28 328,28 C 298,28 265,31 224,41 L 224,6 C 263,-2 296,-4 329,-4 C 438,-4 508,47 508,135 C 508,193 477,238 413,293 C 367,333 353,358 353,394 C 353,433 383,457 439,484 C 463,521 471,552 471,587 C 471,692 388,754 283,754 Z "/>
</svg>
