<svg xmlns="http://www.w3.org/2000/svg" viewBox="0 -970 914 1200">
  <path transform="scale(1,-1)" d="M 877,278 C 877,415 809,541 655,541 C 564,541 482,494 446,405 C 426,495 365,541 260,541 C 150,541 68,472 63,378 L 102,378 C 112,470 186,509 260,509 C 372,509 418,438 418,311 L 418,286 L 384,286 C 201,286 44,252 44,130 C 44,30 126,-14 218,-14 C 297,-14 362,15 413,84 L 436,142 C 467,31 558,-14 645,-14 C 748,-14 840,45 869,164 L 830,164 C 804,64 727,18 648,18 C 548,18 462,84 457,253 L 875,253 C 877,266 877,273 877,278 Z M 457,286 C 462,438 551,509 653,509 C 747,509 832,450 837,286 L 457,286 Z M 418,224 C 418,101 336,18 226,18 C 140,18 86,61 86,132 C 86,238 256,260 418,253 L 418,224 Z "/>
</svg>
