<svg xmlns="http://www.w3.org/2000/svg" viewBox="0 -970 543 1200">
  <path transform="scale(1,-1)" d="M 361,361 C 435,381 484,442 484,523 C 484,625 414,704 279,704 C 148,704 73,625 73,523 C 73,442 118,382 191,360 C 100,337 40,270 40,180 C 40,50 142,-15 271,-15 C 392,-15 502,50 502,180 C 502,270 451,337 361,361 Z M 115,523 C 115,612 177,671 279,671 C 381,671 443,612 443,523 C 443,423 365,375 279,375 C 193,375 115,423 115,523 Z M 273,18 C 174,18 82,70 82,179 C 82,272 150,342 275,342 C 400,342 460,272 460,179 C 460,70 367,18 273,18 Z "/>
</svg>
