<svg xmlns="http://www.w3.org/2000/svg" viewBox="0 -970 683 1200">
  <path transform="scale(1,-1)" d="M 595,228 L 593,218 C 570,105 495,19 355,19 C 210,19 92,130 92,345 C 92,552 220,671 363,671 C 494,671 571,590 593,481 L 595,471 L 633,471 L 632,481 C 609,607 523,704 366,704 C 185,704 50,557 50,343 C 50,132 165,-4 334,-13 L 304,-71 C 372,-68 402,-89 402,-127 C 402,-165 372,-184 328,-184 C 306,-184 290,-181 275,-173 L 275,-200 C 289,-207 306,-210 327,-210 C 382,-210 433,-184 433,-127 C 433,-78 401,-54 347,-48 L 365,-14 C 526,-9 610,93 632,218 L 633,228 L 595,228 Z "/>
</svg>
