<svg xmlns="http://www.w3.org/2000/svg" viewBox="0 -970 621 1200">
  <path transform="scale(1,-1)" d="M 554,690 L 516,690 L 516,238 C 516,215 515,196 513,176 C 505,89 447,19 322,19 C 198,19 140,89 132,176 C 130,196 129,215 129,238 L 129,690 L 91,690 L 91,239 C 91,222 92,201 94,173 C 102,65 177,-14 322,-14 L 346,-13 C 299,-46 269,-94 269,-150 C 269,-206 302,-223 340,-223 C 369,-223 393,-214 414,-196 L 414,-166 C 393,-186 373,-195 351,-195 C 324,-195 306,-180 306,-143 C 306,-77 355,-25 419,0 C 501,28 545,92 551,173 C 553,201 554,222 554,239 L 554,690 Z "/>
</svg>
