<svg xmlns="http://www.w3.org/2000/svg" viewBox="0 -970 543 1200">
  <path transform="scale(1,-1)" d="M 218,606 C 232,606 244,618 244,632 C 244,647 232,659 218,659 C 203,659 191,647 191,632 C 191,618 203,606 218,606 Z M 314,606 C 329,606 341,618 341,632 C 341,647 329,659 314,659 C 300,659 288,647 288,632 C 288,618 300,606 314,606 Z M 470,527 L 432,527 L 432,235 C 432,85 348,19 255,19 C 162,19 115,74 105,156 C 102,183 101,207 101,239 L 101,527 L 63,527 L 63,229 C 63,186 64,168 67,141 C 79,46 143,-14 250,-14 C 312,-14 367,9 408,58 L 432,113 L 432,0 L 470,0 L 470,527 Z "/>
</svg>
