<svg xmlns="http://www.w3.org/2000/svg" viewBox="0 -970 621 1200">
  <path transform="scale(1,-1)" d="M 322,852 C 283,852 252,826 252,786 C 252,746 283,721 322,721 C 361,721 392,746 392,786 C 392,826 361,852 322,852 Z M 322,827 C 347,827 362,809 362,786 C 362,763 347,745 322,745 C 297,745 283,763 283,786 C 283,809 297,827 322,827 Z M 554,690 L 516,690 L 516,238 C 516,215 515,196 513,176 C 505,89 447,19 322,19 C 198,19 140,89 132,176 C 130,196 129,215 129,238 L 129,690 L 91,690 L 91,239 C 91,222 92,201 94,173 C 102,65 177,-14 322,-14 C 468,-14 543,65 551,173 C 553,201 554,222 554,239 L 554,690 Z "/>
</svg>
