<svg xmlns="http://www.w3.org/2000/svg" viewBox="0 -970 543 1200">
  <path transform="scale(1,-1)" d="M 347,671 C 409,671 452,657 491,617 L 512,644 C 471,686 423,704 349,704 C 207,704 99,611 78,415 L 38,415 L 28,385 L 75,385 C 74,371 74,357 74,342 L 75,305 L 15,305 L 5,275 L 77,275 C 93,72 188,-14 344,-14 C 393,-14 442,-5 491,23 L 491,59 C 447,31 401,19 349,19 C 216,19 135,97 119,275 L 427,275 L 436,305 L 117,305 C 116,318 116,332 116,346 C 116,359 116,372 117,385 L 460,385 L 471,415 L 119,415 C 139,603 240,671 347,671 Z "/>
</svg>
