<svg xmlns="http://www.w3.org/2000/svg" viewBox="0 -970 471 1200">
  <path transform="scale(1,-1)" d="M 189,606 C 203,606 215,618 215,632 C 215,647 203,659 189,659 C 174,659 162,647 162,632 C 162,618 174,606 189,606 Z M 285,606 C 300,606 312,618 312,632 C 312,647 300,659 285,659 C 271,659 259,647 259,632 C 259,618 271,606 285,606 Z M 464,527 L 421,527 L 237,30 L 53,527 L 10,527 L 218,-13 L 203,-51 C 162,-151 125,-177 82,-177 C 70,-177 58,-177 45,-174 L 45,-207 C 56,-209 67,-210 82,-210 C 147,-210 193,-178 257,-11 L 464,527 Z "/>
</svg>
