<svg xmlns="http://www.w3.org/2000/svg" viewBox="0 -970 298 1200">
  <path transform="scale(1,-1)" d="M 142,455 C 142,480 144,508 152,565 C 162,629 164,649 164,670 C 164,753 111,780 33,780 L 17,780 L 17,750 L 34,750 C 95,750 133,730 133,671 C 133,648 130,632 122,575 C 113,508 111,479 111,454 C 111,411 132,362 190,349 C 131,337 111,290 111,246 C 111,222 113,192 122,125 C 130,69 133,52 133,29 C 133,-30 95,-50 34,-50 L 17,-50 L 17,-80 L 33,-80 C 111,-80 164,-53 164,30 C 164,51 162,72 152,135 C 144,192 142,220 142,245 C 142,289 163,329 223,335 L 223,365 C 163,371 142,411 142,455 Z "/>
</svg>
