<svg xmlns="http://www.w3.org/2000/svg" viewBox="0 -970 597 1200">
  <path transform="scale(1,-1)" d="M 404,365 C 483,382 532,438 532,523 C 532,620 465,679 359,688 C 325,690 307,690 278,690 L 97,690 L 97,0 L 297,0 C 323,0 342,0 370,3 C 470,11 558,74 558,188 C 558,283 506,346 404,365 Z M 135,657 L 280,657 C 304,657 321,657 343,656 C 418,652 491,617 491,518 C 491,421 420,385 348,379 C 326,378 309,377 293,377 L 135,377 L 135,657 Z M 358,35 C 345,34 328,33 312,33 L 135,33 L 135,344 L 306,344 C 322,344 336,344 359,342 C 476,336 517,266 517,185 C 517,85 438,41 358,35 Z "/>
</svg>
