<svg xmlns="http://www.w3.org/2000/svg" viewBox="0 -970 546 1200">
  <path transform="scale(1,-1)" d="M 221,643 C 230,643 243,640 267,632 C 294,623 309,619 326,619 C 352,619 366,634 366,667 L 341,667 C 341,652 335,646 325,646 C 316,646 303,650 279,658 C 252,667 237,671 221,671 C 195,671 181,656 181,623 L 205,623 C 205,638 211,643 221,643 Z M 475,381 C 465,481 401,541 292,541 C 230,541 174,519 134,469 L 110,414 L 110,527 L 72,527 L 72,0 L 110,0 L 110,292 C 110,443 195,508 288,508 C 383,508 428,452 437,370 C 440,343 441,320 441,285 L 441,0 L 479,0 L 479,294 C 479,337 478,354 475,381 Z "/>
</svg>
