<svg xmlns="http://www.w3.org/2000/svg" viewBox="0 -970 719 1200">
  <path transform="scale(1,-1)" d="M 322,757 C 337,757 349,769 349,783 C 349,798 337,810 322,810 C 308,810 296,798 296,783 C 296,769 308,757 322,757 Z M 410,757 C 424,757 436,769 436,783 C 436,798 424,810 410,810 C 395,810 383,798 383,783 C 383,769 395,757 410,757 Z M 366,704 C 172,704 50,553 50,345 C 50,138 172,-14 366,-14 C 559,-14 681,138 681,345 C 681,553 559,704 366,704 Z M 366,19 C 214,19 92,138 92,345 C 92,553 214,671 366,671 C 517,671 639,553 639,345 C 639,138 517,19 366,19 Z "/>
</svg>
