<svg xmlns="http://www.w3.org/2000/svg" viewBox="0 -970 566 1200">
  <path transform="scale(1,-1)" d="M 518,172 C 518,282 447,333 302,372 C 172,408 115,439 115,532 C 115,625 205,671 289,671 C 384,671 453,612 468,510 L 508,510 C 495,617 424,704 292,704 C 174,704 74,631 74,526 C 74,418 144,374 286,336 C 421,299 477,261 477,166 C 477,78 397,19 292,19 C 186,19 97,77 82,184 L 42,184 C 56,61 147,-4 263,-13 L 233,-71 C 301,-68 331,-89 331,-127 C 331,-165 301,-184 257,-184 C 235,-184 219,-181 204,-173 L 204,-200 C 218,-207 235,-210 256,-210 C 311,-210 362,-184 362,-127 C 362,-78 330,-54 276,-48 L 294,-14 C 423,-13 518,66 518,172 Z "/>
</svg>
