<svg xmlns="http://www.w3.org/2000/svg" viewBox="0 -970 709 1200">
  <path transform="scale(1,-1)" d="M 197,703 C 114,703 64,636 64,544 C 64,454 114,385 197,385 C 279,385 330,454 330,544 C 330,636 279,703 197,703 Z M 152,0 L 599,690 L 558,690 L 111,0 L 152,0 Z M 197,672 C 257,672 291,621 291,544 C 291,468 257,416 197,416 C 136,416 103,468 103,544 C 103,621 136,672 197,672 Z M 513,304 C 430,304 380,237 380,145 C 380,55 430,-14 513,-14 C 595,-14 646,55 646,145 C 646,237 595,304 513,304 Z M 513,273 C 573,273 607,222 607,145 C 607,69 573,17 513,17 C 452,17 419,69 419,145 C 419,222 452,273 513,273 Z "/>
</svg>
