<svg xmlns="http://www.w3.org/2000/svg" viewBox="0 -970 821 1200">
  <path transform="scale(1,-1)" d="M 749,387 C 738,483 685,541 590,541 C 537,541 492,522 458,482 L 423,414 C 405,494 354,541 269,541 C 216,541 170,522 136,482 L 110,424 L 110,527 L 72,527 L 72,0 L 110,0 L 110,292 C 110,445 178,509 260,509 C 340,509 380,456 390,374 C 393,347 394,323 394,283 L 394,0 L 432,0 L 432,292 C 432,445 499,509 582,509 C 662,509 702,456 711,374 C 714,347 715,323 715,283 L 715,0 L 753,0 L 753,300 C 753,343 752,360 749,387 Z "/>
</svg>
