<svg xmlns="http://www.w3.org/2000/svg" viewBox="0 -970 621 1200">
  <path transform="scale(1,-1)" d="M 278,810 C 264,810 252,798 252,783 C 252,769 264,757 278,757 C 293,757 305,769 305,783 C 305,798 293,810 278,810 Z M 366,810 C 351,810 339,798 339,783 C 339,769 351,757 366,757 C 380,757 392,769 392,783 C 392,798 380,810 366,810 Z M 554,690 L 516,690 L 516,238 C 516,215 515,196 513,176 C 505,89 447,19 322,19 C 198,19 140,89 132,176 C 130,196 129,215 129,238 L 129,690 L 91,690 L 91,239 C 91,222 92,201 94,173 C 102,65 177,-14 322,-14 C 468,-14 543,65 551,173 C 553,201 554,222 554,239 L 554,690 Z "/>
</svg>
