<svg xmlns="http://www.w3.org/2000/svg" viewBox="0 -970 538 1200">
  <path transform="scale(1,-1)" d="M 507,256 C 507,352 426,404 299,430 C 213,448 140,483 140,563 C 140,634 198,672 265,672 C 344,672 390,629 411,546 L 450,546 C 434,638 377,704 266,704 C 168,704 99,648 99,558 C 99,499 131,460 175,434 C 102,416 45,368 45,282 C 45,185 141,131 231,111 C 377,79 413,36 413,-34 C 413,-103 350,-142 274,-142 C 190,-142 134,-100 111,-7 L 72,-7 C 94,-123 166,-174 271,-174 C 374,-174 454,-121 454,-31 C 454,30 429,73 374,104 C 448,122 507,173 507,256 Z M 321,126 C 299,134 275,140 247,146 C 163,164 86,211 86,285 C 86,374 155,406 220,413 C 241,405 262,400 283,395 C 403,368 466,327 466,252 C 466,171 395,130 321,126 Z "/>
</svg>
