<svg xmlns="http://www.w3.org/2000/svg" viewBox="0 -970 543 1200">
  <path transform="scale(1,-1)" d="M 470,527 L 432,527 L 432,235 C 432,85 348,19 255,19 C 162,19 115,74 105,156 C 102,183 101,207 101,239 L 101,527 L 63,527 L 63,229 C 63,186 64,168 67,141 C 79,46 143,-14 250,-14 C 312,-14 367,9 408,58 L 432,113 L 432,13 C 358,-11 306,-76 306,-150 C 306,-206 339,-223 377,-223 C 406,-223 430,-214 451,-196 L 451,-166 C 430,-186 410,-195 388,-195 C 361,-195 343,-180 343,-143 C 343,-77 391,-17 458,0 L 470,0 L 470,527 Z "/>
</svg>
