<svg xmlns="http://www.w3.org/2000/svg" viewBox="0 -970 1024 1200">
  <path transform="scale(1,-1)" d="M 330,544 C 330,636 279,703 197,703 C 114,703 64,636 64,544 C 64,454 114,385 197,385 C 279,385 330,454 330,544 Z M 599,690 L 558,690 L 111,0 L 152,0 L 599,690 Z M 103,544 C 103,621 136,672 197,672 C 257,672 291,621 291,544 C 291,468 257,416 197,416 C 136,416 103,468 103,544 Z M 513,304 C 430,304 380,237 380,145 C 380,55 430,-14 513,-14 C 595,-14 646,55 646,145 C 646,237 595,304 513,304 Z M 827,304 C 745,304 694,237 694,145 C 694,55 745,-14 827,-14 C 910,-14 960,55 960,145 C 960,237 910,304 827,304 Z M 513,17 C 452,17 419,69 419,145 C 419,222 452,273 513,273 C 573,273 607,222 607,145 C 607,69 573,17 513,17 Z M 827,17 C 767,17 733,69 733,145 C 733,222 767,273 827,273 C 888,273 921,222 921,145 C 921,69 888,17 827,17 Z "/>
</svg>
