<svg xmlns="http://www.w3.org/2000/svg" viewBox="0 -970 538 1200">
  <path transform="scale(1,-1)" d="M 457,686 L 446,714 L 373,684 C 342,712 304,731 260,745 L 236,716 C 275,707 308,691 337,669 L 191,609 L 202,581 L 362,647 C 406,600 434,532 443,439 L 394,503 C 356,532 314,544 265,544 C 123,544 30,424 30,257 C 30,102 111,-15 255,-14 C 392,-13 491,81 491,307 C 491,482 459,592 397,661 L 457,686 Z M 449,283 C 449,116 377,18 259,18 C 153,18 72,104 72,260 C 72,422 160,512 268,512 C 371,512 449,434 449,304 L 449,283 Z "/>
</svg>
