<svg xmlns="http://www.w3.org/2000/svg" viewBox="0 -970 520 1200">
  <path transform="scale(1,-1)" d="M 267,18 C 167,18 72,97 72,269 C 72,432 176,510 271,510 C 369,510 430,453 448,360 L 487,360 C 471,468 390,541 273,541 C 141,541 30,436 30,263 C 30,98 118,2 234,-12 L 203,-71 C 271,-68 301,-89 301,-127 C 301,-165 271,-184 227,-184 C 205,-184 189,-181 174,-173 L 174,-200 C 188,-207 205,-210 226,-210 C 281,-210 332,-184 332,-127 C 332,-78 300,-54 246,-48 L 264,-14 C 374,-14 460,50 482,160 L 443,160 C 424,68 352,18 267,18 Z "/>
</svg>
