<svg xmlns="http://www.w3.org/2000/svg" viewBox="0 -970 989 1200">
  <path transform="scale(1,-1)" d="M 952,278 C 952,415 880,541 730,541 C 633,541 545,482 512,371 C 479,481 393,541 281,541 C 125,541 30,426 30,263 C 30,101 125,-14 281,-14 C 392,-14 476,46 509,155 C 542,39 627,-14 720,-14 C 823,-14 915,45 944,164 L 905,164 C 879,64 802,18 723,18 C 631,18 537,84 532,253 L 950,253 C 952,266 952,273 952,278 Z M 281,18 C 169,18 72,100 72,263 C 72,427 169,509 281,509 C 393,509 491,427 491,263 C 491,100 393,18 281,18 Z M 532,286 C 538,438 635,509 728,509 C 817,509 907,450 913,286 L 532,286 Z "/>
</svg>
