<svg xmlns="http://www.w3.org/2000/svg" viewBox="0 -970 543 1200">
  <path transform="scale(1,-1)" d="M 266,570 C 305,570 335,597 335,638 C 335,679 305,705 266,705 C 227,705 197,679 197,638 C 197,597 227,570 266,570 Z M 266,681 C 291,681 306,662 306,638 C 306,614 291,595 266,595 C 241,595 227,614 227,638 C 227,662 241,681 266,681 Z M 470,527 L 432,527 L 432,235 C 432,85 348,19 255,19 C 162,19 115,74 105,156 C 102,183 101,207 101,239 L 101,527 L 63,527 L 63,229 C 63,186 64,168 67,141 C 79,46 143,-14 250,-14 C 312,-14 367,9 408,58 L 432,113 L 432,0 L 470,0 L 470,527 Z "/>
</svg>
