<svg xmlns="http://www.w3.org/2000/svg" viewBox="0 -970 528 1200">
  <path transform="scale(1,-1)" d="M 491,278 C 491,415 418,541 269,541 C 135,541 30,432 30,265 C 30,80 134,-14 260,-14 L 264,-14 C 219,-46 191,-96 191,-150 C 191,-206 224,-223 262,-223 C 291,-223 315,-214 336,-196 L 336,-166 C 315,-186 295,-195 273,-195 C 246,-195 228,-180 228,-143 C 228,-82 269,-26 328,-5 C 332,-4 337,-2 341,-1 L 343,0 C 409,24 462,79 483,164 L 444,164 C 418,64 342,18 262,18 C 170,18 76,82 70,253 L 490,253 C 491,266 491,273 491,278 Z M 267,509 C 356,509 446,449 452,286 L 70,286 C 76,437 175,509 267,509 Z "/>
</svg>
