<svg xmlns="http://www.w3.org/2000/svg" viewBox="0 -970 255 1200">
  <path transform="scale(1,-1)" d="M 173,-7 L 176,-7 C 195,-7 216,-6 232,-4 L 232,26 C 157,15 134,30 130,82 C 129,96 129,109 129,135 L 129,493 L 231,493 L 231,523 L 129,523 L 129,635 L 91,635 L 91,523 L 26,523 L 26,493 L 91,493 L 91,137 C 91,107 91,89 93,67 C 96,28 113,5 143,-3 L 108,-71 C 176,-68 206,-89 206,-127 C 206,-165 176,-184 132,-184 C 110,-184 94,-181 79,-173 L 79,-200 C 93,-207 110,-210 131,-210 C 186,-210 237,-184 237,-127 C 237,-78 205,-54 151,-48 L 173,-7 Z "/>
</svg>
