<svg xmlns="http://www.w3.org/2000/svg" viewBox="0 -970 358 1200">
  <path transform="scale(1,-1)" d="M 91,666 C 75,666 62,653 62,637 C 62,621 75,608 91,608 C 107,608 120,621 120,637 C 120,653 107,666 91,666 Z M 267,666 C 251,666 239,653 239,637 C 239,621 251,608 267,608 C 283,608 296,621 296,637 C 296,653 283,666 267,666 Z M 110,0 L 110,527 L 72,527 L 72,0 L 110,0 Z M 286,527 L 248,527 L 248,-76 C 248,-91 248,-102 247,-116 C 244,-171 211,-184 156,-175 L 156,-207 C 169,-209 180,-210 192,-210 C 244,-210 281,-182 285,-121 C 286,-103 286,-86 286,-66 L 286,527 Z "/>
</svg>
