<svg xmlns="http://www.w3.org/2000/svg" viewBox="0 -970 503 1200">
  <path transform="scale(1,-1)" d="M 209,606 C 223,606 235,618 235,632 C 235,647 223,659 209,659 C 194,659 182,647 182,632 C 182,618 194,606 209,606 Z M 305,606 C 320,606 332,618 332,632 C 332,647 320,659 305,659 C 291,659 279,647 279,632 C 279,618 291,606 305,606 Z M 401,0 L 440,0 C 434,67 431,106 431,161 L 431,333 C 431,359 431,376 429,402 C 421,490 365,541 256,541 C 149,541 72,472 65,378 L 104,378 C 115,470 183,509 256,509 C 339,509 385,469 391,398 C 393,376 393,355 393,331 L 393,307 L 359,307 C 184,307 44,252 44,130 C 44,35 110,-14 209,-14 C 275,-14 333,11 369,62 L 394,115 L 401,0 Z M 218,18 C 130,18 86,61 86,132 C 86,245 241,285 393,275 L 393,207 C 393,105 323,18 218,18 Z "/>
</svg>
