<svg xmlns="http://www.w3.org/2000/svg" viewBox="0 -970 719 1200">
  <path transform="scale(1,-1)" d="M 314,782 C 323,782 336,778 360,770 C 387,761 402,757 419,757 C 445,757 459,772 459,806 L 434,806 C 434,791 428,785 418,785 C 409,785 396,789 372,797 C 345,806 330,810 314,810 C 288,810 274,795 274,761 L 298,761 C 298,776 304,782 314,782 Z M 366,704 C 172,704 50,553 50,345 C 50,138 172,-14 366,-14 C 559,-14 681,138 681,345 C 681,553 559,704 366,704 Z M 366,19 C 214,19 92,138 92,345 C 92,553 214,671 366,671 C 517,671 639,553 639,345 C 639,138 517,19 366,19 Z "/>
</svg>
