<svg xmlns="http://www.w3.org/2000/svg" viewBox="0 -970 543 1200">
  <path transform="scale(1,-1)" d="M 168,440 C 118,440 81,418 52,369 L 74,351 C 102,393 124,409 167,409 C 198,409 218,400 264,376 C 315,349 339,338 375,338 C 425,338 462,361 491,410 L 469,428 C 442,385 419,369 376,369 C 345,369 325,378 279,402 C 229,429 204,440 168,440 Z M 168,265 C 118,265 81,243 52,194 L 74,176 C 102,218 124,234 167,234 C 198,234 218,225 264,201 C 315,174 339,163 375,163 C 425,163 462,186 491,235 L 469,253 C 442,210 419,194 376,194 C 345,194 325,203 279,227 C 229,254 204,265 168,265 Z "/>
</svg>
