<svg xmlns="http://www.w3.org/2000/svg" viewBox="0 -970 543 1200">
  <path transform="scale(1,-1)" d="M 448,301 C 448,346 433,387 408,418 L 466,476 L 443,498 L 385,440 C 355,466 315,481 271,481 C 227,481 188,466 157,441 L 100,498 L 77,476 L 135,418 C 109,387 94,347 94,301 C 94,255 109,215 135,184 L 77,127 L 100,104 L 157,162 C 187,136 227,121 271,121 C 315,121 355,136 386,162 L 443,104 L 466,126 L 408,184 C 433,215 448,256 448,301 Z M 271,151 C 188,151 128,216 128,301 C 128,386 188,451 271,451 C 355,451 415,386 415,301 C 415,216 355,151 271,151 Z "/>
</svg>
