<svg xmlns="http://www.w3.org/2000/svg" viewBox="0 -970 441 1200">
  <path transform="scale(1,-1)" d="M 406,127 C 406,216 346,256 225,284 C 144,303 89,330 89,399 C 89,468 146,509 216,509 C 296,509 342,467 362,382 L 401,382 C 387,472 330,541 218,541 C 119,541 50,481 50,396 C 50,306 123,271 209,250 C 326,222 367,192 367,125 C 367,55 303,18 227,18 C 146,18 81,54 65,156 L 26,156 C 38,44 112,-7 204,-13 L 174,-71 C 242,-68 272,-89 272,-127 C 272,-165 242,-184 198,-184 C 176,-184 160,-181 145,-173 L 145,-200 C 159,-207 176,-210 197,-210 C 252,-210 303,-184 303,-127 C 303,-78 271,-54 217,-48 L 235,-14 C 334,-10 406,42 406,127 Z "/>
</svg>
