<svg xmlns="http://www.w3.org/2000/svg" viewBox="0 -970 411 1200">
  <path transform="scale(1,-1)" d="M 327,64 C 326,79 326,98 326,128 L 326,735 C 302,747 269,754 229,754 C 132,754 81,697 73,615 C 71,595 71,576 71,560 L 71,523 L 24,523 L 24,491 L 71,491 L 71,0 L 109,0 L 109,491 L 217,491 L 217,523 L 109,523 L 109,562 C 109,577 109,593 111,613 C 117,670 149,722 229,722 C 254,722 273,719 288,711 L 288,127 C 288,92 288,74 289,54 C 291,8 315,-5 348,-5 C 361,-5 373,-5 385,-2 L 385,28 C 343,23 329,31 327,64 Z "/>
</svg>
