<svg xmlns="http://www.w3.org/2000/svg" viewBox="0 -970 298 1200">
  <path transform="scale(1,-1)" d="M 281,750 L 281,780 L 265,780 C 187,780 134,753 134,670 C 134,649 136,629 146,565 C 154,508 156,480 156,455 C 156,411 135,371 75,365 L 75,335 C 135,329 156,289 156,245 C 156,220 154,192 146,135 C 136,72 134,51 134,30 C 134,-53 187,-80 265,-80 L 281,-80 L 281,-50 L 264,-50 C 203,-50 165,-30 165,29 C 165,52 168,69 176,125 C 185,192 187,222 187,246 C 187,290 166,338 108,351 C 167,363 187,410 187,454 C 187,479 185,508 176,575 C 168,632 165,648 165,671 C 165,730 203,750 264,750 L 281,750 Z "/>
</svg>
