<svg xmlns="http://www.w3.org/2000/svg" viewBox="0 -970 601 1200">
  <path transform="scale(1,-1)" d="M 575,516 L 553,538 L 479,464 C 435,512 373,541 295,541 C 139,541 44,426 44,263 C 44,191 63,129 97,82 L 26,11 L 48,-11 L 117,58 C 160,12 220,-14 295,-14 C 451,-14 546,101 546,263 C 546,332 529,392 498,439 L 575,516 Z M 86,263 C 86,427 183,509 295,509 C 356,509 413,485 452,437 L 125,110 C 101,149 86,200 86,263 Z M 505,263 C 505,100 408,18 295,18 C 237,18 183,40 144,85 L 470,411 C 492,373 505,323 505,263 Z "/>
</svg>
