<svg xmlns="http://www.w3.org/2000/svg" viewBox="0 -970 543 1200">
  <path transform="scale(1,-1)" d="M 296,671 C 385,666 439,607 450,513 L 489,513 C 476,614 415,698 296,704 L 296,780 L 265,780 L 265,703 C 161,696 81,630 81,522 C 81,406 165,357 265,329 L 265,20 C 170,26 103,83 92,182 L 52,182 C 63,57 153,-8 265,-14 L 265,-90 L 296,-90 L 296,-14 C 417,-8 489,68 489,162 C 489,263 424,327 296,365 L 296,671 Z M 122,525 C 122,616 188,664 265,670 L 265,370 C 182,395 122,432 122,525 Z M 296,323 C 398,291 448,240 448,158 C 448,78 392,24 296,19 L 296,323 Z "/>
</svg>
