<svg xmlns="http://www.w3.org/2000/svg" viewBox="0 -970 552 1200">
  <path transform="scale(1,-1)" d="M 325,546 C 195,546 91,478 68,358 L 202,359 C 216,417 250,449 313,449 C 362,449 380,422 380,389 C 380,373 378,356 374,332 L 373,324 C 153,337 12,262 12,126 C 12,31 80,-14 160,-14 C 213,-14 260,-2 295,25 L 330,78 L 327,8 C 246,-28 202,-84 202,-147 C 202,-202 243,-223 294,-223 C 343,-223 386,-207 415,-183 L 426,-125 C 408,-138 391,-143 374,-143 C 353,-143 338,-132 338,-102 C 338,-63 372,-5 423,0 L 462,0 C 465,59 469,95 476,135 L 506,305 C 514,349 519,378 519,405 C 519,487 465,546 325,546 Z M 227,83 C 185,83 157,103 157,144 C 157,220 245,253 357,241 L 349,196 C 337,126 277,83 227,83 Z "/>
</svg>
