<svg xmlns="http://www.w3.org/2000/svg" viewBox="0 -970 988 1200">
  <path transform="scale(1,-1)" d="M 949,230 C 959,261 966,300 966,337 C 966,454 899,544 762,544 C 676,544 599,512 540,436 C 508,512 441,544 349,544 C 114,544 22,347 22,208 C 22,74 103,-14 257,-14 C 343,-14 421,18 477,91 C 509,15 575,-14 652,-14 C 779,-14 885,49 933,173 L 795,173 C 776,116 728,83 668,83 C 611,83 571,114 571,201 C 571,208 571,218 572,230 L 949,230 Z M 273,83 C 205,83 167,134 167,213 C 167,307 214,447 338,447 C 407,447 444,398 444,322 C 444,231 398,83 273,83 Z M 735,447 C 794,447 827,412 827,344 C 827,338 827,330 825,320 L 593,320 C 619,406 671,447 735,447 Z "/>
</svg>
