<svg xmlns="http://www.w3.org/2000/svg" viewBox="0 -970 703 1200">
  <path transform="scale(1,-1)" d="M 725,690 L 587,690 L 513,267 C 509,247 506,232 502,217 C 478,123 425,89 338,89 C 260,89 211,129 211,199 C 211,221 213,237 219,270 L 293,690 L 155,690 L 86,301 C 77,247 73,218 73,184 C 73,72 145,-4 296,-13 C 240,-48 210,-95 210,-147 C 210,-202 251,-223 302,-223 C 351,-223 394,-207 423,-183 L 434,-125 C 416,-138 399,-143 382,-143 C 361,-143 346,-132 346,-102 C 346,-71 368,-27 403,-9 C 542,12 610,91 637,206 C 645,237 649,258 655,292 L 725,690 Z "/>
</svg>
