<svg xmlns="http://www.w3.org/2000/svg" viewBox="0 -970 661 1200">
  <path transform="scale(1,-1)" d="M 501,370 C 590,397 639,453 639,541 C 639,618 588,674 492,686 C 459,690 439,690 404,690 L 157,690 L 35,0 L 286,0 C 325,0 347,0 383,4 C 488,18 611,82 611,218 C 611,295 574,347 501,370 Z M 276,582 L 376,582 C 392,582 410,581 425,579 C 464,574 490,553 490,512 C 490,457 462,420 399,410 C 382,408 366,407 349,407 L 245,407 L 276,582 Z M 356,110 C 343,109 326,109 310,109 L 192,109 L 226,304 L 341,304 C 357,304 373,303 390,301 C 433,296 465,273 465,224 C 465,154 411,114 356,110 Z "/>
</svg>
