<svg xmlns="http://www.w3.org/2000/svg" viewBox="0 -970 625 1200">
  <path transform="scale(1,-1)" d="M 404,595 C 440,578 464,543 464,497 L 599,497 C 595,601 535,681 423,700 L 437,780 L 356,780 L 342,703 C 182,693 95,598 95,491 C 95,386 159,335 270,295 L 234,91 C 188,105 162,140 158,194 L 23,194 C 32,89 82,9 216,-10 L 202,-90 L 283,-90 L 296,-14 C 450,-9 556,66 556,190 C 556,294 495,349 370,399 L 404,595 Z M 229,502 C 229,555 263,595 325,604 L 292,421 C 253,438 229,461 229,502 Z M 347,270 C 396,249 418,223 418,180 C 418,121 381,92 314,85 L 347,270 Z "/>
</svg>
