<svg xmlns="http://www.w3.org/2000/svg" viewBox="0 -970 625 1200">
  <path transform="scale(1,-1)" d="M 440,601 C 488,601 525,587 558,556 L 624,642 C 594,679 537,704 451,704 C 252,704 153,586 111,448 L 68,448 L 44,370 L 94,370 C 91,353 89,335 88,318 L 28,318 L 4,240 L 87,240 C 95,54 190,-14 330,-14 C 405,-14 456,-2 510,24 L 529,129 C 480,102 431,89 370,89 C 292,89 240,125 231,240 L 439,240 L 462,318 L 231,318 C 232,336 234,353 236,370 L 478,370 L 503,448 L 253,448 C 282,541 341,601 440,601 Z "/>
</svg>
