<svg xmlns="http://www.w3.org/2000/svg" viewBox="0 -970 617 1200">
  <path transform="scale(1,-1)" d="M 507,0 L 600,532 L 463,532 L 421,291 C 394,143 333,85 264,84 C 201,83 179,117 179,166 C 179,186 182,214 189,253 L 240,532 L 102,532 L 47,229 C 37,175 35,151 35,123 C 35,42 88,-14 196,-14 C 248,-14 288,-4 331,23 L 384,82 L 369,1 C 297,-35 258,-88 258,-147 C 258,-202 299,-223 350,-223 C 399,-223 442,-207 471,-183 L 482,-125 C 464,-138 447,-143 430,-143 C 409,-143 394,-132 394,-102 C 394,-63 428,-5 479,0 L 507,0 Z "/>
</svg>
