<svg xmlns="http://www.w3.org/2000/svg" viewBox="0 -970 703 1200">
  <path transform="scale(1,-1)" d="M 475,906 C 406,906 354,865 354,800 C 354,754 391,719 448,719 C 518,719 570,761 570,825 C 570,871 533,906 475,906 Z M 469,853 C 489,853 501,840 501,821 C 501,791 479,772 455,772 C 435,772 423,785 423,804 C 423,834 445,853 469,853 Z M 725,690 L 587,690 L 513,267 C 509,247 506,232 502,217 C 478,123 425,89 338,89 C 260,89 211,129 211,199 C 211,221 213,237 219,270 L 293,690 L 155,690 L 86,301 C 77,247 73,218 73,184 C 73,65 155,-14 326,-14 C 518,-14 605,72 637,206 C 645,237 649,258 655,292 L 725,690 Z "/>
</svg>
