<svg xmlns="http://www.w3.org/2000/svg" viewBox="0 -970 552 1200">
  <path transform="scale(1,-1)" d="M 291,611 C 302,611 313,607 335,599 C 370,584 387,581 408,581 C 456,581 480,610 494,687 L 424,687 C 421,668 414,661 404,661 C 394,661 382,664 359,673 C 325,687 308,690 286,690 C 238,690 214,661 200,585 L 270,585 C 273,603 281,611 291,611 Z M 325,546 C 195,546 91,478 68,358 L 202,359 C 216,417 250,449 313,449 C 362,449 380,422 380,389 C 380,373 378,356 374,332 L 373,324 C 153,337 12,262 12,126 C 12,31 80,-14 160,-14 C 213,-14 260,-2 295,25 L 330,78 L 327,0 L 462,0 C 465,59 469,95 476,135 L 506,305 C 514,349 519,378 519,405 C 519,487 465,546 325,546 Z M 227,83 C 185,83 157,103 157,144 C 157,220 245,253 357,241 L 349,196 C 337,126 277,83 227,83 Z "/>
</svg>
