<svg xmlns="http://www.w3.org/2000/svg" viewBox="0 -970 1111 1200">
  <path transform="scale(1,-1)" d="M 215,375 C 334,375 394,470 394,567 C 394,652 339,704 256,704 C 137,704 77,609 77,512 C 77,427 131,375 215,375 Z M 745,690 L 625,690 L 57,0 L 178,0 L 745,690 Z M 247,631 C 279,631 296,609 296,568 C 296,500 266,448 223,448 C 192,448 175,470 175,511 C 175,579 204,631 247,631 Z M 588,315 C 468,315 409,220 409,123 C 409,38 463,-14 546,-14 C 665,-14 725,81 725,178 C 725,263 671,315 588,315 Z M 924,315 C 805,315 745,220 745,123 C 745,38 799,-14 883,-14 C 1002,-14 1062,81 1062,178 C 1062,263 1007,315 924,315 Z M 555,59 C 523,59 506,81 506,122 C 506,190 536,242 579,242 C 610,242 628,220 628,179 C 628,111 598,59 555,59 Z M 891,59 C 860,59 843,81 843,122 C 843,190 872,242 915,242 C 947,242 964,220 964,179 C 964,111 934,59 891,59 Z "/>
</svg>
