<svg xmlns="http://www.w3.org/2000/svg" viewBox="0 -970 616 1200">
  <path transform="scale(1,-1)" d="M 579,247 C 579,341 520,398 396,435 C 315,459 283,484 283,531 C 283,576 309,613 355,613 C 396,613 421,584 425,531 L 563,531 C 552,635 488,704 362,704 C 215,704 139,608 139,526 C 139,495 145,470 157,448 C 74,412 36,345 36,279 C 36,188 99,141 199,106 C 302,69 334,41 334,-7 C 334,-61 296,-83 244,-83 C 199,-83 161,-54 156,3 L 19,3 C 30,-117 119,-174 235,-174 C 379,-174 478,-104 478,6 C 478,36 470,62 455,86 C 537,119 579,183 579,247 Z M 281,200 C 217,222 181,249 181,293 C 181,324 197,358 238,371 C 262,358 291,346 323,335 C 402,307 435,282 435,238 C 435,197 411,169 374,158 C 348,174 316,188 281,200 Z "/>
</svg>
