<svg xmlns="http://www.w3.org/2000/svg" viewBox="0 -970 621 1200">
  <path transform="scale(1,-1)" d="M 323,611 C 334,611 345,607 367,599 C 402,584 419,581 440,581 C 488,581 512,610 526,687 L 456,687 C 453,668 446,661 436,661 C 426,661 414,664 391,673 C 357,687 340,690 318,690 C 270,690 246,661 232,585 L 302,585 C 305,603 313,611 323,611 Z M 421,546 C 370,546 329,536 286,509 L 234,451 L 248,532 L 111,532 L 17,0 L 155,0 L 197,241 C 223,389 284,448 353,449 C 416,449 439,415 439,366 C 439,346 435,318 428,279 L 378,0 L 516,0 L 570,304 C 580,357 583,382 583,410 C 583,490 530,546 421,546 Z "/>
</svg>
