<svg xmlns="http://www.w3.org/2000/svg" viewBox="0 -970 769 1200">
  <path transform="scale(1,-1)" d="M 516,729 C 568,729 598,769 598,808 C 598,844 574,867 536,867 C 485,867 454,827 454,788 C 454,752 478,729 516,729 Z M 472,704 C 252,704 59,535 59,267 C 59,94 155,-14 318,-14 C 394,-14 451,4 496,42 L 539,111 L 529,0 L 640,0 L 702,352 L 424,352 L 404,244 L 550,244 C 520,147 447,89 358,89 C 268,89 208,156 208,284 C 208,476 319,601 452,601 C 543,601 588,561 589,466 L 589,456 L 727,456 L 728,466 C 738,602 659,704 472,704 Z "/>
</svg>
