<svg xmlns="http://www.w3.org/2000/svg" viewBox="0 -970 496 1200">
  <path transform="scale(1,-1)" d="M 274,764 C 127,764 32,655 32,530 C 32,428 103,344 223,344 C 370,344 465,453 465,578 C 465,680 394,764 274,764 Z M 232,396 C 141,396 87,452 87,532 C 87,631 152,713 265,713 C 356,713 410,656 410,576 C 410,477 345,396 232,396 Z M 284,662 C 276,663 268,663 258,663 L 189,663 L 152,454 L 208,454 L 220,523 L 238,523 C 253,523 262,516 261,501 C 261,483 262,469 266,454 L 328,454 C 320,472 318,491 319,508 C 319,530 312,545 294,550 C 328,559 345,580 345,607 C 345,638 323,658 284,662 Z M 261,568 C 255,567 250,567 243,567 L 228,567 L 237,620 L 251,620 C 258,620 262,620 269,619 C 279,617 287,610 287,597 C 287,581 277,571 261,568 Z "/>
</svg>
