<svg xmlns="http://www.w3.org/2000/svg" viewBox="0 -970 936 1200">
  <path transform="scale(1,-1)" d="M 898,230 C 908,262 915,302 915,337 C 915,454 848,544 712,544 C 628,544 554,514 501,454 C 485,504 441,544 332,544 C 202,544 95,476 72,356 L 206,356 C 219,415 260,447 317,447 C 371,447 394,421 394,373 C 394,362 393,349 388,320 L 343,320 C 100,320 12,229 12,123 C 12,39 81,-14 188,-14 C 252,-14 303,-1 353,34 L 406,99 C 437,20 507,-14 598,-14 C 722,-14 834,49 882,173 L 744,173 C 725,116 676,83 617,83 C 560,83 519,114 519,200 C 519,209 520,219 521,230 L 898,230 Z M 684,447 C 761,447 778,387 774,320 L 541,320 C 568,406 620,447 684,447 Z M 370,207 C 357,131 299,83 234,83 C 186,83 158,103 158,140 C 158,205 216,231 328,231 C 342,231 358,231 374,230 L 370,207 Z "/>
</svg>
