<svg xmlns="http://www.w3.org/2000/svg" viewBox="0 -970 619 1200">
  <path transform="scale(1,-1)" d="M 402,754 C 193,754 129,637 97,453 L 17,0 L 155,0 L 236,461 C 257,581 295,651 383,651 C 444,651 471,623 471,580 C 471,561 467,540 450,514 C 381,477 351,437 351,383 C 351,333 369,304 408,259 C 436,228 447,200 447,175 C 447,135 421,98 355,98 C 333,98 309,100 267,111 L 248,7 C 286,-1 317,-4 366,-4 C 519,-4 593,78 593,171 C 593,221 576,262 534,306 C 505,336 495,359 495,385 C 495,419 515,442 572,468 C 606,512 618,552 618,591 C 618,684 545,754 402,754 Z "/>
</svg>
