<svg xmlns="http://www.w3.org/2000/svg" viewBox="0 -970 637 1200">
  <path transform="scale(1,-1)" d="M 649,500 L 602,557 L 524,491 C 484,525 427,546 352,546 C 134,546 32,381 32,222 C 32,176 41,133 61,97 L -18,30 L 29,-27 L 107,40 C 147,6 204,-14 278,-14 C 496,-14 598,151 598,310 C 598,355 589,397 570,433 L 649,500 Z M 179,225 C 179,335 233,449 340,449 C 379,449 407,433 425,407 L 180,199 C 179,207 179,216 179,225 Z M 451,307 C 451,197 397,83 290,83 C 252,83 224,98 206,123 L 450,331 C 451,323 451,315 451,307 Z "/>
</svg>
