<svg xmlns="http://www.w3.org/2000/svg" viewBox="0 -970 616 1200">
  <path transform="scale(1,-1)" d="M 317,611 C 328,611 339,607 361,599 C 396,584 413,581 434,581 C 482,581 506,610 520,687 L 450,687 C 447,668 440,661 430,661 C 420,661 408,664 385,673 C 351,687 334,690 312,690 C 264,690 240,661 226,585 L 296,585 C 299,603 307,611 317,611 Z M 345,546 C 127,546 25,381 25,222 C 25,90 103,-14 272,-14 C 489,-14 591,151 591,310 C 591,442 514,546 345,546 Z M 284,83 C 207,83 172,145 172,225 C 172,335 226,449 333,449 C 410,449 445,387 445,307 C 445,197 390,83 284,83 Z "/>
</svg>
