<svg xmlns="http://www.w3.org/2000/svg" viewBox="0 -970 674 1200">
  <path transform="scale(1,-1)" d="M 667,404 L 573,404 L 590,497 L 452,497 L 436,404 L 399,404 C 381,404 359,404 341,405 C 293,408 257,429 257,483 C 257,561 304,601 390,601 C 429,601 456,599 496,591 L 514,694 C 482,701 450,704 406,704 C 228,704 111,621 111,489 C 111,421 151,372 214,353 C 97,334 15,258 15,146 C 15,23 124,-14 264,-14 C 353,-14 434,-4 504,10 L 554,296 L 648,296 L 667,404 Z M 417,296 L 381,97 C 344,90 320,89 286,89 C 209,89 166,110 166,172 C 166,242 214,287 315,294 C 335,296 349,296 371,296 L 417,296 Z "/>
</svg>
