<svg xmlns="http://www.w3.org/2000/svg" viewBox="0 -970 354 1200">
  <path transform="scale(1,-1)" d="M 251,437 L 356,437 L 372,528 L 267,528 L 290,659 L 153,659 L 130,528 L 54,528 L 38,437 L 114,437 L 67,175 C 58,128 55,100 55,80 C 55,37 73,10 113,-3 L 58,-84 C 113,-78 149,-89 149,-116 C 149,-139 125,-153 81,-153 C 62,-153 45,-152 27,-146 L 16,-202 C 33,-208 56,-210 88,-210 C 167,-210 235,-180 235,-113 C 235,-75 208,-49 158,-41 L 179,-11 L 181,-11 C 215,-11 248,-8 279,-1 L 295,90 C 230,81 200,91 200,133 C 200,148 202,161 207,191 L 251,437 Z "/>
</svg>
