<svg xmlns="http://www.w3.org/2000/svg" viewBox="0 -970 916 1200">
  <path transform="scale(1,-1)" d="M 727,546 C 679,546 639,538 602,511 L 547,449 C 535,505 488,546 404,546 C 356,546 319,536 284,515 L 235,456 L 248,532 L 111,532 L 17,0 L 155,0 L 203,273 C 222,382 274,449 331,449 C 380,449 406,422 406,373 C 406,347 401,316 394,277 L 346,0 L 483,0 L 531,273 L 532,276 C 551,381 606,449 662,449 C 709,449 734,422 734,373 C 734,346 729,314 723,277 L 674,0 L 812,0 L 868,317 C 876,361 880,388 880,416 C 880,488 833,546 727,546 Z "/>
</svg>
