<svg xmlns="http://www.w3.org/2000/svg" viewBox="0 -970 572 1200">
  <path transform="scale(1,-1)" d="M 263,83 C 210,83 170,123 170,206 C 170,341 232,447 326,447 C 386,447 420,412 422,338 L 558,338 C 558,459 491,544 341,544 C 144,544 23,389 23,206 C 23,75 95,6 200,-10 L 150,-84 C 205,-78 241,-89 241,-116 C 241,-139 217,-153 173,-153 C 154,-153 137,-152 119,-146 L 108,-202 C 125,-208 148,-210 180,-210 C 259,-210 327,-180 327,-113 C 327,-75 300,-49 250,-41 L 269,-14 C 401,-8 486,59 533,184 L 395,184 C 371,117 324,83 263,83 Z "/>
</svg>
