<svg xmlns="http://www.w3.org/2000/svg" viewBox="0 -970 769 1200">
  <path transform="scale(1,-1)" d="M 513,725 C 585,725 641,765 655,847 L 582,847 C 574,813 555,797 525,797 C 494,797 484,816 488,847 L 415,847 C 404,786 425,725 513,725 Z M 472,704 C 252,704 59,535 59,267 C 59,94 155,-14 318,-14 C 394,-14 451,4 496,42 L 539,111 L 529,0 L 640,0 L 702,352 L 424,352 L 404,244 L 550,244 C 520,147 447,89 358,89 C 268,89 208,156 208,284 C 208,476 319,601 452,601 C 543,601 588,561 589,466 L 589,456 L 727,456 L 728,466 C 738,602 659,704 472,704 Z "/>
</svg>
