<svg xmlns="http://www.w3.org/2000/svg" viewBox="0 -970 544 1200">
  <path transform="scale(1,-1)" d="M 232,575 C 265,575 302,603 302,646 C 302,678 281,697 247,697 C 214,697 177,669 177,626 C 177,595 197,575 232,575 Z M 407,575 C 441,575 477,603 477,646 C 477,678 456,697 423,697 C 389,697 353,669 353,626 C 353,595 373,575 407,575 Z M 602,532 L 449,532 L 244,111 L 187,532 L 33,532 L 149,-27 L 143,-39 C 114,-94 81,-114 36,-114 C 21,-114 8,-113 -6,-111 L -22,-205 C -3,-208 16,-210 38,-210 C 150,-210 213,-159 303,0 L 602,532 Z "/>
</svg>
