<svg xmlns="http://www.w3.org/2000/svg" viewBox="0 -970 781 1200">
  <path transform="scale(1,-1)" d="M 437,772 C 448,772 459,768 481,760 C 516,745 533,742 554,742 C 602,742 626,771 640,848 L 570,848 C 567,829 560,822 550,822 C 540,822 528,825 505,834 C 471,848 454,851 432,851 C 384,851 360,822 346,746 L 416,746 C 419,764 427,772 437,772 Z M 458,704 C 213,704 62,521 62,285 C 62,118 171,-14 369,-14 C 614,-14 765,169 765,405 C 765,572 656,704 458,704 Z M 380,89 C 270,89 209,170 209,288 C 209,429 285,601 447,601 C 556,601 618,520 618,402 C 618,261 542,89 380,89 Z "/>
</svg>
