<svg xmlns="http://www.w3.org/2000/svg" viewBox="0 -970 781 1200">
  <path transform="scale(1,-1)" d="M 398,729 C 431,729 467,757 467,799 C 467,831 446,850 413,850 C 379,850 343,823 343,780 C 343,749 363,729 398,729 Z M 571,729 C 604,729 640,757 640,799 C 640,831 619,850 586,850 C 552,850 516,823 516,780 C 516,749 536,729 571,729 Z M 458,704 C 213,704 62,521 62,285 C 62,118 171,-14 369,-14 C 614,-14 765,169 765,405 C 765,572 656,704 458,704 Z M 380,89 C 270,89 209,170 209,288 C 209,429 285,601 447,601 C 556,601 618,520 618,402 C 618,261 542,89 380,89 Z "/>
</svg>
