<svg xmlns="http://www.w3.org/2000/svg" viewBox="0 -970 850 1200">
  <path transform="scale(1,-1)" d="M 425,752 C 195,752 25,584 25,355 C 25,126 195,-42 425,-42 C 655,-42 825,126 825,355 C 825,584 655,752 425,752 Z M 425,673 C 605,673 738,538 738,355 C 738,172 605,38 425,38 C 245,38 112,172 112,355 C 112,538 245,673 425,673 Z M 433,584 C 298,584 209,494 209,354 C 209,213 297,125 425,125 C 550,125 618,196 637,301 L 515,301 C 509,243 476,212 432,212 C 373,212 337,262 337,356 C 337,443 366,497 429,497 C 483,497 509,461 516,408 L 638,408 C 624,513 553,584 433,584 Z "/>
</svg>
