<svg xmlns="http://www.w3.org/2000/svg" viewBox="0 -970 616 1200">
  <path transform="scale(1,-1)" d="M 275,575 C 308,575 345,603 345,646 C 345,678 324,697 290,697 C 257,697 220,669 220,626 C 220,595 240,575 275,575 Z M 450,575 C 484,575 520,603 520,646 C 520,678 499,697 466,697 C 432,697 396,669 396,626 C 396,595 416,575 450,575 Z M 345,546 C 127,546 25,381 25,222 C 25,90 103,-14 272,-14 C 489,-14 591,151 591,310 C 591,442 514,546 345,546 Z M 284,83 C 207,83 172,145 172,225 C 172,335 226,449 333,449 C 410,449 445,387 445,307 C 445,197 390,83 284,83 Z "/>
</svg>
