<svg xmlns="http://www.w3.org/2000/svg" viewBox="0 -970 637 1200">
  <path transform="scale(1,-1)" d="M 616,644 L 602,704 L 511,680 C 489,708 462,729 429,745 L 316,695 C 343,680 366,665 384,648 L 284,622 L 298,561 L 426,594 C 450,553 457,507 459,460 L 425,517 C 392,539 365,546 321,546 C 117,546 23,364 23,208 C 23,82 106,-14 264,-14 C 502,-14 589,191 589,376 C 589,474 576,559 545,625 L 616,644 Z M 274,88 C 209,88 168,127 168,217 C 168,306 211,444 336,444 C 396,444 444,400 444,323 C 444,226 403,88 274,88 Z "/>
</svg>
