<svg xmlns="http://www.w3.org/2000/svg" viewBox="0 -970 580 1200">
  <path transform="scale(1,-1)" d="M 263,575 C 296,575 333,603 333,646 C 333,678 312,697 278,697 C 245,697 208,669 208,626 C 208,595 228,575 263,575 Z M 438,575 C 472,575 508,603 508,646 C 508,678 487,697 454,697 C 420,697 384,669 384,626 C 384,595 404,575 438,575 Z M 165,230 L 541,230 C 551,262 558,302 558,336 C 558,454 483,546 334,546 C 137,546 23,385 23,202 C 23,52 122,-14 249,-14 C 378,-14 484,49 527,173 L 389,173 C 370,116 321,83 262,83 C 205,83 164,117 164,203 L 165,230 Z M 320,449 C 383,449 418,409 418,343 C 418,336 418,329 417,320 L 180,320 C 203,394 248,449 320,449 Z "/>
</svg>
