<svg xmlns="http://www.w3.org/2000/svg" viewBox="0 -970 778 1200">
  <path transform="scale(1,-1)" d="M 807,635 L 760,692 L 680,624 C 629,674 555,704 460,704 C 215,704 64,521 64,285 C 64,229 76,176 100,132 L 10,55 L 57,-2 L 144,72 C 196,19 272,-14 371,-14 C 615,-14 766,169 766,405 C 766,465 752,520 726,566 L 807,635 Z M 211,288 C 211,429 286,601 448,601 C 506,601 551,578 580,539 L 216,230 C 213,248 211,268 211,288 Z M 620,402 C 620,261 544,89 382,89 C 320,89 274,115 245,158 L 612,470 C 617,449 620,426 620,402 Z "/>
</svg>
