<svg xmlns="http://www.w3.org/2000/svg" viewBox="0 -970 617 1200">
  <path transform="scale(1,-1)" d="M 372,566 C 444,566 495,614 495,678 C 495,728 459,759 403,759 C 330,759 279,711 279,647 C 279,597 315,566 372,566 Z M 394,707 C 414,707 426,695 426,674 C 426,648 410,619 380,619 C 360,619 348,631 348,651 C 348,678 364,707 394,707 Z M 600,532 L 463,532 L 421,291 C 394,143 333,85 264,84 C 201,83 179,117 179,166 C 179,186 182,214 189,253 L 240,532 L 102,532 L 47,229 C 37,175 35,151 35,123 C 35,42 88,-14 196,-14 C 248,-14 288,-4 331,23 L 384,82 L 369,0 L 507,0 L 600,532 Z "/>
</svg>
