<svg xmlns="http://www.w3.org/2000/svg" viewBox="0 -970 486 1200">
  <path transform="scale(1,-1)" d="M 295,311 C 221,335 193,353 193,394 C 193,426 215,453 264,453 C 307,453 330,425 335,376 L 472,376 C 468,473 409,544 269,544 C 123,544 48,467 48,377 C 48,288 105,254 190,226 C 275,197 302,175 302,137 C 302,95 268,71 222,71 C 172,71 133,94 127,156 L -11,156 C -7,69 45,4 150,-15 L 103,-84 C 158,-78 194,-89 194,-116 C 194,-139 170,-153 126,-153 C 107,-153 90,-152 72,-146 L 61,-202 C 78,-208 101,-210 133,-210 C 212,-210 280,-180 280,-113 C 280,-75 253,-49 203,-41 L 218,-20 C 356,-19 447,47 447,150 C 447,233 399,278 295,311 Z "/>
</svg>
