<svg xmlns="http://www.w3.org/2000/svg" viewBox="0 -970 625 1200">
  <path transform="scale(1,-1)" d="M 538,454 L 498,502 L 430,446 C 404,467 371,480 332,481 C 294,482 260,472 233,457 L 189,508 L 133,460 L 175,407 C 147,370 132,325 132,286 C 132,258 138,230 150,207 L 84,150 L 125,102 L 189,155 C 215,134 248,121 287,121 C 327,121 361,131 389,147 L 433,95 L 487,141 L 444,194 C 474,231 489,276 489,316 C 489,345 483,372 471,396 L 538,454 Z M 215,291 C 215,344 251,403 322,403 C 372,403 405,367 405,311 C 405,258 369,199 297,199 C 247,199 215,235 215,291 Z "/>
</svg>
