<svg xmlns="http://www.w3.org/2000/svg" viewBox="0 -970 625 1200">
  <path transform="scale(1,-1)" d="M 462,365 C 536,388 606,443 606,542 C 606,639 533,704 398,704 C 228,704 120,613 120,486 C 120,424 153,384 199,365 C 114,340 31,271 31,157 C 31,35 125,-15 261,-15 C 421,-15 567,56 567,221 C 567,294 521,344 462,365 Z M 378,601 C 433,601 462,569 462,524 C 462,457 414,411 343,411 C 290,411 262,441 262,489 C 262,553 308,601 378,601 Z M 282,88 C 214,88 179,124 179,178 C 179,251 232,309 320,309 C 390,309 421,270 421,217 C 421,145 378,88 282,88 Z "/>
</svg>
