<svg xmlns="http://www.w3.org/2000/svg" viewBox="0 -970 552 1200">
  <path transform="scale(1,-1)" d="M 248,575 C 281,575 318,603 318,646 C 318,678 297,697 263,697 C 230,697 193,669 193,626 C 193,595 213,575 248,575 Z M 423,575 C 457,575 493,603 493,646 C 493,678 472,697 439,697 C 405,697 369,669 369,626 C 369,595 389,575 423,575 Z M 325,546 C 195,546 91,478 68,358 L 202,359 C 216,417 250,449 313,449 C 362,449 380,422 380,389 C 380,373 378,356 374,332 L 373,324 C 153,337 12,262 12,126 C 12,31 80,-14 160,-14 C 213,-14 260,-2 295,25 L 330,78 L 327,0 L 462,0 C 465,59 469,95 476,135 L 506,305 C 514,349 519,378 519,405 C 519,487 465,546 325,546 Z M 227,83 C 185,83 157,103 157,144 C 157,220 245,253 357,241 L 349,196 C 337,126 277,83 227,83 Z "/>
</svg>
