<svg xmlns="http://www.w3.org/2000/svg" viewBox="0 -970 603 1200">
  <path transform="scale(1,-1)" d="M 497,121 C 497,134 500,150 504,174 L 603,732 L 598,732 C 546,746 484,754 411,754 C 237,754 156,696 129,597 C 125,579 120,555 117,537 L 115,528 L 68,528 L 52,437 L 99,437 L 22,0 L 160,0 L 238,437 L 346,437 L 362,528 L 254,528 L 256,540 C 258,554 261,573 265,587 C 278,630 318,657 387,657 C 411,657 428,656 451,650 L 366,171 C 356,119 352,90 352,67 C 352,12 388,-7 456,-7 C 487,-7 512,-6 536,-2 L 552,87 C 513,85 497,94 497,121 Z "/>
</svg>
