<svg xmlns="http://www.w3.org/2000/svg" viewBox="0 -970 745 1200">
  <path transform="scale(1,-1)" d="M 456,704 C 237,704 60,529 60,271 C 60,90 166,-14 338,-14 C 515,-14 634,77 676,229 L 679,239 L 542,239 L 538,229 C 505,143 446,89 356,89 C 269,89 208,147 208,283 C 208,474 308,601 441,601 C 533,601 582,560 583,466 L 583,456 L 721,456 L 722,466 C 732,602 643,704 456,704 Z M 159,9 L 86,9 L 23,-84 C 78,-78 114,-89 114,-116 C 114,-139 90,-153 47,-153 C 27,-153 10,-152 -8,-146 L -18,-202 C -2,-208 22,-210 53,-210 C 133,-210 200,-180 200,-113 C 200,-75 174,-49 124,-41 L 159,9 Z "/>
</svg>
