<svg xmlns="http://www.w3.org/2000/svg" viewBox="0 -970 580 1200">
  <path transform="scale(1,-1)" d="M 356,584 C 411,584 442,625 442,668 C 442,705 417,730 376,730 C 321,730 290,689 290,646 C 290,608 315,584 356,584 Z M 165,230 L 541,230 C 551,262 558,302 558,336 C 558,454 483,546 334,546 C 137,546 23,385 23,202 C 23,52 122,-14 249,-14 C 378,-14 484,49 527,173 L 389,173 C 370,116 321,83 262,83 C 205,83 164,117 164,203 L 165,230 Z M 320,449 C 383,449 418,409 418,343 C 418,336 418,329 417,320 L 180,320 C 203,394 248,449 320,449 Z "/>
</svg>
