<svg xmlns="http://www.w3.org/2000/svg" viewBox="0 -970 599 1200">
  <path transform="scale(1,-1)" d="M 224,470 C 171,470 125,449 77,389 L 120,337 C 149,370 176,385 208,385 C 234,385 253,375 295,350 C 344,321 367,309 408,309 C 461,309 507,331 555,392 L 511,441 C 482,409 456,394 423,394 C 398,394 378,404 336,429 C 287,457 264,470 224,470 Z M 192,288 C 139,288 93,267 45,207 L 88,155 C 118,188 144,203 176,203 C 202,203 221,193 263,168 C 312,139 335,127 375,127 C 429,127 474,149 522,210 L 479,259 C 450,227 424,212 392,212 C 366,212 346,222 304,247 C 256,275 232,288 192,288 Z "/>
</svg>
