<svg xmlns="http://www.w3.org/2000/svg" viewBox="0 -970 895 1200">
  <path transform="scale(1,-1)" d="M 666,469 L 546,469 L 527,406 L 514,458 C 500,475 470,487 432,487 C 314,487 231,374 231,236 C 231,110 301,71 368,71 C 401,71 431,80 462,105 L 489,159 C 504,99 551,71 617,71 C 732,71 840,147 840,343 C 840,530 708,685 483,685 C 251,685 43,510 43,247 C 43,-13 236,-121 414,-121 C 498,-121 600,-98 690,-38 L 659,30 C 592,-18 507,-42 423,-42 C 244,-42 130,66 130,252 C 130,482 307,606 479,606 C 640,606 753,510 753,336 C 753,212 702,150 647,150 C 617,150 608,172 608,202 C 608,216 609,231 620,277 L 666,469 Z M 413,168 C 384,168 363,189 363,246 C 363,324 401,390 458,390 C 494,390 514,365 501,306 L 488,249 C 478,206 451,168 413,168 Z "/>
</svg>
