<svg xmlns="http://www.w3.org/2000/svg" viewBox="0 -970 625 1200">
  <path transform="scale(1,-1)" d="M 453,365 C 554,389 611,457 611,550 C 611,637 545,704 411,704 C 234,704 143,613 113,492 L 111,482 L 249,482 L 251,492 C 266,558 312,601 378,601 C 430,601 461,570 461,524 C 461,452 402,402 318,399 L 296,398 L 279,302 L 302,302 C 381,300 421,269 421,213 C 421,138 361,89 285,89 C 209,89 168,132 171,202 L 172,212 L 34,212 L 33,202 C 22,59 107,-14 262,-14 C 439,-14 570,83 570,229 C 570,300 529,345 453,365 Z "/>
</svg>
