<svg xmlns="http://www.w3.org/2000/svg" viewBox="0 -970 1017 1200">
  <path transform="scale(1,-1)" d="M 774,544 C 677,544 608,507 542,411 C 507,507 432,544 329,544 C 119,544 25,371 25,223 C 25,76 106,-14 245,-14 C 343,-14 413,24 480,120 C 515,24 588,-14 691,-14 C 899,-14 992,159 992,307 C 992,454 914,544 774,544 Z M 430,265 C 393,133 329,83 271,83 C 208,83 172,136 172,228 C 172,314 220,447 324,447 C 391,447 432,398 430,265 Z M 696,83 C 628,83 588,132 591,265 C 627,397 691,447 749,447 C 811,447 845,393 845,302 C 845,216 799,83 696,83 Z "/>
</svg>
