<svg xmlns="http://www.w3.org/2000/svg" viewBox="0 -970 645 1200">
  <path transform="scale(1,-1)" d="M 347,735 L 456,735 L 540,847 L 453,847 L 409,782 L 389,847 L 302,847 L 347,735 Z M 661,535 C 661,630 595,675 509,685 C 475,689 449,690 409,690 L 157,690 L 35,0 L 173,0 L 222,278 L 303,278 C 321,278 338,278 356,277 C 406,273 426,233 426,169 C 427,69 429,33 435,0 L 584,0 C 570,29 564,70 564,123 C 564,256 545,311 486,331 C 590,357 661,424 661,535 Z M 393,382 C 376,381 360,381 336,381 L 240,381 L 276,582 L 377,582 C 401,582 418,581 434,579 C 479,574 510,553 510,502 C 510,422 455,388 393,382 Z "/>
</svg>
