<svg xmlns="http://www.w3.org/2000/svg" viewBox="0 -970 599 1200">
  <path transform="scale(1,-1)" d="M 596,487 C 603,610 535,704 371,704 C 225,704 94,619 94,470 C 94,371 169,324 289,294 C 374,272 409,240 409,193 C 409,128 352,89 280,89 C 209,89 158,128 156,204 L 16,204 C 5,73 87,1 218,-12 L 169,-84 C 224,-78 260,-89 260,-116 C 260,-139 236,-153 193,-153 C 173,-153 156,-152 139,-146 L 128,-202 C 144,-208 168,-210 199,-210 C 279,-210 346,-180 346,-113 C 346,-75 320,-49 270,-41 L 289,-13 C 437,-4 559,78 559,219 C 559,314 499,375 372,406 C 279,429 243,456 243,503 C 243,566 290,601 353,601 C 425,601 460,557 456,487 L 596,487 Z "/>
</svg>
