<svg xmlns="http://www.w3.org/2000/svg" viewBox="0 -970 649 1200">
  <path transform="scale(1,-1)" d="M 426,573 L 506,737 L 432,737 L 327,582 L 327,573 L 426,573 Z M 633,532 L 496,532 L 482,455 L 457,512 C 433,533 381,546 337,546 C 125,546 22,373 22,199 C 22,74 94,-11 227,-11 C 281,-11 332,3 365,26 L 417,86 L 416,80 C 412,57 407,35 403,15 C 383,-70 323,-113 239,-113 C 167,-113 127,-82 130,-33 L 131,-24 L -4,-24 L -5,-34 C -14,-151 71,-216 218,-216 C 407,-216 509,-136 543,30 C 549,59 557,100 563,133 L 633,532 Z M 278,86 C 208,86 169,131 169,217 C 169,336 235,449 342,449 C 440,449 466,369 452,286 L 453,291 L 446,251 L 447,260 C 424,131 354,86 278,86 Z "/>
</svg>
