<svg xmlns="http://www.w3.org/2000/svg" viewBox="0 -970 505 1200">
  <path transform="scale(1,-1)" d="M 215,730 C 160,730 129,689 129,646 C 129,608 154,584 195,584 C 250,584 281,625 281,668 C 281,705 256,730 215,730 Z M 458,730 C 405,730 373,699 373,644 C 373,608 399,584 443,584 C 496,584 528,615 528,669 C 528,705 502,730 458,730 Z M 155,0 L 249,532 L 112,532 L 17,0 L 155,0 Z M 498,532 L 360,532 L 265,-10 C 262,-30 258,-47 254,-61 C 241,-101 211,-115 155,-109 L 137,-207 C 153,-209 170,-210 188,-210 C 311,-210 367,-160 389,-76 C 394,-58 399,-32 403,-12 L 498,532 Z "/>
</svg>
