<svg xmlns="http://www.w3.org/2000/svg" viewBox="0 -970 533 1200">
  <path transform="scale(1,-1)" d="M 495,246 C 503,273 508,312 508,344 C 508,459 443,543 317,543 C 114,543 25,347 25,198 C 25,66 96,-6 200,-13 C 135,-52 103,-104 103,-156 C 103,-205 137,-223 173,-223 C 207,-223 236,-213 259,-195 L 266,-158 C 244,-175 224,-182 203,-182 C 180,-182 166,-170 166,-140 C 166,-94 205,-39 270,-9 C 357,6 435,62 475,167 L 411,167 C 376,80 304,35 230,35 C 155,35 92,83 92,200 C 92,214 93,230 95,246 L 495,246 Z M 307,493 C 388,493 445,446 445,341 C 445,327 444,312 442,295 L 104,295 C 128,393 189,493 307,493 Z "/>
</svg>
