<svg xmlns="http://www.w3.org/2000/svg" viewBox="0 -970 549 1200">
  <path transform="scale(1,-1)" d="M 519,254 C 519,343 457,397 341,429 C 264,451 213,484 213,544 C 213,608 256,655 326,655 C 394,655 435,616 445,542 L 510,542 C 499,639 440,704 334,704 C 210,704 146,622 146,543 C 146,498 162,465 187,440 C 91,415 41,352 41,281 C 41,185 116,140 204,111 C 313,78 351,44 351,-18 C 351,-87 297,-125 219,-125 C 151,-125 96,-89 86,-3 L 21,-3 C 32,-122 114,-174 210,-174 C 328,-174 418,-110 418,-12 C 418,33 402,68 372,96 C 466,118 519,181 519,254 Z M 312,136 C 290,146 265,156 237,164 C 164,186 108,218 108,287 C 108,352 161,394 243,402 C 262,392 284,384 307,377 C 405,347 452,313 452,249 C 452,185 396,141 312,136 Z "/>
</svg>
