<svg xmlns="http://www.w3.org/2000/svg" viewBox="0 -970 526 1200">
  <path transform="scale(1,-1)" d="M 229,35 C 153,35 92,86 92,203 C 92,366 183,494 312,494 C 398,494 441,445 443,356 L 508,356 C 508,468 446,543 324,543 C 130,543 25,372 25,201 C 25,73 93,-1 191,-12 L 147,-75 C 206,-69 236,-88 236,-121 C 236,-153 209,-176 158,-176 C 138,-176 122,-174 107,-169 L 100,-202 C 114,-207 131,-210 153,-210 C 224,-210 280,-182 280,-117 C 280,-79 255,-51 210,-44 L 232,-14 C 347,-10 429,50 476,165 L 412,165 C 376,80 310,35 229,35 Z "/>
</svg>
