<svg xmlns="http://www.w3.org/2000/svg" viewBox="0 -970 566 1200">
  <path transform="scale(1,-1)" d="M 540,529 L 478,529 L 432,266 C 403,101 317,38 226,36 C 144,35 112,80 112,141 C 112,166 115,195 123,240 L 175,529 L 113,529 L 60,233 C 49,175 47,155 47,125 C 47,40 101,-14 206,-14 C 264,-14 314,0 364,43 L 404,102 L 388,10 C 291,-29 243,-93 243,-156 C 243,-205 277,-223 313,-223 C 347,-223 376,-213 399,-195 L 406,-158 C 384,-175 364,-182 343,-182 C 320,-182 306,-170 306,-140 C 306,-88 355,-25 435,0 L 448,0 L 540,529 Z "/>
</svg>
