<svg xmlns="http://www.w3.org/2000/svg" viewBox="0 -970 652 1200">
  <path transform="scale(1,-1)" d="M 441,863 C 394,863 350,832 350,779 C 350,743 377,718 421,718 C 468,718 513,749 513,803 C 513,838 485,863 441,863 Z M 439,832 C 460,832 472,818 472,799 C 472,769 451,749 423,749 C 402,749 390,763 390,782 C 390,813 411,832 439,832 Z M 658,690 L 596,690 L 520,254 C 516,231 512,212 507,193 C 480,91 416,36 300,36 C 192,36 144,92 144,169 C 144,196 147,217 154,257 L 230,690 L 168,690 L 91,253 C 85,223 82,197 82,167 C 82,55 153,-14 291,-14 C 452,-14 537,63 567,185 C 572,206 576,227 580,249 L 658,690 Z "/>
</svg>
