<svg xmlns="http://www.w3.org/2000/svg" viewBox="0 -970 297 1200">
  <path transform="scale(1,-1)" d="M 184,435 C 184,461 189,495 215,564 C 243,641 250,664 250,692 C 250,759 203,780 132,780 L 118,780 L 111,737 L 125,737 C 177,737 204,722 204,689 C 204,665 199,645 173,574 C 144,493 138,460 138,429 C 138,387 161,357 207,351 C 111,335 94,239 94,125 C 94,3 76,-37 -12,-37 L -26,-37 L -34,-80 L -20,-80 C 110,-80 140,-21 139,135 C 139,269 160,320 245,328 L 252,372 C 203,377 184,401 184,435 Z "/>
</svg>
