<svg xmlns="http://www.w3.org/2000/svg" viewBox="0 -970 484 1200">
  <path transform="scale(1,-1)" d="M 364,78 C 364,88 366,101 373,140 L 478,735 C 450,747 401,754 356,754 C 238,754 167,699 142,610 C 137,591 132,568 129,550 L 125,525 L 78,525 L 69,475 L 116,475 L 32,0 L 94,0 L 178,475 L 286,475 L 295,525 L 187,525 L 192,555 C 194,570 199,590 204,607 C 220,660 261,705 345,705 C 367,705 391,703 409,696 L 311,138 C 300,81 298,64 298,51 C 298,7 324,-4 361,-4 C 378,-4 395,-4 411,-1 L 419,45 C 380,42 364,53 364,78 Z "/>
</svg>
