<svg xmlns="http://www.w3.org/2000/svg" viewBox="0 -970 575 1200">
  <path transform="scale(1,-1)" d="M 543,676 L 529,714 L 450,684 C 426,710 396,730 358,745 L 314,708 C 347,696 373,681 393,662 L 256,609 L 270,571 L 420,629 C 449,584 458,525 461,454 L 430,509 C 397,534 362,544 313,544 C 114,544 25,341 25,204 C 25,84 92,-14 222,-14 C 434,-14 522,181 522,381 C 522,507 508,591 474,649 L 543,676 Z M 228,35 C 148,35 92,91 92,205 C 92,325 158,495 311,495 C 389,495 454,446 454,345 C 454,211 392,35 228,35 Z "/>
</svg>
