<svg xmlns="http://www.w3.org/2000/svg" viewBox="0 -970 571 1200">
  <path transform="scale(1,-1)" d="M 302,631 C 311,631 322,628 345,620 C 370,611 386,607 404,607 C 433,607 453,622 459,667 L 428,667 C 425,652 418,647 408,647 C 399,647 388,650 365,658 C 340,667 324,671 306,671 C 277,671 258,656 251,611 L 282,611 C 285,626 292,631 302,631 Z M 361,543 C 303,543 253,528 203,486 L 164,428 L 182,529 L 120,529 L 27,0 L 89,0 L 135,263 L 135,264 C 164,428 251,491 341,492 C 423,493 456,449 456,387 C 456,362 452,333 444,289 L 392,0 L 454,0 L 508,296 C 518,353 520,373 520,404 C 520,489 466,543 361,543 Z "/>
</svg>
