<svg xmlns="http://www.w3.org/2000/svg" viewBox="0 -970 561 1200">
  <path transform="scale(1,-1)" d="M 501,469 L 475,501 L 404,441 C 378,466 343,481 303,481 C 258,481 221,469 191,450 L 146,503 L 110,473 L 154,419 C 118,380 100,329 100,284 C 100,251 108,221 123,195 L 54,136 L 80,104 L 149,162 C 175,136 209,121 249,121 C 295,121 333,133 363,153 L 407,100 L 443,131 L 400,184 C 435,222 453,272 453,318 C 453,351 445,382 430,408 L 501,469 Z M 258,165 C 193,165 147,214 147,288 C 147,356 199,437 295,437 C 359,437 406,390 406,314 C 406,246 353,165 258,165 Z "/>
</svg>
