<svg xmlns="http://www.w3.org/2000/svg" viewBox="0 -970 709 1200">
  <path transform="scale(1,-1)" d="M 445,704 C 229,704 60,524 61,270 C 60,124 126,25 242,-5 L 191,-75 C 251,-69 280,-88 280,-121 C 280,-153 254,-176 202,-176 C 182,-176 166,-174 151,-169 L 145,-202 C 159,-207 176,-210 198,-210 C 269,-210 325,-182 325,-117 C 325,-79 300,-51 255,-44 L 278,-12 C 291,-13 304,-14 318,-14 C 493,-14 595,87 638,219 L 641,229 L 579,229 L 575,219 C 534,114 458,36 330,36 C 211,36 130,115 130,278 C 130,500 268,654 433,654 C 557,654 625,597 625,475 L 625,465 L 687,465 L 688,475 C 694,606 611,704 445,704 Z "/>
</svg>
