<svg xmlns="http://www.w3.org/2000/svg" viewBox="0 -970 981 1200">
  <path transform="scale(1,-1)" d="M 942,246 C 951,277 956,312 956,344 C 956,459 897,544 772,544 C 678,544 592,496 535,397 C 513,493 444,544 337,544 C 111,544 25,339 25,208 C 25,81 95,-14 239,-14 C 347,-14 431,37 485,133 C 507,31 578,-14 664,-14 C 769,-14 874,41 923,167 L 858,167 C 824,80 750,35 675,35 C 600,35 539,83 539,198 C 539,212 540,229 542,246 L 942,246 Z M 248,35 C 154,35 93,102 93,212 C 93,327 163,495 329,495 C 444,495 489,407 481,301 C 469,169 387,35 248,35 Z M 761,495 C 840,495 894,448 894,342 C 894,328 892,312 890,295 L 552,295 C 583,428 670,495 761,495 Z "/>
</svg>
