<svg xmlns="http://www.w3.org/2000/svg" viewBox="0 -970 746 1200">
  <path transform="scale(1,-1)" d="M 400,747 C 421,747 443,767 443,789 C 443,806 431,819 413,819 C 391,819 369,800 369,777 C 369,760 382,747 400,747 Z M 513,747 C 535,747 557,767 557,789 C 557,806 545,819 526,819 C 505,819 483,800 483,777 C 483,760 495,747 513,747 Z M 446,704 C 187,704 62,488 62,286 C 62,114 165,-14 337,-14 C 596,-14 721,202 721,404 C 721,576 619,704 446,704 Z M 350,36 C 219,36 130,134 130,286 C 130,456 232,654 434,654 C 564,654 654,557 654,404 C 654,234 551,36 350,36 Z "/>
</svg>
