<svg xmlns="http://www.w3.org/2000/svg" viewBox="0 -970 743 1200">
  <path transform="scale(1,-1)" d="M 770,641 L 744,673 L 662,604 C 615,666 542,704 448,704 C 189,704 64,488 64,286 C 64,226 76,171 100,126 L 10,49 L 37,17 L 122,90 C 169,25 243,-14 339,-14 C 598,-14 723,202 723,404 C 723,466 710,522 685,568 L 770,641 Z M 131,286 C 131,456 234,654 435,654 C 512,654 575,620 613,562 L 152,170 C 138,203 131,242 131,286 Z M 655,404 C 655,234 553,36 351,36 C 272,36 209,71 171,131 L 632,524 C 647,490 655,449 655,404 Z "/>
</svg>
