<svg xmlns="http://www.w3.org/2000/svg" viewBox="0 -970 561 1200">
  <path transform="scale(1,-1)" d="M 391,363 C 482,385 554,461 554,554 C 554,641 492,704 381,704 C 244,704 142,631 117,504 L 115,494 L 177,494 L 179,504 C 199,604 275,654 365,654 C 438,654 483,611 483,541 C 483,439 384,377 289,377 L 272,377 L 262,325 L 279,325 C 389,325 438,284 438,209 C 438,102 351,36 243,36 C 146,36 90,93 97,194 L 98,204 L 36,204 L 35,194 C 24,50 104,-14 229,-14 C 380,-14 508,75 508,219 C 508,295 465,344 391,363 Z "/>
</svg>
