<svg xmlns="http://www.w3.org/2000/svg" viewBox="0 -970 838 1200">
  <path transform="scale(1,-1)" d="M 654,543 C 604,543 559,529 523,497 L 471,431 C 464,498 420,543 337,543 C 287,543 242,529 207,497 L 166,437 L 182,529 L 120,529 L 27,0 L 89,0 L 138,277 C 162,415 234,493 309,493 C 375,493 407,460 407,393 C 407,363 403,335 394,284 L 344,0 L 406,0 L 454,277 C 479,415 551,493 626,493 C 691,493 724,459 724,393 C 724,361 719,333 711,284 L 661,0 L 723,0 L 777,312 C 786,360 789,377 789,411 C 789,488 745,543 654,543 Z "/>
</svg>
