<svg xmlns="http://www.w3.org/2000/svg" viewBox="0 -970 725 1200">
  <path transform="scale(1,-1)" d="M 218,386 C 331,386 384,486 384,574 C 384,651 337,704 262,704 C 150,704 96,604 96,516 C 96,439 143,386 218,386 Z M 693,690 L 625,690 L 58,0 L 126,0 L 693,690 Z M 256,659 C 301,659 322,626 322,578 C 322,501 287,431 224,431 C 180,431 158,464 158,513 C 158,589 193,659 256,659 Z M 535,304 C 422,304 369,204 369,116 C 369,39 415,-14 491,-14 C 603,-14 657,86 657,174 C 657,251 610,304 535,304 Z M 496,31 C 452,31 430,64 430,113 C 430,189 466,259 529,259 C 573,259 595,226 595,178 C 595,101 560,31 496,31 Z "/>
</svg>
