<svg xmlns="http://www.w3.org/2000/svg" viewBox="0 -970 486 1200">
  <path transform="scale(1,-1)" d="M 234,594 C 255,594 277,614 277,636 C 277,654 265,667 247,667 C 226,667 204,647 204,625 C 204,608 216,594 234,594 Z M 355,594 C 377,594 399,614 399,636 C 399,654 386,667 368,667 C 347,667 325,647 325,625 C 325,608 337,594 355,594 Z M 530,529 L 459,529 L 201,47 L 113,529 L 43,529 L 157,-19 L 145,-40 C 94,-132 56,-158 4,-158 C -6,-158 -15,-158 -27,-155 L -35,-207 C -23,-209 -11,-210 3,-210 C 87,-210 137,-171 233,0 L 530,529 Z "/>
</svg>
