<svg xmlns="http://www.w3.org/2000/svg" viewBox="0 -970 561 1200">
  <path transform="scale(1,-1)" d="M 362,651 C 426,640 463,591 465,511 L 531,511 C 529,608 480,689 371,702 L 385,780 L 340,780 L 327,704 C 166,699 99,595 99,500 C 99,398 169,350 259,321 L 209,38 C 133,48 93,98 87,184 L 22,184 C 25,89 71,0 200,-12 L 186,-90 L 231,-90 L 244,-14 C 399,-10 485,75 485,184 C 485,281 427,340 314,377 L 362,651 Z M 166,507 C 166,577 213,648 318,654 L 271,387 C 208,408 166,445 166,507 Z M 302,312 C 378,286 418,251 418,181 C 418,99 363,41 253,36 L 302,312 Z "/>
</svg>
