<svg xmlns="http://www.w3.org/2000/svg" viewBox="0 -970 566 1200">
  <path transform="scale(1,-1)" d="M 331,568 C 382,568 426,605 426,658 C 426,695 398,719 358,719 C 306,719 262,681 262,629 C 262,592 290,568 331,568 Z M 352,689 C 373,689 385,675 385,654 C 385,621 364,598 336,598 C 315,598 303,611 303,633 C 303,665 324,689 352,689 Z M 540,529 L 478,529 L 432,266 C 403,101 317,38 226,36 C 144,35 112,80 112,141 C 112,166 115,195 123,240 L 175,529 L 113,529 L 60,233 C 49,175 47,155 47,125 C 47,40 101,-14 206,-14 C 264,-14 314,0 364,43 L 404,102 L 386,0 L 448,0 L 540,529 Z "/>
</svg>
