<svg xmlns="http://www.w3.org/2000/svg" viewBox="0 -970 746 1200">
  <path transform="scale(1,-1)" d="M 514,747 C 535,747 557,767 557,789 C 557,806 545,819 527,819 C 505,819 483,800 483,777 C 483,760 495,747 514,747 Z M 457,704 C 237,704 60,518 60,270 C 60,102 151,-14 314,-14 C 397,-14 475,16 532,80 L 570,143 L 545,0 L 601,0 L 658,323 L 408,323 L 399,272 L 587,272 C 559,116 436,36 327,36 C 207,36 130,127 130,278 C 130,500 277,654 445,654 C 568,654 627,596 627,475 L 627,465 L 689,465 L 690,475 C 696,606 623,704 457,704 Z "/>
</svg>
