<svg xmlns="http://www.w3.org/2000/svg" viewBox="0 -970 574 1200">
  <path transform="scale(1,-1)" d="M 300,631 C 309,631 320,628 343,620 C 368,611 384,607 402,607 C 431,607 451,622 457,667 L 426,667 C 423,652 416,647 406,647 C 397,647 386,650 363,658 C 338,667 322,671 304,671 C 275,671 256,656 249,611 L 280,611 C 283,626 290,631 300,631 Z M 326,543 C 116,543 27,357 27,218 C 27,93 94,-14 248,-14 C 458,-14 547,171 547,311 C 547,435 480,543 326,543 Z M 256,35 C 153,35 95,111 95,219 C 95,343 169,493 318,493 C 421,493 479,418 479,310 C 479,185 404,35 256,35 Z "/>
</svg>
