<svg xmlns="http://www.w3.org/2000/svg" viewBox="0 -970 533 1200">
  <path transform="scale(1,-1)" d="M 268,594 C 289,594 311,614 311,636 C 311,654 299,667 281,667 C 260,667 238,647 238,625 C 238,608 250,594 268,594 Z M 389,594 C 411,594 433,614 433,636 C 433,654 420,667 402,667 C 381,667 359,647 359,625 C 359,608 371,594 389,594 Z M 495,246 C 503,273 508,312 508,344 C 508,459 443,543 317,543 C 114,543 25,347 25,198 C 25,59 104,-14 218,-14 C 324,-14 427,41 475,167 L 411,167 C 376,80 304,35 230,35 C 155,35 92,83 92,200 C 92,214 93,230 95,246 L 495,246 Z M 307,493 C 388,493 445,446 445,341 C 445,327 444,312 442,295 L 104,295 C 128,393 189,493 307,493 Z "/>
</svg>
