<svg xmlns="http://www.w3.org/2000/svg" viewBox="0 -970 574 1200">
  <path transform="scale(1,-1)" d="M 284,594 C 305,594 327,614 327,636 C 327,654 315,667 297,667 C 276,667 254,647 254,625 C 254,608 266,594 284,594 Z M 405,594 C 427,594 449,614 449,636 C 449,654 436,667 418,667 C 397,667 375,647 375,625 C 375,608 387,594 405,594 Z M 326,543 C 116,543 27,357 27,218 C 27,93 94,-14 248,-14 C 458,-14 547,171 547,311 C 547,435 480,543 326,543 Z M 256,35 C 153,35 95,111 95,219 C 95,343 169,493 318,493 C 421,493 479,418 479,310 C 479,185 404,35 256,35 Z "/>
</svg>
