<svg xmlns="http://www.w3.org/2000/svg" viewBox="0 -970 593 1200">
  <path transform="scale(1,-1)" d="M 395,736 L 483,830 L 423,830 L 353,736 L 395,736 Z M 604,540 C 604,626 550,675 462,686 C 431,690 404,690 369,690 L 165,690 L 43,0 L 105,0 L 160,312 L 302,312 C 318,312 338,312 357,311 C 423,307 441,258 442,193 C 444,65 449,30 455,0 L 522,0 C 511,26 505,66 504,143 C 503,283 484,328 428,339 C 519,355 604,424 604,540 Z M 383,366 C 358,364 342,364 313,364 L 169,364 L 217,638 L 360,638 C 393,638 414,637 438,634 C 500,625 536,592 536,529 C 536,433 471,373 383,366 Z "/>
</svg>
