<svg xmlns="http://www.w3.org/2000/svg" viewBox="0 -970 652 1200">
  <path transform="scale(1,-1)" d="M 379,819 C 357,819 335,800 335,777 C 335,760 348,747 366,747 C 387,747 409,767 409,789 C 409,806 397,819 379,819 Z M 492,819 C 471,819 449,800 449,777 C 449,760 461,747 479,747 C 501,747 523,767 523,789 C 523,806 511,819 492,819 Z M 658,690 L 596,690 L 520,254 C 516,231 512,212 507,193 C 480,91 416,36 300,36 C 192,36 144,92 144,169 C 144,196 147,217 154,257 L 230,690 L 168,690 L 91,253 C 85,223 82,197 82,167 C 82,55 153,-14 291,-14 C 452,-14 537,63 567,185 C 572,206 576,227 580,249 L 658,690 Z "/>
</svg>
