<svg xmlns="http://www.w3.org/2000/svg" viewBox="0 -970 561 1200">
  <path transform="scale(1,-1)" d="M 398,362 C 482,387 549,459 549,550 C 549,641 479,704 364,704 C 217,704 115,614 115,493 C 115,430 151,383 203,363 C 106,338 24,260 24,152 C 24,36 117,-15 231,-15 C 365,-15 508,57 508,215 C 508,285 466,342 398,362 Z M 355,654 C 439,654 481,606 481,542 C 481,446 405,383 307,383 C 224,383 182,427 182,496 C 182,583 250,654 355,654 Z M 241,35 C 153,35 93,81 93,159 C 93,251 162,333 294,333 C 395,333 439,278 439,210 C 439,102 352,35 241,35 Z "/>
</svg>
