<svg xmlns="http://www.w3.org/2000/svg" viewBox="0 -970 849 1200">
  <path transform="scale(1,-1)" d="M 618,465 L 558,465 L 541,399 L 528,451 C 511,471 482,483 445,483 C 320,483 231,359 231,224 C 231,103 305,67 365,67 C 405,67 440,82 473,117 L 492,156 C 498,97 542,75 593,75 C 689,75 790,156 790,334 C 790,530 658,664 467,664 C 266,664 54,507 54,243 C 54,9 221,-104 393,-104 C 481,-104 571,-84 674,-15 L 655,23 C 573,-36 485,-60 395,-60 C 238,-60 102,43 102,245 C 102,483 293,620 463,620 C 620,620 742,518 742,331 C 742,193 676,119 606,119 C 568,119 553,140 553,169 C 553,181 554,195 560,222 L 618,465 Z M 508,262 C 487,172 437,116 379,116 C 332,116 298,149 298,230 C 298,337 361,434 447,434 C 502,434 538,390 517,301 L 508,262 Z "/>
</svg>
