<svg xmlns="http://www.w3.org/2000/svg" viewBox="0 -970 557 1200">
  <path transform="scale(1,-1)" d="M 552,505 C 559,617 493,704 355,704 C 214,704 104,621 104,489 C 104,400 172,357 283,327 C 390,299 438,262 438,187 C 438,93 356,36 251,36 C 148,36 83,91 83,190 L 17,190 C 9,63 97,-8 222,-14 L 178,-75 C 238,-69 267,-88 267,-121 C 267,-153 241,-176 189,-176 C 169,-176 153,-174 138,-169 L 132,-202 C 146,-207 163,-210 185,-210 C 256,-210 312,-182 312,-117 C 312,-79 286,-51 242,-44 L 264,-13 C 406,-5 507,77 507,198 C 507,299 443,352 318,385 C 219,411 173,441 173,507 C 173,603 252,654 341,654 C 432,654 491,599 487,505 L 552,505 Z "/>
</svg>
