<svg xmlns="http://www.w3.org/2000/svg" viewBox="0 -970 549 1200">
  <path transform="scale(1,-1)" d="M 197,439 C 145,439 106,417 66,367 L 94,339 C 125,377 149,393 185,393 C 215,393 237,381 275,359 C 322,332 345,319 382,319 C 434,319 474,344 514,394 L 485,419 C 455,381 431,365 394,365 C 364,365 342,377 304,400 C 257,427 235,439 197,439 Z M 167,272 C 116,272 76,250 36,199 L 65,172 C 95,210 119,226 156,226 C 186,226 208,214 246,191 C 292,164 315,152 353,152 C 405,152 444,176 484,227 L 456,252 C 425,214 402,198 365,198 C 335,198 313,210 275,232 C 228,259 205,272 167,272 Z "/>
</svg>
