<svg xmlns="http://www.w3.org/2000/svg" viewBox="0 -970 566 1200">
  <path transform="scale(1,-1)" d="M 275,594 C 296,594 318,614 318,636 C 318,654 306,667 288,667 C 267,667 245,647 245,625 C 245,608 257,594 275,594 Z M 396,594 C 418,594 440,614 440,636 C 440,654 427,667 409,667 C 388,667 366,647 366,625 C 366,608 378,594 396,594 Z M 540,529 L 478,529 L 432,266 C 403,101 317,38 226,36 C 144,35 112,80 112,141 C 112,166 115,195 123,240 L 175,529 L 113,529 L 60,233 C 49,175 47,155 47,125 C 47,40 101,-14 206,-14 C 264,-14 314,0 364,43 L 404,102 L 386,0 L 448,0 L 540,529 Z "/>
</svg>
