<svg xmlns="http://www.w3.org/2000/svg" viewBox="0 -970 281 1200">
  <path transform="scale(1,-1)" d="M 182,477 L 277,477 L 285,525 L 190,525 L 211,642 L 149,642 L 128,525 L 61,525 L 52,477 L 120,477 L 61,144 C 53,103 51,80 51,63 C 51,28 66,7 94,-2 L 42,-75 C 101,-69 131,-88 131,-121 C 131,-153 104,-176 53,-176 C 33,-176 17,-174 2,-169 L -5,-202 C 9,-207 26,-210 48,-210 C 119,-210 175,-182 175,-117 C 175,-79 150,-51 105,-44 L 131,-8 L 138,-8 C 159,-8 178,-5 195,-2 L 203,45 C 143,35 115,44 115,84 C 115,96 116,110 123,145 L 182,477 Z "/>
</svg>
