<svg xmlns="http://www.w3.org/2000/svg" viewBox="0 -970 622 1200">
  <path transform="scale(1,-1)" d="M 434,365 C 527,389 588,448 588,549 C 588,628 534,676 442,687 C 409,690 388,690 357,690 L 165,690 L 43,0 L 254,0 C 283,0 304,0 335,4 C 445,17 556,82 556,214 C 556,294 514,345 434,365 Z M 218,638 L 353,638 C 372,638 391,638 411,637 C 473,632 519,604 519,536 C 519,449 461,398 373,388 C 351,386 334,385 317,385 L 173,385 L 218,638 Z M 320,53 C 307,52 289,52 273,52 L 114,52 L 164,334 L 321,334 C 337,334 352,333 374,331 C 450,324 488,283 488,218 C 488,111 404,60 320,53 Z "/>
</svg>
