<svg xmlns="http://www.w3.org/2000/svg" viewBox="0 -970 652 1200">
  <path transform="scale(1,-1)" d="M 658,690 L 596,690 L 520,254 C 516,231 512,212 507,193 C 480,91 416,36 300,36 C 192,36 144,92 144,169 C 144,196 147,217 154,257 L 230,690 L 168,690 L 91,253 C 85,223 82,197 82,167 C 82,55 153,-14 291,-14 L 296,-14 C 231,-53 199,-105 199,-156 C 199,-205 233,-223 269,-223 C 303,-223 332,-213 355,-195 L 362,-158 C 340,-175 320,-182 299,-182 C 276,-182 262,-170 262,-140 C 262,-92 304,-34 374,-6 C 482,17 543,86 567,185 C 572,206 576,227 580,249 L 658,690 Z "/>
</svg>
