<svg xmlns="http://www.w3.org/2000/svg" viewBox="0 -970 453 1200">
  <path transform="scale(1,-1)" d="M 236,293 C 173,311 131,338 131,393 C 131,444 169,493 251,493 C 319,493 358,457 364,381 L 428,381 C 425,479 369,543 256,543 C 132,543 63,471 63,387 C 63,298 129,264 205,242 C 291,217 327,189 327,134 C 327,72 275,31 202,31 C 123,31 70,63 64,150 L 0,150 C 3,66 50,0 151,-15 L 108,-75 C 167,-69 197,-88 197,-121 C 197,-153 170,-176 119,-176 C 99,-176 83,-174 68,-169 L 61,-202 C 75,-207 92,-210 114,-210 C 185,-210 241,-182 241,-117 C 241,-79 216,-51 171,-44 L 190,-18 L 195,-18 C 315,-18 394,45 394,139 C 394,223 339,263 236,293 Z "/>
</svg>
