<svg xmlns="http://www.w3.org/2000/svg" viewBox="0 -970 392 1200">
  <path transform="scale(1,-1)" d="M 179,685 C 152,685 129,664 129,636 C 129,617 144,601 165,601 C 192,601 214,622 214,650 C 214,669 200,685 179,685 Z M 377,685 C 350,685 328,664 328,636 C 328,617 343,601 364,601 C 391,601 413,622 413,650 C 413,669 399,685 377,685 Z M 89,0 L 182,529 L 120,529 L 27,0 L 89,0 Z M 384,529 L 322,529 L 220,-57 C 215,-79 213,-92 208,-106 C 196,-148 165,-164 115,-156 L 105,-207 C 118,-210 130,-210 144,-210 C 211,-210 251,-179 268,-116 C 273,-98 278,-76 282,-56 L 384,529 Z "/>
</svg>
