<svg xmlns="http://www.w3.org/2000/svg" viewBox="0 -970 502 1200">
  <path transform="scale(1,-1)" d="M 279,631 C 288,631 299,628 322,620 C 347,611 363,607 381,607 C 410,607 430,622 436,667 L 405,667 C 402,652 395,647 385,647 C 376,647 365,650 342,658 C 317,667 301,671 283,671 C 254,671 235,656 228,611 L 259,611 C 262,626 269,631 279,631 Z M 307,543 C 188,543 102,476 80,372 L 144,372 C 165,454 220,493 305,493 C 377,493 404,457 404,405 C 404,389 402,370 395,333 L 392,313 C 190,328 19,274 19,119 C 19,28 87,-14 162,-14 C 226,-14 280,5 319,46 L 354,95 L 345,0 L 408,0 C 412,63 416,101 424,148 L 458,335 C 463,367 467,393 467,413 C 467,490 417,543 307,543 Z M 189,35 C 128,35 86,67 86,125 C 86,233 214,283 384,266 L 373,204 C 356,111 273,35 189,35 Z "/>
</svg>
