<svg xmlns="http://www.w3.org/2000/svg" viewBox="0 -970 899 1200">
  <path transform="scale(1,-1)" d="M 860,246 C 868,273 874,312 874,345 C 874,460 815,544 688,544 C 605,544 528,505 475,436 C 465,492 428,544 313,544 C 196,544 105,477 83,374 L 147,374 C 168,456 230,495 305,495 C 383,495 416,452 416,381 C 416,363 414,343 406,296 L 372,296 C 124,296 17,225 17,110 C 17,30 85,-14 170,-14 C 253,-14 308,8 366,65 L 401,121 C 420,36 481,-14 581,-14 C 687,-14 793,44 840,167 L 776,167 C 741,80 667,35 593,35 C 515,35 455,82 455,195 C 455,210 457,228 459,246 L 860,246 Z M 678,495 C 800,495 819,388 807,295 L 468,295 C 500,428 584,495 678,495 Z M 193,35 C 126,35 86,67 86,119 C 86,210 184,247 344,247 C 361,247 379,247 397,246 L 392,217 C 372,107 288,35 193,35 Z "/>
</svg>
