<svg xmlns="http://www.w3.org/2000/svg" viewBox="0 -970 746 1200">
  <path transform="scale(1,-1)" d="M 509,722 C 575,722 613,760 627,830 L 587,830 C 576,784 550,764 516,764 C 483,764 465,782 471,830 L 432,830 C 422,768 444,722 509,722 Z M 457,704 C 237,704 60,518 60,270 C 60,102 151,-14 314,-14 C 397,-14 475,16 532,80 L 570,143 L 545,0 L 601,0 L 658,323 L 408,323 L 399,272 L 587,272 C 559,116 436,36 327,36 C 207,36 130,127 130,278 C 130,500 277,654 445,654 C 568,654 627,596 627,475 L 627,465 L 689,465 L 690,475 C 696,606 623,704 457,704 Z "/>
</svg>
