<svg xmlns="http://www.w3.org/2000/svg" viewBox="0 -970 838 1200">
  <path transform="scale(1,-1)" d="M 784,689 L 753,720 L 672,639 C 605,700 517,737 419,737 C 210,737 43,569 43,355 C 43,258 78,170 136,103 L 54,21 L 85,-10 L 166,71 C 233,10 321,-27 419,-27 C 628,-27 795,142 795,355 C 795,453 760,541 703,608 L 784,689 Z M 91,355 C 91,543 237,693 419,693 C 504,693 581,660 639,606 L 168,135 C 120,194 91,271 91,355 Z M 419,17 C 334,17 257,50 199,104 L 670,574 C 718,516 747,439 747,355 C 747,166 602,17 419,17 Z "/>
</svg>
