<svg xmlns="http://www.w3.org/2000/svg" viewBox="0 -970 513 1200">
  <path transform="scale(1,-1)" d="M 282,764 C 127,764 41,644 41,530 C 41,425 112,344 233,344 C 388,344 474,464 474,579 C 474,683 402,764 282,764 Z M 239,381 C 139,381 79,445 79,530 C 79,628 149,727 275,727 C 376,727 435,663 435,579 C 435,480 365,381 239,381 Z M 293,658 C 285,659 277,659 268,659 L 207,659 L 171,455 L 210,455 L 222,528 L 252,528 C 270,528 279,522 279,502 C 279,483 280,470 284,455 L 327,455 C 321,472 319,491 320,511 C 321,529 313,542 297,548 C 330,556 347,577 347,604 C 347,634 327,654 293,658 Z M 270,563 C 263,562 258,562 251,562 L 228,562 L 239,627 L 262,627 C 269,627 274,627 280,626 C 296,623 305,614 305,597 C 305,577 292,565 270,563 Z "/>
</svg>
