<svg xmlns="http://www.w3.org/2000/svg" viewBox="0 -970 556 1200">
  <path transform="scale(1,-1)" d="M 374,754 C 195,754 137,623 112,484 L 27,0 L 89,0 L 175,490 C 193,592 238,704 367,704 C 444,704 485,665 485,606 C 485,575 478,545 454,511 C 372,471 341,430 341,377 C 341,334 357,308 398,264 C 439,221 452,188 452,156 C 452,107 415,45 314,45 C 288,45 257,48 217,58 L 208,7 C 246,-2 275,-4 308,-4 C 453,-4 520,80 520,158 C 520,212 493,253 450,296 C 418,330 407,350 407,379 C 407,419 431,446 505,480 C 540,524 552,568 552,607 C 552,694 488,754 374,754 Z "/>
</svg>
