<svg xmlns="http://www.w3.org/2000/svg" viewBox="0 -970 622 1200">
  <path transform="scale(1,-1)" d="M 629,513 L 603,544 L 512,467 C 476,513 419,543 338,543 C 128,543 40,357 40,218 C 40,171 49,127 69,90 L -17,17 L 9,-14 L 91,56 C 127,13 182,-14 260,-14 C 471,-14 559,171 559,311 C 559,355 551,396 533,432 L 629,513 Z M 107,219 C 107,343 182,493 330,493 C 390,493 435,467 462,424 L 121,134 C 112,159 107,188 107,219 Z M 491,310 C 491,185 417,35 269,35 C 211,35 167,58 140,98 L 479,386 C 487,363 491,338 491,310 Z "/>
</svg>
