<svg xmlns="http://www.w3.org/2000/svg" viewBox="0 -970 587 1200">
  <path transform="scale(1,-1)" d="M 373,581 L 429,712 L 392,712 L 319,587 L 319,581 L 373,581 Z M 562,530 L 500,530 L 483,430 L 461,486 C 434,523 385,543 328,543 C 127,543 26,366 26,201 C 26,79 93,-14 219,-14 C 282,-14 336,3 378,40 L 424,98 L 422,85 C 417,57 412,36 407,7 C 384,-102 313,-165 201,-165 C 111,-165 58,-124 60,-45 L 61,-33 L -2,-33 L -3,-45 C -8,-157 73,-214 191,-214 C 347,-214 440,-131 469,10 C 476,41 483,82 492,134 L 562,530 Z M 236,35 C 141,35 93,106 93,204 C 93,348 175,493 320,493 C 438,493 477,400 458,292 L 459,295 L 451,249 L 451,252 C 422,92 330,35 236,35 Z "/>
</svg>
