<svg xmlns="http://www.w3.org/2000/svg" viewBox="0 -970 651 1200">
  <path transform="scale(1,-1)" d="M 634,374 L 533,374 L 555,501 L 493,501 L 471,374 L 392,374 C 370,374 349,374 330,375 C 264,379 202,401 202,485 C 202,594 284,654 394,654 C 443,654 475,651 515,643 L 524,694 C 487,701 455,704 406,704 C 252,704 132,616 132,489 C 132,409 178,365 245,350 C 125,331 39,252 39,140 C 39,20 142,-14 280,-14 C 338,-14 408,-7 467,5 L 523,322 L 624,322 L 634,374 Z M 461,322 L 413,46 C 373,39 332,36 291,36 C 174,36 110,65 110,148 C 110,252 189,309 321,320 C 341,322 360,322 382,322 L 461,322 Z "/>
</svg>
