<svg xmlns="http://www.w3.org/2000/svg" viewBox="0 -970 994 1200">
  <path transform="scale(1,-1)" d="M 765,544 C 656,544 578,484 513,365 C 490,485 418,544 314,544 C 112,544 27,352 27,217 C 27,83 95,-14 228,-14 C 337,-14 414,45 480,167 C 503,45 576,-14 680,-14 C 882,-14 967,178 967,312 C 967,447 898,544 765,544 Z M 459,265 C 412,99 314,35 237,35 C 152,35 95,100 95,219 C 95,334 168,495 306,495 C 395,495 460,434 459,265 Z M 688,35 C 598,35 533,96 535,265 C 581,431 680,495 757,495 C 842,495 899,430 899,310 C 899,196 826,35 688,35 Z "/>
</svg>
