<svg xmlns="http://www.w3.org/2000/svg" viewBox="0 -970 561 1200">
  <path transform="scale(1,-1)" d="M 407,704 C 222,704 132,565 96,420 L 53,420 L 35,378 L 87,378 C 83,355 80,332 78,310 L 13,310 L -5,268 L 76,268 L 76,257 C 76,50 171,-14 307,-14 C 358,-14 408,-5 462,23 L 472,77 C 423,50 375,36 321,36 C 209,36 144,95 144,262 L 144,268 L 420,268 L 436,310 L 146,310 C 147,332 150,355 154,378 L 458,378 L 477,420 L 163,420 C 193,541 263,654 400,654 C 455,654 496,638 526,603 L 563,642 C 530,683 483,704 407,704 Z "/>
</svg>
