<svg xmlns="http://www.w3.org/2000/svg" viewBox="0 -970 746 1200">
  <path transform="scale(1,-1)" d="M 410,776 C 419,776 430,773 453,765 C 478,756 494,752 512,752 C 541,752 561,767 567,811 L 536,811 C 533,796 526,791 516,791 C 507,791 496,794 473,802 C 448,811 432,815 414,815 C 385,815 366,800 359,756 L 390,756 C 393,771 400,776 410,776 Z M 446,704 C 187,704 62,488 62,286 C 62,114 165,-14 337,-14 C 596,-14 721,202 721,404 C 721,576 619,704 446,704 Z M 350,36 C 219,36 130,134 130,286 C 130,456 232,654 434,654 C 564,654 654,557 654,404 C 654,234 551,36 350,36 Z "/>
</svg>
