<svg xmlns="http://www.w3.org/2000/svg" viewBox="0 -970 895 1200">
  <path transform="scale(1,-1)" d="M 671,469 L 552,469 L 533,405 L 520,458 C 505,475 476,487 438,487 C 319,487 236,374 236,236 C 236,110 307,71 374,71 C 406,71 437,80 467,105 L 494,159 C 509,99 556,71 622,71 C 737,71 846,147 846,343 C 846,530 714,685 488,685 C 253,685 49,510 49,247 C 49,-13 242,-121 420,-121 C 504,-121 605,-98 695,-38 L 664,30 C 598,-18 512,-42 429,-42 C 250,-42 136,66 136,252 C 136,477 312,606 485,606 C 645,606 758,510 758,336 C 758,212 707,150 653,150 C 623,150 613,172 613,202 C 613,216 615,231 625,277 L 671,469 Z M 418,168 C 389,168 369,189 369,246 C 369,324 407,390 464,390 C 499,390 520,365 506,306 L 494,249 C 483,206 457,168 418,168 Z "/>
</svg>
