<svg xmlns="http://www.w3.org/2000/svg" viewBox="0 -970 621 1200">
  <path transform="scale(1,-1)" d="M 261,612 C 270,612 282,608 306,599 C 339,586 355,582 379,582 C 428,582 452,612 452,688 L 382,688 C 382,669 377,662 367,662 C 358,662 346,665 322,675 C 290,688 274,691 249,691 C 201,691 176,662 176,586 L 246,586 C 246,605 251,612 261,612 Z M 559,397 C 548,490 483,546 370,546 C 319,546 280,536 242,509 L 201,446 L 201,532 L 63,532 L 63,0 L 201,0 L 201,243 C 201,391 254,449 321,449 C 388,449 419,411 423,355 C 425,328 425,303 425,281 L 425,0 L 563,0 L 563,300 C 563,343 562,370 559,397 Z "/>
</svg>
