<svg xmlns="http://www.w3.org/2000/svg" viewBox="0 -970 760 1200">
  <path transform="scale(1,-1)" d="M 324,851 C 276,851 251,822 251,746 L 321,746 C 321,764 326,772 336,772 C 345,772 357,768 381,758 C 414,746 430,742 454,742 C 503,742 527,771 527,848 L 457,848 C 457,829 452,822 442,822 C 433,822 421,825 397,835 C 365,848 349,851 324,851 Z M 695,0 L 694,690 L 557,690 L 557,373 C 557,314 558,230 562,156 L 272,690 L 89,690 L 89,0 L 227,0 L 227,312 C 227,370 226,449 222,524 L 506,0 L 695,0 Z "/>
</svg>
