<svg xmlns="http://www.w3.org/2000/svg" viewBox="0 -970 618 1200">
  <path transform="scale(1,-1)" d="M 216,575 C 252,575 278,600 278,636 C 278,672 252,697 216,697 C 180,697 154,672 154,636 C 154,600 180,575 216,575 Z M 392,575 C 428,575 454,600 454,636 C 454,672 428,697 392,697 C 356,697 330,672 330,636 C 330,600 356,575 392,575 Z M 554,532 L 416,532 L 416,261 C 416,141 368,84 299,84 C 235,84 203,119 196,174 C 193,201 192,230 192,247 L 192,532 L 54,532 L 54,218 C 54,175 55,148 59,121 C 71,48 137,-14 247,-14 C 298,-14 336,-4 375,22 L 416,90 L 416,0 L 554,0 L 554,532 Z "/>
</svg>
