<svg xmlns="http://www.w3.org/2000/svg" viewBox="0 -970 599 1200">
  <path transform="scale(1,-1)" d="M 573,239 C 573,341 506,397 358,437 C 260,464 230,491 230,545 C 230,588 258,613 294,613 C 337,613 362,584 372,531 L 510,531 C 497,635 426,704 300,704 C 175,704 89,632 89,523 C 89,492 98,466 113,443 C 60,413 27,363 27,295 C 27,188 103,137 220,104 C 342,69 372,35 372,-14 C 372,-59 339,-83 296,-83 C 248,-83 209,-54 195,3 L 57,3 C 71,-117 165,-174 292,-174 C 413,-174 513,-113 513,-1 C 513,37 503,68 483,94 C 537,123 573,173 573,239 Z M 285,200 C 210,221 167,252 167,300 C 167,337 183,360 206,370 C 234,357 267,345 303,335 C 396,307 432,278 432,226 C 432,197 416,173 390,162 C 360,176 325,188 285,200 Z "/>
</svg>
