<svg xmlns="http://www.w3.org/2000/svg" viewBox="0 -970 645 1200">
  <path transform="scale(1,-1)" d="M 318,567 C 389,567 438,602 438,693 L 365,693 C 363,655 347,639 318,639 C 289,639 273,655 271,693 L 198,693 C 198,602 246,567 318,567 Z M 580,532 L 442,532 L 442,461 L 407,516 C 380,535 326,546 282,546 C 145,546 27,453 27,260 C 27,104 120,-3 270,-3 C 324,-3 372,11 402,34 L 442,93 L 442,80 C 442,57 442,35 441,15 C 436,-70 384,-113 299,-113 C 228,-113 182,-82 176,-33 L 175,-24 L 41,-24 L 42,-34 C 54,-151 141,-216 297,-216 C 465,-216 573,-136 579,30 C 580,59 580,100 580,133 L 580,532 Z M 304,94 C 222,94 170,163 170,272 C 170,394 229,449 309,449 C 373,449 442,406 442,286 L 442,271 C 442,141 380,94 304,94 Z "/>
</svg>
