<svg xmlns="http://www.w3.org/2000/svg" viewBox="0 -970 625 1200">
  <path transform="scale(1,-1)" d="M 430,365 C 513,387 558,444 558,524 C 558,625 479,704 329,704 C 168,704 82,612 70,492 L 69,482 L 206,482 L 207,492 C 214,557 252,601 314,601 C 375,601 412,564 412,508 C 412,443 364,402 291,399 L 268,398 L 268,302 L 291,302 C 381,300 428,263 428,194 C 428,131 379,89 306,89 C 236,89 188,132 178,202 L 176,212 L 38,212 L 39,202 C 54,59 151,-14 307,-14 C 462,-14 574,69 574,199 C 574,289 523,344 430,365 Z "/>
</svg>
