<svg xmlns="http://www.w3.org/2000/svg" viewBox="0 -970 608 1200">
  <path transform="scale(1,-1)" d="M 583,190 C 583,301 515,371 363,406 C 253,432 216,461 216,519 C 216,575 258,601 313,601 C 385,601 424,557 432,487 L 573,487 C 558,610 483,704 318,704 C 186,704 71,629 71,502 C 71,375 160,326 301,292 C 403,268 439,234 439,176 C 439,123 389,89 326,89 C 256,89 198,128 183,204 L 42,204 C 53,78 136,6 266,-10 L 229,-84 C 301,-79 325,-92 325,-119 C 325,-141 306,-153 264,-153 C 248,-153 229,-151 209,-144 L 209,-203 C 225,-208 243,-210 262,-210 C 346,-210 411,-184 411,-121 C 411,-75 380,-48 322,-41 L 336,-14 C 469,-11 583,63 583,190 Z "/>
</svg>
