<svg xmlns="http://www.w3.org/2000/svg" viewBox="0 -970 763 1200">
  <path transform="scale(1,-1)" d="M 190,702 C 95,702 36,641 36,538 C 36,435 95,373 190,373 C 286,373 345,435 345,538 C 345,641 286,702 190,702 Z M 214,0 L 662,690 L 555,690 L 107,0 L 214,0 Z M 190,629 C 227,629 248,597 248,538 C 248,479 227,446 190,446 C 153,446 133,479 133,538 C 133,597 153,629 190,629 Z M 573,315 C 478,315 418,254 418,151 C 418,48 478,-14 573,-14 C 669,-14 728,48 728,151 C 728,254 669,315 573,315 Z M 573,242 C 610,242 630,210 630,151 C 630,92 610,59 573,59 C 536,59 516,92 516,151 C 516,210 536,242 573,242 Z "/>
</svg>
