<svg xmlns="http://www.w3.org/2000/svg" viewBox="0 -970 673 1200">
  <path transform="scale(1,-1)" d="M 661,404 L 567,404 L 567,497 L 429,497 L 429,404 L 393,404 C 374,404 352,404 334,405 C 278,408 235,434 235,504 C 235,567 275,601 348,601 C 388,601 415,599 456,592 L 456,694 C 424,701 391,704 347,704 C 188,704 89,631 89,507 C 89,431 141,373 217,353 C 117,334 53,269 53,176 C 53,30 171,-14 332,-14 C 421,-14 499,-4 567,10 L 567,296 L 661,296 L 661,404 Z M 200,194 C 200,250 240,288 328,294 C 348,296 362,296 384,296 L 429,296 L 429,97 C 393,90 369,89 335,89 C 247,89 200,115 200,194 Z "/>
</svg>
