<svg xmlns="http://www.w3.org/2000/svg" viewBox="0 -970 702 1200">
  <path transform="scale(1,-1)" d="M 649,690 L 512,690 L 512,267 C 512,247 512,232 510,217 C 504,138 456,89 365,89 C 273,89 225,138 219,217 C 217,232 217,247 217,267 L 217,690 L 80,690 L 80,281 C 80,252 80,232 82,200 C 91,89 166,-8 347,-14 C 311,-42 284,-86 284,-137 C 284,-201 327,-223 388,-223 C 438,-223 476,-208 503,-184 L 503,-122 C 486,-137 470,-143 453,-143 C 429,-143 411,-130 411,-92 C 411,-50 433,-16 462,-4 C 585,24 640,107 647,200 C 649,232 649,252 649,281 L 649,690 Z "/>
</svg>
