<svg xmlns="http://www.w3.org/2000/svg" viewBox="0 -970 1107 1200">
  <path transform="scale(1,-1)" d="M 345,538 C 345,641 286,702 190,702 C 95,702 36,641 36,538 C 36,435 95,373 190,373 C 286,373 345,435 345,538 Z M 662,690 L 555,690 L 107,0 L 214,0 L 662,690 Z M 133,538 C 133,597 153,629 190,629 C 227,629 248,597 248,538 C 248,479 227,446 190,446 C 153,446 133,479 133,538 Z M 573,315 C 478,315 418,254 418,151 C 418,48 478,-14 573,-14 C 669,-14 728,48 728,151 C 728,254 669,315 573,315 Z M 917,315 C 822,315 763,254 763,151 C 763,48 822,-14 917,-14 C 1013,-14 1072,48 1072,151 C 1072,254 1013,315 917,315 Z M 573,59 C 536,59 516,92 516,151 C 516,210 536,242 573,242 C 610,242 630,210 630,151 C 630,92 610,59 573,59 Z M 917,59 C 880,59 860,92 860,151 C 860,210 880,242 917,242 C 954,242 975,210 975,151 C 975,92 954,59 917,59 Z "/>
</svg>
