<svg xmlns="http://www.w3.org/2000/svg" viewBox="0 -970 987 1200">
  <path transform="scale(1,-1)" d="M 955,277 C 955,422 869,546 711,546 C 626,546 554,512 509,434 C 464,512 391,546 303,546 C 126,546 27,428 27,266 C 27,105 126,-14 303,-14 C 390,-14 460,18 504,93 C 549,15 621,-14 698,-14 C 820,-14 920,49 947,173 L 809,173 C 800,116 757,83 698,83 C 635,83 585,121 576,230 L 953,230 C 955,248 955,264 955,277 Z M 303,83 C 220,83 170,152 170,266 C 170,381 220,449 303,449 C 386,449 436,381 436,266 C 436,152 386,83 303,83 Z M 580,320 C 592,406 636,449 700,449 C 766,449 804,403 813,320 L 580,320 Z "/>
</svg>
