<svg xmlns="http://www.w3.org/2000/svg" viewBox="0 -970 562 1200">
  <path transform="scale(1,-1)" d="M 372,0 L 507,0 C 499,59 497,95 497,135 L 497,307 C 497,336 496,364 494,389 C 486,481 430,546 281,546 C 154,546 57,478 53,358 L 187,359 C 191,417 221,449 276,449 C 330,449 354,422 358,385 C 360,367 360,351 360,335 L 360,324 L 326,324 C 133,324 33,258 33,141 C 33,40 112,-14 204,-14 C 254,-14 299,-4 336,21 L 362,78 L 372,0 Z M 257,83 C 208,83 176,105 176,152 C 176,222 250,247 360,239 L 360,196 C 360,122 313,83 257,83 Z "/>
</svg>
