<svg xmlns="http://www.w3.org/2000/svg" viewBox="0 -970 606 1200">
  <path transform="scale(1,-1)" d="M 215,575 C 251,575 277,600 277,636 C 277,672 251,697 215,697 C 179,697 153,672 153,636 C 153,600 179,575 215,575 Z M 391,575 C 427,575 453,600 453,636 C 453,672 427,697 391,697 C 355,697 329,672 329,636 C 329,600 355,575 391,575 Z M 303,546 C 126,546 27,428 27,266 C 27,105 126,-14 303,-14 C 480,-14 579,105 579,266 C 579,428 480,546 303,546 Z M 303,83 C 220,83 170,152 170,266 C 170,381 220,449 303,449 C 386,449 436,381 436,266 C 436,152 386,83 303,83 Z "/>
</svg>
