<svg xmlns="http://www.w3.org/2000/svg" viewBox="0 -970 601 1200">
  <path transform="scale(1,-1)" d="M 521,125 C 519,139 519,153 519,174 L 519,728 C 469,745 403,754 319,754 C 147,754 78,691 69,592 C 67,574 67,555 67,537 L 67,528 L 20,528 L 20,437 L 67,437 L 67,0 L 205,0 L 205,437 L 314,437 L 314,528 L 205,528 L 205,540 C 205,554 205,573 207,587 C 212,630 245,657 317,657 C 343,657 362,656 382,650 L 382,171 C 382,136 382,111 383,87 C 387,18 429,-7 492,-7 C 523,-7 553,-6 582,-2 L 582,87 C 539,83 524,92 521,125 Z "/>
</svg>
