<svg xmlns="http://www.w3.org/2000/svg" viewBox="0 -970 1006 1200">
  <path transform="scale(1,-1)" d="M 728,544 C 626,544 560,507 511,411 C 459,507 381,544 283,544 C 121,544 27,427 27,265 C 27,103 121,-14 277,-14 C 379,-14 447,24 497,120 C 548,24 624,-14 723,-14 C 885,-14 979,103 979,265 C 979,427 885,544 728,544 Z M 289,83 C 218,83 170,156 170,265 C 170,375 218,447 289,447 C 352,447 396,398 418,265 C 403,133 352,83 289,83 Z M 717,83 C 654,83 612,132 590,265 C 605,397 654,447 717,447 C 788,447 836,375 836,265 C 836,156 788,83 717,83 Z "/>
</svg>
