<svg xmlns="http://www.w3.org/2000/svg" viewBox="0 -970 618 1200">
  <path transform="scale(1,-1)" d="M 554,0 L 554,532 L 416,532 L 416,261 C 416,141 368,84 299,84 C 235,84 203,119 196,174 C 193,201 192,230 192,247 L 192,532 L 54,532 L 54,218 C 54,175 55,148 59,121 C 71,48 137,-14 247,-14 C 298,-14 336,-4 375,22 L 416,90 L 416,8 C 365,-16 318,-70 318,-137 C 318,-201 361,-223 422,-223 C 472,-223 510,-208 537,-184 L 537,-122 C 520,-137 504,-143 487,-143 C 463,-143 445,-130 445,-92 C 445,-43 475,-4 512,0 L 554,0 Z "/>
</svg>
