<svg xmlns="http://www.w3.org/2000/svg" viewBox="0 -970 526 1200">
  <path transform="scale(1,-1)" d="M 132,730 C 87,730 56,700 56,657 C 56,613 87,584 132,584 C 177,584 208,613 208,657 C 208,700 177,730 132,730 Z M 395,730 C 345,730 319,705 319,657 C 319,609 345,584 395,584 C 444,584 470,609 470,657 C 470,705 444,730 395,730 Z M 201,0 L 201,532 L 63,532 L 63,0 L 201,0 Z M 463,532 L 326,532 L 326,-14 C 326,-29 325,-46 324,-60 C 319,-101 293,-114 233,-109 L 233,-207 C 248,-209 265,-210 284,-210 C 406,-210 454,-160 461,-76 C 462,-58 463,-32 463,-12 L 463,532 Z "/>
</svg>
