<svg xmlns="http://www.w3.org/2000/svg" viewBox="0 -970 654 1200">
  <path transform="scale(1,-1)" d="M 376,735 L 497,847 L 373,847 L 298,735 L 376,735 Z M 589,174 C 581,251 555,308 487,334 C 569,357 622,413 622,502 C 622,621 541,673 441,685 C 407,689 381,690 341,690 L 89,690 L 89,0 L 227,0 L 227,278 L 307,278 C 325,278 342,278 361,277 C 417,273 445,228 454,154 C 461,89 471,47 488,0 L 639,0 C 611,39 598,90 589,174 Z M 227,381 L 227,582 L 328,582 C 353,582 370,581 386,579 C 440,572 477,548 477,481 C 477,414 433,387 378,382 C 363,381 346,381 322,381 L 227,381 Z "/>
</svg>
