<svg xmlns="http://www.w3.org/2000/svg" viewBox="0 -970 657 1200">
  <path transform="scale(1,-1)" d="M 492,372 C 561,396 599,443 599,514 C 599,607 537,672 425,686 C 391,690 371,690 336,690 L 89,690 L 89,0 L 340,0 C 379,0 401,0 436,4 C 528,17 625,78 625,206 C 625,295 581,349 492,372 Z M 227,582 L 327,582 C 343,582 361,581 377,579 C 423,573 455,548 455,496 C 455,446 430,418 380,410 C 364,408 348,407 331,407 L 227,407 L 227,582 Z M 393,110 C 380,109 363,109 347,109 L 227,109 L 227,304 L 342,304 C 358,304 374,303 391,301 C 441,296 480,269 480,205 C 480,147 441,114 393,110 Z "/>
</svg>
