<svg xmlns="http://www.w3.org/2000/svg" viewBox="0 -970 625 1200">
  <path transform="scale(1,-1)" d="M 493,301 C 493,338 482,373 463,401 L 518,457 L 469,506 L 413,451 C 385,470 350,481 313,481 C 276,481 241,470 213,451 L 157,506 L 107,457 L 163,401 C 144,372 133,338 133,301 C 133,264 144,230 163,202 L 107,146 L 157,97 L 212,151 C 241,132 276,121 313,121 C 350,121 385,132 414,151 L 469,96 L 518,146 L 463,201 C 482,230 493,264 493,301 Z M 313,199 C 257,199 218,240 218,301 C 218,362 257,403 313,403 C 368,403 407,362 407,301 C 407,240 368,199 313,199 Z "/>
</svg>
