<svg xmlns="http://www.w3.org/2000/svg" viewBox="0 -970 916 1200">
  <path transform="scale(1,-1)" d="M 853,414 C 841,487 783,546 682,546 C 634,546 598,536 568,515 L 516,445 C 495,503 440,546 353,546 C 305,546 270,536 240,515 L 201,451 L 201,532 L 63,532 L 63,0 L 201,0 L 201,273 C 201,396 235,449 297,449 C 350,449 381,419 388,364 C 391,337 392,308 392,277 L 392,0 L 529,0 L 529,273 C 529,396 564,449 626,449 C 679,449 709,419 716,364 C 719,337 720,308 720,277 L 720,0 L 858,0 L 858,317 C 858,360 857,387 853,414 Z "/>
</svg>
