<svg xmlns="http://www.w3.org/2000/svg" viewBox="0 -970 630 1200">
  <path transform="scale(1,-1)" d="M 607,501 L 550,558 L 485,493 C 440,527 381,546 309,546 C 132,546 33,428 33,266 C 33,199 50,139 84,92 L 23,31 L 80,-26 L 140,34 C 184,4 241,-14 309,-14 C 486,-14 585,105 585,266 C 585,330 569,388 540,434 L 607,501 Z M 176,266 C 176,381 226,449 309,449 C 347,449 378,435 401,409 L 184,192 C 179,214 176,239 176,266 Z M 442,266 C 442,152 393,83 309,83 C 274,83 245,95 223,117 L 436,330 C 440,311 442,289 442,266 Z "/>
</svg>
