<svg xmlns="http://www.w3.org/2000/svg" viewBox="0 -970 765 1200">
  <path transform="scale(1,-1)" d="M 339,772 C 348,772 360,768 384,758 C 417,746 433,742 457,742 C 506,742 530,771 530,848 L 460,848 C 460,829 455,822 445,822 C 436,822 424,825 400,835 C 368,848 352,851 327,851 C 279,851 254,822 254,746 L 324,746 C 324,764 329,772 339,772 Z M 392,704 C 179,704 51,562 51,345 C 51,129 179,-14 392,-14 C 604,-14 733,129 733,345 C 733,562 604,704 392,704 Z M 392,89 C 269,89 195,184 195,345 C 195,507 269,601 392,601 C 514,601 588,507 588,345 C 588,184 514,89 392,89 Z "/>
</svg>
