<svg xmlns="http://www.w3.org/2000/svg" viewBox="0 -970 625 1200">
  <path transform="scale(1,-1)" d="M 446,365 C 507,386 560,433 560,513 C 560,627 472,704 321,704 C 169,704 80,627 80,513 C 80,434 124,387 182,365 C 111,342 48,283 48,195 C 48,44 158,-15 311,-15 C 454,-15 577,44 577,195 C 577,283 516,342 446,365 Z M 319,601 C 382,601 418,562 418,507 C 418,448 380,411 318,411 C 257,411 223,448 223,507 C 223,562 259,601 319,601 Z M 313,88 C 236,88 193,131 193,198 C 193,262 236,309 312,309 C 394,309 432,261 432,197 C 432,132 395,88 313,88 Z "/>
</svg>
