<svg xmlns="http://www.w3.org/2000/svg" viewBox="0 -970 737 1200">
  <path transform="scale(1,-1)" d="M 377,730 C 419,730 449,759 449,800 C 449,840 419,869 377,869 C 335,869 305,840 305,800 C 305,759 335,730 377,730 Z M 405,352 L 405,244 L 551,244 C 537,147 474,89 385,89 C 277,89 197,177 197,349 C 197,506 277,601 389,601 C 481,601 533,551 550,466 L 552,456 L 690,456 L 689,466 C 675,602 578,704 391,704 C 198,704 51,567 51,341 C 51,122 172,-14 364,-14 C 440,-14 493,4 532,42 L 563,112 L 572,0 L 683,0 L 683,352 L 405,352 Z "/>
</svg>
