<svg xmlns="http://www.w3.org/2000/svg" viewBox="0 -970 935 1200">
  <path transform="scale(1,-1)" d="M 904,277 C 904,422 818,546 660,546 C 575,546 507,514 465,453 C 437,512 378,546 281,546 C 151,546 55,478 53,358 L 187,358 C 190,417 225,449 282,449 C 349,449 377,408 377,336 L 377,320 L 330,320 C 143,320 33,265 33,144 C 33,40 115,-14 229,-14 C 283,-14 339,-1 383,33 L 432,102 C 476,21 552,-14 644,-14 C 769,-14 869,49 895,173 L 758,173 C 748,116 706,83 647,83 C 584,83 534,121 525,230 L 902,230 C 904,248 904,264 904,277 Z M 528,320 C 540,406 585,449 649,449 C 715,449 753,403 762,320 L 528,320 Z M 378,212 C 378,131 330,83 264,83 C 208,83 176,105 176,154 C 176,219 245,236 378,230 L 378,212 Z "/>
</svg>
