<svg xmlns="http://www.w3.org/2000/svg" viewBox="0 -970 618 1200">
  <path transform="scale(1,-1)" d="M 304,566 C 366,566 410,606 410,663 C 410,720 366,759 304,759 C 242,759 198,720 198,663 C 198,606 242,566 304,566 Z M 304,707 C 326,707 342,691 342,663 C 342,635 326,619 304,619 C 282,619 266,635 266,663 C 266,691 282,707 304,707 Z M 554,532 L 416,532 L 416,261 C 416,141 368,84 299,84 C 235,84 203,119 196,174 C 193,201 192,230 192,247 L 192,532 L 54,532 L 54,218 C 54,175 55,148 59,121 C 71,48 137,-14 247,-14 C 298,-14 336,-4 375,22 L 416,90 L 416,0 L 554,0 L 554,532 Z "/>
</svg>
