<svg xmlns="http://www.w3.org/2000/svg" viewBox="0 -970 625 1200">
  <path transform="scale(1,-1)" d="M 577,185 C 577,296 515,359 359,408 L 359,601 C 409,587 432,549 438,497 L 573,497 C 560,606 493,689 359,702 L 359,780 L 277,780 L 277,702 C 167,688 74,623 74,500 C 74,386 149,333 277,292 L 277,89 C 225,101 191,137 182,194 L 47,194 C 57,66 145,-1 277,-12 L 277,-90 L 359,-90 L 359,-12 C 484,0 577,70 577,185 Z M 205,516 C 205,563 233,592 277,602 L 277,424 C 229,442 205,466 205,516 Z M 359,274 C 422,251 441,218 441,175 C 441,122 411,95 359,87 L 359,274 Z "/>
</svg>
