<svg xmlns="http://www.w3.org/2000/svg" viewBox="0 -970 578 1200">
  <path transform="scale(1,-1)" d="M 546,277 C 546,422 460,546 297,546 C 134,546 27,427 27,264 C 27,91 123,1 253,-12 C 216,-41 188,-85 188,-137 C 188,-201 231,-223 292,-223 C 342,-223 380,-208 407,-184 L 407,-122 C 390,-137 374,-143 357,-143 C 333,-143 315,-130 315,-92 C 315,-51 336,-18 364,-5 C 370,-4 376,-2 381,0 C 460,25 518,83 538,173 L 400,173 C 391,116 348,83 289,83 C 225,83 175,118 166,230 L 544,230 C 546,248 546,264 546,277 Z M 291,449 C 357,449 395,404 404,320 L 170,320 C 182,408 227,449 291,449 Z "/>
</svg>
