<svg xmlns="http://www.w3.org/2000/svg" viewBox="0 -970 608 1200">
  <path transform="scale(1,-1)" d="M 262,735 L 371,735 L 435,847 L 349,847 L 318,780 L 285,847 L 198,847 L 262,735 Z M 363,406 C 253,432 216,461 216,519 C 216,575 258,601 313,601 C 385,601 424,557 432,487 L 573,487 C 558,610 483,704 318,704 C 186,704 71,629 71,502 C 71,375 160,326 301,292 C 403,268 439,234 439,176 C 439,123 389,89 326,89 C 256,89 198,128 183,204 L 42,204 C 55,59 163,-14 328,-14 C 464,-14 583,60 583,190 C 583,301 515,371 363,406 Z "/>
</svg>
