<svg xmlns="http://www.w3.org/2000/svg" viewBox="0 -970 578 1200">
  <path transform="scale(1,-1)" d="M 203,575 C 239,575 265,600 265,636 C 265,672 239,697 203,697 C 167,697 141,672 141,636 C 141,600 167,575 203,575 Z M 379,575 C 415,575 441,600 441,636 C 441,672 415,697 379,697 C 343,697 317,672 317,636 C 317,600 343,575 379,575 Z M 546,277 C 546,422 460,546 297,546 C 134,546 27,427 27,264 C 27,77 140,-14 286,-14 C 411,-14 511,49 538,173 L 400,173 C 391,116 348,83 289,83 C 225,83 175,118 166,230 L 544,230 C 546,248 546,264 546,277 Z M 291,449 C 357,449 395,404 404,320 L 170,320 C 182,408 227,449 291,449 Z "/>
</svg>
