<svg xmlns="http://www.w3.org/2000/svg" viewBox="0 -970 640 1200">
  <path transform="scale(1,-1)" d="M 322,754 C 174,754 74,678 65,539 C 64,521 63,495 63,453 L 63,0 L 201,0 L 201,461 C 201,504 202,523 203,537 C 208,611 251,651 317,651 C 387,651 421,619 421,567 C 421,548 417,532 405,514 C 351,484 328,447 328,398 C 328,341 352,311 408,257 C 449,219 461,193 461,163 C 461,123 437,98 387,98 C 365,98 337,100 293,111 L 293,6 C 332,-2 358,-4 413,-4 C 516,-4 608,48 608,148 C 608,222 584,256 530,308 C 491,344 474,367 474,398 C 474,428 494,451 539,476 C 559,506 567,536 567,569 C 567,679 476,754 322,754 Z "/>
</svg>
