<svg xmlns="http://www.w3.org/2000/svg" viewBox="0 -970 497 1200">
  <path transform="scale(1,-1)" d="M 253,546 C 126,546 42,484 42,382 C 42,290 110,247 209,222 C 301,199 336,176 336,135 C 336,96 302,77 258,77 C 210,77 170,104 159,162 L 21,162 C 36,42 127,-14 256,-14 C 378,-14 475,38 475,145 C 475,243 411,287 302,315 C 214,337 181,358 181,398 C 181,431 203,455 244,455 C 290,455 317,427 326,378 L 464,378 C 452,475 380,546 253,546 Z M 314,-43 L 220,-43 L 150,-207 L 231,-207 L 314,-54 L 314,-43 Z "/>
</svg>
