<svg xmlns="http://www.w3.org/2000/svg" viewBox="0 -970 838 1200">
  <path transform="scale(1,-1)" d="M 812,680 L 755,737 L 677,659 C 607,718 517,754 419,754 C 201,754 23,579 23,355 C 23,256 58,166 115,97 L 26,8 L 83,-49 L 173,41 C 241,-12 326,-44 419,-44 C 637,-44 815,131 815,355 C 815,448 784,533 732,600 L 812,680 Z M 111,355 C 111,535 248,675 419,675 C 495,675 565,647 618,600 L 175,157 C 135,211 111,279 111,355 Z M 419,35 C 349,35 284,59 232,100 L 672,540 C 707,488 727,424 727,355 C 727,174 590,35 419,35 Z "/>
</svg>
