<svg xmlns="http://www.w3.org/2000/svg" viewBox="0 -970 565 1200">
  <path transform="scale(1,-1)" d="M 192,575 C 228,575 254,600 254,636 C 254,672 228,697 192,697 C 156,697 130,672 130,636 C 130,600 156,575 192,575 Z M 368,575 C 404,575 430,600 430,636 C 430,672 404,697 368,697 C 332,697 306,672 306,636 C 306,600 332,575 368,575 Z M 567,532 L 416,532 L 286,105 L 154,532 L 0,532 L 217,-25 L 210,-42 C 188,-95 157,-113 110,-113 C 96,-113 83,-113 69,-111 L 69,-206 C 89,-209 106,-210 131,-210 C 239,-210 297,-164 353,-20 L 567,532 Z "/>
</svg>
