<svg xmlns="http://www.w3.org/2000/svg" viewBox="0 -970 361 1200">
  <path transform="scale(1,-1)" d="M 228,437 L 338,437 L 338,528 L 228,528 L 228,659 L 90,659 L 90,528 L 12,528 L 12,437 L 90,437 L 90,175 C 90,145 90,122 92,98 C 96,44 116,12 165,-3 L 124,-84 C 196,-79 220,-92 220,-119 C 220,-141 201,-153 159,-153 C 143,-153 124,-151 104,-144 L 104,-203 C 120,-208 138,-210 157,-210 C 241,-210 306,-184 306,-121 C 306,-75 275,-48 217,-41 L 233,-11 L 238,-11 C 269,-11 298,-9 329,-4 L 329,86 C 252,80 233,92 229,144 C 228,158 228,173 228,191 L 228,437 Z "/>
</svg>
