<svg xmlns="http://www.w3.org/2000/svg" viewBox="0 -970 496 1200">
  <path transform="scale(1,-1)" d="M 248,764 C 124,764 38,677 38,554 C 38,431 124,344 248,344 C 372,344 458,431 458,554 C 458,677 372,764 248,764 Z M 248,396 C 157,396 93,461 93,554 C 93,647 157,713 248,713 C 339,713 403,647 403,554 C 403,461 339,396 248,396 Z M 298,553 C 321,560 339,576 339,604 C 339,637 315,658 271,662 C 262,663 254,663 244,663 L 170,663 L 170,454 L 225,454 L 225,523 L 243,523 C 259,523 269,515 272,497 C 274,480 276,466 279,454 L 341,454 C 336,465 331,481 328,508 C 326,530 318,548 298,553 Z M 259,568 C 252,567 248,567 239,567 L 225,567 L 225,620 L 240,620 C 248,620 252,620 259,619 C 271,617 279,609 279,594 C 279,581 272,571 259,568 Z "/>
</svg>
