<svg xmlns="http://www.w3.org/2000/svg" viewBox="0 -970 627 1200">
  <path transform="scale(1,-1)" d="M 544,641 L 528,704 L 451,683 C 422,707 388,728 348,745 L 238,684 C 266,673 291,660 313,646 L 224,622 L 240,558 L 373,594 C 405,556 423,511 428,460 L 384,517 C 347,539 319,546 281,546 C 143,546 27,444 27,263 C 27,102 118,-14 305,-14 C 442,-14 583,70 583,307 C 583,452 558,555 502,629 L 544,641 Z M 439,260 C 439,151 389,88 307,88 C 220,88 172,150 172,267 C 172,374 223,444 307,444 C 378,444 439,392 439,289 L 439,260 Z "/>
</svg>
