<svg xmlns="http://www.w3.org/2000/svg" viewBox="0 -970 702 1200">
  <path transform="scale(1,-1)" d="M 365,906 C 303,906 259,867 259,813 C 259,758 303,719 365,719 C 427,719 471,758 471,813 C 471,867 427,906 365,906 Z M 365,853 C 387,853 403,837 403,813 C 403,789 387,772 365,772 C 343,772 327,789 327,813 C 327,837 343,853 365,853 Z M 649,690 L 512,690 L 512,267 C 512,247 512,232 510,217 C 504,138 456,89 365,89 C 273,89 225,138 219,217 C 217,232 217,247 217,267 L 217,690 L 80,690 L 80,281 C 80,252 80,232 82,200 C 91,85 171,-14 365,-14 C 558,-14 638,85 647,200 C 649,232 649,252 649,281 L 649,690 Z "/>
</svg>
