<svg xmlns="http://www.w3.org/2000/svg" viewBox="0 -970 561 1200">
  <path transform="scale(1,-1)" d="M 289,83 C 220,83 170,139 170,271 C 170,392 220,449 290,449 C 347,449 387,417 400,340 L 536,340 C 526,458 437,546 293,546 C 147,546 27,444 27,262 C 27,98 114,7 236,-11 L 199,-84 C 271,-79 295,-92 295,-119 C 295,-141 276,-153 234,-153 C 218,-153 199,-151 179,-144 L 179,-203 C 195,-208 213,-210 232,-210 C 316,-210 381,-184 381,-121 C 381,-75 350,-48 292,-41 L 306,-13 C 426,-5 513,61 535,184 L 397,184 C 383,117 343,83 289,83 Z "/>
</svg>
