<svg xmlns="http://www.w3.org/2000/svg" viewBox="0 -970 765 1200">
  <path transform="scale(1,-1)" d="M 306,729 C 342,729 367,754 367,790 C 367,826 342,850 306,850 C 270,850 244,826 244,790 C 244,754 270,729 306,729 Z M 479,729 C 515,729 540,754 540,790 C 540,826 515,850 479,850 C 443,850 417,826 417,790 C 417,754 443,729 479,729 Z M 392,704 C 179,704 51,562 51,345 C 51,129 179,-14 392,-14 C 604,-14 733,129 733,345 C 733,562 604,704 392,704 Z M 392,89 C 269,89 195,184 195,345 C 195,507 269,601 392,601 C 514,601 588,507 588,345 C 588,184 514,89 392,89 Z "/>
</svg>
