<svg xmlns="http://www.w3.org/2000/svg" viewBox="0 -970 770 1200">
  <path transform="scale(1,-1)" d="M 741,635 L 684,692 L 621,629 C 564,677 487,704 394,704 C 181,704 53,562 53,345 C 53,257 74,181 114,122 L 47,55 L 104,-2 L 168,62 C 225,13 301,-14 394,-14 C 607,-14 735,129 735,345 C 735,433 714,509 674,568 L 741,635 Z M 198,345 C 198,507 272,601 394,601 C 452,601 499,580 533,541 L 216,224 C 204,258 198,299 198,345 Z M 591,345 C 591,184 517,89 394,89 C 336,89 289,110 256,150 L 573,467 C 585,433 591,392 591,345 Z "/>
</svg>
