<svg xmlns="http://www.w3.org/2000/svg" viewBox="0 -970 373 1200">
  <path transform="scale(1,-1)" d="M 282,389 C 217,394 200,421 200,455 C 200,480 203,507 210,554 C 219,615 222,640 222,669 C 222,749 180,780 86,780 L 53,780 L 53,702 L 71,702 C 124,702 141,691 141,658 C 141,640 139,623 130,564 C 122,508 118,475 118,452 C 118,397 147,360 202,348 C 147,337 118,303 118,248 C 118,225 122,192 130,136 C 139,78 141,60 141,42 C 141,9 124,-2 71,-2 L 53,-2 L 53,-80 L 86,-80 C 180,-80 222,-49 222,32 C 222,60 219,85 210,146 C 203,193 200,220 200,245 C 200,279 217,306 282,311 L 282,389 Z "/>
</svg>
