<svg xmlns="http://www.w3.org/2000/svg" viewBox="0 -970 625 1200">
  <path transform="scale(1,-1)" d="M 206,470 C 153,470 111,449 74,389 L 125,337 C 149,370 173,385 205,385 C 231,385 252,375 299,350 C 352,321 378,309 418,309 C 471,309 513,331 550,392 L 499,441 C 475,409 452,394 419,394 C 393,394 372,404 326,429 C 272,457 246,470 206,470 Z M 206,288 C 153,288 111,267 74,207 L 125,155 C 149,188 173,203 205,203 C 231,203 252,193 299,168 C 352,139 378,127 418,127 C 471,127 513,149 550,210 L 499,259 C 475,227 452,212 419,212 C 393,212 372,222 326,247 C 272,275 246,288 206,288 Z "/>
</svg>
