<svg xmlns="http://www.w3.org/2000/svg" viewBox="0 -970 625 1200">
  <path transform="scale(1,-1)" d="M 480,240 L 494,318 L 252,318 C 252,327 252,336 252,346 L 252,370 L 504,370 L 521,448 L 261,448 C 282,555 339,601 419,601 C 470,601 510,587 547,555 L 600,642 C 563,681 502,704 415,704 C 265,704 147,624 114,448 L 75,448 L 59,370 L 106,370 C 105,361 105,352 105,342 L 105,318 L 49,318 L 34,240 L 112,240 C 138,54 242,-14 395,-14 C 473,-14 520,-2 569,26 L 569,129 C 525,102 478,89 422,89 C 337,89 280,128 260,240 L 480,240 Z "/>
</svg>
