<svg xmlns="http://www.w3.org/2000/svg" viewBox="0 -970 718 1200">
  <path transform="scale(1,-1)" d="M 543,239 L 541,229 C 523,143 471,89 381,89 C 276,89 197,177 197,349 C 197,506 272,601 383,601 C 475,601 527,551 544,466 L 546,456 L 684,456 L 683,466 C 669,602 572,704 385,704 C 194,704 51,567 51,341 C 51,142 159,12 322,-10 L 285,-84 C 357,-79 381,-92 381,-119 C 381,-141 362,-153 320,-153 C 304,-153 285,-151 265,-144 L 265,-203 C 281,-208 299,-210 318,-210 C 402,-210 467,-184 467,-121 C 467,-75 436,-48 378,-41 L 392,-14 C 559,-8 664,87 679,229 L 680,239 L 543,239 Z "/>
</svg>
