<svg xmlns="http://www.w3.org/2000/svg" viewBox="0 -970 702 1200">
  <path transform="scale(1,-1)" d="M 279,850 C 243,850 217,826 217,790 C 217,754 243,729 279,729 C 315,729 340,754 340,790 C 340,826 315,850 279,850 Z M 452,850 C 416,850 390,826 390,790 C 390,754 416,729 452,729 C 488,729 513,754 513,790 C 513,826 488,850 452,850 Z M 649,690 L 512,690 L 512,267 C 512,247 512,232 510,217 C 504,138 456,89 365,89 C 273,89 225,138 219,217 C 217,232 217,247 217,267 L 217,690 L 80,690 L 80,281 C 80,252 80,232 82,200 C 91,85 171,-14 365,-14 C 558,-14 638,85 647,200 C 649,232 649,252 649,281 L 649,690 Z "/>
</svg>
