<svg xmlns="http://www.w3.org/2000/svg" viewBox="0 -970 373 1200">
  <path transform="scale(1,-1)" d="M 320,702 L 320,780 L 287,780 C 193,780 151,749 151,669 C 151,640 154,615 163,554 C 170,507 173,480 173,455 C 173,421 156,394 91,389 L 91,311 C 156,306 173,279 173,245 C 173,220 170,193 163,146 C 154,85 151,60 151,32 C 151,-49 193,-80 287,-80 L 320,-80 L 320,-2 L 302,-2 C 249,-2 232,9 232,42 C 232,60 234,78 243,136 C 251,192 255,225 255,248 C 255,304 226,340 171,352 C 226,363 255,397 255,452 C 255,475 251,508 243,564 C 234,623 232,640 232,658 C 232,691 249,702 302,702 L 320,702 Z "/>
</svg>
