<svg xmlns="http://www.w3.org/2000/svg" viewBox="0 -970 606 1200">
  <path transform="scale(1,-1)" d="M 250,612 C 259,612 271,608 295,599 C 328,586 344,582 368,582 C 417,582 441,612 441,688 L 371,688 C 371,669 366,662 356,662 C 347,662 335,665 311,675 C 279,688 263,691 238,691 C 190,691 165,662 165,586 L 235,586 C 235,605 240,612 250,612 Z M 303,546 C 126,546 27,428 27,266 C 27,105 126,-14 303,-14 C 480,-14 579,105 579,266 C 579,428 480,546 303,546 Z M 303,83 C 220,83 170,152 170,266 C 170,381 220,449 303,449 C 386,449 436,381 436,266 C 436,152 386,83 303,83 Z "/>
</svg>
