<svg xmlns="http://www.w3.org/2000/svg" viewBox="0 -970 497 1200">
  <path transform="scale(1,-1)" d="M 475,145 C 475,243 411,287 302,315 C 214,337 181,358 181,398 C 181,431 203,455 244,455 C 290,455 317,427 326,378 L 464,378 C 452,475 380,546 253,546 C 126,546 42,484 42,382 C 42,290 110,247 209,222 C 301,199 336,176 336,135 C 336,96 302,77 258,77 C 210,77 170,104 159,162 L 21,162 C 34,56 107,0 213,-12 L 177,-84 C 249,-79 273,-92 273,-119 C 273,-141 254,-153 212,-153 C 196,-153 177,-151 157,-144 L 157,-203 C 173,-208 191,-210 210,-210 C 294,-210 359,-184 359,-121 C 359,-75 328,-48 270,-41 L 284,-13 C 393,-5 475,46 475,145 Z "/>
</svg>
