<svg xmlns="http://www.w3.org/2000/svg" viewBox="0 -970 743 1200">
  <path transform="scale(1,-1)" d="M 424,763 C 436,763 448,774 448,787 C 448,796 442,803 432,803 C 420,803 408,792 408,779 C 408,770 414,763 424,763 Z M 494,763 C 506,763 518,774 518,787 C 518,796 512,803 502,803 C 490,803 478,792 478,779 C 478,770 484,763 494,763 Z M 444,704 C 204,704 68,484 68,287 C 68,101 182,-14 338,-14 C 578,-14 714,206 714,403 C 714,589 600,704 444,704 Z M 341,7 C 203,7 91,111 91,287 C 91,479 221,683 441,683 C 579,683 691,579 691,403 C 691,211 561,7 341,7 Z "/>
</svg>
