<svg xmlns="http://www.w3.org/2000/svg" viewBox="0 -970 935 1200">
  <path transform="scale(1,-1)" d="M 891,258 C 896,276 901,313 901,341 C 901,449 849,544 718,544 C 624,544 521,487 476,383 C 481,453 453,544 315,544 C 209,544 114,474 92,386 L 114,386 C 144,484 237,523 311,523 C 409,523 452,471 452,378 C 452,356 450,331 441,280 L 407,280 C 166,280 27,224 27,98 C 27,19 96,-14 177,-14 C 262,-14 336,20 400,96 L 434,163 C 437,77 484,-14 615,-14 C 715,-14 814,45 867,161 L 845,161 C 795,54 704,7 621,7 C 528,7 454,59 454,191 C 454,211 456,234 460,258 L 891,258 Z M 712,523 C 853,523 893,404 871,279 L 463,279 C 497,444 604,523 712,523 Z M 184,7 C 102,7 52,46 52,106 C 52,209 183,259 386,259 C 403,259 420,259 437,258 L 432,229 C 408,97 305,7 184,7 Z "/>
</svg>
