<svg xmlns="http://www.w3.org/2000/svg" viewBox="0 -970 699 1200">
  <path transform="scale(1,-1)" d="M 225,386 C 328,386 379,494 379,575 C 379,650 338,704 270,704 C 167,704 116,596 116,515 C 116,440 157,386 225,386 Z M 659,690 L 631,690 L 64,0 L 92,0 L 659,690 Z M 267,683 C 323,683 356,642 356,575 C 356,505 317,407 228,407 C 172,407 139,448 139,515 C 139,585 178,683 267,683 Z M 502,304 C 399,304 348,196 348,115 C 348,40 389,-14 457,-14 C 560,-14 611,94 611,175 C 611,250 570,304 502,304 Z M 460,7 C 404,7 371,48 371,115 C 371,185 410,283 499,283 C 555,283 588,242 588,175 C 588,105 549,7 460,7 Z "/>
</svg>
