<svg xmlns="http://www.w3.org/2000/svg" viewBox="0 -970 551 1200">
  <path transform="scale(1,-1)" d="M 291,650 C 300,650 314,647 336,639 C 362,630 379,626 395,626 C 419,626 433,641 434,667 L 414,667 C 412,652 405,647 395,647 C 386,647 372,650 350,658 C 324,667 307,671 291,671 C 267,671 253,656 252,630 L 272,630 C 274,645 281,650 291,650 Z M 314,540 C 113,540 26,348 26,214 C 26,84 98,-14 236,-14 C 437,-14 524,178 524,312 C 524,442 452,540 314,540 Z M 240,7 C 131,7 49,81 49,214 C 49,344 135,519 310,519 C 419,519 501,445 501,312 C 501,182 415,7 240,7 Z "/>
</svg>
