<svg xmlns="http://www.w3.org/2000/svg" viewBox="0 -970 287 1200">
  <path transform="scale(1,-1)" d="M 175,432 C 175,460 180,494 204,561 C 229,632 238,661 238,692 C 238,753 192,780 126,780 L 109,780 L 105,759 L 123,759 C 178,759 215,743 215,692 C 215,662 210,642 185,571 C 158,493 152,462 152,431 C 152,397 165,362 210,350 C 115,328 112,230 107,125 C 103,15 92,-59 -21,-59 L -39,-59 L -43,-80 L -26,-80 C 109,-80 126,5 130,135 C 133,233 137,329 237,339 L 241,361 C 192,366 175,397 175,432 Z "/>
</svg>
