<svg xmlns="http://www.w3.org/2000/svg" viewBox="0 -970 546 1200">
  <path transform="scale(1,-1)" d="M 522,530 L 500,530 L 478,405 L 461,463 C 427,518 387,540 309,540 C 128,540 25,367 25,199 C 25,75 94,-14 211,-14 C 289,-14 333,4 390,60 L 427,117 L 424,100 C 416,51 411,24 404,-11 C 380,-131 303,-199 179,-199 C 92,-199 22,-166 22,-62 L 22,-47 L 0,-47 L 0,-62 C 0,-173 76,-220 173,-220 C 317,-220 400,-137 425,-18 C 432,16 439,57 453,140 L 522,530 Z M 444,215 C 409,61 315,7 216,7 C 107,7 48,89 48,200 C 48,359 144,519 306,519 C 436,519 478,428 461,309 L 444,215 Z "/>
</svg>
