<svg xmlns="http://www.w3.org/2000/svg" viewBox="0 -970 727 1200">
  <path transform="scale(1,-1)" d="M 456,722 C 512,722 552,757 568,830 L 550,830 C 535,768 501,743 460,743 C 426,743 397,757 405,830 L 387,830 C 376,754 408,722 456,722 Z M 461,704 C 251,704 66,524 66,269 C 66,91 164,-14 314,-14 C 403,-14 502,23 576,119 L 608,184 L 575,0 L 597,0 L 651,307 L 396,307 L 393,287 L 626,287 C 588,75 424,7 319,7 C 190,7 90,93 90,270 C 90,537 281,683 453,683 C 590,683 661,607 661,484 L 661,474 L 683,474 L 683,484 C 683,608 612,704 461,704 Z "/>
</svg>
