<svg xmlns="http://www.w3.org/2000/svg" viewBox="0 -970 523 1200">
  <path transform="scale(1,-1)" d="M 479,258 C 484,276 489,312 489,340 C 489,448 441,540 311,540 C 123,540 24,346 24,204 C 24,58 103,-14 208,-14 C 216,-14 225,-14 233,-13 C 157,-58 121,-112 121,-165 C 121,-208 147,-223 175,-223 C 203,-223 227,-214 249,-195 L 253,-172 C 227,-194 206,-203 183,-203 C 160,-203 144,-192 144,-162 C 144,-99 195,-49 292,-1 C 357,22 414,73 455,161 L 433,161 C 383,54 297,7 214,7 C 129,7 47,60 47,205 C 47,221 49,239 52,258 L 479,258 Z M 308,519 C 394,519 466,475 466,340 C 466,321 465,301 461,279 L 56,279 C 81,390 162,519 308,519 Z "/>
</svg>
