<svg xmlns="http://www.w3.org/2000/svg" viewBox="0 -970 530 1200">
  <path transform="scale(1,-1)" d="M 346,357 C 444,376 528,458 528,550 C 528,636 474,704 366,704 C 251,704 145,635 120,509 L 118,499 L 140,499 L 142,509 C 164,621 258,683 361,683 C 450,683 504,637 504,547 C 504,434 375,364 275,364 L 258,364 L 254,343 L 271,343 C 399,343 454,296 454,208 C 454,83 348,7 220,7 C 102,7 49,86 57,194 L 57,204 L 35,204 L 35,194 C 25,58 101,-14 216,-14 C 359,-14 478,74 478,215 C 478,297 428,343 346,357 Z "/>
</svg>
