<svg xmlns="http://www.w3.org/2000/svg" viewBox="0 -970 844 1200">
  <path transform="scale(1,-1)" d="M 592,465 L 567,465 L 551,397 L 530,449 C 517,467 494,483 455,483 C 334,483 243,359 243,218 C 243,98 312,67 366,67 C 412,67 452,88 487,135 L 505,173 C 505,97 557,75 606,75 C 701,75 790,165 790,338 C 790,530 658,664 463,664 C 268,664 54,507 54,244 C 54,9 223,-104 388,-104 C 488,-104 562,-90 674,-15 L 662,4 C 565,-63 492,-83 388,-83 C 228,-83 78,30 78,247 C 78,495 284,643 457,643 C 640,643 766,527 766,333 C 766,189 695,96 608,96 C 560,96 529,122 529,168 C 529,187 531,207 542,256 L 592,465 Z M 525,279 C 493,139 431,88 370,88 C 308,88 267,130 267,222 C 267,356 355,462 451,462 C 518,462 552,397 534,319 L 525,279 Z "/>
</svg>
