<svg xmlns="http://www.w3.org/2000/svg" viewBox="0 -970 527 1200">
  <path transform="scale(1,-1)" d="M 270,613 C 282,613 294,624 294,637 C 294,646 288,653 278,653 C 266,653 254,642 254,629 C 254,620 260,613 270,613 Z M 350,613 C 362,613 374,624 374,637 C 374,646 368,653 358,653 C 346,653 334,642 334,629 C 334,620 340,613 350,613 Z M 502,526 L 480,526 L 426,214 C 401,76 304,7 203,7 C 109,7 69,60 69,133 C 69,165 73,199 81,243 L 131,526 L 109,526 L 57,234 C 49,187 46,164 46,130 C 46,41 99,-14 199,-14 C 264,-14 328,9 377,64 L 409,120 L 388,0 L 410,0 L 502,526 Z "/>
</svg>
