<svg xmlns="http://www.w3.org/2000/svg" viewBox="0 -970 530 1200">
  <path transform="scale(1,-1)" d="M 499,256 C 499,350 428,397 320,424 C 245,443 172,473 172,555 C 172,619 217,683 317,683 C 401,683 452,642 470,549 L 492,549 C 478,640 428,704 317,704 C 209,704 149,630 149,556 C 149,493 179,457 232,432 C 120,421 49,358 49,272 C 49,176 133,130 206,113 C 334,85 375,41 375,-29 C 375,-105 306,-153 217,-153 C 125,-153 65,-108 48,-9 L 26,-9 C 41,-124 115,-174 217,-174 C 319,-174 398,-113 398,-29 C 398,27 371,72 308,103 C 430,114 499,175 499,256 Z M 273,117 C 256,123 238,128 218,133 C 144,150 72,185 72,275 C 72,366 160,413 268,418 C 279,414 292,410 305,406 C 422,373 476,334 476,256 C 476,167 388,122 273,117 Z "/>
</svg>
