<svg xmlns="http://www.w3.org/2000/svg" viewBox="0 -970 530 1200">
  <path transform="scale(1,-1)" d="M 186,441 C 137,441 95,419 58,370 L 71,358 C 109,403 135,420 182,420 C 214,420 231,412 274,387 C 320,361 342,350 377,350 C 426,350 468,372 504,421 L 491,433 C 454,388 428,371 381,371 C 349,371 332,379 288,404 C 243,430 221,441 186,441 Z M 154,261 C 105,261 63,239 27,190 L 40,178 C 77,223 103,240 150,240 C 182,240 199,232 243,207 C 288,181 310,170 345,170 C 394,170 436,192 473,241 L 460,253 C 422,208 396,191 349,191 C 317,191 300,199 257,224 C 211,250 189,261 154,261 Z "/>
</svg>
