<svg xmlns="http://www.w3.org/2000/svg" viewBox="0 -970 743 1200">
  <path transform="scale(1,-1)" d="M 411,785 C 420,785 434,782 456,774 C 482,765 499,761 515,761 C 539,761 553,776 554,802 L 534,802 C 532,787 525,782 515,782 C 506,782 492,785 470,793 C 444,802 427,806 411,806 C 387,806 373,791 372,765 L 392,765 C 394,780 401,785 411,785 Z M 444,704 C 204,704 68,484 68,287 C 68,101 182,-14 338,-14 C 578,-14 714,206 714,403 C 714,589 600,704 444,704 Z M 341,7 C 203,7 91,111 91,287 C 91,479 221,683 441,683 C 579,683 691,579 691,403 C 691,211 561,7 341,7 Z "/>
</svg>
