<svg xmlns="http://www.w3.org/2000/svg" viewBox="0 -970 638 1200">
  <path transform="scale(1,-1)" d="M 635,355 L 525,355 L 552,507 L 530,507 L 503,355 L 393,355 C 371,355 352,355 332,356 C 261,360 174,382 174,487 C 174,610 281,683 404,683 C 453,683 486,680 525,672 L 529,694 C 492,701 460,704 411,704 C 264,704 150,610 150,483 C 150,394 206,354 280,344 C 151,330 49,257 49,126 C 49,17 141,-14 285,-14 C 329,-14 404,-9 463,1 L 521,334 L 631,334 L 635,355 Z M 499,334 L 444,19 C 402,11 332,7 291,7 C 160,7 73,34 73,131 C 73,276 198,321 328,332 C 348,334 367,334 389,334 L 499,334 Z "/>
</svg>
