<svg xmlns="http://www.w3.org/2000/svg" viewBox="0 -970 541 1200">
  <path transform="scale(1,-1)" d="M 528,695 L 520,714 L 435,681 C 409,714 375,733 334,745 L 316,731 C 359,721 390,702 413,673 L 247,609 L 254,590 L 425,655 C 454,608 466,539 471,442 L 439,499 C 405,530 362,544 313,544 C 106,544 24,332 24,201 C 24,83 93,-14 202,-14 C 396,-14 494,173 494,400 C 494,532 478,612 446,664 L 528,695 Z M 207,7 C 116,7 47,80 47,201 C 47,336 130,523 310,523 C 407,523 468,458 468,359 C 468,222 398,7 207,7 Z "/>
</svg>
