<svg xmlns="http://www.w3.org/2000/svg" viewBox="0 -970 527 1200">
  <path transform="scale(1,-1)" d="M 303,572 C 341,572 377,601 377,647 C 377,677 355,696 325,696 C 287,696 251,667 251,621 C 251,591 273,572 303,572 Z M 321,675 C 343,675 354,661 354,643 C 354,617 335,593 307,593 C 285,593 274,607 274,625 C 274,651 293,675 321,675 Z M 502,526 L 480,526 L 426,214 C 401,76 304,7 203,7 C 109,7 69,60 69,133 C 69,165 73,199 81,243 L 131,526 L 109,526 L 57,234 C 49,187 46,164 46,130 C 46,41 99,-14 199,-14 C 264,-14 328,9 377,64 L 409,120 L 388,0 L 410,0 L 502,526 Z "/>
</svg>
