<svg xmlns="http://www.w3.org/2000/svg" viewBox="0 -970 996 1200">
  <path transform="scale(1,-1)" d="M 782,544 C 663,544 559,466 506,318 C 498,468 431,544 312,544 C 114,544 25,344 25,205 C 25,78 96,-14 214,-14 C 333,-14 433,62 490,213 C 498,62 565,-14 684,-14 C 882,-14 971,184 971,323 C 971,451 900,544 782,544 Z M 486,265 C 438,80 314,7 218,7 C 128,7 49,77 49,207 C 49,345 139,523 308,523 C 404,523 494,459 486,265 Z M 688,7 C 592,7 501,71 510,265 C 557,450 682,523 778,523 C 868,523 947,452 947,321 C 947,183 857,7 688,7 Z "/>
</svg>
