<svg xmlns="http://www.w3.org/2000/svg" viewBox="0 -970 530 1200">
  <path transform="scale(1,-1)" d="M 446,315 C 446,355 436,390 418,417 L 488,477 L 475,493 L 405,434 C 379,464 341,481 296,481 C 247,481 208,466 177,443 L 132,497 L 113,481 L 158,427 C 117,387 96,332 96,287 C 96,249 106,214 124,186 L 56,128 L 69,112 L 137,169 C 163,139 201,121 246,121 C 295,121 335,135 366,158 L 408,107 L 427,123 L 385,173 C 426,212 446,265 446,315 Z M 119,289 C 119,360 175,460 292,460 C 372,460 423,403 423,313 C 423,242 367,142 250,142 C 170,142 119,205 119,289 Z "/>
</svg>
