<svg xmlns="http://www.w3.org/2000/svg" viewBox="0 -970 610 1200">
  <path transform="scale(1,-1)" d="M 613,521 L 601,536 L 503,453 C 469,507 411,540 330,540 C 129,540 42,348 42,214 C 42,166 52,122 71,86 L -19,9 L -7,-6 L 82,69 C 116,18 173,-14 252,-14 C 453,-14 540,178 540,312 C 540,358 531,401 513,436 L 613,521 Z M 65,214 C 65,344 151,519 326,519 C 394,519 451,490 485,437 L 90,102 C 74,132 65,170 65,214 Z M 517,312 C 517,182 431,7 256,7 C 190,7 134,34 100,85 L 494,420 C 509,390 517,354 517,312 Z "/>
</svg>
