<svg xmlns="http://www.w3.org/2000/svg" viewBox="0 -970 495 1200">
  <path transform="scale(1,-1)" d="M 292,613 C 304,613 316,624 316,637 C 316,646 310,653 300,653 C 288,653 276,642 276,629 C 276,620 282,613 292,613 Z M 372,613 C 384,613 396,624 396,637 C 396,646 390,653 380,653 C 368,653 356,642 356,629 C 356,620 362,613 372,613 Z M 312,540 C 202,540 119,470 97,382 L 119,382 C 149,480 231,519 308,519 C 398,519 431,476 431,406 C 431,389 428,367 422,334 L 417,303 C 220,317 30,270 30,111 C 30,26 93,-14 169,-14 C 240,-14 307,17 356,77 L 387,128 L 371,0 L 394,0 C 400,69 405,110 415,170 L 445,336 C 452,374 454,396 454,413 C 454,487 408,540 312,540 Z M 176,7 C 102,7 53,44 53,112 C 53,232 190,302 413,282 L 400,209 C 382,105 289,7 176,7 Z "/>
</svg>
