<svg xmlns="http://www.w3.org/2000/svg" viewBox="0 -970 600 1200">
  <path transform="scale(1,-1)" d="M 414,844 C 377,844 339,816 339,771 C 339,740 362,722 392,722 C 429,722 467,750 467,795 C 467,826 444,844 414,844 Z M 410,823 C 432,823 443,809 443,792 C 443,766 424,743 396,743 C 374,743 363,757 363,774 C 363,800 382,823 410,823 Z M 609,690 L 587,690 L 508,240 C 503,213 500,198 495,178 C 471,82 404,7 271,7 C 149,7 98,72 98,148 C 98,177 102,206 107,235 L 187,690 L 165,690 L 85,239 C 79,204 76,178 76,147 C 76,54 143,-14 267,-14 C 414,-14 489,66 515,172 C 520,193 525,217 529,239 L 609,690 Z "/>
</svg>
