<svg xmlns="http://www.w3.org/2000/svg" viewBox="0 -970 531 1200">
  <path transform="scale(1,-1)" d="M 278,650 C 287,650 301,647 323,639 C 349,630 366,626 382,626 C 406,626 420,641 421,667 L 401,667 C 399,652 392,647 382,647 C 373,647 359,650 337,658 C 311,667 294,671 278,671 C 254,671 240,656 239,630 L 259,630 C 261,645 268,650 278,650 Z M 328,540 C 263,540 199,517 150,462 L 118,406 L 139,526 L 117,526 L 25,0 L 47,0 L 101,312 C 126,450 223,519 324,519 C 418,519 458,466 458,393 C 458,361 454,327 446,283 L 396,0 L 418,0 L 470,292 C 478,339 481,362 481,396 C 481,485 428,540 328,540 Z "/>
</svg>
