<svg xmlns="http://www.w3.org/2000/svg" viewBox="0 -970 243 1200">
  <path transform="scale(1,-1)" d="M 145,504 L 248,504 L 251,522 L 148,522 L 167,630 L 145,630 L 126,522 L 62,522 L 59,504 L 123,504 L 57,132 C 50,94 48,74 48,53 C 48,19 62,2 90,-4 L 43,-69 C 104,-66 131,-84 131,-122 C 131,-162 99,-189 42,-189 C 24,-189 9,-188 -9,-182 L -13,-203 C 3,-208 20,-210 38,-210 C 104,-210 154,-181 154,-121 C 154,-78 124,-55 79,-51 L 110,-7 L 116,-7 C 136,-7 147,-6 161,-4 L 164,14 C 99,5 70,15 70,57 C 70,73 72,91 79,128 L 145,504 Z "/>
</svg>
