<svg xmlns="http://www.w3.org/2000/svg" viewBox="0 -970 403 1200">
  <path transform="scale(1,-1)" d="M 282,40 C 282,49 283,60 294,120 L 402,735 C 386,747 339,754 306,754 C 216,754 161,695 140,619 C 134,598 131,581 129,566 L 121,522 L 74,522 L 70,501 L 118,501 L 29,0 L 51,0 L 140,501 L 246,501 L 250,522 L 143,522 L 151,566 C 153,581 156,594 162,616 C 177,676 219,733 303,733 C 328,733 363,729 377,721 L 272,120 C 261,58 259,45 259,34 C 259,4 276,-5 300,-5 C 310,-5 319,-5 329,-3 L 332,16 C 295,11 282,17 282,40 Z "/>
</svg>
