<svg xmlns="http://www.w3.org/2000/svg" viewBox="0 -970 1000 1200">
  <path transform="scale(1,-1)" d="M 956,258 C 962,286 966,312 966,340 C 966,448 913,544 786,544 C 679,544 580,475 532,356 C 525,474 445,544 329,544 C 117,544 27,354 27,219 C 27,80 103,-14 231,-14 C 352,-14 448,55 497,173 C 505,49 589,-14 680,-14 C 780,-14 875,37 932,161 L 910,161 C 860,54 769,7 686,7 C 601,7 521,60 521,195 C 521,214 522,235 526,258 L 956,258 Z M 503,264 C 472,88 354,7 235,7 C 136,7 50,83 50,220 C 50,352 137,523 325,523 C 481,523 525,391 503,264 Z M 780,523 C 863,523 943,476 943,339 C 943,320 941,301 937,279 L 530,279 C 563,444 679,523 780,523 Z "/>
</svg>
