<svg xmlns="http://www.w3.org/2000/svg" viewBox="0 -970 544 1200">
  <path transform="scale(1,-1)" d="M 346,704 C 205,704 108,622 108,501 C 108,417 168,378 291,341 C 408,306 462,264 462,176 C 462,75 366,7 242,7 C 117,7 33,67 40,180 L 18,180 C 8,51 108,-11 225,-14 L 185,-69 C 246,-66 273,-84 273,-122 C 273,-162 241,-189 184,-189 C 166,-189 151,-188 133,-182 L 129,-203 C 145,-208 162,-210 180,-210 C 246,-210 296,-181 296,-121 C 296,-78 266,-55 221,-51 L 247,-14 C 389,-9 487,69 487,179 C 487,276 425,326 305,362 C 190,397 133,428 133,506 C 133,627 240,683 341,683 C 438,683 511,620 511,514 L 533,514 C 538,617 475,704 346,704 Z "/>
</svg>
