<svg xmlns="http://www.w3.org/2000/svg" viewBox="0 -970 838 1200">
  <path transform="scale(1,-1)" d="M 770,691 L 755,706 L 672,623 C 606,687 516,725 419,725 C 221,725 55,566 55,355 C 55,256 92,168 152,103 L 68,19 L 83,4 L 166,87 C 232,23 322,-15 419,-15 C 617,-15 783,144 783,355 C 783,454 746,542 686,607 L 770,691 Z M 79,355 C 79,554 234,704 419,704 C 510,704 594,668 656,607 L 168,119 C 113,180 79,262 79,355 Z M 419,6 C 328,6 244,42 182,103 L 670,591 C 725,530 759,448 759,355 C 759,156 604,6 419,6 Z "/>
</svg>
