<svg xmlns="http://www.w3.org/2000/svg" viewBox="0 -970 530 1200">
  <path transform="scale(1,-1)" d="M 359,359 C 456,381 521,467 521,554 C 521,637 456,704 349,704 C 210,704 114,607 114,494 C 114,426 157,376 214,360 C 96,334 19,254 19,145 C 19,42 108,-15 215,-15 C 349,-15 480,64 480,209 C 480,280 440,339 359,359 Z M 139,500 C 139,609 231,683 346,683 C 441,683 497,632 497,551 C 497,425 386,369 290,369 C 193,369 139,414 139,500 Z M 220,6 C 131,6 43,49 43,149 C 43,262 135,348 283,348 C 398,348 455,289 455,204 C 455,64 321,6 220,6 Z "/>
</svg>
