<svg xmlns="http://www.w3.org/2000/svg" viewBox="0 -970 530 1200">
  <path transform="scale(1,-1)" d="M 396,704 C 237,704 154,564 119,411 L 70,411 L 56,390 L 114,390 C 108,360 104,330 102,301 L 25,301 L 12,280 L 100,280 C 99,260 98,241 98,223 C 98,60 178,-14 310,-14 C 357,-14 407,-5 461,23 L 465,49 C 416,22 368,7 318,7 C 191,7 121,74 121,224 C 121,242 122,261 123,280 L 420,280 L 432,301 L 125,301 C 127,331 132,360 138,390 L 462,390 L 477,411 L 142,411 C 176,555 253,683 391,683 C 457,683 496,669 532,629 L 549,644 C 512,687 470,704 396,704 Z "/>
</svg>
