<svg xmlns="http://www.w3.org/2000/svg" viewBox="0 -970 551 1200">
  <path transform="scale(1,-1)" d="M 296,613 C 308,613 320,624 320,637 C 320,646 314,653 304,653 C 292,653 280,642 280,629 C 280,620 286,613 296,613 Z M 376,613 C 388,613 400,624 400,637 C 400,646 394,653 384,653 C 372,653 360,642 360,629 C 360,620 366,613 376,613 Z M 314,540 C 113,540 26,348 26,214 C 26,84 98,-14 236,-14 C 437,-14 524,178 524,312 C 524,442 452,540 314,540 Z M 240,7 C 131,7 49,81 49,214 C 49,344 135,519 310,519 C 419,519 501,445 501,312 C 501,182 415,7 240,7 Z "/>
</svg>
