<svg xmlns="http://www.w3.org/2000/svg" viewBox="0 -970 314 1200">
  <path transform="scale(1,-1)" d="M 150,653 C 138,653 127,644 127,630 C 127,621 134,613 144,613 C 156,613 167,622 167,636 C 167,645 160,653 150,653 Z M 318,653 C 306,653 295,644 295,630 C 295,621 302,613 312,613 C 324,613 335,622 335,636 C 335,645 328,653 318,653 Z M 46,0 L 139,526 L 117,526 L 24,0 L 46,0 Z M 311,526 L 289,526 L 182,-84 C 179,-100 177,-109 173,-123 C 158,-181 125,-198 68,-187 L 64,-206 C 77,-209 88,-210 99,-210 C 141,-210 178,-188 194,-125 C 199,-107 202,-93 206,-73 L 311,526 Z "/>
</svg>
