<svg xmlns="http://www.w3.org/2000/svg" viewBox="0 -970 809 1200">
  <path transform="scale(1,-1)" d="M 630,540 C 575,540 523,518 479,471 L 435,403 C 434,489 391,540 305,540 C 250,540 198,518 154,471 L 119,413 L 139,526 L 117,526 L 25,0 L 47,0 L 100,302 C 126,452 212,520 300,520 C 382,520 412,477 412,391 C 412,359 409,336 400,283 L 350,0 L 372,0 L 425,302 C 451,452 537,520 625,520 C 704,520 737,475 737,391 C 737,353 733,329 725,283 L 675,0 L 697,0 L 748,292 C 757,346 760,357 760,401 C 760,487 717,540 630,540 Z "/>
</svg>
