<svg xmlns="http://www.w3.org/2000/svg" viewBox="0 -970 530 1200">
  <path transform="scale(1,-1)" d="M 520,514 C 518,613 475,697 360,704 L 374,780 L 352,780 L 338,704 C 184,701 121,600 121,510 C 121,420 194,362 273,336 L 215,7 C 121,11 63,63 56,180 L 34,180 C 32,96 73,-8 211,-14 L 198,-90 L 220,-90 L 233,-14 C 397,-10 462,87 462,174 C 462,268 401,322 298,354 L 357,683 C 444,677 497,626 498,514 L 520,514 Z M 144,512 C 144,591 201,680 335,683 L 277,358 C 202,383 144,436 144,512 Z M 439,173 C 439,96 381,11 237,7 L 294,331 C 386,303 439,262 439,173 Z "/>
</svg>
