<svg xmlns="http://www.w3.org/2000/svg" viewBox="0 -970 522 1200">
  <path transform="scale(1,-1)" d="M 288,764 C 127,764 47,633 47,527 C 47,423 116,344 234,344 C 395,344 475,475 475,581 C 475,685 406,764 288,764 Z M 238,365 C 131,365 70,438 70,527 C 70,622 141,743 284,743 C 391,743 452,670 452,581 C 452,486 381,365 238,365 Z M 291,659 C 282,660 275,660 268,660 L 222,660 L 186,456 L 206,456 L 220,537 L 261,537 C 286,537 291,528 291,498 C 291,482 294,466 298,456 L 321,456 C 314,476 312,487 312,513 C 312,531 303,542 290,547 C 320,553 343,572 343,604 C 343,632 324,655 291,659 Z M 273,557 C 264,556 258,556 251,556 L 223,556 L 238,641 L 264,641 C 273,641 280,641 286,640 C 308,636 320,626 320,603 C 320,577 303,560 273,557 Z "/>
</svg>
