<svg xmlns="http://www.w3.org/2000/svg" viewBox="0 -970 735 1200">
  <path transform="scale(1,-1)" d="M 757,645 L 743,662 L 659,591 C 611,663 533,704 440,704 C 200,704 64,484 64,287 C 64,221 78,165 103,118 L 17,45 L 31,28 L 115,99 C 163,27 241,-14 334,-14 C 574,-14 710,206 710,403 C 710,469 696,525 671,572 L 757,645 Z M 87,287 C 87,479 217,683 437,683 C 521,683 595,645 641,575 L 122,134 C 100,176 87,227 87,287 Z M 687,403 C 687,211 557,7 337,7 C 253,7 178,45 133,115 L 651,556 C 674,514 687,463 687,403 Z "/>
</svg>
