<svg xmlns="http://www.w3.org/2000/svg" viewBox="0 -970 472 1200">
  <path transform="scale(1,-1)" d="M 246,613 C 258,613 270,624 270,637 C 270,646 264,653 254,653 C 242,653 230,642 230,629 C 230,620 236,613 246,613 Z M 326,613 C 338,613 350,624 350,637 C 350,646 344,653 334,653 C 322,653 310,642 310,629 C 310,620 316,613 326,613 Z M 502,526 L 476,526 L 188,20 L 80,526 L 56,526 L 171,-5 L 156,-30 C 82,-156 39,-190 -11,-190 C -20,-190 -28,-190 -41,-187 L -44,-206 C -34,-209 -23,-210 -13,-210 C 46,-210 96,-184 200,0 L 502,526 Z "/>
</svg>
