<svg xmlns="http://www.w3.org/2000/svg" viewBox="0 -970 551 1200">
  <path transform="scale(1,-1)" d="M 556,546 C 556,623 507,674 416,685 C 384,689 352,690 317,690 L 150,690 L 28,0 L 50,0 L 110,338 L 271,338 C 287,338 312,338 334,337 C 410,333 430,270 432,199 C 435,70 441,34 447,0 L 471,0 C 463,32 456,72 454,196 C 452,276 433,330 379,347 C 486,364 556,443 556,546 Z M 350,361 C 317,359 301,359 275,359 L 113,359 L 168,669 L 313,669 C 349,669 376,668 408,664 C 487,654 531,613 531,542 C 531,443 458,369 350,361 Z "/>
</svg>
