<svg xmlns="http://www.w3.org/2000/svg" viewBox="0 -970 517 1200">
  <path transform="scale(1,-1)" d="M 318,540 C 128,540 26,371 26,210 C 26,71 98,-9 204,-14 L 164,-69 C 225,-66 252,-84 252,-122 C 252,-162 220,-189 163,-189 C 145,-189 130,-188 112,-182 L 108,-203 C 124,-208 141,-210 159,-210 C 225,-210 275,-181 275,-121 C 275,-78 245,-55 200,-51 L 227,-14 C 329,-9 417,49 460,157 L 438,157 C 395,61 316,7 222,6 L 219,7 L 218,6 C 125,6 48,70 48,211 C 48,368 150,520 313,520 C 420,520 473,458 473,363 L 495,363 C 498,468 432,540 318,540 Z "/>
</svg>
