<svg xmlns="http://www.w3.org/2000/svg" viewBox="0 -970 456 1200">
  <path transform="scale(1,-1)" d="M 255,519 C 336,519 394,483 403,383 L 425,383 C 419,485 358,540 260,540 C 152,540 82,472 82,391 C 82,309 149,274 214,257 C 320,229 363,199 363,130 C 363,58 301,7 207,7 C 104,7 42,46 38,150 L 16,150 C 17,42 83,-4 171,-13 L 130,-69 C 191,-66 218,-84 218,-122 C 218,-162 186,-189 129,-189 C 111,-189 96,-188 78,-182 L 74,-203 C 90,-208 107,-210 125,-210 C 191,-210 241,-181 241,-121 C 241,-78 211,-55 166,-51 L 192,-14 L 201,-14 C 299,-14 386,34 386,133 C 386,212 331,248 227,276 C 154,296 105,327 105,392 C 105,455 160,519 255,519 Z "/>
</svg>
