<svg xmlns="http://www.w3.org/2000/svg" viewBox="0 -970 600 1200">
  <path transform="scale(1,-1)" d="M 609,690 L 587,690 L 508,240 C 503,213 500,198 495,178 C 471,82 404,7 271,7 C 149,7 98,72 98,148 C 98,177 102,206 107,235 L 187,690 L 165,690 L 85,239 C 79,204 76,178 76,147 C 76,54 143,-14 267,-14 C 278,-14 289,-14 300,-13 C 223,-58 187,-112 187,-165 C 187,-208 213,-223 241,-223 C 269,-223 293,-214 315,-195 L 319,-172 C 293,-194 272,-203 249,-203 C 226,-203 210,-192 210,-162 C 210,-100 259,-51 352,-3 C 444,22 495,89 515,172 C 520,193 525,217 529,239 L 609,690 Z "/>
</svg>
