<svg xmlns="http://www.w3.org/2000/svg" viewBox="0 -970 527 1200">
  <path transform="scale(1,-1)" d="M 502,526 L 480,526 L 426,214 C 401,76 304,7 203,7 C 109,7 69,60 69,133 C 69,165 73,199 81,243 L 131,526 L 109,526 L 57,234 C 49,187 46,164 46,130 C 46,41 99,-14 199,-14 C 264,-14 328,9 377,64 L 409,120 L 389,8 C 286,-41 238,-103 238,-165 C 238,-208 264,-223 292,-223 C 320,-223 344,-214 366,-195 L 370,-172 C 344,-194 323,-203 300,-203 C 277,-203 261,-192 261,-162 C 261,-99 312,-49 410,0 L 502,526 Z "/>
</svg>
