<svg xmlns="http://www.w3.org/2000/svg" viewBox="0 -970 505 1200">
  <path transform="scale(1,-1)" d="M 360,754 C 195,754 133,614 111,490 L 25,0 L 47,0 L 134,492 C 154,605 208,733 358,733 C 436,733 486,689 486,617 C 486,573 476,541 448,506 C 367,467 327,434 327,370 C 327,340 341,312 380,269 C 428,216 444,185 444,150 C 444,91 390,17 269,17 C 236,17 201,20 163,29 L 159,8 C 197,-1 232,-4 265,-4 C 410,-4 467,83 467,152 C 467,197 442,235 394,287 C 363,321 350,342 350,372 C 350,425 387,455 458,486 C 499,533 509,575 509,618 C 509,703 445,754 360,754 Z "/>
</svg>
