<svg xmlns="http://www.w3.org/2000/svg" viewBox="0 -970 580 1200">
  <path transform="scale(1,-1)" d="M 385,364 C 483,378 550,453 550,551 C 550,631 493,682 402,688 C 367,690 351,690 324,690 L 150,690 L 28,0 L 220,0 C 244,0 264,0 289,2 C 405,9 516,85 516,215 C 516,292 474,349 385,364 Z M 116,372 L 169,669 L 320,669 C 346,669 362,669 385,668 C 462,665 525,635 525,546 C 525,418 416,377 334,373 C 311,372 295,372 279,372 L 116,372 Z M 282,22 C 269,21 253,21 237,21 L 54,21 L 112,351 L 292,351 C 308,351 321,351 344,350 C 456,345 492,279 492,212 C 492,81 378,29 282,22 Z "/>
</svg>
