<svg xmlns="http://www.w3.org/2000/svg" viewBox="0 -970 495 1200">
  <path transform="scale(1,-1)" d="M 325,572 C 363,572 399,601 399,647 C 399,677 377,696 347,696 C 309,696 273,667 273,621 C 273,591 295,572 325,572 Z M 343,675 C 365,675 376,661 376,643 C 376,617 357,593 329,593 C 307,593 296,607 296,625 C 296,651 315,675 343,675 Z M 312,540 C 202,540 119,470 97,382 L 119,382 C 149,480 231,519 308,519 C 398,519 431,476 431,406 C 431,389 428,367 422,334 L 417,303 C 220,317 30,270 30,111 C 30,26 93,-14 169,-14 C 240,-14 307,17 356,77 L 387,128 L 371,0 L 394,0 C 400,69 405,110 415,170 L 445,336 C 452,374 454,396 454,413 C 454,487 408,540 312,540 Z M 176,7 C 102,7 53,44 53,112 C 53,232 190,302 413,282 L 400,209 C 382,105 289,7 176,7 Z "/>
</svg>
