<svg xmlns="http://www.w3.org/2000/svg" viewBox="0 -970 320 1200">
  <path transform="scale(1,-1)" d="M 82,653 C 71,653 62,644 62,633 C 62,622 71,613 82,613 C 93,613 102,622 102,633 C 102,644 93,653 82,653 Z M 239,653 C 228,653 219,644 219,633 C 219,622 228,613 239,613 C 250,613 259,622 259,633 C 259,644 250,653 239,653 Z M 93,0 L 93,526 L 71,526 L 71,0 L 93,0 Z M 250,526 L 228,526 L 228,-84 C 228,-99 228,-109 227,-123 C 224,-186 187,-197 132,-187 L 132,-206 C 145,-209 156,-210 167,-210 C 209,-210 246,-184 249,-125 C 250,-107 250,-93 250,-73 L 250,526 Z "/>
</svg>
