<svg xmlns="http://www.w3.org/2000/svg" viewBox="0 -970 554 1200">
  <path transform="scale(1,-1)" d="M 237,613 C 248,613 257,622 257,633 C 257,644 248,653 237,653 C 226,653 217,644 217,633 C 217,622 226,613 237,613 Z M 317,613 C 328,613 337,622 337,633 C 337,644 328,653 317,653 C 306,653 297,644 297,633 C 297,622 306,613 317,613 Z M 277,540 C 129,540 30,429 30,262 C 30,96 129,-14 277,-14 C 425,-14 524,96 524,262 C 524,429 425,540 277,540 Z M 277,7 C 163,7 54,86 54,262 C 54,439 163,519 277,519 C 391,519 500,439 500,262 C 500,86 391,7 277,7 Z "/>
</svg>
