<svg xmlns="http://www.w3.org/2000/svg" viewBox="0 -970 530 1200">
  <path transform="scale(1,-1)" d="M 331,683 C 397,683 439,669 481,628 L 496,644 C 452,687 407,704 333,704 C 195,704 90,608 70,411 L 31,411 L 21,390 L 69,390 C 68,375 67,359 67,342 C 67,328 67,314 68,301 L 6,301 L -4,280 L 69,280 C 84,78 176,-14 329,-14 C 376,-14 425,-5 474,23 L 474,47 C 430,19 384,7 334,7 C 192,7 109,91 93,280 L 414,280 L 423,301 L 92,301 C 91,315 91,330 91,346 C 91,361 91,376 92,390 L 453,390 L 464,411 L 94,411 C 113,609 222,683 331,683 Z "/>
</svg>
