<svg xmlns="http://www.w3.org/2000/svg" viewBox="0 -970 530 1200">
  <path transform="scale(1,-1)" d="M 328,357 C 413,375 477,445 477,531 C 477,629 411,704 287,704 C 176,704 89,633 77,509 L 76,499 L 98,499 L 99,509 C 110,619 183,683 286,683 C 379,683 453,635 453,529 C 453,425 348,364 256,364 L 239,364 L 239,343 L 256,343 C 401,343 464,274 464,183 C 464,70 378,7 264,7 C 146,7 79,86 68,194 L 67,204 L 45,204 L 46,194 C 60,58 144,-14 264,-14 C 391,-14 488,60 488,183 C 488,287 426,342 328,357 Z "/>
</svg>
