<svg xmlns="http://www.w3.org/2000/svg" viewBox="0 -970 600 1200">
  <path transform="scale(1,-1)" d="M 534,690 L 512,690 L 512,229 C 512,206 511,188 509,167 C 501,80 443,7 312,7 C 181,7 123,80 115,167 C 113,188 112,206 112,229 L 112,690 L 90,690 L 90,233 C 90,218 91,197 93,166 C 100,60 174,-14 312,-14 C 324,-14 335,-13 346,-12 C 295,-47 264,-98 264,-154 C 264,-208 296,-223 328,-223 C 356,-223 378,-214 397,-195 L 397,-172 C 375,-194 355,-203 332,-203 C 305,-203 286,-188 286,-151 C 286,-84 337,-30 406,0 C 484,26 526,87 531,166 C 533,197 534,218 534,233 L 534,690 Z "/>
</svg>
