<svg xmlns="http://www.w3.org/2000/svg" viewBox="0 -970 560 1200">
  <path transform="scale(1,-1)" d="M 507,167 C 507,275 437,322 294,363 C 156,403 95,434 95,533 C 95,632 195,683 283,683 C 380,683 455,620 473,514 L 495,514 C 482,617 413,704 284,704 C 170,704 71,632 71,531 C 71,425 136,383 284,341 C 424,301 483,264 483,165 C 483,72 397,7 284,7 C 172,7 74,67 61,180 L 39,180 C 52,56 148,-6 260,-13 L 231,-69 C 299,-66 329,-89 329,-128 C 329,-169 296,-189 251,-189 C 229,-189 213,-186 198,-178 L 198,-200 C 212,-207 229,-210 251,-210 C 300,-210 352,-186 352,-128 C 352,-79 318,-56 264,-51 L 284,-14 C 412,-14 507,65 507,167 Z "/>
</svg>
