<svg xmlns="http://www.w3.org/2000/svg" viewBox="0 -970 713 1200">
  <path transform="scale(1,-1)" d="M 679,646 L 664,661 L 597,594 C 542,663 461,704 363,704 C 175,704 51,552 51,345 C 51,255 75,175 117,114 L 47,44 L 62,29 L 130,97 C 184,28 265,-14 363,-14 C 551,-14 675,139 675,345 C 675,435 651,515 609,576 L 679,646 Z M 75,345 C 75,562 209,683 363,683 C 448,683 527,646 580,577 L 133,130 C 97,185 75,257 75,345 Z M 651,345 C 651,129 517,7 363,7 C 278,7 200,44 146,113 L 593,560 C 629,505 651,433 651,345 Z "/>
</svg>
