<svg xmlns="http://www.w3.org/2000/svg" viewBox="0 -970 526 1200">
  <path transform="scale(1,-1)" d="M 218,613 C 229,613 238,622 238,633 C 238,644 229,653 218,653 C 207,653 198,644 198,633 C 198,622 207,613 218,613 Z M 298,613 C 309,613 318,622 318,633 C 318,644 309,653 298,653 C 287,653 278,644 278,633 C 278,622 287,613 298,613 Z M 455,526 L 433,526 L 433,214 C 433,74 343,7 247,7 C 147,7 98,67 88,156 C 85,183 84,206 84,243 L 84,526 L 62,526 L 62,234 C 62,191 63,175 66,148 C 77,45 141,-14 247,-14 C 312,-14 373,13 412,68 L 433,120 L 433,0 L 455,0 L 455,526 Z "/>
</svg>
