<svg xmlns="http://www.w3.org/2000/svg" viewBox="0 -970 809 1200">
  <path transform="scale(1,-1)" d="M 739,378 C 728,481 675,540 581,540 C 526,540 478,518 442,471 L 410,403 C 394,490 342,540 256,540 C 201,540 153,518 117,471 L 93,414 L 93,526 L 71,526 L 71,0 L 93,0 L 93,302 C 93,452 167,520 255,520 C 341,520 382,459 392,370 C 395,343 396,320 396,283 L 396,0 L 418,0 L 418,302 C 418,452 492,520 580,520 C 666,520 707,459 717,370 C 720,343 721,320 721,283 L 721,0 L 743,0 L 743,292 C 743,335 742,351 739,378 Z "/>
</svg>
