<svg xmlns="http://www.w3.org/2000/svg" viewBox="0 -970 600 1200">
  <path transform="scale(1,-1)" d="M 277,803 C 266,803 257,794 257,783 C 257,772 266,763 277,763 C 288,763 297,772 297,783 C 297,794 288,803 277,803 Z M 347,803 C 336,803 327,794 327,783 C 327,772 336,763 347,763 C 358,763 367,772 367,783 C 367,794 358,803 347,803 Z M 534,690 L 512,690 L 512,229 C 512,206 511,188 509,167 C 501,80 443,7 312,7 C 181,7 123,80 115,167 C 113,188 112,206 112,229 L 112,690 L 90,690 L 90,233 C 90,218 91,197 93,166 C 100,60 174,-14 312,-14 C 450,-14 524,60 531,166 C 533,197 534,218 534,233 L 534,690 Z "/>
</svg>
