<svg xmlns="http://www.w3.org/2000/svg" viewBox="0 -970 560 1200">
  <path transform="scale(1,-1)" d="M 284,704 C 170,704 71,632 71,531 C 71,425 136,383 284,341 C 424,301 483,264 483,165 C 483,72 397,7 284,7 C 172,7 74,67 61,180 L 39,180 C 53,47 162,-14 283,-14 C 412,-14 507,65 507,167 C 507,275 437,322 294,363 C 156,403 95,434 95,533 C 95,632 195,683 283,683 C 380,683 455,620 473,514 L 495,514 C 482,617 413,704 284,704 Z M 293,-56 L 293,-51 L 268,-51 L 225,-173 L 244,-173 L 293,-56 Z "/>
</svg>
