<svg xmlns="http://www.w3.org/2000/svg" viewBox="0 -970 522 1200">
  <path transform="scale(1,-1)" d="M 448,694 L 440,714 L 365,683 C 332,713 293,732 248,745 L 234,725 C 276,717 312,700 343,674 L 185,609 L 193,589 L 360,658 C 405,610 435,537 445,434 L 396,499 C 357,530 312,544 263,544 C 116,544 30,420 30,257 C 30,102 110,-15 248,-14 C 385,-13 475,83 475,307 C 475,491 441,601 382,667 L 448,694 Z M 451,290 C 451,115 379,7 251,7 C 145,7 54,94 54,258 C 54,432 150,523 263,523 C 375,523 451,436 451,309 L 451,290 Z "/>
</svg>
