<svg xmlns="http://www.w3.org/2000/svg" viewBox="0 -970 522 1200">
  <path transform="scale(1,-1)" d="M 261,764 C 138,764 51,677 51,555 C 51,431 138,344 261,344 C 384,344 471,431 471,555 C 471,677 384,764 261,764 Z M 261,365 C 151,365 74,444 74,555 C 74,665 151,743 261,743 C 371,743 448,665 448,555 C 448,444 371,365 261,365 Z M 291,549 C 317,556 332,574 332,600 C 332,637 310,655 276,659 C 267,660 260,660 253,660 L 203,660 L 203,456 L 223,456 L 223,537 L 264,537 C 286,537 293,526 296,507 C 300,482 305,468 311,456 L 335,456 C 328,467 321,485 317,510 C 314,530 305,543 291,549 Z M 223,556 L 223,641 L 259,641 C 265,641 269,641 275,640 C 293,637 311,625 311,597 C 311,573 294,560 274,557 C 268,556 260,556 251,556 L 223,556 Z "/>
</svg>
