<svg xmlns="http://www.w3.org/2000/svg" viewBox="0 -970 435 1200">
  <path transform="scale(1,-1)" d="M 202,580 L 225,580 L 290,690 L 267,690 L 214,596 L 161,690 L 137,690 L 202,580 Z M 217,277 C 133,296 74,325 74,399 C 74,476 141,519 214,519 C 300,519 349,475 371,383 L 393,383 C 379,470 324,540 215,540 C 119,540 51,479 51,398 C 51,309 124,275 207,256 C 333,227 375,196 375,123 C 375,47 306,7 223,7 C 135,7 65,45 48,156 L 26,156 C 39,36 123,-14 221,-14 C 324,-14 398,40 398,124 C 398,212 338,250 217,277 Z "/>
</svg>
