<svg xmlns="http://www.w3.org/2000/svg" viewBox="0 -970 494 1200">
  <path transform="scale(1,-1)" d="M 203,651 C 212,651 226,647 250,639 C 277,630 291,626 307,626 C 331,626 343,641 343,667 L 323,667 C 323,652 317,646 307,646 C 298,646 284,650 260,658 C 233,667 219,671 203,671 C 179,671 167,656 167,630 L 187,630 C 187,645 193,651 203,651 Z M 409,0 L 432,0 C 426,69 423,110 423,170 L 423,332 C 423,360 423,374 421,401 C 414,489 357,540 254,540 C 150,540 73,470 67,382 L 89,382 C 101,480 180,519 254,519 C 340,519 392,477 399,398 C 401,375 401,355 401,330 L 401,303 L 367,303 C 203,303 47,250 47,127 C 47,33 109,-14 209,-14 C 280,-14 342,17 379,76 L 402,129 L 409,0 Z M 212,7 C 116,7 71,55 71,128 C 71,248 247,291 401,281 L 401,209 C 401,105 325,7 212,7 Z "/>
</svg>
