<svg xmlns="http://www.w3.org/2000/svg" viewBox="0 -970 526 1200">
  <path transform="scale(1,-1)" d="M 258,572 C 292,572 320,596 320,634 C 320,672 292,696 258,696 C 224,696 196,672 196,634 C 196,596 224,572 258,572 Z M 258,675 C 283,675 297,656 297,634 C 297,612 283,593 258,593 C 233,593 219,612 219,634 C 219,656 233,675 258,675 Z M 455,526 L 433,526 L 433,214 C 433,74 343,7 247,7 C 147,7 98,67 88,156 C 85,183 84,206 84,243 L 84,526 L 62,526 L 62,234 C 62,191 63,175 66,148 C 77,45 141,-14 247,-14 C 312,-14 373,13 412,68 L 433,120 L 433,0 L 455,0 L 455,526 Z "/>
</svg>
