<svg xmlns="http://www.w3.org/2000/svg" viewBox="0 -970 533 1200">
  <path transform="scale(1,-1)" d="M 275,754 C 165,754 80,681 73,554 C 72,536 71,510 71,490 L 71,0 L 93,0 L 93,492 C 93,519 94,538 95,552 C 103,668 176,733 272,733 C 359,733 429,681 429,588 C 429,560 422,530 407,506 C 342,472 307,445 307,393 C 307,349 319,323 378,269 C 446,206 464,173 464,129 C 464,57 404,17 312,17 C 279,17 244,20 204,29 L 204,6 C 243,-2 279,-4 312,-4 C 423,-4 488,46 488,132 C 488,186 456,232 390,290 C 344,330 331,357 331,393 C 331,435 363,459 420,486 C 445,523 453,553 453,589 C 453,694 370,754 275,754 Z "/>
</svg>
