<svg xmlns="http://www.w3.org/2000/svg" viewBox="0 -970 378 1200">
  <path transform="scale(1,-1)" d="M 296,51 C 295,65 295,85 295,120 L 295,735 C 277,747 249,754 216,754 C 126,754 81,695 74,619 C 72,598 72,581 72,566 L 72,522 L 25,522 L 25,501 L 72,501 L 72,0 L 94,0 L 94,501 L 201,501 L 201,522 L 94,522 L 94,566 C 94,581 94,594 96,616 C 101,676 133,733 217,733 C 242,733 260,729 273,721 L 273,120 C 273,82 273,66 274,46 C 276,6 296,-5 323,-5 C 333,-5 342,-5 352,-3 L 352,16 C 311,11 298,18 296,51 Z "/>
</svg>
