<svg xmlns="http://www.w3.org/2000/svg" viewBox="0 -970 600 1200">
  <path transform="scale(1,-1)" d="M 312,844 C 278,844 249,821 249,783 C 249,745 278,722 312,722 C 346,722 375,745 375,783 C 375,821 346,844 312,844 Z M 312,823 C 337,823 351,805 351,783 C 351,761 337,743 312,743 C 287,743 273,761 273,783 C 273,805 287,823 312,823 Z M 534,690 L 512,690 L 512,229 C 512,206 511,188 509,167 C 501,80 443,7 312,7 C 181,7 123,80 115,167 C 113,188 112,206 112,229 L 112,690 L 90,690 L 90,233 C 90,218 91,197 93,166 C 100,60 174,-14 312,-14 C 450,-14 524,60 531,166 C 533,197 534,218 534,233 L 534,690 Z "/>
</svg>
