<svg xmlns="http://www.w3.org/2000/svg" viewBox="0 -970 587 1200">
  <path transform="scale(1,-1)" d="M 388,364 C 471,377 522,438 522,525 C 522,621 452,681 348,688 C 313,690 297,690 270,690 L 96,690 L 96,0 L 288,0 C 312,0 331,0 356,2 C 459,8 548,73 548,183 C 548,277 496,348 388,364 Z M 118,669 L 270,669 C 296,669 312,669 335,668 C 415,665 498,629 498,520 C 498,411 411,377 339,373 C 316,372 300,372 284,372 L 118,372 L 118,669 Z M 349,22 C 336,21 320,21 304,21 L 118,21 L 118,351 L 298,351 C 314,351 327,351 350,350 C 484,344 524,261 524,182 C 524,73 434,28 349,22 Z "/>
</svg>
