<svg xmlns="http://www.w3.org/2000/svg" viewBox="0 -970 457 1200">
  <path transform="scale(1,-1)" d="M 190,613 C 201,613 210,622 210,633 C 210,644 201,653 190,653 C 179,653 170,644 170,633 C 170,622 179,613 190,613 Z M 270,613 C 281,613 290,622 290,633 C 290,644 281,653 270,653 C 259,653 250,644 250,633 C 250,622 259,613 270,613 Z M 449,526 L 424,526 L 231,18 L 38,526 L 13,526 L 219,-10 L 202,-52 C 157,-162 119,-190 79,-190 C 66,-190 53,-189 40,-186 L 40,-206 C 51,-209 61,-210 75,-210 C 133,-210 175,-185 246,0 L 449,526 Z "/>
</svg>
