<svg xmlns="http://www.w3.org/2000/svg" viewBox="0 -970 494 1200">
  <path transform="scale(1,-1)" d="M 255,572 C 289,572 317,596 317,634 C 317,672 289,696 255,696 C 221,696 193,672 193,634 C 193,596 221,572 255,572 Z M 255,675 C 280,675 294,656 294,634 C 294,612 280,593 255,593 C 230,593 216,612 216,634 C 216,656 230,675 255,675 Z M 409,0 L 432,0 C 426,69 423,110 423,170 L 423,332 C 423,360 423,374 421,401 C 414,489 357,540 254,540 C 150,540 73,470 67,382 L 89,382 C 101,480 180,519 254,519 C 340,519 392,477 399,398 C 401,375 401,355 401,330 L 401,303 L 367,303 C 203,303 47,250 47,127 C 47,33 109,-14 209,-14 C 280,-14 342,17 379,76 L 402,129 L 409,0 Z M 212,7 C 116,7 71,55 71,128 C 71,248 247,291 401,281 L 401,209 C 401,105 325,7 212,7 Z "/>
</svg>
