<svg xmlns="http://www.w3.org/2000/svg" viewBox="0 -970 713 1200">
  <path transform="scale(1,-1)" d="M 328,763 C 339,763 348,772 348,783 C 348,794 339,803 328,803 C 317,803 308,794 308,783 C 308,772 317,763 328,763 Z M 398,763 C 409,763 418,772 418,783 C 418,794 409,803 398,803 C 387,803 378,794 378,783 C 378,772 387,763 398,763 Z M 363,704 C 175,704 51,552 51,345 C 51,139 175,-14 363,-14 C 551,-14 675,139 675,345 C 675,552 551,704 363,704 Z M 363,7 C 209,7 75,129 75,345 C 75,562 209,683 363,683 C 517,683 651,562 651,345 C 651,129 517,7 363,7 Z "/>
</svg>
