<svg xmlns="http://www.w3.org/2000/svg" viewBox="0 -970 530 1200">
  <path transform="scale(1,-1)" d="M 162,441 C 113,441 75,419 47,370 L 62,358 C 92,403 115,420 162,420 C 194,420 212,412 260,387 C 310,361 334,350 369,350 C 418,350 456,372 484,421 L 469,433 C 439,388 416,371 369,371 C 337,371 319,379 271,404 C 221,430 197,441 162,441 Z M 162,261 C 113,261 75,239 47,190 L 62,178 C 92,223 115,240 162,240 C 194,240 212,232 260,207 C 310,181 334,170 369,170 C 418,170 456,192 484,241 L 469,253 C 439,208 416,191 369,191 C 337,191 319,199 271,224 C 221,250 197,261 162,261 Z "/>
</svg>
