<svg xmlns="http://www.w3.org/2000/svg" viewBox="0 -970 713 1200">
  <path transform="scale(1,-1)" d="M 311,786 C 320,786 334,782 358,774 C 385,765 399,761 415,761 C 439,761 451,776 451,802 L 431,802 C 431,787 425,781 415,781 C 406,781 392,785 368,793 C 341,802 327,806 311,806 C 287,806 275,791 275,765 L 295,765 C 295,780 301,786 311,786 Z M 363,704 C 175,704 51,552 51,345 C 51,139 175,-14 363,-14 C 551,-14 675,139 675,345 C 675,552 551,704 363,704 Z M 363,7 C 209,7 75,129 75,345 C 75,562 209,683 363,683 C 517,683 651,562 651,345 C 651,129 517,7 363,7 Z "/>
</svg>
