<svg xmlns="http://www.w3.org/2000/svg" viewBox="0 -970 544 1200">
  <path transform="scale(1,-1)" d="M 473,530 L 451,530 L 451,406 L 422,472 C 379,520 336,540 269,540 C 142,540 30,445 30,259 C 30,99 120,-14 257,-14 C 329,-14 376,4 423,60 L 451,120 L 451,100 C 451,51 451,24 450,-11 C 447,-121 382,-199 258,-199 C 171,-199 90,-163 77,-62 L 75,-47 L 53,-47 L 55,-62 C 71,-181 159,-220 256,-220 C 390,-220 468,-137 472,-18 C 473,16 473,57 473,140 L 473,530 Z M 259,7 C 126,7 54,125 54,263 C 54,414 143,519 269,519 C 351,519 451,469 451,297 L 451,238 C 451,65 363,7 259,7 Z "/>
</svg>
