<svg xmlns="http://www.w3.org/2000/svg" viewBox="0 -970 521 1200">
  <path transform="scale(1,-1)" d="M 216,613 C 227,613 236,622 236,633 C 236,644 227,653 216,653 C 205,653 196,644 196,633 C 196,622 205,613 216,613 Z M 296,613 C 307,613 316,622 316,633 C 316,644 307,653 296,653 C 285,653 276,644 276,633 C 276,622 285,613 296,613 Z M 485,277 C 485,408 415,540 264,540 C 134,540 30,431 30,265 C 30,81 134,-14 256,-14 C 356,-14 445,45 477,161 L 455,161 C 424,54 341,7 258,7 C 161,7 57,76 53,258 L 484,258 C 485,269 485,273 485,277 Z M 262,519 C 352,519 459,461 463,279 L 53,279 C 57,444 169,519 262,519 Z "/>
</svg>
