<svg xmlns="http://www.w3.org/2000/svg" viewBox="0 -970 694 1200">
  <path transform="scale(1,-1)" d="M 360,722 C 417,722 457,763 457,830 L 439,830 C 438,774 405,743 360,743 C 315,743 282,774 281,830 L 263,830 C 263,763 302,722 360,722 Z M 379,307 L 379,287 L 612,287 C 612,75 460,7 355,7 C 204,7 75,115 75,344 C 75,565 219,683 370,683 C 507,683 589,597 612,484 L 614,474 L 636,474 L 634,484 C 609,608 525,704 374,704 C 190,704 51,558 51,343 C 51,118 179,-14 353,-14 C 442,-14 535,23 592,119 L 612,184 L 612,0 L 634,0 L 634,307 L 379,307 Z "/>
</svg>
