<svg xmlns="http://www.w3.org/2000/svg" viewBox="0 -970 637 1200">
  <path transform="scale(1,-1)" d="M 279,806 C 255,806 243,791 243,765 L 263,765 C 263,780 269,786 279,786 C 288,786 302,782 326,774 C 353,765 367,761 383,761 C 407,761 419,776 419,802 L 399,802 C 399,787 393,781 383,781 C 374,781 360,785 336,793 C 309,802 295,806 279,806 Z M 566,0 L 566,690 L 544,690 L 544,315 C 544,222 544,113 546,20 L 129,690 L 96,690 L 96,0 L 118,0 L 118,375 C 118,468 118,577 116,670 L 532,0 L 566,0 Z "/>
</svg>
