<svg xmlns="http://www.w3.org/2000/svg" viewBox="0 -970 922 1200">
  <path transform="scale(1,-1)" d="M 886,277 C 886,408 823,540 666,540 C 571,540 477,486 448,381 C 434,488 367,540 259,540 C 153,540 70,470 64,382 L 86,382 C 98,480 185,519 259,519 C 380,519 431,444 431,304 L 431,280 L 397,280 C 223,280 47,250 47,127 C 47,27 129,-14 219,-14 C 304,-14 372,20 423,96 L 444,160 C 468,37 568,-14 657,-14 C 757,-14 846,45 878,161 L 856,161 C 825,54 742,7 659,7 C 552,7 458,76 454,258 L 885,258 C 886,269 886,273 886,277 Z M 454,279 C 458,444 556,519 664,519 C 760,519 858,461 862,279 L 454,279 Z M 431,229 C 431,97 343,7 222,7 C 130,7 71,55 71,128 C 71,241 267,265 431,258 L 431,229 Z "/>
</svg>
