<svg xmlns="http://www.w3.org/2000/svg" viewBox="0 -970 236 1200">
  <path transform="scale(1,-1)" d="M 165,-7 L 169,-7 C 186,-7 206,-6 219,-4 L 219,14 C 141,3 118,19 114,71 C 113,85 113,100 113,128 L 113,504 L 216,504 L 216,522 L 113,522 L 113,630 L 91,630 L 91,522 L 28,522 L 28,504 L 91,504 L 91,132 C 91,102 91,85 93,61 C 96,25 112,4 141,-4 L 108,-69 C 176,-66 206,-89 206,-128 C 206,-169 173,-189 128,-189 C 106,-189 90,-186 75,-178 L 75,-200 C 89,-207 106,-210 128,-210 C 177,-210 229,-186 229,-128 C 229,-79 195,-56 141,-51 L 165,-7 Z "/>
</svg>
