<svg xmlns="http://www.w3.org/2000/svg" viewBox="0 -970 991 1200">
  <path transform="scale(1,-1)" d="M 955,277 C 955,408 886,540 735,540 C 633,540 539,473 513,352 C 484,472 393,540 277,540 C 129,540 30,429 30,262 C 30,96 129,-14 277,-14 C 392,-14 481,55 510,173 C 538,46 629,-14 726,-14 C 826,-14 915,45 947,161 L 925,161 C 894,54 811,7 728,7 C 631,7 528,76 524,258 L 954,258 C 955,269 955,273 955,277 Z M 277,7 C 163,7 54,86 54,262 C 54,439 163,519 277,519 C 391,519 500,439 500,262 C 500,86 391,7 277,7 Z M 524,279 C 528,444 637,519 733,519 C 823,519 928,461 932,279 L 524,279 Z "/>
</svg>
