<svg xmlns="http://www.w3.org/2000/svg" viewBox="0 -970 571 1200">
  <path transform="scale(1,-1)" d="M 310,736 L 372,830 L 344,830 L 291,736 L 310,736 Z M 493,189 C 484,269 449,330 385,348 C 475,364 529,428 529,516 C 529,615 469,672 362,685 C 330,689 298,690 263,690 L 96,690 L 96,0 L 118,0 L 118,338 L 279,338 C 295,338 320,338 342,337 C 426,333 461,261 470,184 C 482,84 498,44 513,0 L 539,0 C 520,43 505,86 493,189 Z M 118,359 L 118,669 L 263,669 C 299,669 326,668 358,664 C 452,652 505,604 505,515 C 505,429 448,368 354,361 C 322,359 305,359 279,359 L 118,359 Z "/>
</svg>
