<svg xmlns="http://www.w3.org/2000/svg" viewBox="0 -970 838 1200">
  <path transform="scale(1,-1)" d="M 419,726 C 216,726 56,562 56,355 C 56,148 216,-16 419,-16 C 622,-16 782,148 782,355 C 782,562 622,726 419,726 Z M 419,704 C 609,704 760,549 760,355 C 760,161 609,7 419,7 C 229,7 78,161 78,355 C 78,549 229,704 419,704 Z M 422,564 C 324,564 243,485 243,355 C 243,227 323,149 415,149 C 503,149 566,194 584,286 L 562,286 C 545,208 494,170 418,170 C 328,170 265,251 265,356 C 265,454 324,543 422,543 C 503,543 549,497 563,426 L 585,426 C 573,518 506,564 422,564 Z "/>
</svg>
