<svg xmlns="http://www.w3.org/2000/svg" viewBox="0 -970 530 1200">
  <path transform="scale(1,-1)" d="M 210,651 C 219,651 233,647 257,639 C 284,630 298,626 314,626 C 338,626 350,641 350,667 L 330,667 C 330,652 324,646 314,646 C 305,646 291,650 267,658 C 240,667 226,671 210,671 C 186,671 174,656 174,630 L 194,630 C 194,645 200,651 210,651 Z M 460,378 C 449,481 385,540 279,540 C 214,540 153,513 114,458 L 93,406 L 93,526 L 71,526 L 71,0 L 93,0 L 93,312 C 93,452 183,519 279,519 C 379,519 428,459 438,370 C 441,343 442,320 442,283 L 442,0 L 464,0 L 464,292 C 464,335 463,351 460,378 Z "/>
</svg>
