<svg xmlns="http://www.w3.org/2000/svg" viewBox="0 -970 851 1200">
  <path transform="scale(1,-1)" d="M 599,465 L 574,465 L 558,397 L 537,449 C 524,467 501,483 462,483 C 341,483 250,359 250,218 C 250,98 319,67 373,67 C 419,67 459,88 494,135 L 512,173 C 512,97 564,75 613,75 C 708,75 797,165 797,338 C 797,530 665,664 470,664 C 275,664 61,507 61,244 C 61,9 230,-104 395,-104 C 495,-104 569,-90 681,-15 L 669,4 C 572,-63 499,-83 395,-83 C 235,-83 85,30 85,247 C 85,495 291,643 464,643 C 647,643 773,527 773,333 C 773,189 702,96 615,96 C 567,96 536,122 536,168 C 536,187 538,207 549,256 L 599,465 Z M 532,279 C 500,139 438,88 377,88 C 315,88 274,130 274,222 C 274,356 362,462 458,462 C 525,462 559,397 541,319 L 532,279 Z "/>
</svg>
