<svg xmlns="http://www.w3.org/2000/svg" viewBox="0 -970 554 1200">
  <path transform="scale(1,-1)" d="M 225,651 C 234,651 248,647 272,639 C 299,630 313,626 329,626 C 353,626 365,641 365,667 L 345,667 C 345,652 339,646 329,646 C 320,646 306,650 282,658 C 255,667 241,671 225,671 C 201,671 189,656 189,630 L 209,630 C 209,645 215,651 225,651 Z M 277,540 C 129,540 30,429 30,262 C 30,96 129,-14 277,-14 C 425,-14 524,96 524,262 C 524,429 425,540 277,540 Z M 277,7 C 163,7 54,86 54,262 C 54,439 163,519 277,519 C 391,519 500,439 500,262 C 500,86 391,7 277,7 Z "/>
</svg>
