<svg xmlns="http://www.w3.org/2000/svg" viewBox="0 -970 699 1200">
  <path transform="scale(1,-1)" d="M 199,704 C 119,704 71,635 71,545 C 71,457 119,386 199,386 C 279,386 327,457 327,545 C 327,635 279,704 199,704 Z M 139,0 L 586,690 L 560,690 L 113,0 L 139,0 Z M 199,683 C 267,683 303,626 303,545 C 303,465 267,407 199,407 C 131,407 95,465 95,545 C 95,626 131,683 199,683 Z M 500,304 C 420,304 372,235 372,145 C 372,57 420,-14 500,-14 C 580,-14 628,57 628,145 C 628,235 580,304 500,304 Z M 500,283 C 568,283 604,226 604,145 C 604,65 568,7 500,7 C 432,7 396,65 396,145 C 396,226 432,283 500,283 Z "/>
</svg>
