<svg xmlns="http://www.w3.org/2000/svg" viewBox="0 -970 530 1200">
  <path transform="scale(1,-1)" d="M 441,301 C 441,349 425,391 398,422 L 455,479 L 439,495 L 382,438 C 351,465 311,481 265,481 C 219,481 179,465 148,438 L 91,495 L 75,479 L 132,422 C 105,391 89,349 89,301 C 89,253 105,211 132,180 L 75,123 L 91,107 L 148,164 C 179,137 219,121 265,121 C 311,121 351,137 382,164 L 439,107 L 455,123 L 398,180 C 425,211 441,253 441,301 Z M 265,142 C 176,142 113,211 113,301 C 113,391 176,460 265,460 C 354,460 417,391 417,301 C 417,211 354,142 265,142 Z "/>
</svg>
