<svg xmlns="http://www.w3.org/2000/svg" viewBox="0 -970 530 1200">
  <path transform="scale(1,-1)" d="M 499,259 C 499,355 412,406 291,428 C 207,443 123,478 123,565 C 123,643 188,683 261,683 C 347,683 397,639 420,549 L 442,549 C 425,637 371,704 262,704 C 166,704 99,649 99,562 C 99,495 141,455 194,432 C 116,417 49,370 49,278 C 49,182 148,130 231,112 C 386,79 424,36 424,-39 C 424,-111 354,-153 271,-153 C 180,-153 121,-108 96,-9 L 74,-9 C 99,-124 167,-174 269,-174 C 372,-174 448,-121 448,-37 C 448,29 418,73 344,104 C 428,117 499,166 499,259 Z M 303,119 C 284,125 264,130 241,134 C 157,151 73,200 73,281 C 73,379 156,412 227,419 C 245,414 263,409 280,406 C 406,381 475,337 475,257 C 475,160 385,120 303,119 Z "/>
</svg>
