<svg xmlns="http://www.w3.org/2000/svg" viewBox="0 -970 517 1200">
  <path transform="scale(1,-1)" d="M 270,7 L 245,7 C 146,17 54,101 54,268 C 54,438 170,520 269,520 C 376,520 442,458 459,363 L 481,363 C 466,468 385,540 271,540 C 139,540 30,433 30,263 C 30,101 119,1 235,-12 L 206,-69 C 274,-66 304,-89 304,-128 C 304,-169 271,-189 226,-189 C 204,-189 188,-186 173,-178 L 173,-200 C 187,-207 204,-210 226,-210 C 275,-210 327,-186 327,-128 C 327,-79 293,-56 239,-51 L 259,-14 L 263,-14 C 371,-14 456,51 477,157 L 455,157 C 435,62 359,8 269,6 L 270,7 Z "/>
</svg>
