<svg xmlns="http://www.w3.org/2000/svg" viewBox="0 -970 521 1200">
  <path transform="scale(1,-1)" d="M 485,277 C 485,408 415,540 264,540 C 134,540 30,431 30,265 C 30,81 134,-14 256,-14 L 269,-14 C 222,-47 193,-100 193,-154 C 193,-208 225,-223 257,-223 C 285,-223 307,-214 326,-195 L 326,-172 C 304,-194 284,-203 261,-203 C 234,-203 215,-188 215,-151 C 215,-89 257,-29 321,-5 C 326,-4 331,-2 336,0 C 402,24 454,78 477,161 L 455,161 C 424,54 341,7 258,7 C 161,7 57,76 53,258 L 484,258 C 485,269 485,273 485,277 Z M 262,519 C 352,519 459,461 463,279 L 53,279 C 57,444 169,519 262,519 Z "/>
</svg>
