<svg xmlns="http://www.w3.org/2000/svg" viewBox="0 -970 296 1200">
  <path transform="scale(1,-1)" d="M 137,455 C 137,479 139,507 147,565 C 156,626 158,648 158,669 C 158,752 104,780 29,780 L 12,780 L 12,759 L 30,759 C 92,759 136,738 136,670 C 136,647 133,629 126,575 C 117,509 115,477 115,455 C 115,417 130,364 189,349 C 130,335 115,284 115,245 C 115,223 117,191 126,125 C 133,71 136,53 136,30 C 136,-38 92,-59 30,-59 L 12,-59 L 12,-80 L 29,-80 C 104,-80 158,-52 158,31 C 158,52 156,74 147,135 C 139,193 137,221 137,245 C 137,289 158,333 218,339 L 218,361 C 158,367 137,411 137,455 Z "/>
</svg>
