<svg xmlns="http://www.w3.org/2000/svg" viewBox="0 -970 640 1200">
  <path transform="scale(1,-1)" d="M 618,355 L 508,355 L 508,507 L 486,507 L 486,355 L 376,355 C 354,355 335,355 315,356 C 235,360 132,386 132,517 C 132,621 218,683 329,683 C 378,683 411,680 452,672 L 452,694 C 414,701 381,704 332,704 C 199,704 108,624 108,516 C 108,403 177,355 264,344 C 152,331 70,268 70,158 C 70,22 172,-14 333,-14 C 377,-14 451,-9 508,1 L 508,334 L 618,334 L 618,355 Z M 94,158 C 94,283 200,322 315,332 C 335,334 354,334 376,334 L 486,334 L 486,19 C 446,11 376,7 335,7 C 190,7 94,38 94,158 Z "/>
</svg>
