<svg xmlns="http://www.w3.org/2000/svg" viewBox="0 -970 530 1200">
  <path transform="scale(1,-1)" d="M 344,359 C 424,378 473,441 473,525 C 473,623 408,704 273,704 C 144,704 73,623 73,525 C 73,442 117,380 194,359 C 97,335 39,267 39,175 C 39,52 136,-15 265,-15 C 386,-15 491,52 491,175 C 491,268 442,336 344,359 Z M 97,525 C 97,622 166,683 273,683 C 380,683 449,622 449,525 C 449,416 359,369 273,369 C 187,369 97,416 97,525 Z M 267,6 C 168,6 63,56 63,175 C 63,276 138,348 269,348 C 400,348 467,276 467,175 C 467,56 358,6 267,6 Z "/>
</svg>
