<svg xmlns="http://www.w3.org/2000/svg" viewBox="0 -970 530 1200">
  <path transform="scale(1,-1)" d="M 286,683 C 383,679 444,617 457,514 L 479,514 C 466,615 406,700 286,704 L 286,780 L 264,780 L 264,704 C 162,698 82,631 82,525 C 82,409 169,361 264,333 L 264,7 C 162,12 86,72 74,180 L 52,180 C 65,52 158,-9 264,-14 L 264,-90 L 286,-90 L 286,-14 C 411,-10 477,68 477,155 C 477,256 407,319 286,354 L 286,683 Z M 106,525 C 106,626 183,678 264,683 L 264,358 C 176,385 106,424 106,525 Z M 286,329 C 393,296 453,244 453,153 C 453,71 393,10 286,7 L 286,329 Z "/>
</svg>
