<svg xmlns="http://www.w3.org/2000/svg" viewBox="0 -970 296 1200">
  <path transform="scale(1,-1)" d="M 284,759 L 284,780 L 267,780 C 192,780 138,752 138,669 C 138,648 140,626 149,565 C 157,507 159,479 159,455 C 159,411 138,367 78,361 L 78,339 C 138,333 159,289 159,245 C 159,221 157,193 149,135 C 140,74 138,52 138,31 C 138,-52 192,-80 267,-80 L 284,-80 L 284,-59 L 266,-59 C 204,-59 160,-38 160,30 C 160,53 163,71 170,125 C 179,191 181,223 181,245 C 181,283 166,336 107,351 C 166,365 181,416 181,455 C 181,477 179,509 170,575 C 163,629 160,647 160,670 C 160,738 204,759 266,759 L 284,759 Z "/>
</svg>
