<svg xmlns="http://www.w3.org/2000/svg" viewBox="0 -970 994 1200">
  <path transform="scale(1,-1)" d="M 732,544 C 613,544 525,465 498,318 C 463,468 381,544 262,544 C 124,544 30,431 30,264 C 30,98 124,-14 262,-14 C 381,-14 466,62 496,213 C 531,62 613,-14 732,-14 C 870,-14 964,98 964,264 C 964,431 870,544 732,544 Z M 262,7 C 158,7 54,88 54,264 C 54,441 158,523 262,523 C 358,523 457,459 483,265 C 467,71 358,7 262,7 Z M 732,7 C 636,7 536,71 511,265 C 526,459 636,523 732,523 C 836,523 940,441 940,264 C 940,88 836,7 732,7 Z "/>
</svg>
