<svg xmlns="http://www.w3.org/2000/svg" viewBox="0 -970 494 1200">
  <path transform="scale(1,-1)" d="M 432,0 C 426,69 423,110 423,170 L 423,332 C 423,360 423,374 421,401 C 414,489 357,540 254,540 C 150,540 73,470 67,382 L 89,382 C 101,480 180,519 254,519 C 340,519 392,477 399,398 C 401,375 401,355 401,330 L 401,303 L 367,303 C 203,303 47,250 47,127 C 47,33 109,-14 209,-14 C 280,-14 342,17 379,76 L 402,129 L 408,13 C 330,-11 278,-81 278,-154 C 278,-208 310,-223 342,-223 C 370,-223 392,-214 411,-195 L 411,-172 C 389,-194 369,-203 346,-203 C 319,-203 300,-188 300,-151 C 300,-84 350,-19 422,0 L 432,0 Z M 212,7 C 116,7 71,55 71,128 C 71,248 247,291 401,281 L 401,209 C 401,105 325,7 212,7 Z "/>
</svg>
