<svg xmlns="http://www.w3.org/2000/svg" viewBox="0 -970 435 1200">
  <path transform="scale(1,-1)" d="M 398,124 C 398,212 338,250 217,277 C 133,296 74,325 74,399 C 74,476 141,519 214,519 C 300,519 349,475 371,383 L 393,383 C 379,470 324,540 215,540 C 119,540 51,479 51,398 C 51,309 124,275 207,256 C 333,227 375,196 375,123 C 375,47 306,7 223,7 C 135,7 65,45 48,156 L 26,156 C 38,44 113,-7 203,-13 L 174,-69 C 242,-66 272,-89 272,-128 C 272,-169 239,-189 194,-189 C 172,-189 156,-186 141,-178 L 141,-200 C 155,-207 172,-210 194,-210 C 243,-210 295,-186 295,-128 C 295,-79 261,-56 207,-51 L 227,-14 C 327,-12 398,42 398,124 Z "/>
</svg>
