<svg xmlns="http://www.w3.org/2000/svg" viewBox="0 -970 594 1200">
  <path transform="scale(1,-1)" d="M 568,519 L 553,534 L 477,458 C 433,510 370,540 293,540 C 145,540 46,429 46,262 C 46,189 65,127 99,80 L 26,7 L 41,-8 L 112,63 C 156,14 218,-14 293,-14 C 441,-14 540,96 540,262 C 540,333 522,394 490,441 L 568,519 Z M 70,262 C 70,439 179,519 293,519 C 356,519 418,494 461,442 L 115,96 C 87,137 70,192 70,262 Z M 516,262 C 516,86 407,7 293,7 C 232,7 171,30 129,80 L 474,424 C 500,384 516,330 516,262 Z "/>
</svg>
