<svg xmlns="http://www.w3.org/2000/svg" viewBox="0 -970 494 1200">
  <path transform="scale(1,-1)" d="M 215,613 C 226,613 235,622 235,633 C 235,644 226,653 215,653 C 204,653 195,644 195,633 C 195,622 204,613 215,613 Z M 295,613 C 306,613 315,622 315,633 C 315,644 306,653 295,653 C 284,653 275,644 275,633 C 275,622 284,613 295,613 Z M 409,0 L 432,0 C 426,69 423,110 423,170 L 423,332 C 423,360 423,374 421,401 C 414,489 357,540 254,540 C 150,540 73,470 67,382 L 89,382 C 101,480 180,519 254,519 C 340,519 392,477 399,398 C 401,375 401,355 401,330 L 401,303 L 367,303 C 203,303 47,250 47,127 C 47,33 109,-14 209,-14 C 280,-14 342,17 379,76 L 402,129 L 409,0 Z M 212,7 C 116,7 71,55 71,128 C 71,248 247,291 401,281 L 401,209 C 401,105 325,7 212,7 Z "/>
</svg>
