<svg xmlns="http://www.w3.org/2000/svg" viewBox="0 -970 677 1200">
  <path transform="scale(1,-1)" d="M 628,227 L 606,227 L 604,217 C 580,99 500,7 352,7 C 204,7 75,115 75,344 C 75,565 216,683 360,683 C 497,683 579,597 602,484 L 604,474 L 626,474 L 624,484 C 599,608 515,704 364,704 C 187,704 51,558 51,343 C 51,123 174,-8 339,-14 L 311,-69 C 379,-66 409,-89 409,-128 C 409,-169 376,-189 331,-189 C 309,-189 293,-186 278,-178 L 278,-200 C 292,-207 309,-210 331,-210 C 380,-210 432,-186 432,-128 C 432,-79 398,-56 344,-51 L 364,-14 C 520,-8 601,92 626,217 L 628,227 Z "/>
</svg>
