<svg xmlns="http://www.w3.org/2000/svg" viewBox="0 -970 708 1200">
  <path transform="scale(1,-1)" d="M 371,847 C 338,847 313,823 313,791 C 313,758 338,734 371,734 C 404,734 429,758 429,791 C 429,823 404,847 371,847 Z M 379,704 C 185,704 49,559 49,342 C 49,132 170,-14 367,-14 C 547,-14 648,89 662,224 L 663,234 L 554,234 L 552,224 C 533,131 476,70 372,70 C 250,70 168,176 168,347 C 168,510 249,620 377,620 C 481,620 538,561 557,468 L 559,458 L 668,458 L 667,468 C 653,604 559,704 379,704 Z "/>
</svg>
