<svg xmlns="http://www.w3.org/2000/svg" viewBox="0 -970 751 1200">
  <path transform="scale(1,-1)" d="M 190,701 C 97,701 39,640 39,540 C 39,440 97,378 190,378 C 282,378 341,440 341,540 C 341,640 282,701 190,701 Z M 201,0 L 649,690 L 553,690 L 105,0 L 201,0 Z M 190,635 C 227,635 251,602 251,540 C 251,478 227,444 190,444 C 152,444 129,478 129,540 C 129,602 152,635 190,635 Z M 561,309 C 469,309 410,248 410,148 C 410,48 469,-14 561,-14 C 654,-14 712,48 712,148 C 712,248 654,309 561,309 Z M 561,243 C 599,243 622,210 622,148 C 622,86 599,52 561,52 C 524,52 500,86 500,148 C 500,210 524,243 561,243 Z "/>
</svg>
