<svg xmlns="http://www.w3.org/2000/svg" viewBox="0 -970 562 1200">
  <path transform="scale(1,-1)" d="M 283,589 C 320,589 348,616 348,653 C 348,689 320,716 283,716 C 246,716 219,689 219,653 C 219,616 246,589 283,589 Z M 526,279 C 526,429 443,545 289,545 C 136,545 29,432 29,264 C 29,76 136,-14 278,-14 C 394,-14 495,46 518,172 L 407,172 C 396,105 346,66 282,66 C 210,66 152,108 143,235 L 524,235 C 526,254 526,269 526,279 Z M 285,465 C 362,465 405,410 413,312 L 144,312 C 156,414 210,465 285,465 Z "/>
</svg>
