<svg xmlns="http://www.w3.org/2000/svg" viewBox="0 -970 883 1200">
  <path transform="scale(1,-1)" d="M 813,415 C 801,488 745,545 647,545 C 600,545 563,536 534,514 L 485,444 C 465,503 412,545 328,545 C 280,545 243,536 215,514 L 179,452 L 179,531 L 69,531 L 69,0 L 179,0 L 179,267 C 179,411 221,464 286,464 C 343,464 377,434 385,377 C 388,350 389,321 389,281 L 389,0 L 498,0 L 498,267 C 498,411 541,464 605,464 C 662,464 697,434 704,377 C 707,350 708,321 708,281 L 708,0 L 818,0 L 818,321 C 818,364 817,388 813,415 Z "/>
</svg>
