<svg xmlns="http://www.w3.org/2000/svg" viewBox="0 -970 629 1200">
  <path transform="scale(1,-1)" d="M 310,567 C 381,567 420,605 420,692 L 358,692 C 357,646 339,629 310,629 C 281,629 263,646 262,692 L 200,692 C 200,605 238,567 310,567 Z M 557,531 L 447,531 L 447,459 L 412,512 C 385,533 330,545 286,545 C 149,545 29,453 29,259 C 29,103 118,-9 271,-9 C 325,-9 377,7 407,31 L 447,89 L 447,78 C 447,59 447,40 446,17 C 442,-78 387,-130 291,-130 C 209,-130 160,-91 153,-34 L 152,-25 L 44,-25 L 45,-35 C 56,-149 137,-213 290,-213 C 450,-213 550,-132 556,29 C 557,58 557,99 557,132 L 557,531 Z M 293,71 C 198,71 145,154 145,269 C 145,401 211,465 298,465 C 369,465 447,417 447,288 L 447,265 C 447,123 376,71 293,71 Z "/>
</svg>
