<svg xmlns="http://www.w3.org/2000/svg" viewBox="0 -970 551 1200">
  <path transform="scale(1,-1)" d="M 465,112 C 464,128 464,144 464,162 L 464,732 C 420,747 363,754 291,754 C 148,754 80,696 70,599 C 68,581 68,558 68,539 L 68,527 L 21,527 L 21,450 L 68,450 L 68,0 L 177,0 L 177,450 L 286,450 L 286,527 L 177,527 L 177,545 C 177,559 178,581 180,595 C 186,642 218,674 288,674 C 313,674 335,672 355,667 L 355,159 C 355,127 355,103 356,83 C 359,15 399,-6 454,-6 C 479,-6 505,-4 529,-1 L 529,74 C 484,69 468,79 465,112 Z "/>
</svg>
