<svg xmlns="http://www.w3.org/2000/svg" viewBox="0 -970 750 1200">
  <path transform="scale(1,-1)" d="M 330,771 C 339,771 350,767 374,759 C 404,748 420,744 441,744 C 481,744 503,766 503,831 L 450,831 C 450,814 445,808 434,808 C 426,808 414,812 390,820 C 361,831 345,835 323,835 C 284,835 262,813 262,748 L 314,748 C 314,765 320,771 330,771 Z M 382,704 C 170,704 49,559 49,345 C 49,132 170,-14 382,-14 C 593,-14 714,132 714,345 C 714,559 593,704 382,704 Z M 382,70 C 247,70 167,174 167,345 C 167,517 247,620 382,620 C 516,620 596,517 596,345 C 596,174 516,70 382,70 Z "/>
</svg>
