<svg xmlns="http://www.w3.org/2000/svg" viewBox="0 -970 604 1200">
  <path transform="scale(1,-1)" d="M 532,0 L 532,531 L 423,531 L 423,281 C 423,127 365,68 288,68 C 220,68 182,106 174,164 C 171,191 170,220 170,237 L 170,531 L 61,531 L 61,215 C 61,172 62,148 66,121 C 78,48 142,-14 252,-14 C 305,-14 344,-5 386,25 L 423,91 L 423,10 C 368,-13 317,-66 317,-138 C 317,-201 357,-223 415,-223 C 456,-223 490,-212 516,-192 L 516,-137 C 498,-151 481,-157 463,-157 C 436,-157 419,-144 419,-107 C 419,-50 457,-7 501,0 L 532,0 Z "/>
</svg>
