<svg xmlns="http://www.w3.org/2000/svg" viewBox="0 -970 601 1200">
  <path transform="scale(1,-1)" d="M 480,301 C 480,339 468,375 448,404 L 507,462 L 462,507 L 403,449 C 374,469 338,481 300,481 C 262,481 227,469 198,449 L 140,507 L 95,462 L 152,405 C 132,375 120,340 120,301 C 120,263 132,227 152,198 L 95,141 L 140,96 L 197,153 C 226,133 262,121 300,121 C 339,121 374,133 404,154 L 462,96 L 507,141 L 448,199 C 468,228 480,263 480,301 Z M 300,188 C 239,188 193,235 193,301 C 193,367 239,414 300,414 C 362,414 408,367 408,301 C 408,235 362,188 300,188 Z "/>
</svg>
