<svg xmlns="http://www.w3.org/2000/svg" viewBox="0 -970 708 1200">
  <path transform="scale(1,-1)" d="M 554,234 L 552,224 C 533,131 476,70 372,70 C 250,70 168,176 168,347 C 168,510 249,620 377,620 C 481,620 538,561 557,468 L 559,458 L 668,458 L 667,468 C 653,604 559,704 379,704 C 185,704 49,559 49,342 C 49,149 151,11 320,-11 L 283,-81 C 353,-76 379,-91 379,-122 C 379,-146 359,-161 317,-161 C 298,-161 281,-159 263,-151 L 263,-202 C 278,-208 296,-210 315,-210 C 393,-210 449,-181 449,-122 C 449,-76 420,-48 365,-41 L 379,-14 C 551,-9 648,92 662,224 L 663,234 L 554,234 Z "/>
</svg>
