<svg xmlns="http://www.w3.org/2000/svg" viewBox="0 -970 691 1200">
  <path transform="scale(1,-1)" d="M 281,839 C 251,839 227,816 227,786 C 227,756 251,733 281,733 C 311,733 334,756 334,786 C 334,816 311,839 281,839 Z M 436,839 C 406,839 382,816 382,786 C 382,756 406,733 436,733 C 466,733 489,756 489,786 C 489,816 466,839 436,839 Z M 629,690 L 520,690 L 520,265 C 520,244 520,225 518,209 C 511,126 458,70 358,70 C 259,70 206,126 199,209 C 197,225 197,244 197,265 L 197,690 L 88,690 L 88,267 C 88,242 88,222 90,196 C 99,81 178,-14 358,-14 C 538,-14 617,81 627,196 C 629,222 629,242 629,267 L 629,690 Z "/>
</svg>
