<svg xmlns="http://www.w3.org/2000/svg" viewBox="0 -970 604 1200">
  <path transform="scale(1,-1)" d="M 216,580 C 246,580 270,602 270,632 C 270,662 246,685 216,685 C 186,685 163,662 163,632 C 163,602 186,580 216,580 Z M 376,580 C 406,580 429,602 429,632 C 429,662 406,685 376,685 C 346,685 323,662 323,632 C 323,602 346,580 376,580 Z M 532,531 L 423,531 L 423,281 C 423,127 365,68 288,68 C 220,68 182,106 174,164 C 171,191 170,220 170,237 L 170,531 L 61,531 L 61,215 C 61,172 62,148 66,121 C 78,48 142,-14 252,-14 C 305,-14 344,-5 386,25 L 423,91 L 423,0 L 532,0 L 532,531 Z "/>
</svg>
