<svg xmlns="http://www.w3.org/2000/svg" viewBox="0 -970 595 1200">
  <path transform="scale(1,-1)" d="M 316,704 C 187,704 78,629 78,507 C 78,387 165,338 296,307 C 408,281 450,244 450,172 C 450,109 393,70 321,70 C 240,70 180,115 162,200 L 48,200 C 62,61 163,-14 321,-14 C 455,-14 566,62 566,187 C 566,302 494,367 342,402 C 235,427 194,458 194,525 C 194,590 245,620 310,620 C 390,620 436,573 444,494 L 558,494 C 544,614 469,704 316,704 Z M 358,-59 L 358,-48 L 277,-48 L 217,-200 L 287,-200 L 358,-59 Z "/>
</svg>
