<svg xmlns="http://www.w3.org/2000/svg" viewBox="0 -970 663 1200">
  <path transform="scale(1,-1)" d="M 640,394 L 545,394 L 545,497 L 435,497 L 435,394 L 386,394 C 365,394 343,394 325,395 C 260,398 210,425 210,508 C 210,578 257,620 340,620 C 385,620 415,618 456,610 L 456,694 C 421,701 388,704 341,704 C 191,704 91,627 91,507 C 91,428 144,372 220,352 C 121,332 59,262 59,174 C 59,28 174,-14 335,-14 C 412,-14 483,-5 545,9 L 545,306 L 640,306 L 640,394 Z M 178,190 C 178,250 221,296 323,305 C 343,306 360,306 382,306 L 435,306 L 435,78 C 400,72 375,70 337,70 C 229,70 178,101 178,190 Z "/>
</svg>
