<svg xmlns="http://www.w3.org/2000/svg" viewBox="0 -970 562 1200">
  <path transform="scale(1,-1)" d="M 203,580 C 233,580 257,602 257,632 C 257,662 233,685 203,685 C 173,685 150,662 150,632 C 150,602 173,580 203,580 Z M 363,580 C 393,580 416,602 416,632 C 416,662 393,685 363,685 C 333,685 310,662 310,632 C 310,602 333,580 363,580 Z M 526,279 C 526,429 443,545 289,545 C 136,545 29,432 29,264 C 29,76 136,-14 278,-14 C 394,-14 495,46 518,172 L 407,172 C 396,105 346,66 282,66 C 210,66 152,108 143,235 L 524,235 C 526,254 526,269 526,279 Z M 285,465 C 362,465 405,410 413,312 L 144,312 C 156,414 210,465 285,465 Z "/>
</svg>
