<svg xmlns="http://www.w3.org/2000/svg" viewBox="0 -970 595 1200">
  <path transform="scale(1,-1)" d="M 566,187 C 566,302 494,367 342,402 C 235,427 194,458 194,525 C 194,590 245,620 310,620 C 390,620 436,573 444,494 L 558,494 C 544,614 469,704 316,704 C 187,704 78,629 78,507 C 78,387 165,338 296,307 C 408,281 450,244 450,172 C 450,109 393,70 321,70 C 240,70 180,115 162,200 L 48,200 C 60,76 142,3 271,-11 L 235,-81 C 305,-76 331,-91 331,-122 C 331,-146 311,-161 269,-161 C 250,-161 233,-159 215,-151 L 215,-202 C 230,-208 248,-210 267,-210 C 345,-210 401,-181 401,-122 C 401,-76 372,-48 317,-41 L 331,-14 C 460,-10 566,65 566,187 Z "/>
</svg>
