<svg xmlns="http://www.w3.org/2000/svg" viewBox="0 -970 606 1200">
  <path transform="scale(1,-1)" d="M 257,616 C 266,616 277,613 301,604 C 331,594 347,590 368,590 C 408,590 430,611 430,677 L 377,677 C 377,660 372,654 361,654 C 353,654 341,657 317,666 C 288,677 272,680 250,680 C 211,680 189,659 189,594 L 241,594 C 241,610 247,616 257,616 Z M 538,393 C 528,486 463,545 349,545 C 296,545 257,536 215,504 L 179,443 L 179,531 L 69,531 L 69,0 L 179,0 L 179,238 C 179,404 241,464 317,464 C 392,464 424,422 429,362 C 431,335 431,312 431,287 L 431,0 L 541,0 L 541,299 C 541,342 540,366 538,393 Z "/>
</svg>
