<svg xmlns="http://www.w3.org/2000/svg" viewBox="0 -970 601 1200">
  <path transform="scale(1,-1)" d="M 411,366 C 489,388 536,447 536,527 C 536,629 457,704 319,704 C 170,704 84,620 72,497 L 71,487 L 180,487 L 181,497 C 189,576 239,620 307,620 C 374,620 417,577 417,514 C 417,437 360,392 282,391 L 262,390 L 262,309 L 282,309 C 384,308 433,266 433,190 C 433,116 378,70 299,70 C 221,70 163,113 153,198 L 152,208 L 42,208 L 43,198 C 58,52 152,-14 294,-14 C 438,-14 552,66 552,195 C 552,286 500,344 411,366 Z "/>
</svg>
