<svg xmlns="http://www.w3.org/2000/svg" viewBox="0 -970 750 1200">
  <path transform="scale(1,-1)" d="M 305,733 C 335,733 358,756 358,786 C 358,816 335,839 305,839 C 275,839 251,816 251,786 C 251,756 275,733 305,733 Z M 460,733 C 490,733 513,756 513,786 C 513,816 490,839 460,839 C 430,839 406,816 406,786 C 406,756 430,733 460,733 Z M 382,704 C 170,704 49,559 49,345 C 49,132 170,-14 382,-14 C 593,-14 714,132 714,345 C 714,559 593,704 382,704 Z M 382,70 C 247,70 167,174 167,345 C 167,517 247,620 382,620 C 516,620 596,517 596,345 C 596,174 516,70 382,70 Z "/>
</svg>
