<svg xmlns="http://www.w3.org/2000/svg" viewBox="0 -970 635 1200">
  <path transform="scale(1,-1)" d="M 292,736 L 373,736 L 439,838 L 364,838 L 333,777 L 302,838 L 226,838 L 292,736 Z M 570,178 C 563,250 537,310 475,337 C 548,359 603,412 603,502 C 603,620 528,673 428,686 C 395,690 370,690 333,690 L 95,690 L 95,0 L 205,0 L 205,288 L 312,288 C 329,288 346,288 363,287 C 426,283 453,237 462,164 C 470,88 479,45 497,0 L 618,0 C 590,38 578,91 570,178 Z M 205,373 L 205,603 L 327,603 C 355,603 373,602 391,599 C 450,591 487,561 487,488 C 487,415 442,381 382,375 C 365,373 348,373 320,373 L 205,373 Z "/>
</svg>
