<svg xmlns="http://www.w3.org/2000/svg" viewBox="0 -970 537 1200">
  <path transform="scale(1,-1)" d="M 188,580 C 218,580 242,602 242,632 C 242,662 218,685 188,685 C 158,685 135,662 135,632 C 135,602 158,580 188,580 Z M 348,580 C 378,580 401,602 401,632 C 401,662 378,685 348,685 C 318,685 295,662 295,632 C 295,602 318,580 348,580 Z M 534,531 L 415,531 L 270,82 L 124,531 L 1,531 L 215,-25 L 207,-44 C 183,-106 149,-127 99,-127 C 88,-127 77,-127 64,-126 L 64,-207 C 80,-210 94,-210 116,-210 C 212,-210 269,-160 318,-34 L 534,531 Z "/>
</svg>
