<svg xmlns="http://www.w3.org/2000/svg" viewBox="0 -970 984 1200">
  <path transform="scale(1,-1)" d="M 948,279 C 948,429 864,545 713,545 C 627,545 555,509 509,424 C 466,506 394,545 298,545 C 119,545 29,421 29,266 C 29,111 119,-14 298,-14 C 392,-14 462,23 505,103 C 549,19 620,-14 701,-14 C 816,-14 916,46 940,172 L 828,172 C 817,105 768,66 703,66 C 632,66 574,114 566,235 L 945,235 C 947,254 948,269 948,279 Z M 298,66 C 201,66 145,146 145,266 C 145,386 201,465 298,465 C 394,465 450,386 450,266 C 450,146 394,66 298,66 Z M 567,312 C 579,413 631,465 707,465 C 784,465 826,410 835,312 L 567,312 Z "/>
</svg>
