<svg xmlns="http://www.w3.org/2000/svg" viewBox="0 -970 562 1200">
  <path transform="scale(1,-1)" d="M 526,279 C 526,429 443,545 289,545 C 136,545 29,432 29,264 C 29,88 123,-2 252,-13 C 215,-41 186,-84 186,-138 C 186,-201 226,-223 284,-223 C 325,-223 359,-212 385,-192 L 385,-137 C 367,-151 350,-157 332,-157 C 305,-157 288,-144 288,-107 C 288,-58 316,-20 351,-5 C 357,-4 363,-2 370,0 C 444,24 501,81 518,172 L 407,172 C 396,105 346,66 282,66 C 210,66 152,108 143,235 L 524,235 C 526,254 526,269 526,279 Z M 285,465 C 362,465 405,410 413,312 L 144,312 C 156,414 210,465 285,465 Z "/>
</svg>
