<svg xmlns="http://www.w3.org/2000/svg" viewBox="0 -970 503 1200">
  <path transform="scale(1,-1)" d="M 251,764 C 128,764 41,677 41,554 C 41,431 128,344 251,344 C 375,344 461,431 461,554 C 461,677 375,764 251,764 Z M 251,393 C 158,393 92,460 92,554 C 92,649 158,716 251,716 C 345,716 410,649 410,554 C 410,460 345,393 251,393 Z M 300,554 C 323,561 341,577 341,604 C 341,638 315,656 274,660 C 265,661 257,661 247,661 L 175,661 L 175,455 L 227,455 L 227,523 L 248,523 C 264,523 275,517 277,499 C 279,481 281,467 284,455 L 343,455 C 338,466 333,482 330,509 C 328,531 320,549 300,554 Z M 264,567 C 258,566 253,566 245,566 L 227,566 L 227,619 L 245,619 C 254,619 258,619 264,618 C 276,615 284,608 284,593 C 284,579 278,570 264,567 Z "/>
</svg>
