<svg xmlns="http://www.w3.org/2000/svg" viewBox="0 -970 544 1200">
  <path transform="scale(1,-1)" d="M 279,66 C 205,66 145,127 145,271 C 145,404 206,465 283,465 C 348,465 391,428 407,347 L 518,347 C 505,464 420,545 286,545 C 147,545 29,444 29,263 C 29,92 114,4 233,-11 L 197,-81 C 267,-76 293,-91 293,-122 C 293,-146 273,-161 231,-161 C 212,-161 195,-159 177,-151 L 177,-202 C 192,-208 210,-210 229,-210 C 307,-210 363,-181 363,-122 C 363,-76 334,-48 279,-41 L 293,-13 C 408,-7 491,56 515,176 L 403,176 C 387,104 342,66 279,66 Z "/>
</svg>
