<svg xmlns="http://www.w3.org/2000/svg" viewBox="0 -970 335 1200">
  <path transform="scale(1,-1)" d="M 293,714 L 293,780 L 272,780 C 182,780 136,753 136,672 C 136,647 138,626 148,560 C 155,509 158,482 158,455 C 158,416 139,389 76,383 L 76,317 C 139,312 158,285 158,245 C 158,218 155,191 148,140 C 138,74 136,53 136,29 C 136,-53 182,-80 272,-80 L 293,-80 L 293,-14 L 278,-14 C 222,-14 204,1 204,33 C 204,54 206,69 215,130 C 224,194 228,221 228,248 C 228,305 197,342 143,351 C 198,361 228,396 228,452 C 228,479 224,506 215,570 C 206,632 204,647 204,667 C 204,699 222,714 278,714 L 293,714 Z "/>
</svg>
