<svg xmlns="http://www.w3.org/2000/svg" viewBox="0 -970 623 1200">
  <path transform="scale(1,-1)" d="M 313,754 C 180,754 79,683 71,542 C 70,524 69,498 69,468 L 69,0 L 179,0 L 179,476 C 179,507 180,526 181,540 C 187,626 238,670 309,670 C 388,670 426,633 426,573 C 426,552 422,535 409,514 C 350,483 325,446 325,398 C 325,341 349,311 408,257 C 456,214 467,187 467,156 C 467,109 440,79 381,79 C 359,79 331,81 287,92 L 287,6 C 326,-2 352,-4 395,-4 C 498,-4 586,49 586,145 C 586,218 561,256 504,305 C 462,342 444,364 444,398 C 444,426 467,450 515,476 C 537,510 545,544 545,574 C 545,682 458,754 313,754 Z "/>
</svg>
