<svg xmlns="http://www.w3.org/2000/svg" viewBox="0 -970 545 1200">
  <path transform="scale(1,-1)" d="M 246,578 L 312,578 L 244,692 L 144,692 L 246,578 Z M 375,0 L 484,0 C 476,59 474,95 474,135 L 474,322 C 474,347 473,375 471,397 C 462,487 408,545 271,545 C 150,545 63,479 56,363 L 166,363 C 172,429 205,465 269,465 C 332,465 359,435 362,392 C 364,372 364,354 364,334 L 364,321 L 330,321 C 129,321 35,257 35,139 C 35,40 112,-14 206,-14 C 256,-14 302,-5 338,20 L 365,77 L 375,0 Z M 246,66 C 188,66 151,92 151,148 C 151,229 235,258 364,248 L 364,199 C 364,113 315,66 246,66 Z "/>
</svg>
