<svg xmlns="http://www.w3.org/2000/svg" viewBox="0 -970 691 1200">
  <path transform="scale(1,-1)" d="M 629,690 L 520,690 L 520,265 C 520,244 520,225 518,209 C 511,126 458,70 358,70 C 259,70 206,126 199,209 C 197,225 197,244 197,265 L 197,690 L 88,690 L 88,267 C 88,242 88,222 90,196 C 99,83 175,-10 347,-14 C 310,-42 282,-85 282,-138 C 282,-201 322,-223 380,-223 C 421,-223 455,-212 481,-192 L 481,-137 C 463,-151 446,-157 428,-157 C 401,-157 384,-144 384,-107 C 384,-57 413,-18 450,-4 C 566,23 619,103 627,196 C 629,222 629,242 629,267 L 629,690 Z "/>
</svg>
