<svg xmlns="http://www.w3.org/2000/svg" viewBox="0 -970 737 1200">
  <path transform="scale(1,-1)" d="M 320,835 C 281,835 259,813 259,748 L 311,748 C 311,765 317,771 327,771 C 336,771 347,767 371,759 C 401,748 417,744 438,744 C 478,744 500,766 500,831 L 447,831 C 447,814 442,808 431,808 C 423,808 411,812 387,820 C 358,831 342,835 320,835 Z M 665,0 L 664,690 L 556,690 L 556,358 C 556,287 557,195 559,117 L 250,690 L 95,690 L 95,0 L 205,0 L 205,330 C 205,401 204,490 201,569 L 507,0 L 665,0 Z "/>
</svg>
