<svg xmlns="http://www.w3.org/2000/svg" viewBox="0 -970 995 1200">
  <path transform="scale(1,-1)" d="M 720,544 C 616,544 552,499 502,396 C 453,499 375,544 278,544 C 111,544 29,421 29,265 C 29,110 111,-14 275,-14 C 379,-14 444,31 494,134 C 543,31 620,-14 718,-14 C 884,-14 967,110 967,265 C 967,421 884,544 720,544 Z M 280,66 C 201,66 145,147 145,265 C 145,383 201,464 280,464 C 350,464 403,410 429,265 C 412,121 350,66 280,66 Z M 715,66 C 645,66 593,121 567,265 C 584,409 645,464 715,464 C 795,464 850,383 850,265 C 850,147 795,66 715,66 Z "/>
</svg>
