<svg xmlns="http://www.w3.org/2000/svg" viewBox="0 -970 625 1200">
  <path transform="scale(1,-1)" d="M 600,505 L 552,553 L 484,485 C 441,523 381,545 305,545 C 127,545 36,421 36,266 C 36,199 53,137 87,88 L 25,26 L 73,-22 L 134,39 C 177,6 234,-14 305,-14 C 484,-14 574,111 574,266 C 574,329 559,387 529,434 L 600,505 Z M 153,266 C 153,386 209,465 305,465 C 351,465 388,447 414,415 L 168,169 C 158,197 153,230 153,266 Z M 458,266 C 458,146 402,66 305,66 C 263,66 228,81 203,108 L 446,352 C 454,326 458,298 458,266 Z "/>
</svg>
