<svg xmlns="http://www.w3.org/2000/svg" viewBox="0 -970 578 1200">
  <path transform="scale(1,-1)" d="M 550,243 C 550,342 485,397 340,437 C 244,463 208,496 208,550 C 208,599 241,627 285,627 C 335,627 367,593 378,535 L 489,535 C 478,637 409,704 287,704 C 175,704 94,640 94,536 C 94,500 106,469 126,444 C 68,417 30,367 30,295 C 30,192 111,135 226,105 C 346,74 377,36 377,-17 C 377,-70 339,-97 288,-97 C 233,-97 190,-67 173,2 L 62,2 C 76,-119 163,-174 283,-174 C 394,-174 491,-118 491,-8 C 491,36 478,70 455,98 C 511,126 550,177 550,243 Z M 144,299 C 144,350 169,377 205,384 C 233,370 264,359 297,349 C 395,319 436,288 436,232 C 436,196 413,166 376,154 C 347,168 313,180 274,190 C 194,211 144,248 144,299 Z "/>
</svg>
