<svg xmlns="http://www.w3.org/2000/svg" viewBox="0 -970 335 1200">
  <path transform="scale(1,-1)" d="M 259,383 C 196,389 177,416 177,455 C 177,482 180,509 187,560 C 197,626 199,647 199,672 C 199,753 153,780 63,780 L 42,780 L 42,714 L 57,714 C 113,714 131,699 131,667 C 131,647 129,632 120,570 C 111,506 107,479 107,452 C 107,396 138,358 192,349 C 137,340 107,305 107,248 C 107,221 111,194 120,130 C 129,69 131,54 131,33 C 131,1 113,-14 57,-14 L 42,-14 L 42,-80 L 63,-80 C 153,-80 199,-53 199,29 C 199,53 197,74 187,140 C 180,191 177,218 177,245 C 177,285 196,312 259,317 L 259,383 Z "/>
</svg>
