<svg xmlns="http://www.w3.org/2000/svg" viewBox="0 -970 601 1200">
  <path transform="scale(1,-1)" d="M 423,365 C 486,387 537,438 537,516 C 537,630 450,704 307,704 C 165,704 77,630 77,516 C 77,439 121,388 182,365 C 109,342 46,280 46,194 C 46,43 159,-15 300,-15 C 431,-15 555,43 555,194 C 555,280 495,342 423,365 Z M 307,620 C 383,620 422,573 422,512 C 422,447 381,401 306,401 C 231,401 192,447 192,512 C 192,573 232,620 307,620 Z M 302,69 C 211,69 164,120 164,193 C 164,261 208,317 301,317 C 396,317 436,260 436,193 C 436,120 394,69 302,69 Z "/>
</svg>
