<svg xmlns="http://www.w3.org/2000/svg" viewBox="0 -970 691 1200">
  <path transform="scale(1,-1)" d="M 358,889 C 301,889 260,853 260,803 C 260,753 301,718 358,718 C 415,718 456,753 456,803 C 456,853 415,889 358,889 Z M 358,845 C 381,845 398,828 398,803 C 398,779 381,761 358,761 C 335,761 318,779 318,803 C 318,828 335,845 358,845 Z M 629,690 L 520,690 L 520,265 C 520,244 520,225 518,209 C 511,126 458,70 358,70 C 259,70 206,126 199,209 C 197,225 197,244 197,265 L 197,690 L 88,690 L 88,267 C 88,242 88,222 90,196 C 99,81 178,-14 358,-14 C 538,-14 617,81 627,196 C 629,222 629,242 629,267 L 629,690 Z "/>
</svg>
