<svg xmlns="http://www.w3.org/2000/svg" viewBox="0 -970 601 1200">
  <path transform="scale(1,-1)" d="M 195,453 C 142,453 105,431 70,376 L 117,332 C 139,366 161,381 192,381 C 220,381 244,368 286,346 C 339,317 364,305 404,305 C 458,305 495,329 530,384 L 483,425 C 461,392 439,377 408,377 C 380,377 356,389 313,412 C 261,440 235,453 195,453 Z M 195,283 C 142,283 105,261 70,206 L 117,162 C 139,196 161,211 192,211 C 220,211 244,198 286,176 C 339,147 364,135 404,135 C 458,135 495,159 530,214 L 483,255 C 461,222 439,207 408,207 C 380,207 356,219 313,242 C 261,270 235,283 195,283 Z "/>
</svg>
