<svg xmlns="http://www.w3.org/2000/svg" viewBox="0 -970 604 1200">
  <path transform="scale(1,-1)" d="M 296,566 C 353,566 394,603 394,655 C 394,708 353,745 296,745 C 239,745 198,708 198,655 C 198,603 239,566 296,566 Z M 296,702 C 319,702 336,684 336,655 C 336,626 319,609 296,609 C 273,609 256,626 256,655 C 256,684 273,702 296,702 Z M 532,531 L 423,531 L 423,281 C 423,127 365,68 288,68 C 220,68 182,106 174,164 C 171,191 170,220 170,237 L 170,531 L 61,531 L 61,215 C 61,172 62,148 66,121 C 78,48 142,-14 252,-14 C 305,-14 344,-5 386,25 L 423,91 L 423,0 L 532,0 L 532,531 Z "/>
</svg>
