<svg xmlns="http://www.w3.org/2000/svg" viewBox="0 -970 496 1200">
  <path transform="scale(1,-1)" d="M 124,716 C 87,716 60,689 60,653 C 60,616 87,589 124,589 C 161,589 189,616 189,653 C 189,689 161,716 124,716 Z M 371,716 C 331,716 306,691 306,653 C 306,614 331,589 371,589 C 410,589 435,614 435,653 C 435,691 410,716 371,716 Z M 179,0 L 179,531 L 69,531 L 69,0 L 179,0 Z M 425,531 L 316,531 L 316,-34 C 316,-49 316,-65 314,-79 C 310,-115 286,-130 229,-125 L 229,-208 C 243,-210 257,-210 275,-210 C 375,-210 416,-168 423,-95 C 424,-77 425,-51 425,-31 L 425,531 Z "/>
</svg>
