<svg xmlns="http://www.w3.org/2000/svg" viewBox="0 -970 595 1200">
  <path transform="scale(1,-1)" d="M 246,616 C 255,616 266,613 290,604 C 320,594 336,590 357,590 C 397,590 419,611 419,677 L 366,677 C 366,660 361,654 350,654 C 342,654 330,657 306,666 C 277,677 261,680 239,680 C 200,680 178,659 178,594 L 230,594 C 230,610 236,616 246,616 Z M 298,545 C 119,545 29,421 29,266 C 29,111 119,-14 298,-14 C 476,-14 567,111 567,266 C 567,421 476,545 298,545 Z M 298,66 C 201,66 145,146 145,266 C 145,386 201,465 298,465 C 394,465 450,386 450,266 C 450,146 394,66 298,66 Z "/>
</svg>
