<svg xmlns="http://www.w3.org/2000/svg" viewBox="0 -970 595 1200">
  <path transform="scale(1,-1)" d="M 218,580 C 248,580 272,602 272,632 C 272,662 248,685 218,685 C 188,685 165,662 165,632 C 165,602 188,580 218,580 Z M 378,580 C 408,580 431,602 431,632 C 431,662 408,685 378,685 C 348,685 325,662 325,632 C 325,602 348,580 378,580 Z M 298,545 C 119,545 29,421 29,266 C 29,111 119,-14 298,-14 C 476,-14 567,111 567,266 C 567,421 476,545 298,545 Z M 298,66 C 201,66 145,146 145,266 C 145,386 201,465 298,465 C 394,465 450,386 450,266 C 450,146 394,66 298,66 Z "/>
</svg>
