<svg xmlns="http://www.w3.org/2000/svg" viewBox="0 -970 641 1200">
  <path transform="scale(1,-1)" d="M 467,369 C 538,393 580,438 580,516 C 580,612 518,671 408,686 C 374,690 352,690 318,690 L 95,690 L 95,0 L 330,0 C 365,0 388,0 422,5 C 513,18 605,78 605,204 C 605,296 557,347 467,369 Z M 205,603 L 318,603 C 334,603 354,602 370,600 C 425,594 464,565 464,504 C 464,448 438,413 377,403 C 359,400 342,399 325,399 L 205,399 L 205,603 Z M 388,89 C 375,88 357,88 341,88 L 205,88 L 205,314 L 335,314 C 351,314 367,314 387,311 C 446,304 489,274 489,199 C 489,132 445,94 388,89 Z "/>
</svg>
