<svg xmlns="http://www.w3.org/2000/svg" viewBox="0 -970 335 1200">
  <path transform="scale(1,-1)" d="M 200,450 L 304,450 L 304,527 L 200,527 L 200,654 L 91,654 L 91,527 L 16,527 L 16,450 L 91,450 L 91,162 C 91,132 91,109 92,91 C 96,41 115,10 157,-3 L 116,-81 C 186,-76 212,-91 212,-122 C 212,-146 192,-161 150,-161 C 131,-161 114,-159 96,-151 L 96,-202 C 111,-208 129,-210 148,-210 C 226,-210 282,-181 282,-122 C 282,-76 253,-48 198,-41 L 214,-10 L 216,-10 C 243,-10 269,-8 297,-4 L 297,72 C 225,65 205,76 201,128 C 200,142 200,154 200,172 L 200,450 Z "/>
</svg>
