<svg xmlns="http://www.w3.org/2000/svg" viewBox="0 -970 604 1200">
  <path transform="scale(1,-1)" d="M 511,652 L 493,710 L 421,685 C 392,709 358,728 319,745 L 240,687 C 269,676 294,664 316,650 L 215,615 L 233,558 L 370,604 C 406,565 426,516 432,457 L 387,516 C 350,538 320,545 276,545 C 144,545 29,440 29,260 C 29,102 115,-14 290,-14 C 427,-14 558,72 558,307 C 558,453 532,560 469,638 L 511,652 Z M 442,260 C 442,132 379,69 294,69 C 197,69 146,142 146,267 C 146,384 204,463 294,463 C 367,463 442,411 442,289 L 442,260 Z "/>
</svg>
