<svg xmlns="http://www.w3.org/2000/svg" viewBox="0 -970 476 1200">
  <path transform="scale(1,-1)" d="M 450,140 C 450,234 389,280 273,310 C 194,331 155,351 155,399 C 155,439 180,468 232,468 C 286,468 319,435 330,379 L 442,379 C 430,476 362,545 240,545 C 122,545 44,485 44,386 C 44,293 116,252 213,227 C 303,203 339,178 339,132 C 339,86 298,64 247,64 C 192,64 147,91 134,159 L 23,159 C 37,50 110,-4 212,-13 L 176,-81 C 246,-76 272,-91 272,-122 C 272,-146 252,-161 210,-161 C 191,-161 174,-159 156,-151 L 156,-202 C 171,-208 189,-210 208,-210 C 286,-210 342,-181 342,-122 C 342,-76 313,-48 258,-41 L 272,-13 C 374,-5 450,46 450,140 Z "/>
</svg>
