<svg xmlns="http://www.w3.org/2000/svg" viewBox="0 -970 872 1200">
  <path transform="scale(1,-1)" d="M 651,467 L 553,467 L 534,403 L 524,455 C 507,474 475,485 439,485 C 315,485 229,366 229,232 C 229,108 303,69 369,69 C 403,69 434,80 466,106 L 489,153 C 501,97 544,73 602,73 C 707,73 815,149 815,336 C 815,530 683,674 478,674 C 259,674 52,508 52,245 C 52,-1 229,-112 407,-112 C 489,-112 590,-89 684,-26 L 657,32 C 587,-19 495,-44 413,-44 C 247,-44 125,57 125,248 C 125,476 305,606 475,606 C 625,606 742,512 742,332 C 742,203 684,141 627,141 C 595,141 588,161 588,184 C 588,195 589,208 596,236 L 651,467 Z M 496,250 C 484,198 448,149 400,149 C 366,149 341,173 341,239 C 341,325 384,405 454,405 C 496,405 525,376 507,297 L 496,250 Z "/>
</svg>
