<svg xmlns="http://www.w3.org/2000/svg" viewBox="0 -970 910 1200">
  <path transform="scale(1,-1)" d="M 874,279 C 874,429 790,545 639,545 C 556,545 492,511 451,450 C 425,511 369,545 271,545 C 144,545 59,479 56,363 L 166,363 C 169,429 205,465 272,465 C 347,465 378,415 378,334 L 378,312 L 338,312 C 139,312 35,261 35,140 C 35,40 117,-14 221,-14 C 279,-14 335,0 384,41 L 421,103 C 463,19 537,-14 626,-14 C 742,-14 842,46 866,172 L 754,172 C 743,105 694,66 629,66 C 558,66 500,114 492,235 L 871,235 C 873,254 874,269 874,279 Z M 493,312 C 505,413 557,465 633,465 C 710,465 752,410 761,312 L 493,312 Z M 378,210 C 378,121 322,66 249,66 C 188,66 151,92 151,149 C 151,225 233,241 378,235 L 378,210 Z "/>
</svg>
