<svg xmlns="http://www.w3.org/2000/svg" viewBox="0 -970 476 1200">
  <path transform="scale(1,-1)" d="M 240,545 C 122,545 44,485 44,386 C 44,293 116,252 213,227 C 303,203 339,178 339,132 C 339,86 298,64 247,64 C 192,64 147,91 134,159 L 23,159 C 38,39 125,-14 243,-14 C 359,-14 450,37 450,140 C 450,234 389,280 273,310 C 194,331 155,351 155,399 C 155,439 180,468 232,468 C 286,468 319,435 330,379 L 442,379 C 430,476 362,545 240,545 Z M 295,-48 L 214,-48 L 154,-200 L 224,-200 L 295,-59 L 295,-48 Z "/>
</svg>
