<svg xmlns="http://www.w3.org/2000/svg" viewBox="0 -970 722 1200">
  <path transform="scale(1,-1)" d="M 369,734 C 402,734 427,758 427,791 C 427,823 402,847 369,847 C 336,847 311,823 311,791 C 311,758 336,734 369,734 Z M 402,342 L 402,254 L 556,254 C 550,143 476,70 374,70 C 251,70 168,176 168,347 C 168,510 251,620 379,620 C 484,620 541,561 559,468 L 561,458 L 671,458 L 670,468 C 656,604 562,704 381,704 C 187,704 49,559 49,342 C 49,132 165,-14 362,-14 C 439,-14 497,8 536,50 L 567,117 L 571,0 L 663,0 L 663,342 L 402,342 Z "/>
</svg>
