<svg xmlns="http://www.w3.org/2000/svg" viewBox="0 -970 601 1200">
  <path transform="scale(1,-1)" d="M 549,183 C 549,291 492,354 340,402 L 340,620 C 398,608 425,565 432,504 L 544,504 C 531,609 466,691 340,703 L 340,780 L 272,780 L 272,702 C 162,690 76,624 76,506 C 76,391 151,339 272,303 L 272,71 C 210,83 170,125 162,190 L 50,190 C 57,68 142,-3 272,-13 L 272,-90 L 340,-90 L 340,-12 C 459,0 549,69 549,183 Z M 186,520 C 186,577 219,611 272,620 L 272,414 C 214,433 186,461 186,520 Z M 340,289 C 414,263 437,224 437,173 C 437,110 399,78 340,70 L 340,289 Z "/>
</svg>
