<svg xmlns="http://www.w3.org/2000/svg" viewBox="0 -970 756 1200">
  <path transform="scale(1,-1)" d="M 725,637 L 677,685 L 614,622 C 558,674 481,704 385,704 C 174,704 52,559 52,345 C 52,257 73,180 112,120 L 45,53 L 93,5 L 156,68 C 212,16 290,-14 385,-14 C 596,-14 718,132 718,345 C 718,434 697,510 658,570 L 725,637 Z M 170,345 C 170,517 250,620 385,620 C 451,620 504,595 541,549 L 194,202 C 178,242 170,290 170,345 Z M 600,345 C 600,174 520,70 385,70 C 319,70 266,95 229,141 L 576,488 C 592,448 600,400 600,345 Z "/>
</svg>
