<svg xmlns="http://www.w3.org/2000/svg" viewBox="0 -970 601 1200">
  <path transform="scale(1,-1)" d="M 472,251 L 483,317 L 219,317 C 219,326 219,336 219,346 L 219,370 L 492,370 L 506,436 L 225,436 C 246,569 315,620 407,620 C 456,620 499,605 532,572 L 579,642 C 543,682 485,704 406,704 C 252,704 136,620 107,436 L 66,436 L 53,370 L 101,370 C 100,361 100,352 100,342 L 100,317 L 44,317 L 32,251 L 105,251 C 128,54 233,-14 391,-14 C 456,-14 504,-4 553,24 L 553,110 C 509,82 463,70 406,70 C 308,70 244,120 225,251 L 472,251 Z "/>
</svg>
