<svg xmlns="http://www.w3.org/2000/svg" viewBox="0 -970 838 1200">
  <path transform="scale(1,-1)" d="M 802,685 L 754,733 L 674,653 C 606,713 517,749 419,749 C 203,749 30,574 30,355 C 30,258 64,169 121,100 L 37,16 L 85,-33 L 170,52 C 237,-5 324,-39 419,-39 C 635,-39 808,136 808,355 C 808,450 776,536 721,604 L 802,685 Z M 104,355 C 104,536 243,681 419,681 C 498,681 569,652 624,603 L 172,151 C 129,207 104,277 104,355 Z M 419,29 C 342,29 273,56 219,102 L 670,553 C 710,498 734,430 734,355 C 734,173 595,29 419,29 Z "/>
</svg>
