<svg xmlns="http://www.w3.org/2000/svg" viewBox="0 -970 838 1200">
  <path transform="scale(1,-1)" d="M 764,401 C 752,485 699,543 604,543 C 554,543 512,529 482,497 L 441,430 C 423,498 371,543 287,543 C 237,543 196,529 165,497 L 135,438 L 135,529 L 73,529 L 73,0 L 135,0 L 135,277 C 135,434 193,493 268,493 C 338,493 377,452 386,381 C 389,354 390,327 390,284 L 390,0 L 452,0 L 452,277 C 452,434 510,493 585,493 C 655,493 694,452 703,381 C 706,354 707,327 707,284 L 707,0 L 769,0 L 769,312 C 769,355 768,374 764,401 Z "/>
</svg>
