<svg xmlns="http://www.w3.org/2000/svg" viewBox="0 -970 649 1200">
  <path transform="scale(1,-1)" d="M 621,374 L 519,374 L 519,501 L 457,501 L 457,374 L 379,374 C 357,374 336,374 317,375 C 241,379 167,405 167,513 C 167,600 233,654 332,654 C 381,654 414,651 455,643 L 455,694 C 417,701 384,704 335,704 C 195,704 98,624 98,510 C 98,418 157,365 236,349 C 133,331 66,260 66,167 C 66,25 175,-14 336,-14 C 394,-14 462,-7 519,5 L 519,322 L 621,322 L 621,374 Z M 135,176 C 135,262 203,310 318,320 C 338,322 357,322 379,322 L 457,322 L 457,46 C 418,39 379,36 338,36 C 205,36 135,71 135,176 Z "/>
</svg>
