<svg xmlns="http://www.w3.org/2000/svg" viewBox="0 -970 517 1200">
  <path transform="scale(1,-1)" d="M 200,594 C 220,594 237,611 237,631 C 237,650 220,667 200,667 C 181,667 164,650 164,631 C 164,611 181,594 200,594 Z M 322,594 C 341,594 358,611 358,631 C 358,650 341,667 322,667 C 302,667 285,650 285,631 C 285,611 302,594 322,594 Z M 390,0 L 452,0 C 445,63 442,101 442,148 L 442,333 C 442,358 442,380 440,403 C 432,490 377,543 260,543 C 148,543 69,476 62,372 L 127,372 C 135,454 187,493 260,493 C 336,493 373,458 378,397 C 380,376 380,356 380,332 L 380,313 L 346,313 C 155,313 40,254 40,133 C 40,37 110,-14 208,-14 C 266,-14 318,3 355,40 L 381,96 L 390,0 Z M 227,35 C 150,35 108,71 108,138 C 108,240 231,275 380,265 L 380,204 C 380,105 319,35 227,35 Z "/>
</svg>
