<svg xmlns="http://www.w3.org/2000/svg" viewBox="0 -970 728 1200">
  <path transform="scale(1,-1)" d="M 317,776 C 326,776 338,773 362,765 C 389,756 404,752 422,752 C 451,752 468,767 468,811 L 437,811 C 437,796 431,791 421,791 C 412,791 400,794 376,802 C 349,811 334,815 316,815 C 287,815 270,800 270,756 L 301,756 C 301,771 307,776 317,776 Z M 369,704 C 168,704 49,555 49,345 C 49,137 168,-14 369,-14 C 571,-14 690,137 690,345 C 690,555 571,704 369,704 Z M 369,36 C 221,36 118,152 118,345 C 118,539 221,654 369,654 C 518,654 621,539 621,345 C 621,152 518,36 369,36 Z "/>
</svg>
