<svg xmlns="http://www.w3.org/2000/svg" viewBox="0 -970 733 1200">
  <path transform="scale(1,-1)" d="M 699,641 L 668,672 L 604,608 C 549,669 470,704 372,704 C 170,704 51,555 51,345 C 51,256 73,178 113,117 L 45,49 L 76,18 L 140,82 C 195,22 274,-14 372,-14 C 574,-14 693,137 693,345 C 693,434 671,513 631,573 L 699,641 Z M 120,345 C 120,539 223,654 372,654 C 450,654 515,622 560,564 L 160,164 C 134,212 120,273 120,345 Z M 624,345 C 624,152 520,36 372,36 C 294,36 229,68 184,126 L 584,526 C 610,478 624,417 624,345 Z "/>
</svg>
