<svg xmlns="http://www.w3.org/2000/svg" viewBox="0 -970 651 1200">
  <path transform="scale(1,-1)" d="M 583,690 L 521,690 L 521,250 C 521,228 520,208 518,189 C 510,102 453,36 338,36 C 222,36 165,102 157,189 C 155,208 155,228 155,250 L 155,690 L 93,690 L 93,247 C 93,227 93,207 95,183 C 104,71 180,-14 338,-14 L 345,-14 C 303,-44 274,-89 274,-144 C 274,-204 310,-223 356,-223 C 388,-223 415,-215 438,-197 L 438,-158 C 418,-175 400,-182 379,-182 C 350,-182 334,-168 334,-131 C 334,-67 380,-17 438,0 C 528,29 574,98 580,183 C 582,207 583,227 583,247 L 583,690 Z "/>
</svg>
