<svg xmlns="http://www.w3.org/2000/svg" viewBox="0 -970 580 1200">
  <path transform="scale(1,-1)" d="M 294,754 C 177,754 83,685 75,548 C 74,530 73,504 73,484 L 73,0 L 135,0 L 135,490 C 135,513 136,532 137,546 C 144,649 208,704 291,704 C 377,704 430,658 430,582 C 430,557 425,535 410,511 C 346,479 316,445 316,396 C 316,344 336,316 397,262 C 456,209 469,179 469,142 C 469,82 428,45 352,45 C 326,45 295,48 253,58 L 253,6 C 292,-2 322,-4 355,-4 C 461,-4 538,49 538,138 C 538,204 509,246 448,298 C 402,336 385,360 385,396 C 385,429 414,453 467,480 C 491,517 499,551 499,583 C 499,688 415,754 294,754 Z "/>
</svg>
