<svg xmlns="http://www.w3.org/2000/svg" viewBox="0 -970 450 1200">
  <path transform="scale(1,-1)" d="M 203,580 L 248,580 L 315,690 L 267,690 L 226,615 L 186,690 L 137,690 L 203,580 Z M 237,295 C 161,314 111,338 111,399 C 111,457 154,493 218,493 C 289,493 332,454 347,381 L 412,381 C 400,474 338,543 223,543 C 119,543 47,483 47,392 C 47,301 122,264 213,240 C 316,215 354,186 354,127 C 354,66 299,35 232,35 C 161,35 104,66 89,156 L 25,156 C 40,36 123,-14 228,-14 C 337,-14 417,38 417,132 C 417,221 359,265 237,295 Z "/>
</svg>
