<svg xmlns="http://www.w3.org/2000/svg" viewBox="0 -970 588 1200">
  <path transform="scale(1,-1)" d="M 513,530 L 451,530 L 451,438 L 418,495 C 385,527 334,543 282,543 C 148,543 30,450 30,258 C 30,101 118,-14 266,-14 C 327,-14 379,3 416,40 L 451,98 L 451,85 C 451,57 451,36 450,7 C 446,-98 386,-165 274,-165 C 185,-165 122,-123 113,-45 L 111,-33 L 49,-33 L 50,-45 C 63,-160 143,-214 274,-214 C 419,-214 507,-131 512,10 C 513,41 513,82 513,134 L 513,530 Z M 275,35 C 159,35 98,139 98,266 C 98,409 176,493 282,493 C 360,493 451,442 451,292 L 451,252 C 451,92 369,35 275,35 Z "/>
</svg>
