<svg xmlns="http://www.w3.org/2000/svg" viewBox="0 -970 284 1200">
  <path transform="scale(1,-1)" d="M 153,477 L 254,477 L 254,525 L 153,525 L 153,642 L 91,642 L 91,525 L 23,525 L 23,477 L 91,477 L 91,144 C 91,114 91,94 92,76 C 96,33 114,7 147,-3 L 109,-75 C 178,-70 206,-90 206,-126 C 206,-158 180,-176 138,-176 C 116,-176 100,-173 85,-165 L 85,-201 C 99,-207 116,-210 136,-210 C 200,-210 251,-182 251,-125 C 251,-77 220,-50 167,-44 L 187,-8 C 208,-8 230,-7 251,-3 L 251,43 C 180,34 158,47 154,98 C 153,112 153,123 153,145 L 153,477 Z "/>
</svg>
