<svg xmlns="http://www.w3.org/2000/svg" viewBox="0 -970 574 1200">
  <path transform="scale(1,-1)" d="M 226,594 C 246,594 263,611 263,631 C 263,650 246,667 226,667 C 207,667 190,650 190,631 C 190,611 207,594 226,594 Z M 348,594 C 367,594 384,611 384,631 C 384,650 367,667 348,667 C 328,667 311,650 311,631 C 311,611 328,594 348,594 Z M 287,543 C 119,543 30,420 30,264 C 30,109 119,-14 287,-14 C 455,-14 544,109 544,264 C 544,420 455,543 287,543 Z M 287,35 C 177,35 98,120 98,264 C 98,408 177,493 287,493 C 397,493 476,408 476,264 C 476,120 397,35 287,35 Z "/>
</svg>
