<svg xmlns="http://www.w3.org/2000/svg" viewBox="0 -970 561 1200">
  <path transform="scale(1,-1)" d="M 459,301 C 459,344 445,382 422,412 L 481,472 L 450,503 L 390,444 C 360,467 323,481 281,481 C 239,481 202,468 171,444 L 112,503 L 81,472 L 139,413 C 116,382 102,344 102,301 C 102,259 116,220 139,190 L 81,132 L 112,100 L 171,158 C 201,135 239,121 281,121 C 323,121 361,135 391,158 L 450,100 L 481,131 L 422,190 C 445,221 459,259 459,301 Z M 281,165 C 205,165 150,223 150,301 C 150,379 205,437 281,437 C 356,437 411,379 411,301 C 411,223 356,165 281,165 Z "/>
</svg>
