<svg xmlns="http://www.w3.org/2000/svg" viewBox="0 -970 728 1200">
  <path transform="scale(1,-1)" d="M 312,747 C 332,747 348,763 348,783 C 348,803 332,819 312,819 C 292,819 276,803 276,783 C 276,763 292,747 312,747 Z M 426,747 C 446,747 462,763 462,783 C 462,803 446,819 426,819 C 406,819 390,803 390,783 C 390,763 406,747 426,747 Z M 369,704 C 168,704 49,555 49,345 C 49,137 168,-14 369,-14 C 571,-14 690,137 690,345 C 690,555 571,704 369,704 Z M 369,36 C 221,36 118,152 118,345 C 118,539 221,654 369,654 C 518,654 621,539 621,345 C 621,152 518,36 369,36 Z "/>
</svg>
