<svg xmlns="http://www.w3.org/2000/svg" viewBox="0 -970 539 1200">
  <path transform="scale(1,-1)" d="M 208,594 C 228,594 245,611 245,631 C 245,650 228,667 208,667 C 189,667 172,650 172,631 C 172,611 189,594 208,594 Z M 330,594 C 349,594 366,611 366,631 C 366,650 349,667 330,667 C 310,667 293,650 293,631 C 293,611 310,594 330,594 Z M 500,279 C 500,425 423,543 275,543 C 136,543 30,434 30,264 C 30,78 133,-14 265,-14 C 371,-14 468,44 493,167 L 428,167 C 409,80 343,35 269,35 C 183,35 104,90 97,246 L 498,246 C 500,262 500,272 500,279 Z M 273,493 C 362,493 430,431 437,295 L 97,295 C 106,427 186,493 273,493 Z "/>
</svg>
