<svg xmlns="http://www.w3.org/2000/svg" viewBox="0 -970 561 1200">
  <path transform="scale(1,-1)" d="M 470,674 L 454,714 L 385,685 C 354,710 319,730 277,745 L 238,703 C 272,693 301,679 327,662 L 199,609 L 215,569 L 364,630 C 406,587 431,527 438,447 L 392,509 C 354,534 318,544 269,544 C 134,544 30,431 30,257 C 30,102 111,-14 266,-14 C 403,-14 514,77 514,307 C 514,469 484,579 418,653 L 470,674 Z M 447,271 C 447,116 374,35 271,35 C 165,35 98,120 98,264 C 98,407 174,495 275,495 C 364,495 447,430 447,297 L 447,271 Z "/>
</svg>
