<svg xmlns="http://www.w3.org/2000/svg" viewBox="0 -970 610 1200">
  <path transform="scale(1,-1)" d="M 584,512 L 553,543 L 482,472 C 439,516 377,543 299,543 C 131,543 42,420 42,264 C 42,195 60,132 94,84 L 26,16 L 57,-15 L 123,51 C 165,10 224,-14 299,-14 C 467,-14 556,109 556,264 C 556,330 540,390 509,437 L 584,512 Z M 109,264 C 109,408 189,493 299,493 C 356,493 404,470 438,428 L 139,129 C 120,165 109,211 109,264 Z M 488,264 C 488,120 408,35 299,35 C 245,35 199,55 165,93 L 462,390 C 479,356 488,313 488,264 Z "/>
</svg>
