<svg xmlns="http://www.w3.org/2000/svg" viewBox="0 -970 838 1200">
  <path transform="scale(1,-1)" d="M 419,737 C 209,737 44,570 44,355 C 44,140 209,-27 419,-27 C 630,-27 795,140 795,355 C 795,570 630,737 419,737 Z M 419,693 C 603,693 748,545 748,355 C 748,165 603,18 419,18 C 235,18 91,165 91,355 C 91,545 235,693 419,693 Z M 424,578 C 307,578 222,493 222,354 C 222,220 305,133 416,133 C 524,133 587,192 608,285 L 542,285 C 531,224 487,184 422,184 C 343,184 290,254 290,356 C 290,454 338,527 424,527 C 496,527 532,485 543,425 L 609,425 C 592,519 524,578 424,578 Z "/>
</svg>
