<svg xmlns="http://www.w3.org/2000/svg" viewBox="0 -970 414 1200">
  <path transform="scale(1,-1)" d="M 104,685 C 81,685 62,667 62,643 C 62,620 81,601 104,601 C 128,601 146,620 146,643 C 146,667 128,685 104,685 Z M 308,685 C 285,685 266,667 266,643 C 266,620 285,601 308,601 C 332,601 350,620 350,643 C 350,667 332,685 308,685 Z M 135,0 L 135,529 L 73,529 L 73,0 L 135,0 Z M 339,529 L 277,529 L 277,-63 C 277,-78 277,-91 276,-105 C 272,-149 245,-163 190,-156 L 190,-207 C 203,-210 215,-210 229,-210 C 296,-210 331,-178 337,-116 C 339,-98 339,-76 339,-56 L 339,529 Z "/>
</svg>
