<svg xmlns="http://www.w3.org/2000/svg" viewBox="0 -970 901 1200">
  <path transform="scale(1,-1)" d="M 862,279 C 862,425 788,543 638,543 C 552,543 483,503 443,430 C 419,504 363,543 262,543 C 144,543 65,476 61,372 L 125,372 C 132,454 187,493 262,493 C 359,493 398,430 398,322 L 398,296 L 364,296 C 169,296 40,254 40,133 C 40,35 122,-14 216,-14 C 286,-14 346,8 399,65 L 424,119 C 461,23 542,-14 628,-14 C 733,-14 830,44 855,167 L 790,167 C 771,80 705,35 631,35 C 542,35 467,95 460,246 L 861,246 C 862,262 862,272 862,279 Z M 460,295 C 469,428 542,493 636,493 C 726,493 792,432 799,295 L 460,295 Z M 398,217 C 398,107 326,35 231,35 C 156,35 108,71 108,138 C 108,234 239,253 398,246 L 398,217 Z "/>
</svg>
