<svg xmlns="http://www.w3.org/2000/svg" viewBox="0 -970 567 1200">
  <path transform="scale(1,-1)" d="M 492,529 L 430,529 L 430,266 C 430,100 355,36 267,36 C 185,36 139,85 131,155 C 128,182 127,209 127,234 L 127,529 L 65,529 L 65,220 C 65,177 66,158 69,131 C 81,47 145,-14 253,-14 C 311,-14 359,2 401,43 L 430,102 L 430,12 C 364,-11 310,-69 310,-144 C 310,-204 346,-223 392,-223 C 424,-223 451,-215 474,-197 L 474,-158 C 454,-175 436,-182 415,-182 C 386,-182 370,-168 370,-131 C 370,-67 415,-13 474,0 L 492,0 L 492,529 Z "/>
</svg>
