<svg xmlns="http://www.w3.org/2000/svg" viewBox="0 -970 460 1200">
  <path transform="scale(1,-1)" d="M 373,83 C 372,99 372,117 372,140 L 372,735 C 340,748 299,754 248,754 C 140,754 82,699 72,610 C 70,591 70,568 70,550 L 70,525 L 23,525 L 23,475 L 70,475 L 70,0 L 132,0 L 132,475 L 240,475 L 240,525 L 132,525 L 132,555 C 132,570 132,590 134,607 C 140,660 172,705 246,705 C 271,705 292,703 310,697 L 310,138 C 310,106 310,85 311,67 C 314,10 344,-4 386,-4 C 402,-4 419,-4 435,-1 L 435,45 C 390,40 375,49 373,83 Z "/>
</svg>
