<svg xmlns="http://www.w3.org/2000/svg" viewBox="0 -970 989 1200">
  <path transform="scale(1,-1)" d="M 720,544 C 611,544 540,484 496,365 C 452,485 373,544 269,544 C 111,544 30,421 30,265 C 30,109 111,-14 269,-14 C 378,-14 448,45 493,167 C 537,45 616,-14 720,-14 C 878,-14 959,109 959,265 C 959,421 878,544 720,544 Z M 269,35 C 176,35 98,121 98,265 C 98,409 176,495 269,495 C 352,495 427,434 455,265 C 437,96 352,35 269,35 Z M 720,35 C 637,35 562,96 534,265 C 552,434 637,495 720,495 C 814,495 891,409 891,265 C 891,121 814,35 720,35 Z "/>
</svg>
