<svg xmlns="http://www.w3.org/2000/svg" viewBox="0 -970 517 1200">
  <path transform="scale(1,-1)" d="M 261,568 C 307,568 341,599 341,643 C 341,688 307,719 261,719 C 215,719 181,688 181,643 C 181,599 215,568 261,568 Z M 261,689 C 285,689 301,670 301,643 C 301,616 285,598 261,598 C 237,598 221,616 221,643 C 221,670 237,689 261,689 Z M 390,0 L 452,0 C 445,63 442,101 442,148 L 442,333 C 442,358 442,380 440,403 C 432,490 377,543 260,543 C 148,543 69,476 62,372 L 127,372 C 135,454 187,493 260,493 C 336,493 373,458 378,397 C 380,376 380,356 380,332 L 380,313 L 346,313 C 155,313 40,254 40,133 C 40,37 110,-14 208,-14 C 266,-14 318,3 355,40 L 381,96 L 390,0 Z M 227,35 C 150,35 108,71 108,138 C 108,240 231,275 380,265 L 380,204 C 380,105 319,35 227,35 Z "/>
</svg>
