<svg xmlns="http://www.w3.org/2000/svg" viewBox="0 -970 567 1200">
  <path transform="scale(1,-1)" d="M 278,568 C 324,568 358,599 358,643 C 358,688 324,719 278,719 C 232,719 198,688 198,643 C 198,599 232,568 278,568 Z M 278,689 C 302,689 318,670 318,643 C 318,616 302,598 278,598 C 254,598 238,616 238,643 C 238,670 254,689 278,689 Z M 492,529 L 430,529 L 430,266 C 430,100 355,36 267,36 C 185,36 139,85 131,155 C 128,182 127,209 127,234 L 127,529 L 65,529 L 65,220 C 65,177 66,158 69,131 C 81,47 145,-14 253,-14 C 311,-14 359,2 401,43 L 430,102 L 430,0 L 492,0 L 492,529 Z "/>
</svg>
