<svg xmlns="http://www.w3.org/2000/svg" viewBox="0 -970 561 1200">
  <path transform="scale(1,-1)" d="M 177,439 C 126,439 90,417 59,367 L 92,339 C 116,377 138,393 174,393 C 204,393 228,381 270,359 C 321,332 346,319 383,319 C 436,319 471,344 502,394 L 469,419 C 445,381 424,365 387,365 C 357,365 333,377 291,400 C 240,427 215,439 177,439 Z M 177,272 C 126,272 90,250 59,199 L 92,172 C 116,210 138,226 174,226 C 204,226 228,214 270,191 C 321,164 346,152 383,152 C 436,152 471,176 502,227 L 469,252 C 445,214 424,198 387,198 C 357,198 333,210 291,232 C 240,259 215,272 177,272 Z "/>
</svg>
