<svg xmlns="http://www.w3.org/2000/svg" viewBox="0 -970 691 1200">
  <path transform="scale(1,-1)" d="M 579,229 L 577,219 C 556,113 488,36 360,36 C 220,36 118,153 118,345 C 118,533 225,654 367,654 C 490,654 559,580 580,475 L 582,465 L 644,465 L 643,475 C 625,606 536,704 370,704 C 181,704 49,554 49,342 C 49,144 154,2 325,-13 L 292,-75 C 361,-70 389,-90 389,-126 C 389,-158 363,-176 321,-176 C 299,-176 283,-173 268,-165 L 268,-201 C 282,-207 299,-210 319,-210 C 383,-210 434,-182 434,-125 C 434,-77 403,-50 350,-44 L 367,-14 C 536,-10 622,95 640,219 L 641,229 L 579,229 Z "/>
</svg>
