<svg xmlns="http://www.w3.org/2000/svg" viewBox="0 -970 300 1200">
  <path transform="scale(1,-1)" d="M 275,737 L 275,780 L 262,780 C 180,780 129,755 129,672 C 129,651 131,632 140,565 C 148,509 151,482 151,455 C 151,411 129,378 69,372 L 69,328 C 129,322 151,289 151,245 C 151,219 148,191 140,135 C 131,68 129,49 129,28 C 129,-55 180,-80 262,-80 L 275,-80 L 275,-37 L 261,-37 C 201,-37 173,-18 173,27 C 173,50 176,65 184,125 C 193,194 196,219 196,247 C 196,300 166,344 107,351 C 167,358 196,400 196,453 C 196,481 193,507 184,575 C 176,635 173,650 173,673 C 173,718 201,737 261,737 L 275,737 Z "/>
</svg>
