<svg xmlns="http://www.w3.org/2000/svg" viewBox="0 -970 725 1200">
  <path transform="scale(1,-1)" d="M 193,702 C 107,702 52,638 52,543 C 52,449 107,384 193,384 C 279,384 333,449 333,543 C 333,638 279,702 193,702 Z M 171,0 L 619,690 L 554,690 L 107,0 L 171,0 Z M 193,656 C 242,656 272,614 272,543 C 272,473 242,429 193,429 C 144,429 114,473 114,543 C 114,614 144,656 193,656 Z M 532,304 C 446,304 391,240 391,145 C 391,51 446,-14 532,-14 C 618,-14 672,51 672,145 C 672,240 618,304 532,304 Z M 532,259 C 581,259 611,216 611,145 C 611,75 581,31 532,31 C 483,31 453,75 453,145 C 453,216 483,259 532,259 Z "/>
</svg>
