<svg xmlns="http://www.w3.org/2000/svg" viewBox="0 -970 601 1200">
  <path transform="scale(1,-1)" d="M 531,184 C 524,256 495,319 436,343 C 508,361 566,416 566,507 C 566,617 498,673 396,686 C 364,690 337,690 302,690 L 99,690 L 99,0 L 161,0 L 161,312 L 302,312 C 318,312 338,312 356,311 C 430,307 460,250 469,177 C 479,87 491,44 508,0 L 577,0 C 553,39 541,89 531,184 Z M 161,364 L 161,638 L 302,638 C 335,638 357,637 381,634 C 456,623 499,583 499,502 C 499,421 449,372 373,366 C 350,364 333,364 303,364 L 161,364 Z "/>
</svg>
