<svg xmlns="http://www.w3.org/2000/svg" viewBox="0 -970 561 1200">
  <path transform="scale(1,-1)" d="M 446,268 L 455,310 L 155,310 C 154,322 154,334 154,346 L 155,378 L 471,378 L 482,420 L 158,420 C 178,592 268,654 372,654 C 426,654 470,638 505,601 L 537,643 C 498,685 446,704 374,704 C 224,704 112,614 89,420 L 48,420 L 38,378 L 86,378 C 85,366 85,354 85,342 L 86,310 L 27,310 L 17,268 L 88,268 C 107,63 207,-14 366,-14 C 417,-14 466,-5 515,23 L 515,76 C 471,48 425,36 371,36 C 249,36 175,105 158,268 L 446,268 Z "/>
</svg>
