<svg xmlns="http://www.w3.org/2000/svg" viewBox="0 -970 561 1200">
  <path transform="scale(1,-1)" d="M 372,363 C 449,384 503,449 503,530 C 503,632 428,704 302,704 C 173,704 87,629 75,504 L 74,494 L 136,494 L 137,504 C 146,602 211,654 295,654 C 375,654 434,606 434,523 C 434,429 353,377 267,377 L 250,377 L 250,325 L 267,325 C 392,325 448,270 448,186 C 448,91 377,36 282,36 C 185,36 118,93 108,194 L 107,204 L 45,204 L 46,194 C 61,50 150,-14 277,-14 C 407,-14 517,62 517,189 C 517,284 462,342 372,363 Z "/>
</svg>
