<svg xmlns="http://www.w3.org/2000/svg" viewBox="0 -970 651 1200">
  <path transform="scale(1,-1)" d="M 338,863 C 292,863 258,834 258,791 C 258,748 292,718 338,718 C 384,718 419,748 419,791 C 419,834 384,863 338,863 Z M 338,832 C 362,832 378,814 378,791 C 378,767 362,749 338,749 C 314,749 298,767 298,791 C 298,814 314,832 338,832 Z M 583,690 L 521,690 L 521,250 C 521,228 520,208 518,189 C 510,102 453,36 338,36 C 222,36 165,102 157,189 C 155,208 155,228 155,250 L 155,690 L 93,690 L 93,247 C 93,227 93,207 95,183 C 104,71 180,-14 338,-14 C 495,-14 572,71 580,183 C 582,207 583,227 583,247 L 583,690 Z "/>
</svg>
