<svg xmlns="http://www.w3.org/2000/svg" viewBox="0 -970 517 1200">
  <path transform="scale(1,-1)" d="M 277,580 L 356,690 L 296,690 L 235,580 L 277,580 Z M 390,0 L 452,0 C 445,63 442,101 442,148 L 442,333 C 442,358 442,380 440,403 C 432,490 377,543 260,543 C 148,543 69,476 62,372 L 127,372 C 135,454 187,493 260,493 C 336,493 373,458 378,397 C 380,376 380,356 380,332 L 380,313 L 346,313 C 155,313 40,254 40,133 C 40,37 110,-14 208,-14 C 266,-14 318,3 355,40 L 381,96 L 390,0 Z M 227,35 C 150,35 108,71 108,138 C 108,240 231,275 380,265 L 380,204 C 380,105 319,35 227,35 Z "/>
</svg>
