<svg xmlns="http://www.w3.org/2000/svg" viewBox="0 -970 569 1200">
  <path transform="scale(1,-1)" d="M 237,632 C 246,632 258,628 282,620 C 309,611 324,607 342,607 C 371,607 388,622 388,667 L 357,667 C 357,652 351,647 341,647 C 332,647 320,650 296,658 C 269,667 254,671 236,671 C 207,671 190,656 190,611 L 221,611 C 221,626 227,632 237,632 Z M 498,385 C 488,482 424,543 312,543 C 253,543 206,527 163,484 L 135,427 L 135,529 L 73,529 L 73,0 L 135,0 L 135,263 C 135,428 212,492 300,492 C 389,492 429,441 436,369 C 438,342 438,319 438,289 L 438,0 L 500,0 L 500,296 C 500,339 500,358 498,385 Z "/>
</svg>
