<svg xmlns="http://www.w3.org/2000/svg" viewBox="0 -970 539 1200">
  <path transform="scale(1,-1)" d="M 500,279 C 500,425 423,543 275,543 C 136,543 30,434 30,264 C 30,82 129,-10 257,-14 C 216,-44 187,-89 187,-144 C 187,-204 223,-223 269,-223 C 301,-223 328,-215 351,-197 L 351,-158 C 331,-175 313,-182 292,-182 C 263,-182 247,-168 247,-131 C 247,-74 283,-25 332,-6 C 410,14 473,71 493,167 L 428,167 C 409,80 343,35 269,35 C 183,35 104,90 97,246 L 498,246 C 500,262 500,272 500,279 Z M 273,493 C 362,493 430,431 437,295 L 97,295 C 106,427 186,493 273,493 Z "/>
</svg>
