<svg xmlns="http://www.w3.org/2000/svg" viewBox="0 -970 852 1200">
  <path transform="scale(1,-1)" d="M 621,465 L 561,465 L 544,400 L 531,451 C 514,471 485,483 448,483 C 323,483 233,359 233,224 C 233,103 307,67 367,67 C 407,67 442,82 475,117 L 494,156 C 500,97 544,75 596,75 C 691,75 793,156 793,334 C 793,530 661,664 469,664 C 268,664 57,507 57,243 C 57,9 223,-104 396,-104 C 483,-104 574,-84 677,-15 L 657,23 C 575,-36 487,-60 398,-60 C 241,-60 104,43 104,245 C 104,483 295,620 465,620 C 623,620 745,518 745,331 C 745,193 679,119 609,119 C 570,119 555,140 555,169 C 555,181 557,195 563,222 L 621,465 Z M 511,262 C 490,172 439,116 382,116 C 335,116 301,149 301,230 C 301,337 363,434 450,434 C 505,434 540,390 520,301 L 511,262 Z "/>
</svg>
