<svg xmlns="http://www.w3.org/2000/svg" viewBox="0 -970 688 1200">
  <path transform="scale(1,-1)" d="M 302,815 C 273,815 256,800 256,756 L 287,756 C 287,771 293,776 303,776 C 312,776 324,773 348,765 C 375,756 390,752 408,752 C 437,752 454,767 454,811 L 423,811 C 423,796 417,791 407,791 C 398,791 386,794 362,802 C 335,811 320,815 302,815 Z M 612,0 L 611,690 L 550,690 L 550,334 C 550,248 551,146 553,60 L 193,690 L 99,690 L 99,0 L 161,0 L 161,356 C 161,442 160,545 158,630 L 517,0 L 612,0 Z "/>
</svg>
