<svg xmlns="http://www.w3.org/2000/svg" viewBox="0 -970 576 1200">
  <path transform="scale(1,-1)" d="M 535,178 C 535,292 461,348 313,386 C 195,416 146,447 146,531 C 146,613 219,654 298,654 C 389,654 449,599 461,505 L 526,505 C 513,617 441,704 303,704 C 181,704 79,630 79,518 C 79,407 157,361 288,327 C 417,295 469,257 469,168 C 469,88 396,36 305,36 C 206,36 130,91 113,190 L 47,190 C 61,68 147,-2 269,-13 L 236,-75 C 305,-70 333,-90 333,-126 C 333,-158 307,-176 265,-176 C 243,-176 227,-173 212,-165 L 212,-201 C 226,-207 243,-210 263,-210 C 327,-210 378,-182 378,-125 C 378,-77 347,-50 294,-44 L 311,-14 C 439,-11 535,66 535,178 Z "/>
</svg>
