<svg xmlns="http://www.w3.org/2000/svg" viewBox="0 -970 574 1200">
  <path transform="scale(1,-1)" d="M 235,632 C 244,632 256,628 280,620 C 307,611 322,607 340,607 C 369,607 386,622 386,667 L 355,667 C 355,652 349,647 339,647 C 330,647 318,650 294,658 C 267,667 252,671 234,671 C 205,671 188,656 188,611 L 219,611 C 219,626 225,632 235,632 Z M 287,543 C 119,543 30,420 30,264 C 30,109 119,-14 287,-14 C 455,-14 544,109 544,264 C 544,420 455,543 287,543 Z M 287,35 C 177,35 98,120 98,264 C 98,408 177,493 287,493 C 397,493 476,408 476,264 C 476,120 397,35 287,35 Z "/>
</svg>
