<svg xmlns="http://www.w3.org/2000/svg" viewBox="0 -970 549 1200">
  <path transform="scale(1,-1)" d="M 519,251 C 519,347 446,400 312,433 C 222,455 164,491 164,559 C 164,621 212,655 271,655 C 338,655 380,615 396,542 L 461,542 C 448,638 386,704 271,704 C 171,704 98,647 98,552 C 98,503 120,466 153,439 C 87,417 39,368 39,288 C 39,190 129,133 231,108 C 363,78 397,37 397,-27 C 397,-90 344,-125 277,-125 C 205,-125 154,-89 133,-3 L 68,-3 C 87,-122 164,-174 273,-174 C 376,-174 464,-121 464,-22 C 464,33 445,72 407,102 C 471,126 519,179 519,251 Z M 345,137 C 319,148 289,157 255,164 C 171,183 106,228 106,292 C 106,367 157,398 211,403 C 236,392 262,384 287,377 C 399,348 453,312 453,244 C 453,185 406,145 345,137 Z "/>
</svg>
