<svg xmlns="http://www.w3.org/2000/svg" viewBox="0 -970 985 1200">
  <path transform="scale(1,-1)" d="M 946,279 C 946,425 870,543 722,543 C 631,543 550,494 511,394 C 473,492 395,543 287,543 C 119,543 30,420 30,264 C 30,109 119,-14 287,-14 C 393,-14 469,37 507,133 C 546,30 624,-14 712,-14 C 817,-14 914,44 939,167 L 874,167 C 855,80 789,35 715,35 C 630,35 551,95 545,246 L 945,246 C 946,262 946,272 946,279 Z M 287,35 C 177,35 98,120 98,264 C 98,408 177,493 287,493 C 397,493 476,408 476,264 C 476,120 397,35 287,35 Z M 545,295 C 553,428 631,493 720,493 C 808,493 876,432 883,295 L 545,295 Z "/>
</svg>
