<svg xmlns="http://www.w3.org/2000/svg" viewBox="0 -970 561 1200">
  <path transform="scale(1,-1)" d="M 382,362 C 451,384 501,442 501,521 C 501,629 422,704 287,704 C 155,704 74,629 74,521 C 74,443 119,385 185,362 C 103,338 42,272 42,186 C 42,46 150,-15 281,-15 C 402,-15 519,46 519,186 C 519,273 463,340 382,362 Z M 141,519 C 141,596 193,654 287,654 C 382,654 434,596 434,519 C 434,434 373,383 287,383 C 201,383 141,434 141,519 Z M 283,35 C 182,35 111,90 111,184 C 111,266 167,333 283,333 C 399,333 450,266 450,184 C 450,90 380,35 283,35 Z "/>
</svg>
