<svg xmlns="http://www.w3.org/2000/svg" viewBox="0 -970 612 1200">
  <path transform="scale(1,-1)" d="M 425,366 C 500,387 548,437 548,521 C 548,618 483,675 376,687 C 342,690 321,690 291,690 L 99,690 L 99,0 L 309,0 C 338,0 359,0 390,4 C 485,15 573,76 573,196 C 573,290 522,345 425,366 Z M 161,638 L 295,638 C 315,638 334,638 354,637 C 423,631 481,598 481,514 C 481,435 432,396 361,388 C 340,386 323,385 306,385 L 161,385 L 161,638 Z M 370,53 C 357,52 339,52 323,52 L 161,52 L 161,334 L 317,334 C 333,334 348,333 371,331 C 463,323 507,272 507,190 C 507,102 443,59 370,53 Z "/>
</svg>
