<svg xmlns="http://www.w3.org/2000/svg" viewBox="0 -970 561 1200">
  <path transform="scale(1,-1)" d="M 508,171 C 508,274 448,338 310,381 L 310,653 C 387,646 429,593 438,511 L 504,511 C 492,612 430,696 310,703 L 310,780 L 266,780 L 266,703 C 160,693 80,626 80,516 C 80,400 158,350 266,320 L 266,37 C 183,46 129,99 118,184 L 53,184 C 61,63 147,-7 266,-13 L 266,-90 L 310,-90 L 310,-13 C 428,-4 508,68 508,171 Z M 146,524 C 146,601 197,644 266,653 L 266,388 C 191,411 146,445 146,524 Z M 310,312 C 403,282 441,235 441,164 C 441,88 390,43 310,37 L 310,312 Z "/>
</svg>
