<svg xmlns="http://www.w3.org/2000/svg" viewBox="0 -970 450 1200">
  <path transform="scale(1,-1)" d="M 417,132 C 417,221 359,265 237,295 C 161,314 111,338 111,399 C 111,457 154,493 218,493 C 289,493 332,454 347,381 L 412,381 C 400,474 338,543 223,543 C 119,543 47,483 47,392 C 47,301 122,264 213,240 C 316,215 354,186 354,127 C 354,66 299,35 232,35 C 161,35 104,66 89,156 L 25,156 C 39,44 112,-7 208,-13 L 175,-75 C 244,-70 272,-90 272,-126 C 272,-158 246,-176 204,-176 C 182,-176 166,-173 151,-165 L 151,-201 C 165,-207 182,-210 202,-210 C 266,-210 317,-182 317,-125 C 317,-77 286,-50 233,-44 L 250,-13 C 348,-7 417,45 417,132 Z "/>
</svg>
