<svg xmlns="http://www.w3.org/2000/svg" viewBox="0 -970 300 1200">
  <path transform="scale(1,-1)" d="M 231,372 C 171,378 150,411 150,455 C 150,482 152,509 160,565 C 170,632 172,651 172,672 C 172,755 120,780 38,780 L 25,780 L 25,737 L 39,737 C 100,737 127,718 127,673 C 127,650 125,635 117,575 C 107,507 104,481 104,453 C 104,400 134,356 193,349 C 134,342 104,300 104,247 C 104,219 107,194 117,125 C 125,65 127,50 127,27 C 127,-18 100,-37 39,-37 L 25,-37 L 25,-80 L 38,-80 C 120,-80 172,-55 172,28 C 172,49 170,68 160,135 C 152,191 150,219 150,245 C 150,289 171,322 231,328 L 231,372 Z "/>
</svg>
