<svg xmlns="http://www.w3.org/2000/svg" viewBox="0 -970 525 1200">
  <path transform="scale(1,-1)" d="M 269,35 C 180,35 98,106 98,269 C 98,422 185,494 274,494 C 359,494 412,445 430,356 L 495,356 C 479,468 398,543 276,543 C 143,543 30,439 30,264 C 30,93 116,2 232,-12 L 199,-75 C 268,-70 296,-90 296,-126 C 296,-158 270,-176 228,-176 C 206,-176 190,-173 175,-165 L 175,-201 C 189,-207 206,-210 226,-210 C 290,-210 341,-182 341,-125 C 341,-77 310,-50 257,-44 L 274,-14 C 384,-11 467,51 490,165 L 426,165 C 407,80 347,35 269,35 Z "/>
</svg>
