<svg xmlns="http://www.w3.org/2000/svg" viewBox="0 -970 513 1200">
  <path transform="scale(1,-1)" d="M 257,764 C 134,764 47,677 47,554 C 47,431 134,344 257,344 C 380,344 467,431 467,554 C 467,677 380,764 257,764 Z M 257,381 C 156,381 85,453 85,554 C 85,656 156,727 257,727 C 357,727 428,656 428,554 C 428,453 357,381 257,381 Z M 297,552 C 321,559 339,576 339,602 C 339,638 313,654 276,658 C 267,659 259,659 251,659 L 188,659 L 188,455 L 227,455 L 227,528 L 257,528 C 274,528 284,521 287,503 C 289,481 293,467 297,455 L 341,455 C 336,466 330,483 326,509 C 324,530 316,547 297,552 Z M 227,562 L 227,627 L 253,627 C 261,627 265,627 271,626 C 285,623 297,614 297,594 C 297,576 287,566 270,563 C 264,562 259,562 250,562 L 227,562 Z "/>
</svg>
