<svg xmlns="http://www.w3.org/2000/svg" viewBox="0 -970 651 1200">
  <path transform="scale(1,-1)" d="M 281,819 C 261,819 245,803 245,783 C 245,763 261,747 281,747 C 301,747 317,763 317,783 C 317,803 301,819 281,819 Z M 395,819 C 375,819 359,803 359,783 C 359,763 375,747 395,747 C 415,747 431,763 431,783 C 431,803 415,819 395,819 Z M 583,690 L 521,690 L 521,250 C 521,228 520,208 518,189 C 510,102 453,36 338,36 C 222,36 165,102 157,189 C 155,208 155,228 155,250 L 155,690 L 93,690 L 93,247 C 93,227 93,207 95,183 C 104,71 180,-14 338,-14 C 495,-14 572,71 580,183 C 582,207 583,227 583,247 L 583,690 Z "/>
</svg>
