<svg xmlns="http://www.w3.org/2000/svg" viewBox="0 -970 608 1200">
  <path transform="scale(1,-1)" d="M 199,569 C 244,569 274,597 274,642 C 274,687 244,715 199,715 C 154,715 124,687 124,642 C 124,597 154,569 199,569 Z M 399,569 C 444,569 474,597 474,642 C 474,687 444,715 399,715 C 354,715 324,687 324,642 C 324,597 354,569 399,569 Z M 616,534 L 419,534 L 310,143 L 200,534 L 0,534 L 221,-24 L 214,-39 C 197,-77 168,-91 126,-91 C 108,-91 92,-91 77,-89 L 77,-205 C 103,-209 124,-210 153,-210 C 280,-210 338,-169 405,0 L 616,534 Z "/>
</svg>
