<svg xmlns="http://www.w3.org/2000/svg" viewBox="0 -970 400 1200">
  <path transform="scale(1,-1)" d="M 270,418 L 388,418 L 388,530 L 270,530 L 270,668 L 90,668 L 90,530 L 5,530 L 5,418 L 90,418 L 90,195 C 90,165 90,140 92,109 C 96,51 117,14 176,-3 L 135,-88 C 210,-83 232,-94 232,-114 C 232,-132 215,-141 172,-141 C 159,-141 139,-140 114,-134 L 114,-204 C 133,-209 151,-210 171,-210 C 263,-210 340,-188 340,-119 C 340,-74 308,-49 245,-42 L 259,-14 L 271,-14 C 309,-14 342,-11 377,-5 L 377,107 C 292,103 275,115 271,169 C 270,183 270,203 270,221 L 270,418 Z "/>
</svg>
