<svg xmlns="http://www.w3.org/2000/svg" viewBox="0 -970 430 1200">
  <path transform="scale(1,-1)" d="M 360,684 L 360,780 L 309,780 C 209,780 174,743 174,664 C 174,630 178,597 186,545 C 192,505 195,478 195,455 C 195,429 182,402 113,398 L 113,302 C 182,298 195,271 195,245 C 195,222 192,195 186,155 C 178,103 174,70 174,36 C 174,-43 209,-80 309,-80 L 360,-80 L 360,16 L 338,16 C 289,16 274,21 274,56 C 274,70 276,91 284,145 C 291,190 295,232 295,248 C 295,303 268,339 210,353 C 268,365 295,397 295,452 C 295,468 291,510 284,555 C 276,609 274,630 274,644 C 274,679 289,684 338,684 L 360,684 Z "/>
</svg>
