<svg xmlns="http://www.w3.org/2000/svg" viewBox="0 -970 662 1200">
  <path transform="scale(1,-1)" d="M 492,224 L 511,320 L 301,320 C 301,328 301,337 301,346 L 301,370 L 522,370 L 543,466 L 315,466 C 335,536 376,572 438,572 C 492,572 527,561 570,531 L 632,642 C 594,679 529,704 429,704 C 285,704 166,629 127,466 L 88,466 L 68,370 L 114,370 C 113,361 113,352 113,342 L 113,320 L 57,320 L 37,224 L 123,224 C 154,54 257,-14 400,-14 C 499,-14 544,0 593,28 L 593,157 C 549,131 501,118 446,118 C 381,118 334,141 313,224 L 492,224 Z "/>
</svg>
