<svg xmlns="http://www.w3.org/2000/svg" viewBox="0 -970 688 1200">
  <path transform="scale(1,-1)" d="M 692,420 L 600,420 L 600,497 L 420,497 L 420,420 L 403,420 C 387,420 365,420 347,421 C 306,423 274,447 274,498 C 274,549 302,572 361,572 C 392,572 415,571 456,565 L 456,694 C 428,701 395,704 356,704 C 183,704 86,636 86,508 C 86,435 137,375 212,353 C 111,337 44,278 44,178 C 44,32 166,-14 327,-14 C 434,-14 524,-3 600,13 L 600,280 L 692,280 L 692,420 Z M 232,200 C 232,250 270,276 336,279 C 356,280 365,280 387,280 L 420,280 L 420,125 C 382,119 361,118 332,118 C 274,118 232,135 232,200 Z "/>
</svg>
