<svg xmlns="http://www.w3.org/2000/svg" viewBox="0 -970 640 1200">
  <path transform="scale(1,-1)" d="M 586,0 L 586,534 L 406,534 L 406,232 C 406,161 372,108 315,108 C 258,108 234,138 228,189 C 225,216 224,245 224,262 L 224,534 L 44,534 L 44,222 C 44,179 45,148 49,121 C 61,48 128,-14 238,-14 C 287,-14 325,-3 358,17 L 406,90 L 406,5 C 361,-20 320,-77 320,-137 C 320,-201 368,-223 434,-223 C 498,-223 540,-202 569,-173 L 569,-100 C 553,-115 539,-121 525,-121 C 505,-121 484,-108 484,-70 C 484,-32 504,0 529,0 L 586,0 Z "/>
</svg>
