<svg xmlns="http://www.w3.org/2000/svg" viewBox="0 -970 622 1200">
  <path transform="scale(1,-1)" d="M 211,569 C 256,569 286,597 286,642 C 286,687 256,715 211,715 C 166,715 136,687 136,642 C 136,597 166,569 211,569 Z M 411,569 C 456,569 486,597 486,642 C 486,687 456,715 411,715 C 366,715 336,687 336,642 C 336,597 366,569 411,569 Z M 311,548 C 136,548 24,439 24,267 C 24,96 136,-14 311,-14 C 486,-14 598,96 598,267 C 598,439 486,548 311,548 Z M 311,108 C 247,108 208,161 208,267 C 208,374 247,426 311,426 C 375,426 414,374 414,267 C 414,161 375,108 311,108 Z "/>
</svg>
