<svg xmlns="http://www.w3.org/2000/svg" viewBox="0 -970 528 1200">
  <path transform="scale(1,-1)" d="M 195,571 L 344,571 L 406,696 L 303,696 L 271,620 L 237,696 L 133,696 L 195,571 Z M 346,322 C 244,347 220,367 220,397 C 220,420 238,436 263,436 C 295,436 313,415 321,378 L 498,378 C 484,475 407,548 274,548 C 132,548 40,482 40,376 C 40,285 101,238 203,214 C 298,192 332,173 332,139 C 332,111 307,98 275,98 C 237,98 205,125 195,166 L 18,166 C 32,46 131,-14 276,-14 C 405,-14 512,39 512,153 C 512,256 443,298 346,322 Z "/>
</svg>
