<svg xmlns="http://www.w3.org/2000/svg" viewBox="0 -970 759 1200">
  <path transform="scale(1,-1)" d="M 388,725 C 444,725 481,759 481,813 C 481,867 444,901 388,901 C 332,901 295,867 295,813 C 295,759 332,725 388,725 Z M 409,368 L 409,228 L 543,228 C 518,152 472,118 402,118 C 317,118 242,177 242,351 C 242,500 315,572 403,572 C 476,572 521,537 536,463 L 538,453 L 718,453 L 717,463 C 703,599 602,704 405,704 C 216,704 54,580 54,340 C 54,108 183,-14 367,-14 C 440,-14 487,-3 526,30 L 556,106 L 573,0 L 713,0 L 713,368 L 409,368 Z "/>
</svg>
