<svg xmlns="http://www.w3.org/2000/svg" viewBox="0 -970 662 1200">
  <path transform="scale(1,-1)" d="M 480,366 C 540,385 595,425 595,509 C 595,623 506,704 341,704 C 176,704 85,623 85,509 C 85,426 128,385 183,366 C 115,342 51,289 51,196 C 51,46 158,-15 329,-15 C 490,-15 611,46 611,196 C 611,290 548,343 480,366 Z M 338,572 C 382,572 412,547 412,501 C 412,451 379,426 337,426 C 296,426 268,451 268,501 C 268,547 299,572 338,572 Z M 331,117 C 272,117 237,149 237,206 C 237,264 279,297 330,297 C 390,297 425,261 425,203 C 425,150 397,117 331,117 Z "/>
</svg>
