<svg xmlns="http://www.w3.org/2000/svg" viewBox="0 -970 486 1200">
  <path transform="scale(1,-1)" d="M 243,764 C 119,764 33,677 33,554 C 33,431 119,344 243,344 C 367,344 453,431 453,554 C 453,677 367,764 243,764 Z M 243,400 C 155,400 93,464 93,554 C 93,644 155,708 243,708 C 331,708 393,644 393,554 C 393,464 331,400 243,400 Z M 297,553 C 319,560 336,577 336,605 C 336,637 315,661 266,666 C 257,667 249,667 239,667 L 162,667 L 162,453 L 222,453 L 222,523 L 235,523 C 253,523 261,513 264,494 C 266,479 268,465 271,453 L 338,453 C 333,464 328,480 325,507 C 323,529 316,547 297,553 Z M 251,570 C 244,569 239,569 231,569 L 222,569 L 222,622 L 232,622 C 240,622 244,622 251,621 C 263,619 271,609 271,595 C 271,584 264,572 251,570 Z "/>
</svg>
