<svg xmlns="http://www.w3.org/2000/svg" viewBox="0 -970 974 1200">
  <path transform="scale(1,-1)" d="M 950,274 C 950,412 860,548 692,548 C 605,548 530,517 486,455 C 456,514 392,548 295,548 C 160,548 49,477 48,352 L 218,352 C 221,399 255,426 297,426 C 351,426 377,397 377,338 L 377,332 L 319,332 C 148,332 30,271 30,149 C 30,41 113,-14 241,-14 C 290,-14 345,-2 383,22 L 449,100 C 496,23 574,-14 672,-14 C 809,-14 909,54 940,175 L 763,175 C 756,134 725,108 674,108 C 623,108 584,133 575,222 L 947,222 C 949,240 950,258 950,274 Z M 581,332 C 594,397 627,426 673,426 C 722,426 753,394 762,332 L 581,332 Z M 378,214 C 378,146 341,108 286,108 C 239,108 214,126 214,163 C 214,210 264,228 378,222 L 378,214 Z "/>
</svg>
