<svg xmlns="http://www.w3.org/2000/svg" viewBox="0 -970 626 1200">
  <path transform="scale(1,-1)" d="M 609,194 C 609,300 547,376 395,412 C 281,439 249,466 249,510 C 249,552 277,572 318,572 C 377,572 407,534 415,477 L 595,477 C 580,605 504,704 322,704 C 185,704 61,629 61,496 C 61,358 153,309 310,270 C 395,249 421,218 421,182 C 421,144 383,118 333,118 C 279,118 226,146 214,211 L 34,211 C 43,81 128,10 259,-9 L 221,-88 C 296,-83 318,-94 318,-114 C 318,-132 301,-141 258,-141 C 245,-141 225,-140 200,-134 L 200,-204 C 219,-209 237,-210 257,-210 C 349,-210 426,-188 426,-119 C 426,-74 394,-49 331,-42 L 345,-14 C 481,-12 609,58 609,194 Z "/>
</svg>
