<svg xmlns="http://www.w3.org/2000/svg" viewBox="0 -970 669 1200">
  <path transform="scale(1,-1)" d="M 330,575 C 386,575 423,609 423,663 C 423,717 386,751 330,751 C 274,751 237,717 237,663 C 237,609 274,575 330,575 Z M 615,534 L 435,534 L 435,465 L 400,522 C 373,538 321,548 277,548 C 140,548 24,453 24,263 C 24,105 124,6 269,6 C 323,6 365,17 395,39 L 435,98 L 435,83 C 435,54 434,29 433,13 C 428,-59 379,-88 312,-88 C 256,-88 215,-68 211,-33 L 210,-23 L 36,-23 L 37,-33 C 50,-155 147,-220 307,-220 C 488,-220 608,-142 614,33 C 615,62 615,103 615,136 L 615,534 Z M 321,128 C 258,128 208,176 208,276 C 208,385 256,426 326,426 C 380,426 435,390 435,283 L 435,280 C 435,168 387,128 321,128 Z "/>
</svg>
