<svg xmlns="http://www.w3.org/2000/svg" viewBox="0 -970 790 1200">
  <path transform="scale(1,-1)" d="M 766,633 L 696,703 L 631,638 C 572,681 497,704 408,704 C 193,704 55,567 55,345 C 55,257 77,182 117,124 L 50,57 L 120,-13 L 186,53 C 244,9 319,-14 408,-14 C 623,-14 761,124 761,345 C 761,433 739,508 699,566 L 766,633 Z M 239,345 C 239,492 304,572 408,572 C 454,572 492,557 520,527 L 249,256 C 242,282 239,312 239,345 Z M 577,345 C 577,199 512,118 408,118 C 362,118 324,133 296,163 L 567,434 C 574,408 577,378 577,345 Z "/>
</svg>
