<svg xmlns="http://www.w3.org/2000/svg" viewBox="0 -970 718 1200">
  <path transform="scale(1,-1)" d="M 680,690 L 500,690 L 500,270 C 500,251 500,241 499,229 C 494,157 453,118 374,118 C 295,118 254,157 249,229 C 248,241 248,251 248,270 L 248,690 L 68,690 L 68,303 C 68,268 68,247 71,206 C 79,95 154,-5 347,-13 C 313,-43 287,-89 287,-137 C 287,-201 335,-223 401,-223 C 465,-223 507,-202 536,-173 L 536,-100 C 520,-115 506,-121 492,-121 C 472,-121 451,-108 451,-70 C 451,-39 464,-12 483,-3 C 487,-2 491,-1 496,0 C 619,32 671,115 677,206 C 680,247 680,268 680,303 L 680,690 Z "/>
</svg>
