<svg xmlns="http://www.w3.org/2000/svg" viewBox="0 -970 638 1200">
  <path transform="scale(1,-1)" d="M 618,495 L 547,566 L 484,503 C 439,532 381,548 315,548 C 140,548 28,439 28,267 C 28,200 45,142 77,96 L 20,39 L 91,-32 L 151,28 C 195,1 251,-14 315,-14 C 490,-14 602,96 602,267 C 602,332 586,389 556,433 L 618,495 Z M 212,267 C 212,374 251,426 315,426 C 341,426 363,417 380,399 L 214,233 C 213,243 212,255 212,267 Z M 418,267 C 418,161 379,108 315,108 C 291,108 270,116 254,131 L 417,294 C 418,285 418,276 418,267 Z "/>
</svg>
