<svg xmlns="http://www.w3.org/2000/svg" viewBox="0 -970 430 1200">
  <path transform="scale(1,-1)" d="M 317,398 C 248,402 235,429 235,455 C 235,478 238,505 244,545 C 252,597 256,630 256,664 C 256,743 221,780 121,780 L 70,780 L 70,684 L 92,684 C 141,684 156,679 156,644 C 156,630 154,609 146,555 C 139,510 135,468 135,452 C 135,397 162,361 220,347 C 162,335 135,303 135,248 C 135,232 139,190 146,145 C 154,91 156,70 156,56 C 156,21 141,16 92,16 L 70,16 L 70,-80 L 121,-80 C 221,-80 256,-43 256,36 C 256,70 252,103 244,155 C 238,195 235,222 235,245 C 235,271 248,298 317,302 L 317,398 Z "/>
</svg>
