<svg xmlns="http://www.w3.org/2000/svg" viewBox="0 -970 570 1200">
  <path transform="scale(1,-1)" d="M 144,751 C 88,751 51,717 51,663 C 51,609 88,575 144,575 C 200,575 237,609 237,663 C 237,717 200,751 144,751 Z M 430,751 C 366,751 337,725 337,663 C 337,601 366,575 430,575 C 494,575 523,601 523,663 C 523,725 494,751 430,751 Z M 234,0 L 234,534 L 54,534 L 54,0 L 234,0 Z M 520,534 L 340,534 L 340,15 C 340,0 339,-19 338,-33 C 333,-80 303,-91 238,-85 L 238,-206 C 256,-209 277,-210 298,-210 C 453,-210 511,-148 518,-48 C 519,-30 520,-4 520,16 L 520,534 Z "/>
</svg>
