<svg xmlns="http://www.w3.org/2000/svg" viewBox="0 -970 681 1200">
  <path transform="scale(1,-1)" d="M 528,375 C 596,399 629,447 629,510 C 629,600 565,672 451,686 C 416,690 400,690 363,690 L 80,690 L 80,0 L 355,0 C 399,0 422,0 457,4 C 550,15 655,79 655,208 C 655,292 615,350 528,375 Z M 260,550 L 341,550 C 357,550 373,549 386,547 C 420,542 441,523 441,484 C 441,443 418,426 385,421 C 372,419 357,418 341,418 L 260,418 L 260,550 Z M 402,141 C 389,140 373,140 357,140 L 260,140 L 260,288 L 352,288 C 368,288 384,288 397,287 C 434,284 467,260 467,214 C 467,169 434,143 402,141 Z "/>
</svg>
