<svg xmlns="http://www.w3.org/2000/svg" viewBox="0 -970 644 1200">
  <path transform="scale(1,-1)" d="M 268,605 C 276,605 289,600 313,590 C 350,574 366,571 395,571 C 457,571 485,612 485,705 L 389,705 C 389,683 385,674 374,674 C 366,674 353,678 329,689 C 293,705 276,708 247,708 C 185,708 157,667 157,574 L 253,574 C 253,596 257,605 268,605 Z M 591,403 C 577,496 512,548 402,548 C 353,548 315,537 282,517 L 234,451 L 234,534 L 54,534 L 54,0 L 234,0 L 234,252 C 234,373 273,426 328,426 C 382,426 410,396 414,345 C 416,318 416,289 416,272 L 416,0 L 596,0 L 596,302 C 596,345 595,376 591,403 Z "/>
</svg>
