<svg xmlns="http://www.w3.org/2000/svg" viewBox="0 -970 966 1200">
  <path transform="scale(1,-1)" d="M 913,413 C 901,486 841,548 734,548 C 685,548 652,537 619,517 L 563,444 C 540,503 483,548 392,548 C 343,548 310,537 277,517 L 234,448 L 234,534 L 54,534 L 54,0 L 234,0 L 234,282 C 234,373 257,426 315,426 C 362,426 386,396 392,345 C 395,318 396,289 396,272 L 396,0 L 576,0 L 576,282 C 576,373 599,426 657,426 C 704,426 728,396 734,345 C 737,318 738,289 738,272 L 738,0 L 918,0 L 918,312 C 918,355 917,386 913,413 Z "/>
</svg>
