<svg xmlns="http://www.w3.org/2000/svg" viewBox="0 -970 682 1200">
  <path transform="scale(1,-1)" d="M 618,168 C 608,251 582,304 510,330 C 602,357 649,415 649,502 C 649,624 562,673 462,685 C 425,689 397,690 354,690 L 80,690 L 80,0 L 260,0 L 260,262 L 300,262 C 320,262 337,262 357,261 C 403,258 433,214 442,138 C 448,89 458,49 474,0 L 670,0 C 643,41 627,90 618,168 Z M 260,392 L 260,550 L 330,550 C 349,550 365,550 378,549 C 424,545 461,529 461,471 C 461,413 419,397 373,393 C 360,392 344,392 325,392 L 260,392 Z M 313,-37 L 229,-216 L 326,-216 L 427,-47 L 427,-37 L 313,-37 Z "/>
</svg>
