<svg xmlns="http://www.w3.org/2000/svg" viewBox="0 -970 677 1200">
  <path transform="scale(1,-1)" d="M 604,143 C 602,156 602,167 602,192 L 602,723 C 544,742 463,754 362,754 C 147,754 75,682 67,582 C 66,564 66,550 66,534 L 66,530 L 19,530 L 19,418 L 66,418 L 66,0 L 246,0 L 246,418 L 355,418 L 355,530 L 246,530 L 246,534 C 246,547 246,560 247,574 C 251,613 286,632 362,632 C 387,632 402,631 422,625 L 422,189 C 422,149 422,122 424,94 C 428,23 475,-10 548,-10 C 588,-10 625,-8 663,-4 L 663,107 C 623,105 608,112 604,143 Z "/>
</svg>
