<svg xmlns="http://www.w3.org/2000/svg" viewBox="0 -970 788 1200">
  <path transform="scale(1,-1)" d="M 354,773 C 362,773 375,768 399,758 C 436,742 452,739 481,739 C 543,739 571,780 571,873 L 475,873 C 475,851 471,842 460,842 C 452,842 439,846 415,857 C 379,873 362,876 333,876 C 271,876 243,835 243,742 L 339,742 C 339,764 343,773 354,773 Z M 407,704 C 192,704 54,567 54,345 C 54,124 192,-14 407,-14 C 622,-14 760,124 760,345 C 760,567 622,704 407,704 Z M 407,118 C 303,118 238,199 238,345 C 238,492 303,572 407,572 C 511,572 576,492 576,345 C 576,199 511,118 407,118 Z "/>
</svg>
