<svg xmlns="http://www.w3.org/2000/svg" viewBox="0 -970 601 1200">
  <path transform="scale(1,-1)" d="M 577,274 C 577,412 487,548 309,548 C 131,548 24,421 24,265 C 24,96 123,5 254,-11 C 219,-40 191,-88 191,-137 C 191,-201 239,-223 305,-223 C 369,-223 411,-202 440,-173 L 440,-100 C 424,-115 410,-121 396,-121 C 376,-121 355,-108 355,-70 C 355,-40 368,-14 385,-4 C 390,-3 395,-1 399,0 C 484,26 544,86 567,175 L 390,175 C 383,134 352,108 301,108 C 250,108 211,133 202,222 L 574,222 C 576,240 577,258 577,274 Z M 300,426 C 348,426 379,395 389,332 L 208,332 C 220,398 253,426 300,426 Z "/>
</svg>
