<svg xmlns="http://www.w3.org/2000/svg" viewBox="0 -970 838 1200">
  <path transform="scale(1,-1)" d="M 827,674 L 758,743 L 681,666 C 610,726 518,762 419,762 C 199,762 13,586 13,355 C 13,254 49,163 108,93 L 11,-4 L 80,-73 L 179,26 C 247,-24 330,-53 419,-53 C 639,-53 825,124 825,355 C 825,446 796,528 748,595 L 827,674 Z M 121,355 C 121,534 257,666 419,666 C 491,666 558,640 610,595 L 181,166 C 143,217 121,282 121,355 Z M 717,355 C 717,176 581,44 419,44 C 357,44 298,63 250,97 L 673,520 C 700,473 717,417 717,355 Z "/>
</svg>
