<svg xmlns="http://www.w3.org/2000/svg" viewBox="0 -970 528 1200">
  <path transform="scale(1,-1)" d="M 512,153 C 512,256 443,298 346,322 C 244,347 220,367 220,397 C 220,420 238,436 263,436 C 295,436 313,415 321,378 L 498,378 C 484,475 407,548 274,548 C 132,548 40,482 40,376 C 40,285 101,238 203,214 C 298,192 332,173 332,139 C 332,111 307,98 275,98 C 237,98 205,125 195,166 L 18,166 C 30,63 104,5 216,-10 L 178,-88 C 253,-83 275,-94 275,-114 C 275,-132 258,-141 215,-141 C 202,-141 182,-140 157,-134 L 157,-204 C 176,-209 194,-210 214,-210 C 306,-210 383,-188 383,-119 C 383,-74 351,-49 288,-42 L 302,-13 C 419,-7 512,47 512,153 Z "/>
</svg>
