<svg xmlns="http://www.w3.org/2000/svg" viewBox="0 -970 662 1200">
  <path transform="scale(1,-1)" d="M 460,363 C 550,385 591,439 591,520 C 591,618 513,704 344,704 C 165,704 79,600 67,484 L 66,474 L 246,474 L 247,484 C 251,529 273,572 326,572 C 376,572 403,544 403,499 C 403,452 370,416 304,411 L 277,409 L 277,293 L 304,292 C 376,289 419,259 419,200 C 419,153 380,118 318,118 C 259,118 225,161 215,209 L 213,219 L 33,219 L 34,209 C 48,71 150,-14 325,-14 C 499,-14 607,73 607,205 C 607,294 558,344 460,363 Z "/>
</svg>
