<svg xmlns="http://www.w3.org/2000/svg" viewBox="0 -970 662 1200">
  <path transform="scale(1,-1)" d="M 511,301 C 511,336 501,369 484,396 L 536,448 L 479,505 L 427,453 C 400,471 367,481 331,481 C 295,481 262,471 235,453 L 183,505 L 126,448 L 178,396 C 161,369 151,336 151,301 C 151,266 161,233 178,206 L 126,154 L 183,97 L 235,149 C 262,131 295,121 331,121 C 367,121 400,131 427,149 L 479,97 L 536,154 L 484,206 C 501,233 511,266 511,301 Z M 331,215 C 285,215 255,249 255,301 C 255,353 285,387 331,387 C 377,387 407,353 407,301 C 407,249 377,215 331,215 Z "/>
</svg>
