<svg xmlns="http://www.w3.org/2000/svg" viewBox="0 -970 794 1200">
  <path transform="scale(1,-1)" d="M 331,876 C 269,876 241,835 241,742 L 337,742 C 337,764 341,773 352,773 C 360,773 373,768 397,758 C 434,742 450,739 479,739 C 541,739 569,780 569,873 L 473,873 C 473,851 469,842 458,842 C 450,842 437,846 413,857 C 377,873 360,876 331,876 Z M 740,0 L 740,690 L 560,690 L 560,395 C 560,355 561,284 566,214 L 304,690 L 80,690 L 80,0 L 260,0 L 260,285 C 260,325 260,386 254,456 L 505,0 L 740,0 Z "/>
</svg>
