<svg xmlns="http://www.w3.org/2000/svg" viewBox="0 -970 718 1200">
  <path transform="scale(1,-1)" d="M 374,932 C 304,932 255,889 255,827 C 255,765 304,722 374,722 C 444,722 493,765 493,827 C 493,889 444,932 374,932 Z M 374,866 C 395,866 410,850 410,827 C 410,804 395,788 374,788 C 353,788 338,804 338,827 C 338,850 353,866 374,866 Z M 680,690 L 500,690 L 500,270 C 500,251 500,241 499,229 C 494,157 453,118 374,118 C 295,118 254,157 249,229 C 248,241 248,251 248,270 L 248,690 L 68,690 L 68,303 C 68,268 68,247 71,206 C 79,90 161,-14 374,-14 C 587,-14 669,90 677,206 C 680,247 680,268 680,303 L 680,690 Z "/>
</svg>
