<svg xmlns="http://www.w3.org/2000/svg" viewBox="0 -970 662 1200">
  <path transform="scale(1,-1)" d="M 222,496 C 169,496 121,476 80,408 L 138,345 C 165,376 191,391 225,391 C 248,391 264,384 317,356 C 372,327 398,315 439,315 C 492,315 540,335 581,403 L 523,466 C 496,435 470,420 436,420 C 413,420 397,427 344,455 C 289,484 263,496 222,496 Z M 222,296 C 169,296 121,276 80,208 L 138,145 C 165,176 191,191 225,191 C 248,191 264,184 317,156 C 372,127 398,115 439,115 C 492,115 540,135 581,203 L 523,266 C 496,235 470,220 436,220 C 413,220 397,227 344,255 C 289,284 263,296 222,296 Z "/>
</svg>
