<svg xmlns="http://www.w3.org/2000/svg" viewBox="0 -970 1022 1200">
  <path transform="scale(1,-1)" d="M 741,544 C 641,544 574,517 523,431 C 469,517 391,544 291,544 C 136,544 24,437 24,265 C 24,94 136,-14 281,-14 C 381,-14 451,13 502,99 C 556,13 631,-14 731,-14 C 886,-14 998,94 998,265 C 998,437 886,544 741,544 Z M 302,108 C 244,108 208,169 208,265 C 208,362 244,422 302,422 C 354,422 385,381 401,265 C 390,151 354,108 302,108 Z M 720,108 C 668,108 641,149 625,265 C 636,379 668,422 720,422 C 778,422 814,362 814,265 C 814,169 778,108 720,108 Z "/>
</svg>
