<svg xmlns="http://www.w3.org/2000/svg" viewBox="0 -970 587 1200">
  <path transform="scale(1,-1)" d="M 445,-70 C 445,-32 465,0 490,0 L 543,0 C 535,59 533,95 533,135 L 533,285 C 533,318 532,349 530,376 C 522,473 464,548 295,548 C 160,548 49,477 48,352 L 218,353 C 221,399 245,426 287,426 C 326,426 348,402 351,375 C 353,358 353,347 353,336 L 353,328 L 319,328 C 138,328 30,258 30,144 C 30,41 113,-14 201,-14 C 250,-14 295,-2 333,22 L 355,78 L 366,5 C 322,-21 281,-77 281,-137 C 281,-201 329,-223 395,-223 C 459,-223 501,-202 530,-173 L 530,-100 C 514,-115 500,-121 486,-121 C 466,-121 445,-108 445,-70 Z M 275,108 C 239,108 214,126 214,158 C 214,211 272,232 353,226 L 353,191 C 353,135 311,108 275,108 Z "/>
</svg>
