<svg xmlns="http://www.w3.org/2000/svg" viewBox="0 -970 666 1200">
  <path transform="scale(1,-1)" d="M 335,754 C 166,754 65,671 56,534 C 55,516 54,490 54,430 L 54,0 L 234,0 L 234,438 C 234,499 235,518 236,532 C 240,588 270,622 329,622 C 386,622 413,599 413,558 C 413,542 410,527 400,514 C 353,484 332,448 332,398 C 332,341 356,311 408,257 C 438,226 452,202 452,175 C 452,145 432,128 396,128 C 374,128 346,130 302,141 L 302,6 C 341,-2 367,-4 440,-4 C 543,-4 640,46 640,152 C 640,228 620,257 568,312 C 535,347 520,371 520,398 C 520,430 535,453 575,476 C 592,501 601,525 601,560 C 601,675 504,754 335,754 Z "/>
</svg>
