<svg xmlns="http://www.w3.org/2000/svg" viewBox="0 -970 630 1200">
  <path transform="scale(1,-1)" d="M 607,234 C 607,341 537,398 386,438 C 284,465 263,485 263,536 C 263,572 283,592 308,592 C 340,592 356,571 364,526 L 541,526 C 527,631 451,704 318,704 C 176,704 83,621 83,505 C 83,481 88,460 98,441 C 50,408 22,358 22,296 C 22,183 91,139 211,102 C 337,63 365,33 365,-9 C 365,-44 340,-62 308,-62 C 270,-62 238,-35 228,6 L 51,6 C 65,-114 167,-174 306,-174 C 441,-174 545,-107 545,8 C 545,39 538,65 523,87 C 574,117 607,166 607,234 Z M 303,214 C 235,237 202,259 202,302 C 202,322 207,337 217,347 C 245,335 276,324 313,314 C 398,290 427,262 427,218 C 427,198 419,184 407,174 C 377,188 342,201 303,214 Z "/>
</svg>
