<svg xmlns="http://www.w3.org/2000/svg" viewBox="0 -970 782 1200">
  <path transform="scale(1,-1)" d="M 191,704 C 91,704 31,643 31,535 C 31,428 91,366 191,366 C 291,366 351,428 351,535 C 351,643 291,704 191,704 Z M 234,0 L 681,690 L 558,690 L 111,0 L 234,0 Z M 191,620 C 227,620 243,590 243,535 C 243,481 227,450 191,450 C 155,450 139,481 139,535 C 139,590 155,620 191,620 Z M 591,324 C 491,324 431,263 431,155 C 431,48 491,-14 591,-14 C 691,-14 751,48 751,155 C 751,263 691,324 591,324 Z M 591,240 C 627,240 643,210 643,155 C 643,101 627,70 591,70 C 555,70 539,101 539,155 C 539,210 555,240 591,240 Z "/>
</svg>
