<svg xmlns="http://www.w3.org/2000/svg" viewBox="0 -970 601 1200">
  <path transform="scale(1,-1)" d="M 202,569 C 247,569 277,597 277,642 C 277,687 247,715 202,715 C 157,715 127,687 127,642 C 127,597 157,569 202,569 Z M 402,569 C 447,569 477,597 477,642 C 477,687 447,715 402,715 C 357,715 327,687 327,642 C 327,597 357,569 402,569 Z M 577,274 C 577,412 487,548 309,548 C 131,548 24,421 24,265 C 24,77 146,-14 299,-14 C 436,-14 536,54 567,175 L 390,175 C 383,134 352,108 301,108 C 250,108 211,133 202,222 L 574,222 C 576,240 577,258 577,274 Z M 300,426 C 348,426 379,395 389,332 L 208,332 C 220,398 253,426 300,426 Z "/>
</svg>
