<svg xmlns="http://www.w3.org/2000/svg" viewBox="0 -970 662 1200">
  <path transform="scale(1,-1)" d="M 593,623 L 581,696 L 495,680 C 466,705 431,727 391,745 L 236,679 C 261,668 283,657 302,644 L 237,632 L 249,559 L 373,582 C 402,546 418,506 423,465 L 380,519 C 343,541 317,548 288,548 C 141,548 24,450 24,267 C 24,102 123,-14 327,-14 C 464,-14 619,67 619,307 C 619,447 597,544 551,615 L 593,623 Z M 435,260 C 435,178 403,118 327,118 C 256,118 212,163 212,267 C 212,359 250,416 328,416 C 394,416 435,364 435,289 L 435,260 Z "/>
</svg>
