<svg xmlns="http://www.w3.org/2000/svg" viewBox="0 -970 788 1200">
  <path transform="scale(1,-1)" d="M 307,722 C 352,722 382,750 382,795 C 382,840 352,868 307,868 C 262,868 232,840 232,795 C 232,750 262,722 307,722 Z M 507,722 C 552,722 582,750 582,795 C 582,840 552,868 507,868 C 462,868 432,840 432,795 C 432,750 462,722 507,722 Z M 407,704 C 192,704 54,567 54,345 C 54,124 192,-14 407,-14 C 622,-14 760,124 760,345 C 760,567 622,704 407,704 Z M 407,118 C 303,118 238,199 238,345 C 238,492 303,572 407,572 C 511,572 576,492 576,345 C 576,199 511,118 407,118 Z "/>
</svg>
