<svg xmlns="http://www.w3.org/2000/svg" viewBox="0 -970 662 1200">
  <path transform="scale(1,-1)" d="M 619,188 C 619,307 549,368 386,419 L 386,573 C 424,558 441,527 447,487 L 617,487 C 604,602 533,686 386,701 L 386,780 L 286,780 L 286,701 C 173,687 71,622 71,491 C 71,378 149,323 286,275 L 286,115 C 248,128 220,155 212,201 L 42,201 C 56,63 150,0 286,-12 L 286,-90 L 386,-90 L 386,-12 C 521,1 619,69 619,188 Z M 234,509 C 234,543 254,566 286,576 L 286,440 C 252,453 234,472 234,509 Z M 386,251 C 433,232 447,209 447,179 C 447,140 426,120 386,112 L 386,251 Z "/>
</svg>
