<svg xmlns="http://www.w3.org/2000/svg" viewBox="0 -970 622 1200">
  <path transform="scale(1,-1)" d="M 258,605 C 266,605 279,600 303,590 C 340,574 356,571 385,571 C 447,571 475,612 475,705 L 379,705 C 379,683 375,674 364,674 C 356,674 343,678 319,689 C 283,705 266,708 237,708 C 175,708 147,667 147,574 L 243,574 C 243,596 247,605 258,605 Z M 311,548 C 136,548 24,439 24,267 C 24,96 136,-14 311,-14 C 486,-14 598,96 598,267 C 598,439 486,548 311,548 Z M 311,108 C 247,108 208,161 208,267 C 208,374 247,426 311,426 C 375,426 414,374 414,267 C 414,161 375,108 311,108 Z "/>
</svg>
