<svg xmlns="http://www.w3.org/2000/svg" viewBox="0 -970 640 1200">
  <path transform="scale(1,-1)" d="M 315,567 C 385,567 434,610 434,674 C 434,738 385,781 315,781 C 245,781 196,738 196,674 C 196,610 245,567 315,567 Z M 315,715 C 336,715 351,700 351,674 C 351,648 336,633 315,633 C 294,633 279,648 279,674 C 279,700 294,715 315,715 Z M 586,534 L 406,534 L 406,232 C 406,161 372,108 315,108 C 258,108 234,138 228,189 C 225,216 224,245 224,262 L 224,534 L 44,534 L 44,222 C 44,179 45,148 49,121 C 61,48 128,-14 238,-14 C 287,-14 325,-3 358,17 L 406,90 L 406,0 L 586,0 L 586,534 Z "/>
</svg>
