<svg xmlns="http://www.w3.org/2000/svg" viewBox="0 -970 626 1200">
  <path transform="scale(1,-1)" d="M 252,735 L 401,735 L 463,860 L 360,860 L 328,784 L 294,860 L 190,860 L 252,735 Z M 395,412 C 281,439 249,466 249,510 C 249,552 277,572 318,572 C 377,572 407,534 415,477 L 595,477 C 580,605 504,704 322,704 C 185,704 61,629 61,496 C 61,358 153,309 310,270 C 395,249 421,218 421,182 C 421,144 383,118 333,118 C 279,118 226,146 214,211 L 34,211 C 45,56 163,-14 338,-14 C 477,-14 609,56 609,194 C 609,300 547,376 395,412 Z "/>
</svg>
