<svg xmlns="http://www.w3.org/2000/svg" viewBox="0 -970 734 1200">
  <path transform="scale(1,-1)" d="M 384,901 C 328,901 291,867 291,813 C 291,759 328,725 384,725 C 440,725 477,759 477,813 C 477,867 440,901 384,901 Z M 395,704 C 208,704 54,580 54,340 C 54,106 203,-14 388,-14 C 561,-14 688,71 705,237 L 706,247 L 526,247 L 524,237 C 509,161 464,118 394,118 C 314,118 242,177 242,351 C 242,500 307,572 393,572 C 466,572 511,537 526,463 L 528,453 L 708,453 L 707,463 C 693,599 592,704 395,704 Z "/>
</svg>
