<svg xmlns="http://www.w3.org/2000/svg" viewBox="0 -970 930 1200">
  <path transform="scale(1,-1)" d="M 702,472 L 551,472 L 531,409 L 514,462 C 503,477 476,490 437,490 C 325,490 247,386 247,243 C 247,113 312,74 382,74 C 411,74 441,81 470,104 L 501,167 C 523,101 575,68 653,68 C 783,68 891,144 891,352 C 891,530 759,702 504,702 C 244,702 44,512 44,251 C 44,-31 260,-134 439,-134 C 526,-134 628,-112 713,-57 L 676,27 C 615,-17 539,-38 453,-38 C 254,-38 152,79 152,258 C 152,478 324,606 500,606 C 676,606 783,507 783,342 C 783,226 742,164 692,164 C 664,164 651,189 651,229 C 651,248 653,267 670,339 L 702,472 Z M 445,196 C 424,196 411,212 411,255 C 411,322 442,368 479,368 C 504,368 512,347 506,319 L 490,248 C 483,219 470,196 445,196 Z "/>
</svg>
