<svg xmlns="http://www.w3.org/2000/svg" viewBox="0 -970 587 1200">
  <path transform="scale(1,-1)" d="M 293,568 C 364,568 428,597 428,696 L 338,696 C 336,669 322,653 293,653 C 264,653 250,669 248,696 L 158,696 C 158,597 221,568 293,568 Z M 367,0 L 543,0 C 535,59 533,95 533,135 L 533,285 C 533,318 532,349 530,376 C 522,473 464,548 295,548 C 160,548 49,477 48,352 L 218,353 C 221,399 245,426 287,426 C 326,426 348,402 351,375 C 353,358 353,347 353,336 L 353,328 L 319,328 C 138,328 30,258 30,144 C 30,41 113,-14 201,-14 C 250,-14 295,-2 333,22 L 355,78 L 367,0 Z M 275,108 C 239,108 214,126 214,158 C 214,211 272,232 353,226 L 353,191 C 353,135 311,108 275,108 Z "/>
</svg>
