<svg xmlns="http://www.w3.org/2000/svg" viewBox="0 -970 640 1200">
  <path transform="scale(1,-1)" d="M 215,569 C 260,569 290,597 290,642 C 290,687 260,715 215,715 C 170,715 140,687 140,642 C 140,597 170,569 215,569 Z M 415,569 C 460,569 490,597 490,642 C 490,687 460,715 415,715 C 370,715 340,687 340,642 C 340,597 370,569 415,569 Z M 586,534 L 406,534 L 406,232 C 406,161 372,108 315,108 C 258,108 234,138 228,189 C 225,216 224,245 224,262 L 224,534 L 44,534 L 44,222 C 44,179 45,148 49,121 C 61,48 128,-14 238,-14 C 287,-14 325,-3 358,17 L 406,90 L 406,0 L 586,0 L 586,534 Z "/>
</svg>
