<svg xmlns="http://www.w3.org/2000/svg" viewBox="0 -970 587 1200">
  <path transform="scale(1,-1)" d="M 388,196 C 378,138 344,108 303,108 C 242,108 208,158 208,272 C 208,375 241,426 301,426 C 346,426 381,400 389,330 L 563,330 C 558,450 462,548 305,548 C 148,548 24,445 24,261 C 24,106 114,11 240,-10 L 202,-88 C 277,-83 299,-94 299,-114 C 299,-132 282,-141 239,-141 C 226,-141 206,-140 181,-134 L 181,-204 C 200,-209 218,-210 238,-210 C 330,-210 407,-188 407,-119 C 407,-74 375,-49 312,-42 L 326,-13 C 454,-2 547,69 565,196 L 388,196 Z "/>
</svg>
