<svg xmlns="http://www.w3.org/2000/svg" viewBox="0 -970 991 1200">
  <path transform="scale(1,-1)" d="M 967,274 C 967,412 877,548 708,548 C 625,548 554,517 508,447 C 461,518 389,548 311,548 C 136,548 24,439 24,267 C 24,96 136,-14 311,-14 C 387,-14 457,13 503,79 C 550,11 620,-14 694,-14 C 826,-14 926,54 957,175 L 780,175 C 773,134 742,108 691,108 C 640,108 601,133 592,222 L 964,222 C 966,240 967,258 967,274 Z M 311,108 C 247,108 208,161 208,267 C 208,374 247,426 311,426 C 375,426 414,374 414,267 C 414,161 375,108 311,108 Z M 598,332 C 611,397 644,426 690,426 C 739,426 770,394 779,332 L 598,332 Z "/>
</svg>
