<svg xmlns="http://www.w3.org/2000/svg" viewBox="0 -970 1036 1200">
  <path transform="scale(1,-1)" d="M 790,544 C 698,544 628,517 562,431 C 523,517 448,544 340,544 C 127,544 23,383 23,223 C 23,68 115,-14 252,-14 C 344,-14 417,13 483,99 C 522,13 594,-14 702,-14 C 913,-14 1014,147 1014,307 C 1014,462 927,544 790,544 Z M 421,265 C 390,151 341,108 289,108 C 243,108 213,155 213,230 C 213,304 248,422 340,422 C 392,422 425,381 421,265 Z M 702,108 C 650,108 617,149 625,265 C 653,379 701,422 753,422 C 799,422 824,374 824,300 C 824,226 792,108 702,108 Z "/>
</svg>
