<svg xmlns="http://www.w3.org/2000/svg" viewBox="0 -970 667 1200">
  <path transform="scale(1,-1)" d="M 683,534 C 683,632 611,675 524,685 C 488,689 460,690 417,690 L 143,690 L 21,0 L 201,0 L 247,262 L 288,262 C 308,262 324,262 344,261 C 386,258 408,219 408,153 C 408,74 410,37 415,0 L 611,0 C 596,33 588,76 588,133 C 588,242 568,301 506,328 C 622,358 683,429 683,534 Z M 270,392 L 298,550 L 368,550 C 387,550 403,550 416,549 C 456,546 487,532 487,487 C 487,417 437,397 384,393 C 371,392 355,392 336,392 L 270,392 Z "/>
</svg>
