<svg xmlns="http://www.w3.org/2000/svg" viewBox="0 -970 930 1200">
  <path transform="scale(1,-1)" d="M 692,472 L 541,472 L 521,409 L 504,462 C 493,477 466,490 427,490 C 315,490 237,386 237,243 C 237,113 302,74 372,74 C 401,74 431,81 460,104 L 491,167 C 513,101 565,68 643,68 C 773,68 881,144 881,352 C 881,530 749,702 494,702 C 240,702 34,512 34,251 C 34,-31 250,-134 429,-134 C 516,-134 618,-112 703,-57 L 666,27 C 605,-17 529,-38 443,-38 C 244,-38 142,79 142,258 C 142,488 314,606 490,606 C 666,606 773,507 773,342 C 773,226 732,164 682,164 C 654,164 641,189 641,229 C 641,248 643,267 660,339 L 692,472 Z M 435,196 C 414,196 401,212 401,255 C 401,322 432,368 469,368 C 494,368 502,347 496,319 L 480,248 C 473,219 460,196 435,196 Z "/>
</svg>
