<svg xmlns="http://www.w3.org/2000/svg" viewBox="0 -970 630 1200">
  <path transform="scale(1,-1)" d="M 241,496 C 188,496 136,476 83,408 L 130,345 C 162,376 191,391 225,391 C 248,391 263,384 311,356 C 361,327 385,315 426,315 C 479,315 530,335 583,403 L 536,466 C 504,435 475,420 441,420 C 418,420 403,427 355,455 C 305,484 282,496 241,496 Z M 205,296 C 152,296 101,276 48,208 L 95,145 C 127,176 156,191 190,191 C 213,191 228,184 276,156 C 326,127 349,115 390,115 C 443,115 495,135 548,203 L 501,266 C 469,235 440,220 406,220 C 383,220 368,227 320,255 C 270,284 246,296 205,296 Z "/>
</svg>
