<svg xmlns="http://www.w3.org/2000/svg" viewBox="0 -970 643 1200">
  <path transform="scale(1,-1)" d="M 329,603 C 341,603 353,599 374,590 C 418,571 436,569 458,569 C 520,569 545,610 562,703 L 466,703 C 462,681 456,672 445,672 C 434,672 421,675 398,685 C 357,703 338,706 314,706 C 252,706 227,665 210,572 L 306,572 C 310,594 318,603 329,603 Z M 454,548 C 405,548 365,537 328,517 L 268,458 L 282,534 L 102,534 L 8,0 L 188,0 L 231,248 C 253,369 298,426 355,426 C 408,426 426,396 426,351 C 426,332 422,303 416,268 L 368,0 L 548,0 L 603,308 C 611,353 615,383 615,411 C 615,490 563,548 454,548 Z "/>
</svg>
