<svg xmlns="http://www.w3.org/2000/svg" viewBox="0 -970 627 1200">
  <path transform="scale(1,-1)" d="M 623,477 C 630,605 562,704 380,704 C 229,704 88,617 88,460 C 88,356 165,307 298,273 C 370,254 398,223 398,192 C 398,148 353,118 298,118 C 244,118 195,146 195,211 L 15,211 C 1,76 84,6 216,-10 L 165,-88 C 217,-84 257,-89 257,-112 C 257,-131 233,-141 193,-141 C 175,-141 158,-140 136,-134 L 123,-203 C 142,-208 171,-210 209,-210 C 293,-210 366,-179 366,-111 C 366,-73 337,-50 282,-42 L 302,-13 C 454,-6 591,75 591,228 C 591,315 537,381 411,412 C 313,436 281,462 281,499 C 281,547 316,572 363,572 C 422,572 445,534 443,477 L 623,477 Z "/>
</svg>
