<svg xmlns="http://www.w3.org/2000/svg" viewBox="0 -970 560 1200">
  <path transform="scale(1,-1)" d="M 230,751 C 160,751 126,699 126,650 C 126,603 157,575 208,575 C 279,575 312,628 312,676 C 312,723 281,751 230,751 Z M 495,751 C 429,751 394,717 394,648 C 394,603 425,575 483,575 C 549,575 584,609 584,678 C 584,723 553,751 495,751 Z M 188,0 L 283,534 L 103,534 L 8,0 L 188,0 Z M 556,534 L 376,534 L 285,15 C 282,0 278,-19 274,-33 C 261,-79 230,-92 165,-85 L 144,-206 C 161,-209 182,-210 203,-210 C 358,-210 427,-148 451,-48 C 456,-30 462,-4 465,16 L 556,534 Z "/>
</svg>
