<svg xmlns="http://www.w3.org/2000/svg" viewBox="0 -970 860 1200">
  <path transform="scale(1,-1)" d="M 430,759 C 188,759 16,592 16,355 C 16,118 188,-49 430,-49 C 672,-49 844,118 844,355 C 844,592 672,759 430,759 Z M 430,663 C 609,663 736,535 736,355 C 736,176 609,49 430,49 C 251,49 124,176 124,355 C 124,535 251,663 430,663 Z M 439,582 C 300,582 209,491 209,355 C 209,211 300,126 432,126 C 562,126 633,200 649,314 L 502,314 C 499,251 470,228 437,228 C 390,228 363,266 363,356 C 363,434 381,480 433,480 C 477,480 499,448 503,394 L 650,394 C 641,507 568,582 439,582 Z "/>
</svg>
