<svg xmlns="http://www.w3.org/2000/svg" viewBox="0 -970 687 1200">
  <path transform="scale(1,-1)" d="M 695,420 L 603,420 L 617,497 L 437,497 L 423,420 L 406,420 C 390,420 368,420 350,421 C 315,423 289,443 289,483 C 289,541 320,572 391,572 C 422,572 445,571 485,563 L 508,694 C 481,701 448,704 409,704 C 214,704 102,622 102,487 C 102,425 141,373 204,354 C 86,336 1,265 1,144 C 1,25 109,-14 254,-14 C 361,-14 453,-3 532,13 L 579,280 L 671,280 L 695,420 Z M 194,183 C 194,245 239,276 314,279 C 334,280 344,280 366,280 L 399,280 L 371,125 C 332,119 311,118 282,118 C 231,118 194,132 194,183 Z "/>
</svg>
