<svg xmlns="http://www.w3.org/2000/svg" viewBox="0 -970 645 1200">
  <path transform="scale(1,-1)" d="M 419,754 C 191,754 120,645 84,430 L 8,0 L 188,0 L 265,438 C 290,578 327,622 392,622 C 439,622 461,601 461,563 C 461,548 457,535 445,514 C 386,481 353,444 353,385 C 353,335 372,302 407,257 C 428,231 438,209 438,187 C 438,150 413,128 367,128 C 345,128 323,130 281,141 L 257,8 C 295,0 330,-4 393,-4 C 552,-4 628,78 628,178 C 628,221 619,260 575,309 C 550,337 539,363 539,386 C 539,422 562,443 604,462 C 639,507 651,542 651,583 C 651,680 571,754 419,754 Z "/>
</svg>
