<svg xmlns="http://www.w3.org/2000/svg" viewBox="0 -970 639 1200">
  <path transform="scale(1,-1)" d="M 328,603 C 340,603 352,599 373,590 C 417,571 435,569 457,569 C 519,569 544,610 561,703 L 465,703 C 461,681 455,672 444,672 C 433,672 420,675 397,685 C 356,703 337,706 313,706 C 251,706 226,665 209,572 L 305,572 C 309,594 317,603 328,603 Z M 355,548 C 136,548 23,396 23,224 C 23,83 112,-14 285,-14 C 504,-14 617,138 617,310 C 617,451 528,548 355,548 Z M 298,108 C 240,108 213,158 213,228 C 213,329 256,426 342,426 C 400,426 427,376 427,306 C 427,205 384,108 298,108 Z "/>
</svg>
