<svg xmlns="http://www.w3.org/2000/svg" viewBox="0 -970 803 1200">
  <path transform="scale(1,-1)" d="M 831,633 L 773,703 L 692,634 C 637,678 561,704 466,704 C 242,704 64,545 64,285 C 64,229 77,177 102,133 L 13,57 L 71,-13 L 160,62 C 216,14 295,-14 394,-14 C 618,-14 796,145 796,405 C 796,465 781,520 753,566 L 831,633 Z M 254,290 C 254,419 321,572 460,572 C 506,572 542,556 566,527 L 255,263 C 254,272 254,281 254,290 Z M 606,400 C 606,271 539,118 400,118 C 349,118 311,138 287,171 L 603,439 C 605,427 606,414 606,400 Z "/>
</svg>
