<svg xmlns="http://www.w3.org/2000/svg" viewBox="0 -970 486 1200">
  <path transform="scale(1,-1)" d="M 270,764 C 127,764 28,658 28,530 C 28,430 97,344 216,344 C 359,344 458,449 458,578 C 458,678 389,764 270,764 Z M 226,400 C 139,400 89,454 89,532 C 89,631 150,708 260,708 C 347,708 397,654 397,576 C 397,477 336,400 226,400 Z M 276,666 C 267,667 259,667 249,667 L 182,667 L 144,453 L 204,453 L 216,523 L 230,523 C 247,523 254,514 253,498 C 252,483 254,466 258,453 L 326,453 C 316,474 314,488 314,507 C 314,532 307,547 288,553 C 322,560 342,580 342,609 C 342,641 318,662 276,666 Z M 256,570 C 249,569 244,569 236,569 L 225,569 L 234,622 L 244,622 C 252,622 256,622 263,621 C 272,619 279,612 279,599 C 279,585 270,573 256,570 Z "/>
</svg>
