<svg xmlns="http://www.w3.org/2000/svg" viewBox="0 -970 966 1200">
  <path transform="scale(1,-1)" d="M 775,548 C 726,548 687,540 644,509 L 593,452 C 579,507 530,548 443,548 C 394,548 359,537 322,517 L 269,460 L 282,534 L 102,534 L 8,0 L 188,0 L 238,282 C 254,373 296,426 344,426 C 388,426 407,400 407,355 C 407,333 402,300 398,272 L 350,0 L 530,0 L 580,282 C 595,369 642,426 692,426 C 730,426 749,400 749,355 C 749,331 744,296 740,272 L 692,0 L 872,0 L 927,312 C 935,356 940,388 940,415 C 940,487 891,548 775,548 Z "/>
</svg>
