<svg xmlns="http://www.w3.org/2000/svg" viewBox="0 -970 627 1200">
  <path transform="scale(1,-1)" d="M 425,735 L 602,860 L 442,860 L 329,735 L 425,735 Z M 380,704 C 229,704 88,617 88,460 C 88,356 165,307 298,273 C 370,254 398,223 398,192 C 398,148 353,118 298,118 C 244,118 195,146 195,211 L 15,211 C -1,56 112,-14 279,-14 C 440,-14 591,67 591,228 C 591,315 537,381 411,412 C 313,436 281,462 281,499 C 281,547 316,572 363,572 C 422,572 445,534 443,477 L 623,477 C 630,605 562,704 380,704 Z "/>
</svg>
