<svg xmlns="http://www.w3.org/2000/svg" viewBox="0 -970 767 1200">
  <path transform="scale(1,-1)" d="M 466,704 C 251,704 63,540 63,271 C 63,108 152,12 289,-9 L 237,-88 C 289,-84 329,-89 329,-112 C 329,-131 305,-141 265,-141 C 247,-141 230,-140 208,-134 L 195,-203 C 214,-208 243,-210 281,-210 C 365,-210 438,-179 438,-111 C 438,-73 409,-50 354,-42 L 374,-14 C 536,-7 659,78 703,237 L 706,247 L 526,247 L 522,237 C 494,161 441,118 371,118 C 306,118 252,162 252,283 C 252,472 344,572 450,572 C 523,572 562,537 564,463 L 564,453 L 744,453 L 745,463 C 755,599 663,704 466,704 Z "/>
</svg>
