<svg xmlns="http://www.w3.org/2000/svg" viewBox="0 -970 661 1200">
  <path transform="scale(1,-1)" d="M 566,138 C 566,152 569,170 573,192 L 669,730 L 658,730 C 593,745 521,754 431,754 C 226,754 143,692 118,592 C 114,574 109,550 107,534 L 106,530 L 59,530 L 39,418 L 86,418 L 12,0 L 192,0 L 266,418 L 375,418 L 395,530 L 286,530 L 287,534 C 289,547 291,560 295,574 C 305,613 344,632 400,632 C 428,632 443,631 470,624 L 392,189 C 383,139 378,102 378,72 C 378,14 417,-10 503,-10 C 543,-10 571,-8 599,-4 L 619,107 C 580,105 566,110 566,138 Z "/>
</svg>
