<svg xmlns="http://www.w3.org/2000/svg" viewBox="0 -970 515 1200">
  <path transform="scale(1,-1)" d="M 339,318 C 250,348 231,361 231,395 C 231,417 248,432 276,432 C 306,432 325,411 330,374 L 506,374 C 500,471 436,544 282,544 C 125,544 44,464 44,372 C 44,285 96,251 183,220 C 276,187 299,168 299,137 C 299,107 275,92 240,92 C 202,92 170,111 165,160 L -12,160 C -7,62 56,4 160,-14 L 111,-88 C 163,-84 203,-89 203,-112 C 203,-131 179,-141 139,-141 C 121,-141 104,-140 82,-134 L 69,-203 C 88,-208 117,-210 155,-210 C 239,-210 312,-179 312,-111 C 312,-73 283,-50 228,-42 L 243,-20 C 385,-17 487,44 487,156 C 487,236 444,282 339,318 Z "/>
</svg>
