<svg xmlns="http://www.w3.org/2000/svg" viewBox="0 -970 985 1200">
  <path transform="scale(1,-1)" d="M 944,222 C 955,255 962,294 962,328 C 962,444 892,544 746,544 C 659,544 579,516 525,455 C 507,504 458,544 349,544 C 214,544 91,473 68,348 L 238,348 C 249,395 288,422 330,422 C 374,422 394,405 394,366 C 394,358 393,349 390,332 L 336,332 C 101,332 12,232 12,127 C 12,40 83,-14 207,-14 C 256,-14 313,-3 359,23 L 427,96 C 461,22 531,-14 628,-14 C 765,-14 877,54 929,175 L 752,175 C 738,134 702,108 651,108 C 604,108 571,129 571,203 C 571,209 572,215 572,222 L 944,222 Z M 706,422 C 755,422 781,394 779,332 L 598,332 C 622,397 660,422 706,422 Z M 372,205 C 362,146 317,108 263,108 C 222,108 200,122 200,150 C 200,200 242,223 336,223 C 348,223 361,223 375,222 L 372,205 Z "/>
</svg>
