<svg xmlns="http://www.w3.org/2000/svg" viewBox="0 -970 662 1200">
  <path transform="scale(1,-1)" d="M 436,565 C 463,549 481,521 480,487 L 650,487 C 643,597 578,679 460,699 L 474,780 L 374,780 L 360,703 C 202,690 103,604 103,489 C 103,387 165,329 286,282 L 257,118 C 224,131 204,158 201,201 L 31,201 C 40,94 91,13 234,-8 L 220,-90 L 320,-90 L 333,-14 C 491,-9 602,65 602,190 C 602,298 540,347 408,406 L 436,565 Z M 269,501 C 269,544 296,570 338,578 L 313,436 C 285,451 269,470 269,501 Z M 379,244 C 414,227 429,206 429,175 C 429,137 402,117 355,110 L 379,244 Z "/>
</svg>
