<svg xmlns="http://www.w3.org/2000/svg" viewBox="0 -970 802 1200">
  <path transform="scale(1,-1)" d="M 215,366 C 335,366 399,461 399,561 C 399,653 341,704 255,704 C 135,704 71,609 71,509 C 71,417 129,366 215,366 Z M 771,690 L 628,690 L 60,0 L 203,0 L 771,690 Z M 245,620 C 272,620 291,602 291,559 C 291,501 264,450 225,450 C 198,450 179,468 179,511 C 179,569 206,620 245,620 Z M 615,324 C 495,324 431,229 431,129 C 431,37 489,-14 575,-14 C 695,-14 759,81 759,181 C 759,273 701,324 615,324 Z M 585,70 C 558,70 539,88 539,131 C 539,189 566,240 605,240 C 632,240 651,222 651,179 C 651,121 624,70 585,70 Z "/>
</svg>
