<svg xmlns="http://www.w3.org/2000/svg" viewBox="0 -970 672 1200">
  <path transform="scale(1,-1)" d="M 533,373 C 620,400 663,459 663,536 C 663,612 612,674 514,686 C 479,690 463,690 426,690 L 143,690 L 21,0 L 296,0 C 340,0 363,0 399,4 C 504,16 637,83 637,222 C 637,295 604,349 533,373 Z M 298,550 L 379,550 C 395,550 411,549 424,547 C 452,543 469,527 469,497 C 469,448 441,427 401,421 C 387,419 372,418 356,418 L 275,418 L 298,550 Z M 368,141 C 354,140 339,140 323,140 L 226,140 L 252,288 L 344,288 C 360,288 376,288 389,287 C 421,284 447,264 447,226 C 447,174 404,143 368,141 Z "/>
</svg>
