<svg xmlns="http://www.w3.org/2000/svg" viewBox="0 -970 778 1200">
  <path transform="scale(1,-1)" d="M 491,728 C 562,728 634,769 650,860 L 560,860 C 552,829 535,813 505,813 C 475,813 466,832 470,860 L 380,860 C 368,793 391,728 491,728 Z M 486,704 C 271,704 62,552 62,264 C 62,83 164,-14 322,-14 C 395,-14 444,-3 488,30 L 532,107 L 530,0 L 670,0 L 735,368 L 431,368 L 406,228 L 540,228 C 502,152 450,118 380,118 C 310,118 253,163 253,285 C 253,476 355,572 461,572 C 534,572 573,537 575,463 L 575,453 L 755,453 L 756,463 C 766,599 683,704 486,704 Z "/>
</svg>
