<svg xmlns="http://www.w3.org/2000/svg" viewBox="0 -970 662 1200">
  <path transform="scale(1,-1)" d="M 485,363 C 595,387 645,452 645,545 C 645,631 579,704 428,704 C 229,704 145,600 112,484 L 110,474 L 290,474 L 292,484 C 304,529 334,572 387,572 C 430,572 453,549 453,513 C 453,460 412,417 336,411 L 309,409 L 289,293 L 316,292 C 379,289 416,264 416,215 C 416,159 368,118 309,118 C 240,118 213,161 212,209 L 212,219 L 32,219 L 31,209 C 21,71 108,-14 283,-14 C 476,-14 606,89 606,234 C 606,304 565,345 485,363 Z "/>
</svg>
