<svg xmlns="http://www.w3.org/2000/svg" viewBox="0 -970 719 1200">
  <path transform="scale(1,-1)" d="M 489,932 C 407,932 352,884 352,814 C 352,762 394,722 456,722 C 538,722 594,770 594,840 C 594,892 551,932 489,932 Z M 480,866 C 498,866 510,854 510,836 C 510,808 489,788 466,788 C 448,788 436,800 436,818 C 436,846 457,866 480,866 Z M 755,690 L 575,690 L 501,270 C 498,251 496,241 493,229 C 472,144 427,118 356,118 C 294,118 243,150 243,212 C 243,231 245,248 249,270 L 323,690 L 143,690 L 80,333 C 67,257 63,225 63,188 C 63,74 152,-14 343,-14 C 554,-14 636,81 669,216 C 679,257 683,278 691,323 L 755,690 Z "/>
</svg>
