<svg xmlns="http://www.w3.org/2000/svg" viewBox="0 -970 639 1200">
  <path transform="scale(1,-1)" d="M 289,569 C 328,569 371,599 371,654 C 371,694 346,715 304,715 C 265,715 221,685 221,630 C 221,591 245,569 289,569 Z M 489,569 C 528,569 571,599 571,654 C 571,694 546,715 504,715 C 465,715 421,685 421,630 C 421,591 445,569 489,569 Z M 631,534 L 451,534 L 408,286 C 386,165 341,108 284,108 C 231,108 213,138 213,183 C 213,202 217,231 223,266 L 271,534 L 91,534 L 36,226 C 28,181 24,151 24,123 C 24,44 76,-14 185,-14 C 234,-14 274,-3 311,17 L 371,76 L 357,0 L 537,0 L 631,534 Z "/>
</svg>
