<svg xmlns="http://www.w3.org/2000/svg" viewBox="0 -970 612 1200">
  <path transform="scale(1,-1)" d="M 201,222 L 571,222 C 582,255 589,294 589,327 C 589,444 515,548 345,548 C 161,548 21,416 21,209 C 21,70 105,6 213,-10 C 156,-46 126,-90 126,-145 C 126,-201 168,-223 227,-223 C 286,-223 337,-202 371,-173 L 384,-106 C 367,-117 352,-121 338,-121 C 319,-121 303,-111 303,-82 C 303,-57 314,-25 335,-9 C 445,9 524,73 559,175 L 382,175 C 368,134 332,108 281,108 C 234,108 201,135 201,207 L 201,222 Z M 330,426 C 383,426 406,393 406,343 C 406,341 406,338 405,332 L 222,332 C 245,391 284,426 330,426 Z "/>
</svg>
