<svg xmlns="http://www.w3.org/2000/svg" viewBox="0 -970 639 1200">
  <path transform="scale(1,-1)" d="M 392,567 C 475,567 528,619 528,689 C 528,747 488,781 424,781 C 339,781 286,729 286,659 C 286,601 326,567 392,567 Z M 414,715 C 432,715 444,704 444,685 C 444,667 434,633 400,633 C 382,633 370,644 370,663 C 370,681 380,715 414,715 Z M 631,534 L 451,534 L 408,286 C 386,165 341,108 284,108 C 231,108 213,138 213,183 C 213,202 217,231 223,266 L 271,534 L 91,534 L 36,226 C 28,181 24,151 24,123 C 24,44 76,-14 185,-14 C 234,-14 274,-3 311,17 L 371,76 L 357,0 L 537,0 L 631,534 Z "/>
</svg>
