<svg xmlns="http://www.w3.org/2000/svg" viewBox="0 -970 662 1200">
  <path transform="scale(1,-1)" d="M 619,242 C 619,343 558,399 431,438 C 348,463 320,479 320,526 C 320,555 333,592 374,592 C 401,592 419,571 421,526 L 598,526 C 585,631 521,704 376,704 C 219,704 134,601 134,519 C 134,492 138,469 147,448 C 70,408 36,341 36,273 C 36,187 94,137 196,102 C 303,65 332,38 332,-4 C 332,-48 300,-62 264,-62 C 226,-62 199,-35 196,6 L 19,6 C 32,-114 124,-174 258,-174 C 415,-174 518,-101 518,12 C 518,36 512,60 500,81 C 580,119 619,183 619,242 Z M 308,214 C 251,234 222,259 222,293 C 222,311 228,336 249,351 C 274,338 303,326 336,314 C 407,288 433,268 433,232 C 433,203 420,183 402,172 C 375,188 344,202 308,214 Z "/>
</svg>
