<svg xmlns="http://www.w3.org/2000/svg" viewBox="0 -970 662 1200">
  <path transform="scale(1,-1)" d="M 497,366 C 569,387 640,434 640,538 C 640,635 565,704 418,704 C 233,704 124,608 124,480 C 124,417 157,383 200,366 C 118,340 34,278 34,158 C 34,36 127,-15 279,-15 C 459,-15 601,58 601,223 C 601,299 553,345 497,366 Z M 365,426 C 329,426 307,446 307,485 C 307,541 347,572 391,572 C 430,572 454,551 454,514 C 454,457 413,426 365,426 Z M 304,117 C 253,117 224,143 224,189 C 224,257 277,297 335,297 C 387,297 415,268 415,221 C 415,161 383,117 304,117 Z "/>
</svg>
