<svg xmlns="http://www.w3.org/2000/svg" viewBox="0 -970 662 1200">
  <path transform="scale(1,-1)" d="M 561,445 L 516,500 L 453,448 C 427,468 393,480 353,481 C 317,482 286,474 259,460 L 218,508 L 153,453 L 194,402 C 168,367 155,324 155,289 C 155,261 160,234 171,211 L 111,159 L 156,104 L 216,153 C 242,133 276,121 317,121 C 353,121 385,130 412,145 L 455,95 L 515,146 L 473,198 C 500,234 515,277 515,313 C 515,341 509,368 499,391 L 561,445 Z M 326,215 C 280,215 257,247 257,294 C 257,335 282,387 344,387 C 390,387 413,355 413,308 C 413,267 388,215 326,215 Z "/>
</svg>
