<svg xmlns="http://www.w3.org/2000/svg" viewBox="0 -970 612 1200">
  <path transform="scale(1,-1)" d="M 263,569 C 302,569 345,599 345,654 C 345,694 320,715 278,715 C 239,715 195,685 195,630 C 195,591 219,569 263,569 Z M 463,569 C 502,569 545,599 545,654 C 545,694 520,715 478,715 C 439,715 395,685 395,630 C 395,591 419,569 463,569 Z M 201,222 L 571,222 C 582,255 589,294 589,327 C 589,444 515,548 345,548 C 161,548 21,416 21,209 C 21,46 136,-14 270,-14 C 415,-14 517,54 559,175 L 382,175 C 368,134 332,108 281,108 C 234,108 201,135 201,207 L 201,222 Z M 330,426 C 383,426 406,393 406,343 C 406,341 406,338 405,332 L 222,332 C 245,391 284,426 330,426 Z "/>
</svg>
