<svg xmlns="http://www.w3.org/2000/svg" viewBox="0 -970 662 1200">
  <path transform="scale(1,-1)" d="M 468,572 C 516,572 549,561 587,531 L 668,642 C 637,679 576,704 482,704 C 284,704 181,600 135,466 L 89,466 L 62,370 L 112,370 C 110,353 108,337 106,320 L 46,320 L 19,224 L 105,224 C 116,64 206,-14 350,-14 C 443,-14 495,0 548,25 L 572,157 C 523,131 473,118 409,118 C 349,118 304,143 293,224 L 454,224 L 480,320 L 291,320 C 292,338 294,354 295,370 L 496,370 L 524,466 L 317,466 C 346,543 397,572 468,572 Z "/>
</svg>
