<svg xmlns="http://www.w3.org/2000/svg" viewBox="0 -970 719 1200">
  <path transform="scale(1,-1)" d="M 374,868 C 335,868 291,838 291,783 C 291,744 315,722 359,722 C 398,722 441,752 441,807 C 441,847 416,868 374,868 Z M 574,868 C 535,868 491,838 491,783 C 491,744 515,722 559,722 C 598,722 641,752 641,807 C 641,847 616,868 574,868 Z M 755,690 L 575,690 L 501,270 C 498,251 496,241 493,229 C 472,144 427,118 356,118 C 294,118 243,150 243,212 C 243,231 245,248 249,270 L 323,690 L 143,690 L 80,333 C 67,257 63,225 63,188 C 63,74 152,-14 343,-14 C 554,-14 636,81 669,216 C 679,257 683,278 691,323 L 755,690 Z "/>
</svg>
