<svg xmlns="http://www.w3.org/2000/svg" viewBox="0 -970 719 1200">
  <path transform="scale(1,-1)" d="M 755,690 L 575,690 L 501,270 C 498,251 496,241 493,229 C 472,144 427,118 356,118 C 294,118 243,150 243,212 C 243,231 245,248 249,270 L 323,690 L 143,690 L 80,333 C 67,257 63,225 63,188 C 63,84 138,1 297,-12 C 243,-47 214,-91 214,-145 C 214,-201 256,-223 315,-223 C 374,-223 425,-202 459,-173 L 472,-106 C 455,-117 440,-121 426,-121 C 407,-121 391,-111 391,-82 C 391,-57 402,-24 423,-9 C 576,13 641,100 669,216 C 679,257 683,278 691,323 L 755,690 Z "/>
</svg>
