<svg xmlns="http://www.w3.org/2000/svg" viewBox="0 -970 767 1200">
  <path transform="scale(1,-1)" d="M 498,898 C 428,898 394,846 394,797 C 394,750 425,722 476,722 C 547,722 580,775 580,823 C 580,870 549,898 498,898 Z M 466,704 C 251,704 63,540 63,271 C 63,84 180,-14 352,-14 C 525,-14 657,71 703,237 L 706,247 L 526,247 L 522,237 C 494,161 441,118 371,118 C 306,118 252,162 252,283 C 252,472 344,572 450,572 C 523,572 562,537 564,463 L 564,453 L 744,453 L 745,463 C 755,599 663,704 466,704 Z "/>
</svg>
