<svg xmlns="http://www.w3.org/2000/svg" viewBox="0 -970 670 1200">
  <path transform="scale(1,-1)" d="M 669,626 L 657,696 L 553,677 C 532,706 507,730 476,745 L 319,695 C 344,679 365,663 383,647 L 302,632 L 314,562 L 432,583 C 454,542 461,500 463,457 L 425,519 C 392,541 367,548 328,548 C 117,548 22,378 22,211 C 22,80 117,-14 288,-14 C 539,-14 629,195 629,381 C 629,461 617,544 589,612 L 669,626 Z M 301,118 C 243,118 208,151 208,224 C 208,296 241,416 355,416 C 411,416 443,368 443,311 C 443,243 415,118 301,118 Z "/>
</svg>
