<svg xmlns="http://www.w3.org/2000/svg" viewBox="0 -970 680 1200">
  <path transform="scale(1,-1)" d="M 672,534 L 492,534 L 479,462 L 453,522 C 429,538 379,548 335,548 C 124,548 19,379 19,197 C 19,68 96,-8 229,-8 C 283,-8 327,3 360,25 L 413,86 L 412,83 C 407,54 402,29 398,13 C 380,-59 326,-88 259,-88 C 203,-88 166,-68 168,-33 L 169,-23 L -5,-23 L -6,-33 C -15,-155 71,-220 231,-220 C 442,-220 545,-142 582,33 C 588,62 596,103 602,136 L 672,534 Z M 302,114 C 247,114 209,144 209,226 C 209,332 269,426 353,426 C 443,426 459,355 447,283 L 448,287 L 443,255 L 443,260 C 423,150 368,114 302,114 Z "/>
</svg>
