<svg xmlns="http://www.w3.org/2000/svg" viewBox="0 -970 1003 1200">
  <path transform="scale(1,-1)" d="M 961,222 C 972,252 979,291 979,328 C 979,444 909,544 762,544 C 676,544 601,516 543,450 C 507,517 440,544 355,544 C 118,544 21,361 21,214 C 21,69 114,-14 267,-14 C 342,-14 419,12 476,77 C 511,10 577,-14 650,-14 C 792,-14 894,54 946,175 L 769,175 C 755,134 719,108 668,108 C 621,108 588,129 588,203 C 588,206 588,212 589,222 L 961,222 Z M 288,108 C 237,108 207,151 207,218 C 207,303 242,422 344,422 C 395,422 425,383 425,322 C 425,241 390,108 288,108 Z M 723,422 C 768,422 797,396 797,344 C 797,342 797,339 796,332 L 615,332 C 639,397 676,422 723,422 Z "/>
</svg>
