<svg xmlns="http://www.w3.org/2000/svg" viewBox="0 -970 589 1200">
  <path transform="scale(1,-1)" d="M 353,567 C 436,567 489,619 489,689 C 489,747 449,781 385,781 C 300,781 247,729 247,659 C 247,601 287,567 353,567 Z M 375,715 C 393,715 405,704 405,685 C 405,667 395,633 361,633 C 343,633 331,644 331,663 C 331,681 341,715 375,715 Z M 343,548 C 208,548 91,477 68,352 L 238,353 C 249,399 280,426 322,426 C 360,426 373,403 373,377 C 373,359 371,343 369,332 L 368,328 C 137,339 12,250 12,129 C 12,33 78,-14 162,-14 C 210,-14 257,-2 294,22 L 326,79 L 324,0 L 500,0 C 503,59 507,95 514,135 L 540,281 C 550,337 555,368 555,399 C 555,484 499,548 343,548 Z M 251,108 C 219,108 198,122 198,154 C 198,209 258,238 350,227 L 344,191 C 334,135 287,108 251,108 Z "/>
</svg>
