<svg xmlns="http://www.w3.org/2000/svg" viewBox="0 -970 606 1200">
  <path transform="scale(1,-1)" d="M 286,108 C 243,108 211,145 211,213 C 211,321 257,422 338,422 C 388,422 420,391 420,326 L 594,326 C 594,451 520,544 351,544 C 154,544 21,402 21,215 C 21,77 100,7 214,-10 L 162,-88 C 214,-84 254,-89 254,-112 C 254,-131 230,-141 190,-141 C 172,-141 155,-140 133,-134 L 120,-203 C 139,-208 168,-210 206,-210 C 290,-210 363,-179 363,-111 C 363,-73 334,-50 279,-42 L 299,-13 C 438,-5 527,66 572,196 L 395,196 C 375,138 337,108 286,108 Z "/>
</svg>
