<svg xmlns="http://www.w3.org/2000/svg" viewBox="0 -970 584 1200">
  <path transform="scale(1,-1)" d="M 236,569 C 275,569 318,599 318,654 C 318,694 293,715 251,715 C 212,715 168,685 168,630 C 168,591 192,569 236,569 Z M 436,569 C 475,569 518,599 518,654 C 518,694 493,715 451,715 C 412,715 368,685 368,630 C 368,591 392,569 436,569 Z M 647,534 L 450,534 L 273,151 L 231,534 L 31,534 L 150,-24 L 146,-33 C 124,-76 93,-94 54,-94 C 35,-94 20,-93 4,-90 L -15,-204 C 9,-208 31,-210 60,-210 C 181,-210 256,-155 344,0 L 647,534 Z "/>
</svg>
