<svg xmlns="http://www.w3.org/2000/svg" viewBox="0 -970 639 1200">
  <path transform="scale(1,-1)" d="M 273,569 C 312,569 355,599 355,654 C 355,694 330,715 288,715 C 249,715 205,685 205,630 C 205,591 229,569 273,569 Z M 473,569 C 512,569 555,599 555,654 C 555,694 530,715 488,715 C 449,715 405,685 405,630 C 405,591 429,569 473,569 Z M 355,548 C 136,548 23,396 23,224 C 23,83 112,-14 285,-14 C 504,-14 617,138 617,310 C 617,451 528,548 355,548 Z M 298,108 C 240,108 213,158 213,228 C 213,329 256,426 342,426 C 400,426 427,376 427,306 C 427,205 384,108 298,108 Z "/>
</svg>
