<svg xmlns="http://www.w3.org/2000/svg" viewBox="0 -970 612 1200">
  <path transform="scale(1,-1)" d="M 334,569 L 381,645 L 400,569 L 504,569 L 464,694 L 315,694 L 231,569 L 334,569 Z M 201,222 L 571,222 C 582,255 589,294 589,327 C 589,444 515,548 345,548 C 161,548 21,416 21,209 C 21,46 136,-14 270,-14 C 415,-14 517,54 559,175 L 382,175 C 368,134 332,108 281,108 C 234,108 201,135 201,207 L 201,222 Z M 330,426 C 383,426 406,393 406,343 C 406,341 406,338 405,332 L 222,332 C 245,391 284,426 330,426 Z "/>
</svg>
