<svg xmlns="http://www.w3.org/2000/svg" viewBox="0 -970 395 1200">
  <path transform="scale(1,-1)" d="M 290,418 L 406,418 L 426,530 L 310,530 L 334,668 L 154,668 L 129,530 L 49,530 L 29,418 L 110,418 L 70,195 C 61,144 58,114 58,89 C 58,40 77,9 127,-5 L 72,-88 C 124,-84 164,-89 164,-112 C 164,-131 140,-141 100,-141 C 82,-141 65,-140 43,-134 L 30,-203 C 49,-208 78,-210 116,-210 C 200,-210 273,-179 273,-111 C 273,-73 244,-50 189,-42 L 208,-14 C 251,-14 290,-10 331,-1 L 351,112 C 279,103 248,114 248,160 C 248,179 250,194 255,221 L 290,418 Z "/>
</svg>
