<svg xmlns="http://www.w3.org/2000/svg" viewBox="0 -970 682 1200">
  <path transform="scale(1,-1)" d="M 612,690 L 526,690 L 526,263 C 526,241 526,220 524,202 C 516,115 459,54 353,54 C 247,54 190,115 182,202 C 180,220 180,241 180,263 L 180,690 L 94,690 L 94,255 C 94,233 94,213 96,193 C 106,80 182,-11 346,-14 C 308,-41 280,-83 280,-138 C 280,-201 318,-223 373,-223 C 406,-223 437,-215 462,-198 L 462,-149 C 444,-163 426,-169 406,-169 C 377,-169 362,-156 362,-119 C 362,-64 395,-21 438,-5 C 549,21 602,99 610,193 C 612,213 612,233 612,255 L 612,690 Z "/>
</svg>
