<svg xmlns="http://www.w3.org/2000/svg" viewBox="0 -970 580 1200">
  <path transform="scale(1,-1)" d="M 396,367 C 468,388 518,450 518,529 C 518,633 438,704 311,704 C 171,704 86,626 73,501 L 72,491 L 158,491 L 159,501 C 168,592 227,636 300,636 C 373,636 422,588 422,519 C 422,432 356,384 274,384 L 257,384 L 257,314 L 274,314 C 386,314 438,268 438,187 C 438,103 377,54 292,54 C 208,54 142,97 132,194 L 131,204 L 45,204 L 46,194 C 61,45 153,-14 284,-14 C 417,-14 534,63 534,192 C 534,282 481,343 396,367 Z "/>
</svg>
