<svg xmlns="http://www.w3.org/2000/svg" viewBox="0 -970 586 1200">
  <path transform="scale(1,-1)" d="M 220,583 C 245,583 266,604 266,629 C 266,654 245,675 220,675 C 195,675 174,654 174,629 C 174,604 195,583 220,583 Z M 366,583 C 391,583 412,604 412,629 C 412,654 391,675 366,675 C 341,675 320,654 320,629 C 320,604 341,583 366,583 Z M 293,544 C 113,544 30,415 30,265 C 30,116 113,-14 293,-14 C 473,-14 556,116 556,265 C 556,415 473,544 293,544 Z M 293,52 C 186,52 124,141 124,265 C 124,390 186,478 293,478 C 400,478 462,390 462,265 C 462,141 400,52 293,52 Z "/>
</svg>
