<svg xmlns="http://www.w3.org/2000/svg" viewBox="0 -970 531 1200">
  <path transform="scale(1,-1)" d="M 347,-119 C 347,-56 390,-9 441,0 L 464,0 C 456,59 454,95 454,135 L 454,334 C 454,357 453,383 451,404 C 442,491 389,544 263,544 C 146,544 67,479 59,366 L 149,366 C 155,439 191,478 263,478 C 334,478 362,446 366,397 C 368,377 368,356 368,333 L 368,319 L 334,319 C 126,319 36,257 36,137 C 36,39 111,-14 207,-14 C 258,-14 304,-6 340,19 L 369,76 L 377,11 C 318,-12 265,-63 265,-138 C 265,-201 303,-223 358,-223 C 391,-223 422,-215 447,-198 L 447,-149 C 429,-163 411,-169 391,-169 C 362,-169 347,-156 347,-119 Z M 236,52 C 171,52 130,80 130,144 C 130,235 222,266 368,255 L 368,201 C 368,105 316,52 236,52 Z "/>
</svg>
