<svg xmlns="http://www.w3.org/2000/svg" viewBox="0 -970 549 1200">
  <path transform="scale(1,-1)" d="M 277,594 C 308,594 332,618 332,649 C 332,680 308,704 277,704 C 246,704 222,680 222,649 C 222,618 246,594 277,594 Z M 509,280 C 509,435 428,544 282,544 C 137,544 30,435 30,263 C 30,76 133,-14 271,-14 C 380,-14 481,43 502,171 L 412,171 C 400,95 344,52 275,52 C 197,52 131,99 123,239 L 507,239 C 509,258 509,272 509,280 Z M 280,478 C 367,478 414,415 422,305 L 124,305 C 134,418 196,478 280,478 Z "/>
</svg>
