<svg xmlns="http://www.w3.org/2000/svg" viewBox="0 -970 981 1200">
  <path transform="scale(1,-1)" d="M 941,280 C 941,435 860,544 714,544 C 627,544 554,506 510,415 C 468,502 396,544 293,544 C 113,544 30,415 30,265 C 30,116 113,-14 293,-14 C 394,-14 464,27 506,112 C 548,22 620,-14 703,-14 C 812,-14 913,43 934,171 L 844,171 C 832,95 776,52 707,52 C 629,52 565,107 557,239 L 939,239 C 941,258 941,272 941,280 Z M 293,52 C 186,52 124,141 124,265 C 124,390 186,478 293,478 C 400,478 462,390 462,265 C 462,141 400,52 293,52 Z M 557,305 C 568,418 627,478 712,478 C 799,478 845,415 854,305 L 557,305 Z "/>
</svg>
