<svg xmlns="http://www.w3.org/2000/svg" viewBox="0 -970 313 1200">
  <path transform="scale(1,-1)" d="M 177,460 L 276,460 L 276,526 L 177,526 L 177,649 L 91,649 L 91,526 L 20,526 L 20,460 L 91,460 L 91,151 C 91,121 91,99 92,85 C 96,37 115,10 150,-2 L 109,-78 C 178,-73 205,-90 205,-124 C 205,-151 184,-168 143,-168 C 122,-168 105,-165 90,-157 L 90,-201 C 104,-207 122,-210 140,-210 C 213,-210 263,-179 263,-123 C 263,-76 235,-47 182,-40 L 200,-8 C 223,-8 246,-7 270,-3 L 270,60 C 203,52 182,63 178,114 C 177,128 177,137 177,155 L 177,460 Z "/>
</svg>
