<svg xmlns="http://www.w3.org/2000/svg" viewBox="0 -970 745 1200">
  <path transform="scale(1,-1)" d="M 711,638 L 670,679 L 607,616 C 552,672 475,704 377,704 C 167,704 51,556 51,345 C 51,257 71,180 111,120 L 43,52 L 84,11 L 147,74 C 202,18 279,-14 377,-14 C 587,-14 703,135 703,345 C 703,433 683,511 644,571 L 711,638 Z M 147,345 C 147,525 232,636 377,636 C 450,636 508,608 548,557 L 176,185 C 157,229 147,283 147,345 Z M 607,345 C 607,166 522,54 377,54 C 304,54 246,82 207,134 L 578,505 C 597,461 607,407 607,345 Z "/>
</svg>
