<svg xmlns="http://www.w3.org/2000/svg" viewBox="0 -970 549 1200">
  <path transform="scale(1,-1)" d="M 509,280 C 509,435 428,544 282,544 C 137,544 30,435 30,263 C 30,85 123,-5 251,-13 C 213,-41 184,-83 184,-138 C 184,-201 222,-223 277,-223 C 310,-223 341,-215 366,-198 L 366,-149 C 348,-163 330,-169 310,-169 C 281,-169 266,-156 266,-119 C 266,-65 298,-23 339,-6 C 346,-4 353,-2 360,0 C 431,24 487,79 502,171 L 412,171 C 400,95 344,52 275,52 C 197,52 131,99 123,239 L 507,239 C 509,258 509,272 509,280 Z M 280,478 C 367,478 414,415 422,305 L 124,305 C 134,418 196,478 280,478 Z "/>
</svg>
