<svg xmlns="http://www.w3.org/2000/svg" viewBox="0 -970 619 1200">
  <path transform="scale(1,-1)" d="M 293,736 L 352,736 L 419,830 L 353,830 L 323,775 L 293,830 L 226,830 L 293,736 Z M 554,181 C 548,250 521,313 465,339 C 529,359 588,411 588,502 C 588,618 516,673 416,686 C 385,690 361,690 326,690 L 100,690 L 100,0 L 186,0 L 186,297 L 316,297 C 332,297 349,297 365,296 C 433,291 460,244 468,173 C 477,88 486,44 505,0 L 600,0 C 572,37 562,91 554,181 Z M 186,367 L 186,620 L 326,620 C 357,620 376,619 395,616 C 459,606 496,571 496,494 C 496,416 449,375 385,369 C 366,367 349,367 318,367 L 186,367 Z "/>
</svg>
