<svg xmlns="http://www.w3.org/2000/svg" viewBox="0 -970 699 1200">
  <path transform="scale(1,-1)" d="M 563,230 L 561,220 C 541,121 480,54 365,54 C 229,54 143,176 143,346 C 143,513 230,636 371,636 C 486,636 547,569 567,470 L 569,460 L 655,460 L 654,470 C 640,605 548,704 373,704 C 177,704 47,552 47,342 C 47,155 143,9 317,-12 L 281,-78 C 350,-73 377,-90 377,-124 C 377,-151 356,-168 315,-168 C 294,-168 277,-165 262,-157 L 262,-201 C 276,-207 294,-210 312,-210 C 385,-210 435,-179 435,-123 C 435,-76 407,-47 354,-40 L 368,-14 C 545,-11 635,97 648,220 L 649,230 L 563,230 Z "/>
</svg>
