<svg xmlns="http://www.w3.org/2000/svg" viewBox="0 -970 615 1200">
  <path transform="scale(1,-1)" d="M 303,594 C 334,594 358,618 358,649 C 358,680 334,704 303,704 C 272,704 248,680 248,649 C 248,618 272,594 303,594 Z M 537,530 L 451,530 L 451,457 L 416,509 C 389,531 333,544 289,544 C 152,544 30,453 30,257 C 30,102 116,-14 271,-14 C 325,-14 381,3 411,28 L 451,85 L 451,76 C 451,60 451,43 450,18 C 446,-84 389,-144 284,-144 C 193,-144 141,-99 134,-34 L 133,-25 L 46,-25 L 47,-35 C 58,-147 133,-210 284,-210 C 437,-210 531,-128 536,27 C 537,56 537,97 537,130 L 537,530 Z M 284,52 C 178,52 124,147 124,267 C 124,406 196,478 289,478 C 365,478 451,426 451,289 L 451,260 C 451,108 372,52 284,52 Z "/>
</svg>
