<svg xmlns="http://www.w3.org/2000/svg" viewBox="0 -970 585 1200">
  <path transform="scale(1,-1)" d="M 552,185 C 552,302 476,364 324,399 C 219,423 176,455 176,530 C 176,602 234,636 307,636 C 394,636 445,586 453,499 L 545,499 C 532,617 457,704 314,704 C 187,704 84,629 84,510 C 84,396 169,347 291,319 C 412,291 460,253 460,169 C 460,97 396,54 317,54 C 227,54 164,105 144,196 L 52,196 C 66,75 146,1 275,-12 L 239,-78 C 308,-73 335,-90 335,-124 C 335,-151 314,-168 273,-168 C 252,-168 235,-165 220,-157 L 220,-201 C 234,-207 252,-210 270,-210 C 343,-210 393,-179 393,-123 C 393,-76 365,-47 312,-40 L 326,-14 C 454,-9 552,67 552,185 Z "/>
</svg>
