<svg xmlns="http://www.w3.org/2000/svg" viewBox="0 -970 560 1200">
  <path transform="scale(1,-1)" d="M 531,246 C 531,342 467,396 324,436 C 231,462 189,499 189,555 C 189,608 227,638 277,638 C 333,638 370,600 382,538 L 472,538 C 461,639 395,704 277,704 C 174,704 97,646 97,546 C 97,504 112,471 137,444 C 75,421 33,370 33,294 C 33,195 118,134 231,106 C 349,77 381,37 381,-20 C 381,-78 338,-108 281,-108 C 220,-108 174,-77 155,0 L 65,0 C 79,-120 162,-174 275,-174 C 378,-174 473,-121 473,-13 C 473,35 458,72 432,101 C 490,128 531,181 531,246 Z M 364,149 C 335,162 302,173 264,182 C 180,202 125,244 125,298 C 125,361 160,390 206,394 C 233,380 262,369 291,360 C 394,328 439,297 439,236 C 439,197 411,159 364,149 Z "/>
</svg>
