<svg xmlns="http://www.w3.org/2000/svg" viewBox="0 -970 682 1200">
  <path transform="scale(1,-1)" d="M 283,829 C 258,829 237,808 237,783 C 237,758 258,737 283,737 C 308,737 329,758 329,783 C 329,808 308,829 283,829 Z M 423,829 C 398,829 377,808 377,783 C 377,758 398,737 423,737 C 448,737 469,758 469,783 C 469,808 448,829 423,829 Z M 612,690 L 526,690 L 526,263 C 526,241 526,220 524,202 C 516,115 459,54 353,54 C 247,54 190,115 182,202 C 180,220 180,241 180,263 L 180,690 L 94,690 L 94,255 C 94,233 94,213 96,193 C 106,78 184,-14 353,-14 C 522,-14 600,78 610,193 C 612,213 612,233 612,255 L 612,690 Z "/>
</svg>
