<svg xmlns="http://www.w3.org/2000/svg" viewBox="0 -970 586 1200">
  <path transform="scale(1,-1)" d="M 241,620 C 250,620 261,617 285,609 C 312,600 328,596 347,596 C 379,596 399,611 399,667 L 361,667 C 361,652 355,647 345,647 C 336,647 325,650 301,658 C 274,667 258,671 239,671 C 207,671 187,656 187,600 L 225,600 C 225,615 231,620 241,620 Z M 293,544 C 113,544 30,415 30,265 C 30,116 113,-14 293,-14 C 473,-14 556,116 556,265 C 556,415 473,544 293,544 Z M 293,52 C 186,52 124,141 124,265 C 124,390 186,478 293,478 C 400,478 462,390 462,265 C 462,141 400,52 293,52 Z "/>
</svg>
