<svg xmlns="http://www.w3.org/2000/svg" viewBox="0 -970 654 1200">
  <path transform="scale(1,-1)" d="M 622,385 L 526,385 L 526,497 L 440,497 L 440,385 L 380,385 C 358,385 336,385 318,386 C 244,390 188,417 188,511 C 188,588 242,636 333,636 C 382,636 415,633 456,625 L 456,694 C 418,701 385,704 336,704 C 193,704 92,624 92,506 C 92,425 146,370 222,352 C 124,331 64,256 64,173 C 64,27 176,-14 337,-14 C 404,-14 469,-6 526,7 L 526,315 L 622,315 L 622,385 Z M 160,186 C 160,250 204,303 319,313 C 339,315 358,315 380,315 L 440,315 L 440,63 C 406,56 379,54 339,54 C 214,54 160,90 160,186 Z "/>
</svg>
