<svg xmlns="http://www.w3.org/2000/svg" viewBox="0 -970 620 1200">
  <path transform="scale(1,-1)" d="M 594,508 L 553,549 L 483,479 C 441,519 381,544 302,544 C 122,544 39,415 39,265 C 39,198 56,135 90,86 L 26,22 L 67,-19 L 129,43 C 171,8 229,-14 302,-14 C 482,-14 565,116 565,265 C 565,328 550,387 520,434 L 594,508 Z M 133,265 C 133,390 195,478 302,478 C 354,478 396,457 425,421 L 155,151 C 140,183 133,222 133,265 Z M 471,265 C 471,141 409,52 302,52 C 254,52 215,70 187,101 L 454,368 C 465,338 471,303 471,265 Z "/>
</svg>
