<svg xmlns="http://www.w3.org/2000/svg" viewBox="0 -970 580 1200">
  <path transform="scale(1,-1)" d="M 526,181 C 526,284 473,349 325,396 L 325,634 C 389,624 420,577 427,509 L 519,509 C 507,610 444,693 325,703 L 325,780 L 267,780 L 267,702 C 157,691 78,624 78,511 C 78,396 151,344 267,312 L 267,56 C 196,67 154,115 145,186 L 53,186 C 58,70 140,-5 267,-13 L 267,-90 L 325,-90 L 325,-12 C 438,-1 526,69 526,181 Z M 170,524 C 170,587 207,624 267,634 L 267,405 C 200,426 170,457 170,524 Z M 325,301 C 407,274 434,229 434,171 C 434,99 390,63 325,55 L 325,301 Z "/>
</svg>
