<svg xmlns="http://www.w3.org/2000/svg" viewBox="0 -970 303 1200">
  <path transform="scale(1,-1)" d="M 270,724 L 270,780 L 259,780 C 173,780 123,756 123,674 C 123,653 125,636 135,565 C 143,510 146,483 146,455 C 146,411 124,384 64,378 L 64,322 C 124,316 146,289 146,245 C 146,217 143,190 135,135 C 125,64 123,47 123,26 C 123,-56 173,-80 259,-80 L 270,-80 L 270,-24 L 258,-24 C 199,-24 181,-6 181,25 C 181,48 183,61 192,125 C 202,195 205,217 205,248 C 205,306 172,344 118,351 C 173,358 205,394 205,452 C 205,483 202,505 192,575 C 183,639 181,652 181,675 C 181,706 199,724 258,724 L 270,724 Z "/>
</svg>
