<svg xmlns="http://www.w3.org/2000/svg" viewBox="0 -970 471 1200">
  <path transform="scale(1,-1)" d="M 117,704 C 86,704 62,680 62,649 C 62,618 86,594 117,594 C 148,594 172,618 172,649 C 172,680 148,704 117,704 Z M 350,704 C 319,704 295,680 295,649 C 295,618 319,594 350,594 C 381,594 405,618 405,649 C 405,680 381,704 350,704 Z M 160,0 L 160,530 L 74,530 L 74,0 L 160,0 Z M 393,530 L 307,530 L 307,-50 C 307,-65 307,-80 305,-94 C 301,-126 280,-143 225,-138 L 225,-208 C 238,-210 250,-210 266,-210 C 348,-210 383,-174 390,-110 C 392,-92 393,-66 393,-46 L 393,530 Z "/>
</svg>
