<svg xmlns="http://www.w3.org/2000/svg" viewBox="0 -970 888 1200">
  <path transform="scale(1,-1)" d="M 848,280 C 848,435 767,544 621,544 C 539,544 479,509 439,448 C 414,510 361,544 263,544 C 139,544 62,479 59,366 L 149,366 C 152,439 188,478 263,478 C 346,478 378,421 378,333 L 378,305 L 344,305 C 136,305 36,257 36,137 C 36,39 118,-14 214,-14 C 275,-14 331,1 384,47 L 411,101 C 453,17 526,-14 610,-14 C 719,-14 820,43 841,171 L 751,171 C 739,95 683,52 614,52 C 536,52 472,107 464,239 L 846,239 C 848,258 848,272 848,280 Z M 464,305 C 475,418 534,478 619,478 C 706,478 752,415 761,305 L 464,305 Z M 378,209 C 378,113 316,52 236,52 C 171,52 130,80 130,144 C 130,230 222,245 378,239 L 378,209 Z "/>
</svg>
