<svg xmlns="http://www.w3.org/2000/svg" viewBox="0 -970 608 1200">
  <path transform="scale(1,-1)" d="M 306,754 C 184,754 84,687 76,544 C 75,526 74,500 74,480 L 74,0 L 160,0 L 160,488 C 160,509 161,528 162,542 C 169,638 227,686 302,686 C 388,686 430,644 430,578 C 430,555 426,538 412,514 C 349,483 322,445 322,398 C 322,341 346,311 408,257 C 462,210 472,182 472,149 C 472,97 442,62 376,62 C 354,62 326,64 282,75 L 282,6 C 321,-2 347,-4 380,-4 C 483,-4 568,50 568,142 C 568,214 541,255 483,302 C 437,340 418,362 418,398 C 418,425 444,449 495,476 C 518,513 526,550 526,579 C 526,684 442,754 306,754 Z "/>
</svg>
