<svg xmlns="http://www.w3.org/2000/svg" viewBox="0 -970 710 1200">
  <path transform="scale(1,-1)" d="M 363,722 C 434,722 465,761 465,830 L 412,830 C 411,794 392,777 363,777 C 334,777 315,794 314,830 L 261,830 C 261,761 291,722 363,722 Z M 399,333 L 399,263 L 560,263 C 560,140 477,54 365,54 C 229,54 143,176 143,346 C 143,513 230,636 371,636 C 486,636 547,569 567,470 L 569,460 L 655,460 L 654,470 C 640,605 548,704 373,704 C 177,704 47,552 47,342 C 47,140 159,-14 360,-14 C 439,-14 500,12 539,56 L 570,120 L 570,0 L 646,0 L 646,333 L 399,333 Z "/>
</svg>
