<svg xmlns="http://www.w3.org/2000/svg" viewBox="0 -970 529 1200">
  <path transform="scale(1,-1)" d="M 271,52 C 192,52 124,116 124,270 C 124,413 194,478 277,478 C 348,478 394,437 413,352 L 503,352 C 487,468 406,544 279,544 C 146,544 30,443 30,264 C 30,88 114,2 230,-12 L 194,-78 C 263,-73 290,-90 290,-124 C 290,-151 269,-168 228,-168 C 207,-168 190,-165 175,-157 L 175,-201 C 189,-207 207,-210 225,-210 C 298,-210 348,-179 348,-123 C 348,-76 320,-47 267,-40 L 281,-14 C 392,-9 473,51 498,169 L 408,169 C 390,92 341,52 271,52 Z "/>
</svg>
