<svg xmlns="http://www.w3.org/2000/svg" viewBox="0 -970 580 1200">
  <path transform="scale(1,-1)" d="M 465,260 L 474,316 L 193,316 C 192,326 192,336 192,346 L 192,370 L 482,370 L 493,426 L 197,426 C 216,581 296,636 396,636 C 444,636 489,619 519,585 L 561,642 C 526,683 470,704 398,704 C 241,704 127,617 101,426 L 58,426 L 48,370 L 97,370 C 96,361 96,352 96,342 L 96,316 L 40,316 L 30,260 L 100,260 C 121,54 225,-14 388,-14 C 442,-14 491,-5 540,23 L 540,94 C 496,66 450,54 393,54 C 283,54 215,114 197,260 L 465,260 Z "/>
</svg>
