<svg xmlns="http://www.w3.org/2000/svg" viewBox="0 -970 986 1200">
  <path transform="scale(1,-1)" d="M 713,544 C 608,544 545,492 495,383 C 448,492 369,544 273,544 C 103,544 30,415 30,265 C 30,115 103,-14 273,-14 C 378,-14 441,38 491,147 C 538,38 617,-14 713,-14 C 883,-14 956,115 956,265 C 956,415 883,544 713,544 Z M 273,52 C 186,52 124,140 124,265 C 124,390 186,478 273,478 C 349,478 409,419 438,265 C 419,111 349,52 273,52 Z M 713,52 C 637,52 577,111 548,265 C 567,419 637,478 713,478 C 800,478 862,390 862,265 C 862,140 800,52 713,52 Z "/>
</svg>
