<svg xmlns="http://www.w3.org/2000/svg" viewBox="0 -970 737 1200">
  <path transform="scale(1,-1)" d="M 321,770 C 330,770 341,767 365,759 C 392,750 408,746 427,746 C 459,746 479,761 479,817 L 441,817 C 441,802 435,797 425,797 C 416,797 405,800 381,808 C 354,817 338,821 319,821 C 287,821 267,806 267,750 L 305,750 C 305,765 311,770 321,770 Z M 373,704 C 163,704 47,556 47,345 C 47,135 163,-14 373,-14 C 583,-14 699,135 699,345 C 699,556 583,704 373,704 Z M 373,54 C 228,54 143,166 143,345 C 143,525 228,636 373,636 C 518,636 603,525 603,345 C 603,166 518,54 373,54 Z "/>
</svg>
