<svg xmlns="http://www.w3.org/2000/svg" viewBox="0 -970 627 1200">
  <path transform="scale(1,-1)" d="M 446,367 C 517,391 563,435 563,518 C 563,616 502,671 393,686 C 360,690 336,690 303,690 L 100,690 L 100,0 L 322,0 C 354,0 376,0 410,5 C 501,19 588,77 588,203 C 588,298 537,346 446,367 Z M 186,620 L 310,620 C 326,620 347,620 365,618 C 427,611 471,579 471,511 C 471,450 445,408 374,397 C 354,394 337,393 319,393 L 186,393 L 186,620 Z M 383,72 C 370,71 351,70 335,70 L 186,70 L 186,323 L 329,323 C 345,323 361,322 384,319 C 450,310 496,279 496,194 C 496,119 449,78 383,72 Z "/>
</svg>
