<svg xmlns="http://www.w3.org/2000/svg" viewBox="0 -970 592 1200">
  <path transform="scale(1,-1)" d="M 290,565 C 343,565 381,600 381,649 C 381,698 343,733 290,733 C 237,733 199,698 199,649 C 199,600 237,565 290,565 Z M 290,697 C 314,697 331,679 331,649 C 331,619 314,601 290,601 C 266,601 249,619 249,649 C 249,679 266,697 290,697 Z M 514,530 L 428,530 L 428,297 C 428,116 362,54 279,54 C 207,54 164,95 156,155 C 153,182 152,211 152,228 L 152,530 L 66,530 L 66,212 C 66,169 67,148 71,121 C 83,48 147,-14 257,-14 C 311,-14 350,-5 395,28 L 428,90 L 428,0 L 514,0 L 514,530 Z "/>
</svg>
