<svg xmlns="http://www.w3.org/2000/svg" viewBox="0 -970 740 1200">
  <path transform="scale(1,-1)" d="M 189,700 C 99,700 41,639 41,541 C 41,444 99,382 189,382 C 279,382 337,444 337,541 C 337,639 279,700 189,700 Z M 190,0 L 638,690 L 551,690 L 103,0 L 190,0 Z M 189,640 C 227,640 253,606 253,541 C 253,477 227,442 189,442 C 151,442 125,477 125,541 C 125,606 151,640 189,640 Z M 551,304 C 461,304 403,243 403,145 C 403,48 461,-14 551,-14 C 641,-14 699,48 699,145 C 699,243 641,304 551,304 Z M 551,244 C 589,244 615,210 615,145 C 615,81 589,46 551,46 C 513,46 487,81 487,145 C 487,210 513,244 551,244 Z "/>
</svg>
