<svg xmlns="http://www.w3.org/2000/svg" viewBox="0 -970 718 1200">
  <path transform="scale(1,-1)" d="M 316,821 C 284,821 264,806 264,750 L 302,750 C 302,765 308,770 318,770 C 327,770 338,767 362,759 C 389,750 405,746 424,746 C 456,746 476,761 476,817 L 438,817 C 438,802 432,797 422,797 C 413,797 402,800 378,808 C 351,817 335,821 316,821 Z M 640,0 L 638,690 L 554,690 L 554,345 C 554,264 555,165 557,84 L 232,690 L 100,690 L 100,0 L 186,0 L 186,345 C 186,426 185,525 183,606 L 508,0 L 640,0 Z "/>
</svg>
