<svg xmlns="http://www.w3.org/2000/svg" viewBox="0 -970 838 1200">
  <path transform="scale(1,-1)" d="M 793,688 L 752,729 L 672,649 C 605,708 517,744 419,744 C 204,744 36,570 36,355 C 36,259 70,171 126,103 L 45,22 L 86,-19 L 166,61 C 233,2 321,-34 419,-34 C 634,-34 802,140 802,355 C 802,451 768,539 712,607 L 793,688 Z M 98,355 C 98,537 238,686 419,686 C 500,686 573,656 629,606 L 169,146 C 124,203 98,276 98,355 Z M 419,24 C 338,24 265,54 209,104 L 669,564 C 714,507 740,434 740,355 C 740,172 600,24 419,24 Z "/>
</svg>
