<svg xmlns="http://www.w3.org/2000/svg" viewBox="0 -970 855 1200">
  <path transform="scale(1,-1)" d="M 779,415 C 767,488 713,544 618,544 C 571,544 533,535 506,513 L 459,445 C 439,503 387,544 306,544 C 259,544 221,535 194,513 L 160,453 L 160,530 L 74,530 L 74,0 L 160,0 L 160,262 C 160,423 209,476 276,476 C 336,476 374,447 382,387 C 385,360 386,331 386,284 L 386,0 L 472,0 L 472,262 C 472,423 521,476 588,476 C 648,476 686,447 694,387 C 697,360 698,331 698,284 L 698,0 L 784,0 L 784,324 C 784,367 783,388 779,415 Z "/>
</svg>
