<svg xmlns="http://www.w3.org/2000/svg" viewBox="0 -970 592 1200">
  <path transform="scale(1,-1)" d="M 514,0 L 514,530 L 428,530 L 428,297 C 428,116 362,54 279,54 C 207,54 164,95 156,155 C 153,182 152,211 152,228 L 152,530 L 66,530 L 66,212 C 66,169 67,148 71,121 C 83,48 147,-14 257,-14 C 311,-14 350,-5 395,28 L 428,90 L 428,11 C 369,-11 315,-62 315,-138 C 315,-201 353,-223 408,-223 C 441,-223 472,-215 497,-198 L 497,-149 C 479,-163 461,-169 441,-169 C 412,-169 397,-156 397,-119 C 397,-56 440,-9 491,0 L 514,0 Z "/>
</svg>
