<svg xmlns="http://www.w3.org/2000/svg" viewBox="0 -970 509 1200">
  <path transform="scale(1,-1)" d="M 419,102 C 418,119 418,136 418,152 L 418,735 C 378,748 329,754 267,754 C 148,754 82,701 71,604 C 69,586 68,560 68,540 L 68,526 L 21,526 L 21,460 L 68,460 L 68,0 L 154,0 L 154,460 L 263,460 L 263,526 L 154,526 L 154,548 C 154,563 155,588 157,602 C 164,651 195,688 263,688 C 289,688 312,686 332,682 L 332,149 C 332,120 332,97 333,79 C 336,12 373,-4 423,-4 C 443,-4 465,-3 484,0 L 484,63 C 437,57 421,68 419,102 Z "/>
</svg>
