<svg xmlns="http://www.w3.org/2000/svg" viewBox="0 -970 593 1200">
  <path transform="scale(1,-1)" d="M 253,620 C 262,620 273,617 297,609 C 324,600 340,596 359,596 C 391,596 411,611 411,667 L 373,667 C 373,652 367,647 357,647 C 348,647 337,650 313,658 C 286,667 270,671 251,671 C 219,671 199,656 199,600 L 237,600 C 237,615 243,620 253,620 Z M 520,389 C 512,482 447,544 331,544 C 277,544 238,535 193,500 L 160,439 L 160,530 L 74,530 L 74,0 L 160,0 L 160,233 C 160,414 230,476 313,476 C 395,476 429,430 434,368 C 436,341 436,319 436,292 L 436,0 L 522,0 L 522,298 C 522,341 522,362 520,389 Z "/>
</svg>
