<svg xmlns="http://www.w3.org/2000/svg" viewBox="0 -970 580 1200">
  <path transform="scale(1,-1)" d="M 404,365 C 468,388 518,442 518,518 C 518,632 431,704 296,704 C 161,704 74,632 74,518 C 74,443 119,388 181,364 C 107,341 44,276 44,193 C 44,42 159,-15 290,-15 C 411,-15 536,42 536,193 C 536,276 478,341 404,365 Z M 296,636 C 383,636 425,581 425,515 C 425,445 381,392 295,392 C 209,392 167,445 167,515 C 167,581 209,636 296,636 Z M 292,53 C 191,53 140,110 140,189 C 140,260 184,324 291,324 C 398,324 440,260 440,189 C 440,110 393,53 292,53 Z "/>
</svg>
