<svg xmlns="http://www.w3.org/2000/svg" viewBox="0 -970 580 1200">
  <path transform="scale(1,-1)" d="M 186,438 C 133,438 99,416 66,365 L 110,328 C 130,362 151,377 181,377 C 210,377 237,363 276,342 C 328,314 353,301 392,301 C 446,301 480,327 513,378 L 469,411 C 449,377 429,362 398,362 C 369,362 342,376 303,397 C 251,425 226,438 186,438 Z M 186,278 C 133,278 99,256 66,205 L 110,168 C 130,202 151,217 181,217 C 210,217 237,203 276,182 C 328,154 353,141 392,141 C 446,141 480,167 513,218 L 469,251 C 449,217 429,202 398,202 C 369,202 342,216 303,237 C 251,265 226,278 186,278 Z "/>
</svg>
