<svg xmlns="http://www.w3.org/2000/svg" viewBox="0 -970 531 1200">
  <path transform="scale(1,-1)" d="M 212,620 C 221,620 232,617 256,609 C 283,600 299,596 318,596 C 350,596 370,611 370,667 L 332,667 C 332,652 326,647 316,647 C 307,647 296,650 272,658 C 245,667 229,671 210,671 C 178,671 158,656 158,600 L 196,600 C 196,615 202,620 212,620 Z M 378,0 L 464,0 C 456,59 454,95 454,135 L 454,334 C 454,357 453,383 451,404 C 442,491 389,544 263,544 C 146,544 67,479 59,366 L 149,366 C 155,439 191,478 263,478 C 334,478 362,446 366,397 C 368,377 368,356 368,333 L 368,319 L 334,319 C 126,319 36,257 36,137 C 36,39 111,-14 207,-14 C 258,-14 304,-6 340,19 L 369,76 L 378,0 Z M 236,52 C 171,52 130,80 130,144 C 130,235 222,266 368,255 L 368,201 C 368,105 316,52 236,52 Z "/>
</svg>
