<svg xmlns="http://www.w3.org/2000/svg" viewBox="0 -970 682 1200">
  <path transform="scale(1,-1)" d="M 353,874 C 300,874 262,841 262,795 C 262,749 300,716 353,716 C 406,716 444,749 444,795 C 444,841 406,874 353,874 Z M 353,838 C 377,838 394,820 394,795 C 394,770 377,752 353,752 C 329,752 312,770 312,795 C 312,820 329,838 353,838 Z M 612,690 L 526,690 L 526,263 C 526,241 526,220 524,202 C 516,115 459,54 353,54 C 247,54 190,115 182,202 C 180,220 180,241 180,263 L 180,690 L 94,690 L 94,255 C 94,233 94,213 96,193 C 106,78 184,-14 353,-14 C 522,-14 600,78 610,193 C 612,213 612,233 612,255 L 612,690 Z "/>
</svg>
