<svg xmlns="http://www.w3.org/2000/svg" viewBox="0 -970 580 1200">
  <path transform="scale(1,-1)" d="M 470,301 C 470,340 458,377 436,406 L 497,467 L 456,508 L 395,447 C 366,469 329,481 290,481 C 251,481 215,469 185,448 L 125,508 L 84,467 L 144,407 C 123,377 110,341 110,301 C 110,262 122,225 144,196 L 84,137 L 125,96 L 185,155 C 214,133 250,121 290,121 C 330,121 366,134 396,155 L 456,95 L 497,136 L 437,196 C 458,226 470,262 470,301 Z M 290,179 C 223,179 172,230 172,301 C 172,372 223,423 290,423 C 357,423 408,372 408,301 C 408,230 357,179 290,179 Z "/>
</svg>
