<svg xmlns="http://www.w3.org/2000/svg" viewBox="0 -970 303 1200">
  <path transform="scale(1,-1)" d="M 239,378 C 179,384 157,411 157,455 C 157,483 160,510 168,565 C 178,636 180,653 180,674 C 180,756 130,780 44,780 L 33,780 L 33,724 L 45,724 C 104,724 122,706 122,675 C 122,652 120,639 111,575 C 101,505 98,483 98,452 C 98,394 131,356 185,349 C 130,342 98,306 98,248 C 98,217 101,195 111,125 C 120,61 122,48 122,25 C 122,-6 104,-24 45,-24 L 33,-24 L 33,-80 L 44,-80 C 130,-80 180,-56 180,26 C 180,47 178,64 168,135 C 160,190 157,217 157,245 C 157,289 179,316 239,322 L 239,378 Z "/>
</svg>
