<svg xmlns="http://www.w3.org/2000/svg" viewBox="0 -970 585 1200">
  <path transform="scale(1,-1)" d="M 314,704 C 187,704 84,629 84,510 C 84,396 169,347 291,319 C 412,291 460,253 460,169 C 460,97 396,54 317,54 C 227,54 164,105 144,196 L 52,196 C 67,63 163,-14 315,-14 C 448,-14 552,64 552,185 C 552,302 476,364 324,399 C 219,423 176,455 176,530 C 176,602 234,636 307,636 C 394,636 445,586 453,499 L 545,499 C 532,617 457,704 314,704 Z M 348,-63 L 348,-51 L 279,-51 L 227,-195 L 288,-195 L 348,-63 Z "/>
</svg>
