<svg xmlns="http://www.w3.org/2000/svg" viewBox="0 -970 459 1200">
  <path transform="scale(1,-1)" d="M 262,580 L 329,690 L 266,690 L 233,627 L 200,690 L 136,690 L 203,580 L 262,580 Z M 249,306 C 177,325 133,346 133,399 C 133,445 161,478 221,478 C 283,478 321,441 333,379 L 423,379 C 412,476 347,544 228,544 C 119,544 45,486 45,389 C 45,296 121,257 216,231 C 305,207 341,180 341,129 C 341,78 295,52 238,52 C 177,52 128,79 114,156 L 24,156 C 40,36 123,-14 232,-14 C 344,-14 429,36 429,136 C 429,226 371,274 249,306 Z "/>
</svg>
