<svg xmlns="http://www.w3.org/2000/svg" viewBox="0 -970 508 1200">
  <path transform="scale(1,-1)" d="M 254,764 C 131,764 44,677 44,554 C 44,431 131,344 254,344 C 377,344 464,431 464,554 C 464,677 377,764 254,764 Z M 254,390 C 159,390 92,458 92,554 C 92,650 159,718 254,718 C 349,718 416,650 416,554 C 416,458 349,390 254,390 Z M 300,553 C 324,561 343,577 343,603 C 343,638 315,654 276,658 C 267,659 259,659 249,659 L 179,659 L 179,455 L 229,455 L 229,523 L 252,523 C 267,523 279,518 281,500 C 283,481 285,467 288,455 L 345,455 C 340,466 335,482 332,509 C 330,531 322,549 300,553 Z M 268,566 C 262,565 258,565 249,565 L 229,565 L 229,618 L 249,618 C 258,618 262,618 268,617 C 280,614 288,608 288,592 C 288,577 282,569 268,566 Z "/>
</svg>
