<svg xmlns="http://www.w3.org/2000/svg" viewBox="0 -970 585 1200">
  <path transform="scale(1,-1)" d="M 483,662 L 463,714 L 396,687 C 368,709 334,729 295,745 L 241,690 C 269,680 294,668 317,654 L 208,609 L 228,557 L 366,614 C 406,573 429,521 434,455 L 389,515 C 352,537 321,544 272,544 C 145,544 30,437 30,257 C 30,102 112,-14 277,-14 C 414,-14 538,74 538,307 C 538,455 510,565 441,645 L 483,662 Z M 444,260 C 444,117 371,52 283,52 C 177,52 124,135 124,267 C 124,392 189,478 282,478 C 358,478 444,426 444,289 L 444,260 Z "/>
</svg>
