<svg xmlns="http://www.w3.org/2000/svg" viewBox="0 -970 838 1200">
  <path transform="scale(1,-1)" d="M 419,744 C 204,744 36,575 36,355 C 36,135 204,-34 419,-34 C 634,-34 802,135 802,355 C 802,575 634,744 419,744 Z M 419,686 C 600,686 740,542 740,355 C 740,167 600,24 419,24 C 238,24 98,167 98,355 C 98,542 238,686 419,686 Z M 425,586 C 296,586 209,497 209,353 C 209,215 294,124 416,124 C 536,124 599,191 622,285 L 530,285 C 522,234 483,192 425,192 C 352,192 305,256 305,356 C 305,454 347,518 425,518 C 491,518 521,477 531,425 L 623,425 C 604,520 534,586 425,586 Z "/>
</svg>
