<svg xmlns="http://www.w3.org/2000/svg" viewBox="0 -970 513 1200">
  <path transform="scale(1,-1)" d="M 184,583 C 209,583 230,604 230,629 C 230,654 209,675 184,675 C 159,675 138,654 138,629 C 138,604 159,583 184,583 Z M 330,583 C 355,583 376,604 376,629 C 376,654 355,675 330,675 C 305,675 284,654 284,629 C 284,604 305,583 330,583 Z M 507,530 L 413,530 L 256,64 L 98,530 L 1,530 L 212,-27 L 205,-46 C 178,-116 143,-139 90,-139 C 81,-139 72,-139 59,-138 L 59,-208 C 72,-210 84,-210 103,-210 C 189,-210 246,-157 289,-45 L 507,530 Z "/>
</svg>
