<svg xmlns="http://www.w3.org/2000/svg" viewBox="0 -970 737 1200">
  <path transform="scale(1,-1)" d="M 303,737 C 328,737 349,758 349,783 C 349,808 328,829 303,829 C 278,829 257,808 257,783 C 257,758 278,737 303,737 Z M 443,737 C 468,737 489,758 489,783 C 489,808 468,829 443,829 C 418,829 397,808 397,783 C 397,758 418,737 443,737 Z M 373,704 C 163,704 47,556 47,345 C 47,135 163,-14 373,-14 C 583,-14 699,135 699,345 C 699,556 583,704 373,704 Z M 373,54 C 228,54 143,166 143,345 C 143,525 228,636 373,636 C 518,636 603,525 603,345 C 603,166 518,54 373,54 Z "/>
</svg>
