<svg xmlns="http://www.w3.org/2000/svg" viewBox="0 -970 459 1200">
  <path transform="scale(1,-1)" d="M 429,136 C 429,226 371,274 249,306 C 177,325 133,346 133,399 C 133,445 161,478 221,478 C 283,478 321,441 333,379 L 423,379 C 412,476 347,544 228,544 C 119,544 45,486 45,389 C 45,296 121,257 216,231 C 305,207 341,180 341,129 C 341,78 295,52 238,52 C 177,52 128,79 114,156 L 24,156 C 39,44 112,-7 210,-13 L 175,-78 C 244,-73 271,-90 271,-124 C 271,-151 250,-168 209,-168 C 188,-168 171,-165 156,-157 L 156,-201 C 170,-207 188,-210 206,-210 C 279,-210 329,-179 329,-123 C 329,-76 301,-47 248,-40 L 263,-13 C 359,-4 429,45 429,136 Z "/>
</svg>
